<svg width="680" height="406" viewBox="0 0 680 406" fill="none" xmlns="http://www.w3.org/2000/svg">
<line x1="0.25" y1="35.25" x2="0.25" y2="405.75" stroke="#7B9FFF" stroke-width="0.5" stroke-linecap="round" stroke-dasharray="3.59 3.59"/>
<line x1="151.25" y1="47.25" x2="151.25" y2="405.75" stroke="#C8C8C8" stroke-width="0.5" stroke-linecap="round" stroke-dasharray="3.59 3.59"/>
<line x1="302.25" y1="47.25" x2="302.25" y2="405.75" stroke="#C8C8C8" stroke-width="0.5" stroke-linecap="round" stroke-dasharray="3.59 3.59"/>
<line x1="604.25" y1="47.25" x2="604.25" y2="405.75" stroke="#C8C8C8" stroke-width="0.5" stroke-linecap="round" stroke-dasharray="3.59 3.59"/>
<line x1="75.25" y1="47.25" x2="75.25" y2="405.75" stroke="#C8C8C8" stroke-width="0.5" stroke-linecap="round" stroke-dasharray="3.59 3.59"/>
<line x1="227.25" y1="35.25" x2="227.25" y2="405.75" stroke="#7B9FFF" stroke-width="0.5" stroke-linecap="round" stroke-dasharray="3.59 3.59"/>
<line x1="377.25" y1="47.25" x2="377.25" y2="405.75" stroke="#C8C8C8" stroke-width="0.5" stroke-linecap="round" stroke-dasharray="3.59 3.59"/>
<line x1="453.25" y1="47.25" x2="453.25" y2="405.75" stroke="#C8C8C8" stroke-width="0.5" stroke-linecap="round" stroke-dasharray="3.59 3.59"/>
<line x1="529.25" y1="35.25" x2="529.25" y2="405.75" stroke="#7B9FFF" stroke-width="0.5" stroke-linecap="round" stroke-dasharray="3.59 3.59"/>
<line x1="679.25" y1="35.25" x2="679.25" y2="405.75" stroke="#7B9FFF" stroke-width="0.5" stroke-linecap="round" stroke-dasharray="3.59 3.59"/>
<path d="M88.0568 18.2727V6.27273H90.0795V7.71591H90.1989C90.3049 7.50379 90.4545 7.27841 90.6477 7.03977C90.8409 6.79735 91.1023 6.59091 91.4318 6.42045C91.7614 6.24621 92.1818 6.15909 92.6932 6.15909C93.3674 6.15909 93.9754 6.33144 94.517 6.67614C95.0625 7.01705 95.4943 7.52273 95.8125 8.19318C96.1345 8.85985 96.2955 9.67803 96.2955 10.6477C96.2955 11.6061 96.1383 12.4205 95.8239 13.0909C95.5095 13.7614 95.0814 14.2727 94.5398 14.625C93.9981 14.9773 93.3845 15.1534 92.6989 15.1534C92.1989 15.1534 91.7841 15.0701 91.4545 14.9034C91.125 14.7367 90.8598 14.536 90.6591 14.3011C90.4621 14.0625 90.3087 13.8371 90.1989 13.625H90.1136V18.2727H88.0568ZM90.0739 10.6364C90.0739 11.2008 90.1534 11.6951 90.3125 12.1193C90.4754 12.5436 90.7083 12.875 91.0114 13.1136C91.3182 13.3485 91.6894 13.4659 92.125 13.4659C92.5795 13.4659 92.9602 13.3447 93.267 13.1023C93.5739 12.8561 93.8049 12.5208 93.9602 12.0966C94.1193 11.6686 94.1989 11.1818 94.1989 10.6364C94.1989 10.0947 94.1212 9.61364 93.9659 9.19318C93.8106 8.77273 93.5795 8.44318 93.2727 8.20455C92.9659 7.96591 92.5833 7.84659 92.125 7.84659C91.6856 7.84659 91.3125 7.96212 91.0057 8.19318C90.6989 8.42424 90.4659 8.74811 90.3068 9.16477C90.1515 9.58144 90.0739 10.072 90.0739 10.6364ZM100.114 9.88636V15H98.0568V3.36364H100.068V7.75568H100.17C100.375 7.26326 100.691 6.875 101.119 6.59091C101.551 6.30303 102.1 6.15909 102.767 6.15909C103.373 6.15909 103.902 6.28598 104.352 6.53977C104.803 6.79356 105.152 7.16477 105.398 7.65341C105.648 8.14205 105.773 8.73864 105.773 9.44318V15H103.716V9.76136C103.716 9.17424 103.564 8.7178 103.261 8.39205C102.962 8.0625 102.542 7.89773 102 7.89773C101.636 7.89773 101.311 7.97727 101.023 8.13636C100.739 8.29167 100.515 8.51705 100.352 8.8125C100.193 9.10795 100.114 9.46591 100.114 9.88636ZM110.381 15.1761C109.828 15.1761 109.33 15.0777 108.886 14.8807C108.447 14.6799 108.098 14.3845 107.841 13.9943C107.587 13.6042 107.46 13.1231 107.46 12.5511C107.46 12.0587 107.551 11.6515 107.733 11.3295C107.915 11.0076 108.163 10.75 108.477 10.5568C108.792 10.3636 109.146 10.2178 109.54 10.1193C109.938 10.017 110.348 9.94318 110.773 9.89773C111.284 9.8447 111.699 9.79735 112.017 9.75568C112.335 9.71023 112.566 9.64205 112.71 9.55114C112.858 9.45644 112.932 9.31061 112.932 9.11364V9.07955C112.932 8.65152 112.805 8.32008 112.551 8.08523C112.297 7.85038 111.932 7.73295 111.455 7.73295C110.951 7.73295 110.551 7.8428 110.256 8.0625C109.964 8.2822 109.767 8.54167 109.665 8.84091L107.744 8.56818C107.896 8.03788 108.146 7.5947 108.494 7.23864C108.843 6.87879 109.269 6.60985 109.773 6.43182C110.277 6.25 110.833 6.15909 111.443 6.15909C111.864 6.15909 112.282 6.20833 112.699 6.30682C113.116 6.4053 113.496 6.56818 113.841 6.79545C114.186 7.01894 114.462 7.32386 114.67 7.71023C114.883 8.09659 114.989 8.57955 114.989 9.15909V15H113.011V13.8011H112.943C112.818 14.0436 112.642 14.2708 112.415 14.483C112.191 14.6913 111.909 14.8598 111.568 14.9886C111.231 15.1136 110.835 15.1761 110.381 15.1761ZM110.915 13.6648C111.328 13.6648 111.686 13.5833 111.989 13.4205C112.292 13.2538 112.525 13.0341 112.688 12.7614C112.854 12.4886 112.938 12.1913 112.938 11.8693V10.8409C112.873 10.8939 112.763 10.9432 112.608 10.9886C112.456 11.0341 112.286 11.0739 112.097 11.108C111.907 11.142 111.72 11.1723 111.534 11.1989C111.348 11.2254 111.188 11.2481 111.051 11.267C110.744 11.3087 110.47 11.3769 110.227 11.4716C109.985 11.5663 109.794 11.6989 109.653 11.8693C109.513 12.036 109.443 12.2519 109.443 12.517C109.443 12.8958 109.581 13.1818 109.858 13.375C110.134 13.5682 110.487 13.6648 110.915 13.6648ZM123.955 8.57955L122.08 8.78409C122.027 8.5947 121.934 8.41667 121.801 8.25C121.672 8.08333 121.498 7.94886 121.278 7.84659C121.059 7.74432 120.79 7.69318 120.472 7.69318C120.044 7.69318 119.684 7.78598 119.392 7.97159C119.104 8.1572 118.962 8.39773 118.966 8.69318C118.962 8.94697 119.055 9.15341 119.244 9.3125C119.438 9.47159 119.756 9.60227 120.199 9.70455L121.688 10.0227C122.513 10.2008 123.127 10.483 123.528 10.8693C123.934 11.2557 124.138 11.7614 124.142 12.3864C124.138 12.9356 123.977 13.4205 123.659 13.8409C123.345 14.2576 122.907 14.5833 122.347 14.8182C121.786 15.053 121.142 15.1705 120.415 15.1705C119.347 15.1705 118.487 14.947 117.835 14.5C117.184 14.0492 116.795 13.4223 116.67 12.6193L118.676 12.4261C118.767 12.8201 118.96 13.1174 119.256 13.3182C119.551 13.5189 119.936 13.6193 120.409 13.6193C120.898 13.6193 121.29 13.5189 121.585 13.3182C121.884 13.1174 122.034 12.8693 122.034 12.5739C122.034 12.3239 121.938 12.1174 121.744 11.9545C121.555 11.7917 121.259 11.6667 120.858 11.5795L119.369 11.267C118.532 11.0928 117.913 10.7992 117.511 10.3864C117.11 9.9697 116.911 9.44318 116.915 8.80682C116.911 8.26894 117.057 7.80303 117.352 7.40909C117.652 7.01136 118.066 6.70455 118.597 6.48864C119.131 6.26894 119.746 6.15909 120.443 6.15909C121.466 6.15909 122.271 6.37689 122.858 6.8125C123.449 7.24811 123.814 7.83712 123.955 8.57955ZM129.702 15.1705C128.827 15.1705 128.071 14.9886 127.435 14.625C126.802 14.2576 126.315 13.7386 125.974 13.0682C125.634 12.3939 125.463 11.6004 125.463 10.6875C125.463 9.78977 125.634 9.00189 125.974 8.32386C126.319 7.64205 126.8 7.11174 127.418 6.73295C128.035 6.35038 128.76 6.15909 129.594 6.15909C130.132 6.15909 130.639 6.24621 131.116 6.42045C131.598 6.59091 132.022 6.85606 132.389 7.21591C132.76 7.57576 133.052 8.03409 133.264 8.59091C133.476 9.14394 133.582 9.80303 133.582 10.5682V11.1989H126.429V9.8125H131.611C131.607 9.41856 131.522 9.06818 131.355 8.76136C131.188 8.45076 130.955 8.20644 130.656 8.02841C130.361 7.85038 130.016 7.76136 129.622 7.76136C129.202 7.76136 128.832 7.86364 128.514 8.06818C128.196 8.26894 127.948 8.53409 127.77 8.86364C127.596 9.18939 127.507 9.54735 127.503 9.9375V11.1477C127.503 11.6553 127.596 12.0909 127.781 12.4545C127.967 12.8144 128.226 13.0909 128.56 13.2841C128.893 13.4735 129.283 13.5682 129.73 13.5682C130.029 13.5682 130.3 13.5265 130.543 13.4432C130.785 13.3561 130.995 13.2292 131.173 13.0625C131.351 12.8958 131.486 12.6894 131.577 12.4432L133.497 12.6591C133.376 13.1667 133.145 13.6098 132.804 13.9886C132.467 14.3636 132.035 14.6553 131.509 14.8636C130.982 15.0682 130.38 15.1705 129.702 15.1705ZM144.001 3.36364V15H141.893V5.41477H141.825L139.104 7.15341V5.22159L141.996 3.36364H144.001Z" fill="#04257E"/>
<path d="M351.057 18.2727V6.27273H353.08V7.71591H353.199C353.305 7.50379 353.455 7.27841 353.648 7.03977C353.841 6.79735 354.102 6.59091 354.432 6.42045C354.761 6.24621 355.182 6.15909 355.693 6.15909C356.367 6.15909 356.975 6.33144 357.517 6.67614C358.063 7.01705 358.494 7.52273 358.812 8.19318C359.134 8.85985 359.295 9.67803 359.295 10.6477C359.295 11.6061 359.138 12.4205 358.824 13.0909C358.509 13.7614 358.081 14.2727 357.54 14.625C356.998 14.9773 356.384 15.1534 355.699 15.1534C355.199 15.1534 354.784 15.0701 354.455 14.9034C354.125 14.7367 353.86 14.536 353.659 14.3011C353.462 14.0625 353.309 13.8371 353.199 13.625H353.114V18.2727H351.057ZM353.074 10.6364C353.074 11.2008 353.153 11.6951 353.312 12.1193C353.475 12.5436 353.708 12.875 354.011 13.1136C354.318 13.3485 354.689 13.4659 355.125 13.4659C355.58 13.4659 355.96 13.3447 356.267 13.1023C356.574 12.8561 356.805 12.5208 356.96 12.0966C357.119 11.6686 357.199 11.1818 357.199 10.6364C357.199 10.0947 357.121 9.61364 356.966 9.19318C356.811 8.77273 356.58 8.44318 356.273 8.20455C355.966 7.96591 355.583 7.84659 355.125 7.84659C354.686 7.84659 354.312 7.96212 354.006 8.19318C353.699 8.42424 353.466 8.74811 353.307 9.16477C353.152 9.58144 353.074 10.072 353.074 10.6364ZM363.114 9.88636V15H361.057V3.36364H363.068V7.75568H363.17C363.375 7.26326 363.691 6.875 364.119 6.59091C364.551 6.30303 365.1 6.15909 365.767 6.15909C366.373 6.15909 366.902 6.28598 367.352 6.53977C367.803 6.79356 368.152 7.16477 368.398 7.65341C368.648 8.14205 368.773 8.73864 368.773 9.44318V15H366.716V9.76136C366.716 9.17424 366.564 8.7178 366.261 8.39205C365.962 8.0625 365.542 7.89773 365 7.89773C364.636 7.89773 364.311 7.97727 364.023 8.13636C363.739 8.29167 363.515 8.51705 363.352 8.8125C363.193 9.10795 363.114 9.46591 363.114 9.88636ZM373.381 15.1761C372.828 15.1761 372.33 15.0777 371.886 14.8807C371.447 14.6799 371.098 14.3845 370.841 13.9943C370.587 13.6042 370.46 13.1231 370.46 12.5511C370.46 12.0587 370.551 11.6515 370.733 11.3295C370.915 11.0076 371.163 10.75 371.477 10.5568C371.792 10.3636 372.146 10.2178 372.54 10.1193C372.938 10.017 373.348 9.94318 373.773 9.89773C374.284 9.8447 374.699 9.79735 375.017 9.75568C375.335 9.71023 375.566 9.64205 375.71 9.55114C375.858 9.45644 375.932 9.31061 375.932 9.11364V9.07955C375.932 8.65152 375.805 8.32008 375.551 8.08523C375.297 7.85038 374.932 7.73295 374.455 7.73295C373.951 7.73295 373.551 7.8428 373.256 8.0625C372.964 8.2822 372.767 8.54167 372.665 8.84091L370.744 8.56818C370.896 8.03788 371.146 7.5947 371.494 7.23864C371.843 6.87879 372.269 6.60985 372.773 6.43182C373.277 6.25 373.833 6.15909 374.443 6.15909C374.864 6.15909 375.282 6.20833 375.699 6.30682C376.116 6.4053 376.496 6.56818 376.841 6.79545C377.186 7.01894 377.462 7.32386 377.67 7.71023C377.883 8.09659 377.989 8.57955 377.989 9.15909V15H376.011V13.8011H375.943C375.818 14.0436 375.642 14.2708 375.415 14.483C375.191 14.6913 374.909 14.8598 374.568 14.9886C374.231 15.1136 373.835 15.1761 373.381 15.1761ZM373.915 13.6648C374.328 13.6648 374.686 13.5833 374.989 13.4205C375.292 13.2538 375.525 13.0341 375.688 12.7614C375.854 12.4886 375.938 12.1913 375.938 11.8693V10.8409C375.873 10.8939 375.763 10.9432 375.608 10.9886C375.456 11.0341 375.286 11.0739 375.097 11.108C374.907 11.142 374.72 11.1723 374.534 11.1989C374.348 11.2254 374.188 11.2481 374.051 11.267C373.744 11.3087 373.47 11.3769 373.227 11.4716C372.985 11.5663 372.794 11.6989 372.653 11.8693C372.513 12.036 372.443 12.2519 372.443 12.517C372.443 12.8958 372.581 13.1818 372.858 13.375C373.134 13.5682 373.487 13.6648 373.915 13.6648ZM386.955 8.57955L385.08 8.78409C385.027 8.5947 384.934 8.41667 384.801 8.25C384.672 8.08333 384.498 7.94886 384.278 7.84659C384.059 7.74432 383.79 7.69318 383.472 7.69318C383.044 7.69318 382.684 7.78598 382.392 7.97159C382.104 8.1572 381.962 8.39773 381.966 8.69318C381.962 8.94697 382.055 9.15341 382.244 9.3125C382.438 9.47159 382.756 9.60227 383.199 9.70455L384.688 10.0227C385.513 10.2008 386.127 10.483 386.528 10.8693C386.934 11.2557 387.138 11.7614 387.142 12.3864C387.138 12.9356 386.977 13.4205 386.659 13.8409C386.345 14.2576 385.907 14.5833 385.347 14.8182C384.786 15.053 384.142 15.1705 383.415 15.1705C382.347 15.1705 381.487 14.947 380.835 14.5C380.184 14.0492 379.795 13.4223 379.67 12.6193L381.676 12.4261C381.767 12.8201 381.96 13.1174 382.256 13.3182C382.551 13.5189 382.936 13.6193 383.409 13.6193C383.898 13.6193 384.29 13.5189 384.585 13.3182C384.884 13.1174 385.034 12.8693 385.034 12.5739C385.034 12.3239 384.938 12.1174 384.744 11.9545C384.555 11.7917 384.259 11.6667 383.858 11.5795L382.369 11.267C381.532 11.0928 380.913 10.7992 380.511 10.3864C380.11 9.9697 379.911 9.44318 379.915 8.80682C379.911 8.26894 380.057 7.80303 380.352 7.40909C380.652 7.01136 381.066 6.70455 381.597 6.48864C382.131 6.26894 382.746 6.15909 383.443 6.15909C384.466 6.15909 385.271 6.37689 385.858 6.8125C386.449 7.24811 386.814 7.83712 386.955 8.57955ZM392.702 15.1705C391.827 15.1705 391.071 14.9886 390.435 14.625C389.802 14.2576 389.315 13.7386 388.974 13.0682C388.634 12.3939 388.463 11.6004 388.463 10.6875C388.463 9.78977 388.634 9.00189 388.974 8.32386C389.319 7.64205 389.8 7.11174 390.418 6.73295C391.035 6.35038 391.76 6.15909 392.594 6.15909C393.132 6.15909 393.639 6.24621 394.116 6.42045C394.598 6.59091 395.022 6.85606 395.389 7.21591C395.76 7.57576 396.052 8.03409 396.264 8.59091C396.476 9.14394 396.582 9.80303 396.582 10.5682V11.1989H389.429V9.8125H394.611C394.607 9.41856 394.522 9.06818 394.355 8.76136C394.188 8.45076 393.955 8.20644 393.656 8.02841C393.361 7.85038 393.016 7.76136 392.622 7.76136C392.202 7.76136 391.832 7.86364 391.514 8.06818C391.196 8.26894 390.948 8.53409 390.77 8.86364C390.596 9.18939 390.507 9.54735 390.503 9.9375V11.1477C390.503 11.6553 390.596 12.0909 390.781 12.4545C390.967 12.8144 391.226 13.0909 391.56 13.2841C391.893 13.4735 392.283 13.5682 392.73 13.5682C393.029 13.5682 393.3 13.5265 393.543 13.4432C393.785 13.3561 393.995 13.2292 394.173 13.0625C394.351 12.8958 394.486 12.6894 394.577 12.4432L396.497 12.6591C396.376 13.1667 396.145 13.6098 395.804 13.9886C395.467 14.3636 395.035 14.6553 394.509 14.8636C393.982 15.0682 393.38 15.1705 392.702 15.1705ZM402.268 15V13.4773L406.308 9.51705C406.695 9.12689 407.017 8.7803 407.274 8.47727C407.532 8.17424 407.725 7.88068 407.854 7.59659C407.982 7.3125 408.047 7.00947 408.047 6.6875C408.047 6.32008 407.964 6.00568 407.797 5.74432C407.63 5.47917 407.401 5.27462 407.109 5.13068C406.818 4.98674 406.486 4.91477 406.115 4.91477C405.732 4.91477 405.397 4.99432 405.109 5.15341C404.821 5.30871 404.598 5.5303 404.439 5.81818C404.284 6.10606 404.206 6.44886 404.206 6.84659H402.2C402.2 6.10795 402.369 5.46591 402.706 4.92045C403.043 4.375 403.507 3.95265 404.098 3.65341C404.693 3.35417 405.375 3.20455 406.143 3.20455C406.924 3.20455 407.609 3.35038 408.2 3.64205C408.791 3.93371 409.25 4.33333 409.575 4.84091C409.905 5.34848 410.07 5.92803 410.07 6.57955C410.07 7.01515 409.986 7.44318 409.82 7.86364C409.653 8.28409 409.359 8.75 408.939 9.26136C408.522 9.77273 407.937 10.392 407.183 11.1193L405.178 13.1591V13.2386H410.246V15H402.268Z" fill="#04257E"/>
<path d="M577.057 18.2727V6.27273H579.08V7.71591H579.199C579.305 7.50379 579.455 7.27841 579.648 7.03977C579.841 6.79735 580.102 6.59091 580.432 6.42045C580.761 6.24621 581.182 6.15909 581.693 6.15909C582.367 6.15909 582.975 6.33144 583.517 6.67614C584.063 7.01705 584.494 7.52273 584.812 8.19318C585.134 8.85985 585.295 9.67803 585.295 10.6477C585.295 11.6061 585.138 12.4205 584.824 13.0909C584.509 13.7614 584.081 14.2727 583.54 14.625C582.998 14.9773 582.384 15.1534 581.699 15.1534C581.199 15.1534 580.784 15.0701 580.455 14.9034C580.125 14.7367 579.86 14.536 579.659 14.3011C579.462 14.0625 579.309 13.8371 579.199 13.625H579.114V18.2727H577.057ZM579.074 10.6364C579.074 11.2008 579.153 11.6951 579.312 12.1193C579.475 12.5436 579.708 12.875 580.011 13.1136C580.318 13.3485 580.689 13.4659 581.125 13.4659C581.58 13.4659 581.96 13.3447 582.267 13.1023C582.574 12.8561 582.805 12.5208 582.96 12.0966C583.119 11.6686 583.199 11.1818 583.199 10.6364C583.199 10.0947 583.121 9.61364 582.966 9.19318C582.811 8.77273 582.58 8.44318 582.273 8.20455C581.966 7.96591 581.583 7.84659 581.125 7.84659C580.686 7.84659 580.312 7.96212 580.006 8.19318C579.699 8.42424 579.466 8.74811 579.307 9.16477C579.152 9.58144 579.074 10.072 579.074 10.6364ZM589.114 9.88636V15H587.057V3.36364H589.068V7.75568H589.17C589.375 7.26326 589.691 6.875 590.119 6.59091C590.551 6.30303 591.1 6.15909 591.767 6.15909C592.373 6.15909 592.902 6.28598 593.352 6.53977C593.803 6.79356 594.152 7.16477 594.398 7.65341C594.648 8.14205 594.773 8.73864 594.773 9.44318V15H592.716V9.76136C592.716 9.17424 592.564 8.7178 592.261 8.39205C591.962 8.0625 591.542 7.89773 591 7.89773C590.636 7.89773 590.311 7.97727 590.023 8.13636C589.739 8.29167 589.515 8.51705 589.352 8.8125C589.193 9.10795 589.114 9.46591 589.114 9.88636ZM599.381 15.1761C598.828 15.1761 598.33 15.0777 597.886 14.8807C597.447 14.6799 597.098 14.3845 596.841 13.9943C596.587 13.6042 596.46 13.1231 596.46 12.5511C596.46 12.0587 596.551 11.6515 596.733 11.3295C596.915 11.0076 597.163 10.75 597.477 10.5568C597.792 10.3636 598.146 10.2178 598.54 10.1193C598.938 10.017 599.348 9.94318 599.773 9.89773C600.284 9.8447 600.699 9.79735 601.017 9.75568C601.335 9.71023 601.566 9.64205 601.71 9.55114C601.858 9.45644 601.932 9.31061 601.932 9.11364V9.07955C601.932 8.65152 601.805 8.32008 601.551 8.08523C601.297 7.85038 600.932 7.73295 600.455 7.73295C599.951 7.73295 599.551 7.8428 599.256 8.0625C598.964 8.2822 598.767 8.54167 598.665 8.84091L596.744 8.56818C596.896 8.03788 597.146 7.5947 597.494 7.23864C597.843 6.87879 598.269 6.60985 598.773 6.43182C599.277 6.25 599.833 6.15909 600.443 6.15909C600.864 6.15909 601.282 6.20833 601.699 6.30682C602.116 6.4053 602.496 6.56818 602.841 6.79545C603.186 7.01894 603.462 7.32386 603.67 7.71023C603.883 8.09659 603.989 8.57955 603.989 9.15909V15H602.011V13.8011H601.943C601.818 14.0436 601.642 14.2708 601.415 14.483C601.191 14.6913 600.909 14.8598 600.568 14.9886C600.231 15.1136 599.835 15.1761 599.381 15.1761ZM599.915 13.6648C600.328 13.6648 600.686 13.5833 600.989 13.4205C601.292 13.2538 601.525 13.0341 601.688 12.7614C601.854 12.4886 601.938 12.1913 601.938 11.8693V10.8409C601.873 10.8939 601.763 10.9432 601.608 10.9886C601.456 11.0341 601.286 11.0739 601.097 11.108C600.907 11.142 600.72 11.1723 600.534 11.1989C600.348 11.2254 600.188 11.2481 600.051 11.267C599.744 11.3087 599.47 11.3769 599.227 11.4716C598.985 11.5663 598.794 11.6989 598.653 11.8693C598.513 12.036 598.443 12.2519 598.443 12.517C598.443 12.8958 598.581 13.1818 598.858 13.375C599.134 13.5682 599.487 13.6648 599.915 13.6648ZM612.955 8.57955L611.08 8.78409C611.027 8.5947 610.934 8.41667 610.801 8.25C610.672 8.08333 610.498 7.94886 610.278 7.84659C610.059 7.74432 609.79 7.69318 609.472 7.69318C609.044 7.69318 608.684 7.78598 608.392 7.97159C608.104 8.1572 607.962 8.39773 607.966 8.69318C607.962 8.94697 608.055 9.15341 608.244 9.3125C608.438 9.47159 608.756 9.60227 609.199 9.70455L610.688 10.0227C611.513 10.2008 612.127 10.483 612.528 10.8693C612.934 11.2557 613.138 11.7614 613.142 12.3864C613.138 12.9356 612.977 13.4205 612.659 13.8409C612.345 14.2576 611.907 14.5833 611.347 14.8182C610.786 15.053 610.142 15.1705 609.415 15.1705C608.347 15.1705 607.487 14.947 606.835 14.5C606.184 14.0492 605.795 13.4223 605.67 12.6193L607.676 12.4261C607.767 12.8201 607.96 13.1174 608.256 13.3182C608.551 13.5189 608.936 13.6193 609.409 13.6193C609.898 13.6193 610.29 13.5189 610.585 13.3182C610.884 13.1174 611.034 12.8693 611.034 12.5739C611.034 12.3239 610.938 12.1174 610.744 11.9545C610.555 11.7917 610.259 11.6667 609.858 11.5795L608.369 11.267C607.532 11.0928 606.913 10.7992 606.511 10.3864C606.11 9.9697 605.911 9.44318 605.915 8.80682C605.911 8.26894 606.057 7.80303 606.352 7.40909C606.652 7.01136 607.066 6.70455 607.597 6.48864C608.131 6.26894 608.746 6.15909 609.443 6.15909C610.466 6.15909 611.271 6.37689 611.858 6.8125C612.449 7.24811 612.814 7.83712 612.955 8.57955ZM618.702 15.1705C617.827 15.1705 617.071 14.9886 616.435 14.625C615.802 14.2576 615.315 13.7386 614.974 13.0682C614.634 12.3939 614.463 11.6004 614.463 10.6875C614.463 9.78977 614.634 9.00189 614.974 8.32386C615.319 7.64205 615.8 7.11174 616.418 6.73295C617.035 6.35038 617.76 6.15909 618.594 6.15909C619.132 6.15909 619.639 6.24621 620.116 6.42045C620.598 6.59091 621.022 6.85606 621.389 7.21591C621.76 7.57576 622.052 8.03409 622.264 8.59091C622.476 9.14394 622.582 9.80303 622.582 10.5682V11.1989H615.429V9.8125H620.611C620.607 9.41856 620.522 9.06818 620.355 8.76136C620.188 8.45076 619.955 8.20644 619.656 8.02841C619.361 7.85038 619.016 7.76136 618.622 7.76136C618.202 7.76136 617.832 7.86364 617.514 8.06818C617.196 8.26894 616.948 8.53409 616.77 8.86364C616.596 9.18939 616.507 9.54735 616.503 9.9375V11.1477C616.503 11.6553 616.596 12.0909 616.781 12.4545C616.967 12.8144 617.226 13.0909 617.56 13.2841C617.893 13.4735 618.283 13.5682 618.73 13.5682C619.029 13.5682 619.3 13.5265 619.543 13.4432C619.785 13.3561 619.995 13.2292 620.173 13.0625C620.351 12.8958 620.486 12.6894 620.577 12.4432L622.497 12.6591C622.376 13.1667 622.145 13.6098 621.804 13.9886C621.467 14.3636 621.035 14.6553 620.509 14.8636C619.982 15.0682 619.38 15.1705 618.702 15.1705ZM632.445 15.1591C631.626 15.1591 630.899 15.0189 630.263 14.7386C629.63 14.4583 629.13 14.0682 628.763 13.5682C628.395 13.0682 628.2 12.4905 628.178 11.8352H630.314C630.333 12.1496 630.437 12.4242 630.626 12.6591C630.816 12.8902 631.068 13.0701 631.382 13.1989C631.696 13.3277 632.049 13.392 632.439 13.392C632.856 13.392 633.225 13.3201 633.547 13.1761C633.869 13.0284 634.121 12.8239 634.303 12.5625C634.484 12.3011 634.573 12 634.57 11.6591C634.573 11.3068 634.482 10.9962 634.297 10.7273C634.111 10.4583 633.842 10.2481 633.49 10.0966C633.142 9.94508 632.721 9.86932 632.229 9.86932H631.2V8.24432H632.229C632.634 8.24432 632.988 8.17424 633.291 8.03409C633.598 7.89394 633.839 7.69697 634.013 7.44318C634.187 7.18561 634.272 6.88826 634.268 6.55114C634.272 6.22159 634.198 5.93561 634.047 5.69318C633.899 5.44697 633.689 5.25568 633.416 5.11932C633.147 4.98295 632.831 4.91477 632.467 4.91477C632.111 4.91477 631.782 4.97917 631.479 5.10795C631.176 5.23674 630.931 5.42045 630.746 5.65909C630.56 5.89394 630.462 6.17424 630.45 6.5H628.422C628.437 5.84848 628.625 5.27652 628.984 4.78409C629.348 4.28788 629.833 3.90151 630.439 3.625C631.045 3.3447 631.725 3.20455 632.479 3.20455C633.255 3.20455 633.929 3.35038 634.501 3.64205C635.077 3.92992 635.522 4.31818 635.837 4.80682C636.151 5.29545 636.308 5.83523 636.308 6.42614C636.312 7.08144 636.119 7.63068 635.729 8.07386C635.342 8.51705 634.835 8.80682 634.206 8.94318V9.03409C635.024 9.14773 635.651 9.45076 636.087 9.94318C636.526 10.4318 636.744 11.0398 636.74 11.767C636.74 12.4186 636.554 13.0019 636.183 13.517C635.816 14.0284 635.308 14.4299 634.661 14.7216C634.017 15.0133 633.278 15.1591 632.445 15.1591Z" fill="#04257E"/>
</svg>
