<svg width="80" height="80" viewBox="0 0 80 80" fill="none" xmlns="http://www.w3.org/2000/svg">
<rect x="0.41671" y="0.397423" width="78.5611" height="78.5611" rx="13.825" fill="white"/>
<rect x="0.41671" y="0.397423" width="78.5611" height="78.5611" rx="13.825" stroke="#D9D9D9" stroke-width="0.438889"/>
<path d="M30.5626 37.8405C30.3612 37.5776 30.0638 37.4052 29.7356 37.3609C29.4074 37.3167 29.075 37.4043 28.8112 37.6046C28.656 37.727 28.5308 37.8832 28.4452 38.0613L17.6922 59.5735C17.5399 59.8784 17.5148 60.2312 17.6226 60.5545C17.7304 60.8778 17.9621 61.1451 18.2669 61.2976C18.445 61.3877 18.6419 61.4344 18.8416 61.4338H33.8233C34.0632 61.4399 34.2998 61.3759 34.5039 61.2497C34.7081 61.1234 34.871 60.9404 34.9727 60.7229C38.2061 54.0442 36.2461 43.8901 30.5626 37.8405Z" fill="url(#paint0_linear_2347_7707)"/>
<path d="M38.4658 18.2642C35.7852 22.3892 34.223 27.1403 33.9324 32.0512C33.6418 36.9621 34.6328 41.8642 36.8083 46.2766L44.0314 60.7229C44.1381 60.9364 44.3022 61.116 44.5052 61.2416C44.7082 61.3671 44.9422 61.4337 45.1808 61.4338H60.1595C60.3285 61.4342 60.4958 61.4012 60.652 61.3367C60.8081 61.2723 60.95 61.1776 61.0694 61.0581C61.1889 60.9387 61.2836 60.7968 61.348 60.6407C61.4125 60.4845 61.4455 60.3172 61.4451 60.1482C61.4452 59.949 61.3997 59.7524 61.312 59.5735L40.6528 18.2582C40.5547 18.0511 40.3999 17.8762 40.2063 17.7537C40.0127 17.6312 39.7884 17.5662 39.5593 17.5662C39.3302 17.5662 39.1059 17.6312 38.9123 17.7537C38.7187 17.8762 38.5639 18.0511 38.4658 18.2582V18.2642Z" fill="#2684FF"/>
<defs>
<linearGradient id="paint0_linear_2347_7707" x1="36.482" y1="41.1285" x2="25.127" y2="60.7955" gradientUnits="userSpaceOnUse">
<stop stop-color="#0052CC"/>
<stop offset="0.92" stop-color="#2684FF"/>
</linearGradient>
</defs>
</svg>
