<svg width="80" height="80" viewBox="0 0 80 80" fill="none" xmlns="http://www.w3.org/2000/svg">
<rect x="0.414757" y="0.399132" width="78.5611" height="78.5611" rx="13.825" fill="white"/>
<rect x="0.414757" y="0.399132" width="78.5611" height="78.5611" rx="13.825" stroke="#D9D9D9" stroke-width="0.438889"/>
<path d="M62 40C62 52.1503 52.1503 62 40 62C27.8497 62 18 52.1503 18 40C18 27.8497 27.8497 18 40 18C52.1503 18 62 27.8497 62 40ZM22.4726 40C22.4726 49.6801 30.3199 57.5274 40 57.5274C49.6801 57.5274 57.5274 49.6801 57.5274 40C57.5274 30.3199 49.6801 22.4726 40 22.4726C30.3199 22.4726 22.4726 30.3199 22.4726 40Z" fill="#265CFF"/>
<path d="M29.5896 46.1413C28.6795 46.6782 28.3674 47.8613 29.0233 48.6897C30.2863 50.2852 31.887 51.5924 33.7193 52.5121C35.5516 53.4319 37.5562 53.9344 39.5902 53.994C40.6463 54.0249 41.4086 53.0678 41.2954 52.0173V52.0173C41.1821 50.9668 40.2333 50.2259 39.1802 50.1407C37.8822 50.0358 36.6103 49.6821 35.4358 49.0925C34.2614 48.503 33.2178 47.6944 32.3581 46.7163C31.6606 45.9226 30.4996 45.6045 29.5896 46.1413V46.1413Z" fill="#265CFF"/>
</svg>
