<svg width="80" height="79" viewBox="0 0 80 79" fill="none" xmlns="http://www.w3.org/2000/svg">
<rect x="1.17452" y="0.219444" width="78.5611" height="78.5611" rx="13.825" fill="white"/>
<rect x="1.17452" y="0.219444" width="78.5611" height="78.5611" rx="13.825" stroke="#D9D9D9" stroke-width="0.438889"/>
<path d="M33.1859 61.4443C37.2237 61.4443 40.5007 58.1673 40.5007 54.1295V46.8147H33.1859C29.1481 46.8147 25.8711 50.0917 25.8711 54.1295C25.8711 58.1673 29.1481 61.4443 33.1859 61.4443Z" fill="#0ACF83"/>
<path d="M25.8711 39.4999C25.8711 35.4621 29.1481 32.1851 33.1859 32.1851H40.5007V46.8147H33.1859C29.1481 46.8147 25.8711 43.5376 25.8711 39.4999Z" fill="#A259FF"/>
<path d="M25.8711 24.8702C25.8711 20.8325 29.1481 17.5554 33.1859 17.5554H40.5007V32.185H33.1859C29.1481 32.185 25.8711 28.908 25.8711 24.8702Z" fill="#F24E1E"/>
<path d="M40.502 17.5554H47.8168C51.8546 17.5554 55.1316 20.8325 55.1316 24.8702C55.1316 28.908 51.8546 32.185 47.8168 32.185H40.502V17.5554Z" fill="#FF7262"/>
<path d="M55.1316 39.4999C55.1316 43.5376 51.8546 46.8147 47.8168 46.8147C43.779 46.8147 40.502 43.5376 40.502 39.4999C40.502 35.4621 43.779 32.1851 47.8168 32.1851C51.8546 32.1851 55.1316 35.4621 55.1316 39.4999Z" fill="#1ABCFE"/>
</svg>
