<svg width="80" height="80" viewBox="0 0 80 80" fill="none" xmlns="http://www.w3.org/2000/svg">
<rect x="0.41671" y="0.397423" width="78.5611" height="78.5611" rx="13.825" fill="white"/>
<rect x="0.41671" y="0.397423" width="78.5611" height="78.5611" rx="13.825" stroke="#D9D9D9" stroke-width="0.438889"/>
<path d="M17.5566 17.9211H61.4455V61.0785H17.5566V17.9211Z" fill="url(#paint0_linear_2347_7708)"/>
<path d="M21.0469 21.3533H57.9551V57.6468H21.0469V21.3533Z" fill="url(#paint1_linear_2347_7708)"/>
<path d="M28.1623 30.0848C28.1623 30.0848 30.9372 30.0118 33.2215 30.0118C35.5297 30.0118 37.1756 30.5549 38.2805 31.5092C39.3367 32.411 40.0488 33.9482 40.0488 35.6982C40.0488 37.4482 39.5084 38.8802 38.5259 39.887C37.2489 41.1862 35.7607 41.9553 33.2215 42.0617C32.52 42.0911 31.8707 42.0981 31.8707 42.0981V47.7867H28.1621L28.1623 30.0848V30.0848ZM31.8706 38.9464C32.2735 38.9857 32.526 38.9668 33.1232 38.9596C35.1125 38.9358 36.3401 37.726 36.3401 35.8966C36.3401 34.2531 35.3278 32.9037 33.4181 32.8338C32.6569 32.806 31.8706 32.8338 31.8706 32.8338V38.9464V38.9464Z" fill="url(#paint2_linear_2347_7708)"/>
<path d="M41.4642 43.8238C42.2117 44.2824 43.9754 44.9693 45.1777 44.9693C46.406 44.9693 46.9132 44.5364 46.9132 43.8615C46.9132 43.1858 46.5126 42.476 44.9901 41.9628C42.2926 41.0442 41.2508 39.9446 41.2779 38.4056C41.2779 35.9198 43.3608 34.056 46.5925 34.056C48.1149 34.056 49.331 34.5537 50.1316 34.9587V37.942C49.5435 37.6175 47.8477 36.893 46.7262 36.893C45.7374 36.893 45.1769 37.2982 45.1769 37.973C45.1769 38.5944 45.6847 38.9186 47.2871 39.4863C49.7705 40.3506 50.8123 41.6198 50.8386 43.5649C50.8386 46.0234 48.9435 47.9783 45.1769 47.8597C43.8843 47.819 42.4522 47.308 41.4639 46.7684L41.4642 43.8238V43.8238Z" fill="url(#paint3_linear_2347_7708)"/>
<defs>
<linearGradient id="paint0_linear_2347_7708" x1="28.2224" y1="15.6673" x2="45.0464" y2="51.2174" gradientUnits="userSpaceOnUse">
<stop stop-color="#A0CBFF"/>
<stop offset="0.394" stop-color="#A0CBFE"/>
<stop offset="0.583" stop-color="#8EC2FC"/>
<stop offset="0.784" stop-color="#83BCFB"/>
<stop offset="1" stop-color="#7FBAFB"/>
</linearGradient>
<linearGradient id="paint1_linear_2347_7708" x1="34.1939" y1="21.8647" x2="43.7032" y2="53.465" gradientUnits="userSpaceOnUse">
<stop stop-color="#090058"/>
<stop offset="1" stop-color="#070033"/>
</linearGradient>
<linearGradient id="paint2_linear_2347_7708" x1="22.9891" y1="17.559" x2="39.813" y2="53.1087" gradientUnits="userSpaceOnUse">
<stop stop-color="#A0CBFF"/>
<stop offset="0.394" stop-color="#A0CBFE"/>
<stop offset="0.583" stop-color="#8EC2FC"/>
<stop offset="0.784" stop-color="#83BCFB"/>
<stop offset="1" stop-color="#7FBAFB"/>
</linearGradient>
<linearGradient id="paint3_linear_2347_7708" x1="32.5722" y1="12.9172" x2="49.4628" y2="48.6078" gradientUnits="userSpaceOnUse">
<stop stop-color="#A0CBFF"/>
<stop offset="0.394" stop-color="#A0CBFE"/>
<stop offset="0.583" stop-color="#8EC2FC"/>
<stop offset="0.784" stop-color="#83BCFB"/>
<stop offset="1" stop-color="#7FBAFB"/>
</linearGradient>
</defs>
</svg>
