<svg width="120" height="32" viewBox="0 0 120 32" fill="none" xmlns="http://www.w3.org/2000/svg">
<path d="M44.1547 12.0796C44.0337 11.9835 42.9047 11.131 40.5236 11.131C39.8949 11.1338 39.2675 11.1877 38.6475 11.2923C38.1867 8.1336 35.5752 6.59357 35.4581 6.52448L34.8187 6.15576L34.3982 6.76257C33.8716 7.57771 33.4871 8.47629 33.2614 9.42011C32.8351 11.2232 33.0944 12.9168 34.0103 14.3646C32.9043 14.981 31.13 15.1327 30.771 15.1461H1.39592C0.628657 15.1472 0.00605481 15.7672 0.00187334 16.5344C-0.0323897 19.1078 0.403606 21.6659 1.28839 24.0826C2.30031 26.7364 3.80576 28.6911 5.76437 29.8874C7.95914 31.2315 11.5249 31.9996 15.5669 31.9996C17.3929 32.0053 19.2155 31.8401 21.0107 31.5061C23.5062 31.0479 25.9076 30.1757 28.1154 28.9253C29.9346 27.8719 31.5718 26.5317 32.9639 24.9563C35.2911 22.3218 36.6776 19.3877 37.7087 16.7802H38.1196C40.6676 16.7802 42.2346 15.7605 43.0986 14.9061C43.6729 14.3611 44.1212 13.6973 44.412 12.9609L44.5945 12.4272L44.1547 12.0796Z" fill="#61DAFB"/>
<path d="M4.11884 14.286H8.05522C8.24507 14.286 8.39891 14.1321 8.39891 13.9423V10.436C8.39997 10.2461 8.24694 10.0914 8.05716 10.0903C8.05653 10.0903 8.05584 10.0903 8.05522 10.0903H4.11884C3.92899 10.0903 3.77515 10.2442 3.77515 10.434V10.436V13.9422C3.77515 14.1321 3.92899 14.286 4.11884 14.286V14.286Z" fill="#61DAFB"/>
<path d="M9.5432 14.286H13.4796C13.6694 14.286 13.8233 14.1321 13.8233 13.9423V10.436C13.8243 10.2461 13.6713 10.0914 13.4815 10.0903C13.4808 10.0903 13.4801 10.0903 13.4795 10.0903H9.54314C9.35222 10.0903 9.19751 10.245 9.19751 10.436V13.9422C9.19863 14.1324 9.35304 14.286 9.5432 14.286" fill="#61DAFB"/>
<path d="M15.0503 14.286H18.9867C19.1765 14.286 19.3304 14.1321 19.3304 13.9423V10.436C19.3314 10.2461 19.1784 10.0914 18.9886 10.0903C18.9879 10.0903 18.9872 10.0903 18.9866 10.0903H15.0502C14.8604 10.0903 14.7065 10.2442 14.7065 10.434V10.436V13.9422C14.7066 14.1321 14.8605 14.286 15.0503 14.286V14.286Z" fill="#61DAFB"/>
<path d="M20.4921 14.286H24.4285C24.6187 14.286 24.7731 14.1324 24.7741 13.9423V10.436C24.7741 10.245 24.6194 10.0903 24.4285 10.0903H20.4921C20.3023 10.0903 20.1484 10.2442 20.1484 10.434V10.436V13.9422C20.1484 14.1321 20.3023 14.286 20.4921 14.286V14.286Z" fill="#61DAFB"/>
<path d="M9.54314 9.24196H13.4795C13.6696 9.2409 13.8232 9.08643 13.8232 8.89633V5.39008C13.8232 5.20023 13.6693 5.04639 13.4795 5.04639H9.54314C9.35304 5.04639 9.19857 5.19991 9.19751 5.39008V8.89633C9.19857 9.08681 9.35266 9.2409 9.54314 9.24196Z" fill="#61DAFB"/>
<path d="M15.0502 9.24196H18.9866C19.1767 9.2409 19.3303 9.08643 19.3303 8.89633V5.39008C19.3303 5.20023 19.1764 5.04639 18.9866 5.04639H15.0502C14.8604 5.04639 14.7065 5.20029 14.7065 5.39008V8.89633C14.7065 9.08643 14.8601 9.2409 15.0502 9.24196Z" fill="#61DAFB"/>
<path d="M20.4921 9.24196H24.4285C24.619 9.2409 24.7731 9.08681 24.7741 8.89633V5.39008C24.7731 5.19991 24.6187 5.04639 24.4285 5.04639H20.4921C20.3023 5.04639 20.1484 5.20029 20.1484 5.39008V8.89633C20.1484 9.08643 20.302 9.2409 20.4921 9.24196Z" fill="#61DAFB"/>
<path d="M20.4921 4.19563H24.4285C24.6187 4.19563 24.7731 4.04204 24.7741 3.85194V0.343692C24.7731 0.153528 24.6187 0 24.4285 0H20.4921C20.3023 0 20.1484 0.153841 20.1484 0.343692V3.85188C20.1484 4.04173 20.3023 4.19563 20.4921 4.19563Z" fill="#61DAFB"/>
<path d="M25.9821 14.286H29.9185C30.1087 14.286 30.2631 14.1324 30.2641 13.9423V10.436C30.2641 10.245 30.1094 10.0903 29.9185 10.0903H25.9821C25.7923 10.0903 25.6384 10.2442 25.6384 10.434V10.436V13.9422C25.6384 14.1321 25.7923 14.286 25.9821 14.286" fill="#61DAFB"/>
<g style="mix-blend-mode:saturation">
<rect width="44.5714" height="32" fill="#D9D9D9"/>
</g>
<path d="M69.9681 21.5H66.201V9.86364H70.0874C71.2275 9.86364 72.2067 10.0966 73.0249 10.5625C73.8431 11.0246 74.47 11.6894 74.9056 12.5568C75.345 13.4205 75.5647 14.4564 75.5647 15.6648C75.5647 16.8769 75.3431 17.9186 74.8999 18.7898C74.4605 19.661 73.8241 20.3314 72.9908 20.8011C72.1575 21.267 71.1499 21.5 69.9681 21.5ZM67.9567 19.9659H69.8715C70.7578 19.9659 71.4946 19.7992 72.0817 19.4659C72.6688 19.1288 73.1082 18.642 73.3999 18.0057C73.6915 17.3655 73.8374 16.5852 73.8374 15.6648C73.8374 14.7519 73.6915 13.9773 73.3999 13.3409C73.112 12.7045 72.6821 12.2216 72.1101 11.892C71.5381 11.5625 70.8279 11.3977 69.9794 11.3977H67.9567V19.9659ZM81.2877 21.6761C80.4695 21.6761 79.7555 21.4886 79.1456 21.1136C78.5358 20.7386 78.0623 20.214 77.7252 19.5398C77.388 18.8655 77.2195 18.0777 77.2195 17.1761C77.2195 16.2708 77.388 15.4792 77.7252 14.8011C78.0623 14.1231 78.5358 13.5966 79.1456 13.2216C79.7555 12.8466 80.4695 12.6591 81.2877 12.6591C82.1058 12.6591 82.8199 12.8466 83.4297 13.2216C84.0396 13.5966 84.513 14.1231 84.8502 14.8011C85.1873 15.4792 85.3558 16.2708 85.3558 17.1761C85.3558 18.0777 85.1873 18.8655 84.8502 19.5398C84.513 20.214 84.0396 20.7386 83.4297 21.1136C82.8199 21.4886 82.1058 21.6761 81.2877 21.6761ZM81.2933 20.25C81.8236 20.25 82.263 20.1098 82.6115 19.8295C82.96 19.5492 83.2176 19.1761 83.3843 18.7102C83.5547 18.2443 83.6399 17.7311 83.6399 17.1705C83.6399 16.6136 83.5547 16.1023 83.3843 15.6364C83.2176 15.1667 82.96 14.7898 82.6115 14.5057C82.263 14.2216 81.8236 14.0795 81.2933 14.0795C80.7593 14.0795 80.3161 14.2216 79.9638 14.5057C79.6153 14.7898 79.3558 15.1667 79.1854 15.6364C79.0187 16.1023 78.9354 16.6136 78.9354 17.1705C78.9354 17.7311 79.0187 18.2443 79.1854 18.7102C79.3558 19.1761 79.6153 19.5492 79.9638 19.8295C80.3161 20.1098 80.7593 20.25 81.2933 20.25ZM90.9283 21.6761C90.0836 21.6761 89.3563 21.4848 88.7465 21.1023C88.1404 20.7159 87.6745 20.1837 87.3487 19.5057C87.023 18.8277 86.8601 18.0511 86.8601 17.1761C86.8601 16.2898 87.0268 15.5076 87.3601 14.8295C87.6934 14.1477 88.1631 13.6155 88.7692 13.233C89.3753 12.8504 90.0893 12.6591 90.9112 12.6591C91.5741 12.6591 92.165 12.7822 92.684 13.0284C93.2029 13.2708 93.6215 13.6117 93.9397 14.0511C94.2616 14.4905 94.4529 15.0038 94.5135 15.5909H92.8601C92.7692 15.1818 92.5609 14.8295 92.2351 14.5341C91.9131 14.2386 91.4813 14.0909 90.9397 14.0909C90.4662 14.0909 90.0514 14.2159 89.6953 14.4659C89.3431 14.7121 89.0684 15.0644 88.8715 15.5227C88.6745 15.9773 88.576 16.5152 88.576 17.1364C88.576 17.7727 88.6726 18.322 88.8658 18.7841C89.059 19.2462 89.3317 19.6042 89.684 19.858C90.04 20.1117 90.4586 20.2386 90.9397 20.2386C91.2616 20.2386 91.5533 20.1799 91.8147 20.0625C92.0798 19.9413 92.3014 19.7689 92.4794 19.5455C92.6612 19.322 92.7881 19.053 92.8601 18.7386H94.5135C94.4529 19.303 94.2692 19.8068 93.9624 20.25C93.6556 20.6932 93.2446 21.0417 92.7294 21.2955C92.2181 21.5492 91.6177 21.6761 90.9283 21.6761ZM97.8928 18.5398L97.8814 16.4659H98.1769L101.654 12.7727H103.688L99.7223 16.9773H99.4553L97.8928 18.5398ZM96.3303 21.5V9.86364H98.0291V21.5H96.3303ZM101.842 21.5L98.7166 17.3523L99.8871 16.1648L103.927 21.5H101.842ZM108.639 21.6761C107.779 21.6761 107.038 21.4924 106.417 21.125C105.8 20.7538 105.322 20.233 104.985 19.5625C104.652 18.8883 104.485 18.0985 104.485 17.1932C104.485 16.2992 104.652 15.5114 104.985 14.8295C105.322 14.1477 105.792 13.6155 106.394 13.233C107 12.8504 107.709 12.6591 108.519 12.6591C109.012 12.6591 109.489 12.7405 109.951 12.9034C110.413 13.0663 110.828 13.322 111.195 13.6705C111.563 14.0189 111.853 14.4716 112.065 15.0284C112.277 15.5814 112.383 16.2538 112.383 17.0455V17.6477H105.445V16.375H110.718C110.718 15.928 110.627 15.5322 110.445 15.1875C110.264 14.839 110.008 14.5644 109.678 14.3636C109.353 14.1629 108.97 14.0625 108.531 14.0625C108.053 14.0625 107.637 14.1799 107.281 14.4148C106.928 14.6458 106.656 14.9489 106.462 15.3239C106.273 15.6951 106.178 16.0985 106.178 16.5341V17.5284C106.178 18.1117 106.281 18.608 106.485 19.017C106.693 19.4261 106.983 19.7386 107.354 19.9545C107.726 20.1667 108.159 20.2727 108.656 20.2727C108.978 20.2727 109.271 20.2273 109.536 20.1364C109.801 20.0417 110.031 19.9015 110.224 19.7159C110.417 19.5303 110.565 19.3011 110.667 19.0284L112.275 19.3182C112.146 19.7917 111.915 20.2064 111.582 20.5625C111.252 20.9148 110.837 21.1894 110.337 21.3864C109.841 21.5795 109.275 21.6761 108.639 21.6761ZM114.268 21.5V12.7727H115.91V14.1591H116.001C116.16 13.6894 116.44 13.3201 116.842 13.0511C117.247 12.7784 117.705 12.642 118.217 12.642C118.323 12.642 118.448 12.6458 118.592 12.6534C118.739 12.661 118.855 12.6705 118.938 12.6818V14.3068C118.87 14.2879 118.749 14.267 118.575 14.2443C118.4 14.2178 118.226 14.2045 118.052 14.2045C117.65 14.2045 117.292 14.2898 116.978 14.4602C116.667 14.6269 116.421 14.8598 116.239 15.1591C116.058 15.4545 115.967 15.7917 115.967 16.1705V21.5H114.268Z" fill="#C8C8C8"/>
</svg>
