<svg width="111" height="32" viewBox="0 0 111 32" fill="none" xmlns="http://www.w3.org/2000/svg">
<path fill-rule="evenodd" clip-rule="evenodd" d="M29.3331 29.5297C45.1128 29.5297 57.9046 23.0469 57.9046 15.0505C57.9046 7.0541 45.1128 0.571289 29.3331 0.571289C13.5539 0.571289 0.761719 7.0541 0.761719 15.0505C0.761719 23.0469 13.5539 29.5297 29.3331 29.5297Z" fill="#D2D2D2"/>
<path fill-rule="evenodd" clip-rule="evenodd" d="M35.1235 19.7303L36.5407 12.4363C36.8606 10.79 36.5946 9.56216 35.7506 8.78619C34.9328 8.03543 33.5446 7.67025 31.5069 7.67025H29.0525L29.7546 4.05641C29.7677 3.98915 29.7658 3.91981 29.749 3.85337C29.7322 3.78693 29.7009 3.72503 29.6573 3.67212C29.6138 3.61922 29.559 3.57661 29.4971 3.54735C29.4351 3.5181 29.3674 3.50293 29.2989 3.50293H25.9113C25.6888 3.50293 25.4978 3.66082 25.4553 3.87917L23.95 11.6227C23.8132 10.7513 23.476 10.0023 22.9363 9.38423C21.9427 8.24687 20.371 7.67025 18.2646 7.67025H11.6989C11.4764 7.67025 11.2853 7.82814 11.2428 8.04614L8.19662 23.7204C8.17001 23.8569 8.2056 23.9971 8.29404 24.1042C8.38214 24.2117 8.51343 24.2735 8.65267 24.2735H12.0668C12.2893 24.2735 12.4804 24.1156 12.5229 23.897L13.2598 20.1059H15.8012C17.1348 20.1059 18.2556 19.9615 19.1304 19.6768C20.0249 19.3859 20.8482 18.8925 21.5737 18.2133C22.16 17.6746 22.6444 17.0714 23.0172 16.4209L22.4087 19.5524C22.3821 19.6889 22.4177 19.8298 22.5062 19.9362C22.5943 20.0437 22.7259 20.1055 22.8648 20.1055H26.2523C26.4748 20.1055 26.6659 19.9476 26.7084 19.7296L28.3802 11.1259H30.7047C31.6952 11.1259 31.9854 11.3231 32.0645 11.4078C32.1361 11.4852 32.2846 11.7578 32.1177 12.617L30.7703 19.552C30.7574 19.6193 30.7595 19.6886 30.7764 19.7549C30.7934 19.8212 30.8247 19.883 30.8683 19.9359C30.9118 19.9887 30.9665 20.0312 31.0284 20.0605C31.0903 20.0898 31.1579 20.105 31.2264 20.1052H34.6678C34.7755 20.1054 34.8799 20.0681 34.9631 19.9997C35.0462 19.9313 35.103 19.836 35.1235 19.7303V19.7303ZM19.4182 13.7036C19.2053 14.797 18.8046 15.5768 18.2262 16.0215C17.6389 16.4744 16.6995 16.7038 15.434 16.7038H13.9207L15.0149 11.073H16.9714C18.4086 11.073 18.9877 11.3801 19.2202 11.6375C19.5425 11.9948 19.611 12.7096 19.4182 13.7036V13.7036ZM49.3926 9.38423C48.3994 8.24687 46.8277 7.67025 44.7213 7.67025H38.1555C37.9327 7.67025 37.742 7.82814 37.6995 8.04614L34.6536 23.7204C34.6267 23.8569 34.6623 23.9971 34.7507 24.1042C34.8392 24.2113 34.9708 24.2735 35.109 24.2735H38.5235C38.7463 24.2735 38.937 24.1156 38.9795 23.897L39.7165 20.1059H42.2583C43.5922 20.1059 44.7119 19.9615 45.5871 19.6768C46.4819 19.3859 47.3052 18.8925 48.0304 18.2133C48.6357 17.6574 49.1335 17.0324 49.5108 16.3576C49.8881 15.6829 50.1586 14.9304 50.3165 14.1206C50.7045 12.1233 50.3939 10.5299 49.3926 9.38423V9.38423ZM46.0687 13.7036C45.8555 14.797 45.4547 15.5768 44.8771 16.0215C44.2894 16.4744 43.35 16.7038 42.0848 16.7038H40.5712L41.665 11.073H43.6219C45.0592 11.073 45.6382 11.3801 45.8711 11.6375C46.1927 11.9948 46.2615 12.7096 46.0687 13.7036V13.7036Z" fill="white"/>
<path fill-rule="evenodd" clip-rule="evenodd" d="M16.8743 10.6085C18.1713 10.6085 19.036 10.8479 19.4682 11.3267C19.9001 11.8056 20.0031 12.6278 19.7771 13.7925C19.5408 15.0055 19.0861 15.8713 18.4124 16.3902C17.7387 16.9092 16.7133 17.1683 15.3368 17.1683H13.2597L14.5346 10.6085H16.8743ZM8.55518 23.809H11.9693L12.7795 19.642H15.7041C16.9945 19.642 18.0562 19.5062 18.8895 19.235C19.7229 18.9638 20.4805 18.5095 21.1622 17.8714C21.7343 17.3459 22.1973 16.7654 22.5518 16.1311C22.9059 15.4968 23.1574 14.7972 23.3063 14.0319C23.6677 12.1739 23.3951 10.7266 22.4892 9.69014C21.5837 8.65332 20.1426 8.13508 18.1675 8.13508H11.6017L8.55518 23.809V23.809ZM25.8139 3.96777H29.2014L28.3916 8.13508H31.4098C33.308 8.13508 34.6184 8.46606 35.3391 9.12837C36.0598 9.79068 36.2757 10.8641 35.9876 12.348L34.5704 19.642H31.1289L32.4764 12.7066C32.6294 11.9175 32.5734 11.3796 32.3071 11.0925C32.0407 10.8057 31.4737 10.662 30.6072 10.662H27.9L26.1549 19.642H22.7673L25.8139 3.96777ZM43.5248 10.6085C44.8218 10.6085 45.6862 10.8479 46.1188 11.3267C46.5507 11.8056 46.6533 12.6278 46.4273 13.7925C46.1917 15.0055 45.737 15.8713 45.063 16.3902C44.3896 16.9092 43.3638 17.1683 41.9881 17.1683H39.911L41.1855 10.6085H43.5248V10.6085ZM35.2051 23.809H38.6195L39.4294 19.642H42.354C43.6447 19.642 44.7064 19.5062 45.5398 19.235C46.3731 18.9638 47.1307 18.5095 47.8124 17.8714C48.3845 17.3459 48.8475 16.7654 49.2016 16.1311C49.5558 15.4968 49.8076 14.7972 49.9569 14.0319C50.3179 12.1739 50.0453 10.7266 49.1398 9.69014C48.2336 8.65332 46.7929 8.13508 44.8177 8.13508H38.2519L35.2051 23.809V23.809Z" fill="#BDBDBD"/>
<g style="mix-blend-mode:saturation">
<rect x="0.761719" width="57.1429" height="32" fill="#D9D9D9"/>
</g>
<path d="M79.5111 21.5V9.86364H83.6588C84.5641 9.86364 85.3141 10.0284 85.9088 10.358C86.5035 10.6875 86.9486 11.1383 87.244 11.7102C87.5395 12.2784 87.6872 12.9186 87.6872 13.6307C87.6872 14.3466 87.5376 14.9905 87.2383 15.5625C86.9429 16.1307 86.4959 16.5814 85.8974 16.9148C85.3027 17.2443 84.5546 17.4091 83.6531 17.4091H80.8008V15.9205H83.494C84.066 15.9205 84.53 15.822 84.8861 15.625C85.2421 15.4242 85.5035 15.1515 85.6702 14.8068C85.8368 14.4621 85.9202 14.0701 85.9202 13.6307C85.9202 13.1913 85.8368 12.8011 85.6702 12.4602C85.5035 12.1193 85.2402 11.8523 84.8804 11.6591C84.5243 11.4659 84.0546 11.3693 83.4713 11.3693H81.2668V21.5H79.5111ZM89.7455 21.5V9.86364H91.5011V14.9205H97.3023V9.86364H99.0636V21.5H97.3023V16.4261H91.5011V21.5H89.7455ZM101.62 21.5V9.86364H105.768C106.673 9.86364 107.423 10.0284 108.018 10.358C108.613 10.6875 109.058 11.1383 109.353 11.7102C109.649 12.2784 109.797 12.9186 109.797 13.6307C109.797 14.3466 109.647 14.9905 109.348 15.5625C109.052 16.1307 108.605 16.5814 108.007 16.9148C107.412 17.2443 106.664 17.4091 105.762 17.4091H102.91V15.9205H105.603C106.175 15.9205 106.639 15.822 106.995 15.625C107.352 15.4242 107.613 15.1515 107.78 14.8068C107.946 14.4621 108.03 14.0701 108.03 13.6307C108.03 13.1913 107.946 12.8011 107.78 12.4602C107.613 12.1193 107.35 11.8523 106.99 11.6591C106.634 11.4659 106.164 11.3693 105.581 11.3693H103.376V21.5H101.62Z" fill="#C8C8C8"/>
</svg>
