<svg width="103" height="32" viewBox="0 0 103 32" fill="none" xmlns="http://www.w3.org/2000/svg">
<path d="M19.1364 20.7096L11.2884 19.0696C11.2556 19.1331 11.219 19.1947 11.1789 19.2539L18.3235 29.676L18.7545 29.2455L19.9699 21.6869C19.7645 21.6001 19.5822 21.4666 19.4375 21.2969C19.2928 21.1272 19.1897 20.926 19.1364 20.7094V20.7096ZM16.2735 10.4505C15.9795 10.9015 15.472 11.1999 14.894 11.1999C14.805 11.1999 14.7185 11.1909 14.6335 11.1775L11.0545 16.7775L20.6166 12.6626C20.6136 12.6241 20.6051 12.5881 20.6051 12.5486C20.6051 12.4681 20.6161 12.3901 20.6291 12.3131L16.2735 10.4506V10.4505ZM16.5335 9.42998L21.1665 11.4109C21.3142 11.2955 21.483 11.2103 21.6635 11.16L22.425 6.42502L19.5239 3.52394L16.2585 8.63362C16.4185 8.87035 16.5134 9.14506 16.5335 9.4301V9.42998ZM26.2415 10.2415L23.334 7.33351L22.702 11.2594C22.8622 11.34 23.0062 11.4495 23.1265 11.5824L26.2415 10.2415V10.2415ZM19.2754 19.6754C19.3892 19.4689 19.5527 19.2939 19.751 19.1664C19.9494 19.0389 20.1764 18.9627 20.4116 18.945L21.2465 13.7515C21.181 13.708 21.1225 13.656 21.065 13.6025L11.4479 17.7415C11.4724 17.842 11.4894 17.9445 11.4974 18.051L19.2754 19.6754V19.6754ZM27.0335 11.034L23.6695 12.4814L31.9695 16.03L31.9995 16L27.0335 11.034ZM21.022 21.7025L20.0111 27.9879L25.8815 22.1175L21.653 21.2345C21.4909 21.4467 21.2722 21.6089 21.022 21.7025V21.7025ZM9.61147 20.0866C9.39898 20.0866 9.19548 20.0501 9.00498 19.9854L7.05501 23.037L6.30153 22.284L8.1485 19.3941C8.10282 19.3374 8.06026 19.2783 8.021 19.217L4.67505 20.6576L3.88194 19.8644L7.54438 18.288L0.923111 16.906L0.0174997 16L0.303995 15.7135L7.9395 17.3075C8.02731 17.1409 8.13974 16.9885 8.273 16.8555L4.56705 11.4499L5.31554 10.7015L9.18736 16.3495C9.32639 16.3172 9.46861 16.3006 9.61135 16.3C9.77485 16.3 9.93334 16.323 10.0848 16.362L13.7079 10.693C13.4129 10.387 13.2482 9.97848 13.2484 9.55348C13.2484 9.42348 13.2649 9.29748 13.2934 9.17648L8.77349 7.24401L9.56635 6.45102L13.8488 8.2825C14.0659 8.10352 14.3255 7.98343 14.6025 7.93378C14.8795 7.88413 15.1646 7.90659 15.4304 7.999L18.7708 2.77096L16 0L0 16L16 32L17.5745 30.4255L10.3765 19.9244C10.1356 20.0312 9.87498 20.0865 9.61147 20.0866V20.0866ZM22.265 13.9754L21.4155 19.255C21.564 19.3742 21.6869 19.5222 21.777 19.69C21.8671 19.8577 21.9226 20.0419 21.94 20.2316L26.7615 21.238L31.1764 16.8231L23.2075 13.416C22.9795 13.7196 22.6407 13.9207 22.265 13.9755V13.9754Z" fill="#61DAFB"/>
<g style="mix-blend-mode:saturation">
<rect width="32" height="32" fill="#D9D9D9"/>
</g>
<path d="M62.9595 9.86364V21.5H61.3459L55.4311 12.9659H55.3232V21.5H53.5675V9.86364H55.1925L61.1129 18.4091H61.2209V9.86364H62.9595ZM69.1456 21.6761C68.2857 21.6761 67.5452 21.4924 66.924 21.125C66.3066 20.7538 65.8293 20.233 65.4922 19.5625C65.1589 18.8883 64.9922 18.0985 64.9922 17.1932C64.9922 16.2992 65.1589 15.5114 65.4922 14.8295C65.8293 14.1477 66.299 13.6155 66.9013 13.233C67.5073 12.8504 68.2157 12.6591 69.0263 12.6591C69.5187 12.6591 69.996 12.7405 70.4581 12.9034C70.9202 13.0663 71.335 13.322 71.7024 13.6705C72.0698 14.0189 72.3596 14.4716 72.5717 15.0284C72.7839 15.5814 72.8899 16.2538 72.8899 17.0455V17.6477H65.9524V16.375H71.2251C71.2251 15.928 71.1342 15.5322 70.9524 15.1875C70.7706 14.839 70.5149 14.5644 70.1854 14.3636C69.8596 14.1629 69.477 14.0625 69.0376 14.0625C68.5604 14.0625 68.1437 14.1799 67.7876 14.4148C67.4354 14.6458 67.1626 14.9489 66.9695 15.3239C66.7801 15.6951 66.6854 16.0985 66.6854 16.5341V17.5284C66.6854 18.1117 66.7876 18.608 66.9922 19.017C67.2005 19.4261 67.4903 19.7386 67.8615 19.9545C68.2327 20.1667 68.6664 20.2727 69.1626 20.2727C69.4846 20.2727 69.7782 20.2273 70.0433 20.1364C70.3085 20.0417 70.5376 19.9015 70.7308 19.7159C70.924 19.5303 71.0717 19.3011 71.174 19.0284L72.782 19.3182C72.6532 19.7917 72.4221 20.2064 72.0888 20.5625C71.7592 20.9148 71.3445 21.1894 70.8445 21.3864C70.3482 21.5795 69.782 21.6761 69.1456 21.6761ZM78.8487 12.7727V14.1364H74.0817V12.7727H78.8487ZM75.3601 10.6818H77.0589V18.9375C77.0589 19.267 77.1082 19.5152 77.2067 19.6818C77.3052 19.8447 77.4321 19.9564 77.5874 20.017C77.7464 20.0739 77.9188 20.1023 78.1044 20.1023C78.2408 20.1023 78.3601 20.0928 78.4624 20.0739C78.5646 20.0549 78.6442 20.0398 78.701 20.0284L79.0078 21.4318C78.9093 21.4697 78.7692 21.5076 78.5874 21.5455C78.4055 21.5871 78.1783 21.6098 77.9055 21.6136C77.4586 21.6212 77.0419 21.5417 76.6555 21.375C76.2692 21.2083 75.9567 20.9508 75.718 20.6023C75.4794 20.2538 75.3601 19.8163 75.3601 19.2898V10.6818ZM82.6143 9.86364V21.5H80.9155V9.86364H82.6143ZM84.8999 21.5V12.7727H86.5987V21.5H84.8999ZM85.7578 11.4261C85.4624 11.4261 85.2086 11.3277 84.9964 11.1307C84.7881 10.9299 84.6839 10.6913 84.6839 10.4148C84.6839 10.1345 84.7881 9.89583 84.9964 9.69886C85.2086 9.49811 85.4624 9.39773 85.7578 9.39773C86.0533 9.39773 86.3052 9.49811 86.5135 9.69886C86.7256 9.89583 86.8317 10.1345 86.8317 10.4148C86.8317 10.6913 86.7256 10.9299 86.5135 11.1307C86.3052 11.3277 86.0533 11.4261 85.7578 11.4261ZM93.0376 12.7727V14.1364H88.1058V12.7727H93.0376ZM89.4581 21.5V11.7614C89.4581 11.2159 89.5774 10.7633 89.8161 10.4034C90.0547 10.0398 90.371 9.76894 90.7649 9.59091C91.1589 9.40909 91.5869 9.31818 92.049 9.31818C92.3899 9.31818 92.6816 9.34659 92.924 9.40341C93.1664 9.45644 93.3464 9.50568 93.4638 9.55114L93.0661 10.9261C92.9865 10.9034 92.8842 10.8769 92.7592 10.8466C92.6342 10.8125 92.4827 10.7955 92.3047 10.7955C91.8918 10.7955 91.5964 10.8977 91.4183 11.1023C91.2441 11.3068 91.157 11.6023 91.157 11.9886V21.5H89.4581ZM95.8643 24.7727C95.6106 24.7727 95.3795 24.7519 95.1712 24.7102C94.9628 24.6723 94.8075 24.6307 94.7053 24.5852L95.1143 23.1932C95.425 23.2765 95.7015 23.3125 95.9439 23.3011C96.1863 23.2898 96.4003 23.1989 96.5859 23.0284C96.7753 22.858 96.942 22.5795 97.0859 22.1932L97.2962 21.6136L94.103 12.7727H95.9212L98.1314 19.5455H98.2223L100.433 12.7727H102.256L98.6598 22.6648C98.4931 23.1193 98.281 23.5038 98.0234 23.8182C97.7659 24.1364 97.459 24.375 97.103 24.5341C96.7469 24.6932 96.334 24.7727 95.8643 24.7727Z" fill="#C8C8C8"/>
</svg>
