<svg width="134" height="32" viewBox="0 0 134 32" fill="none" xmlns="http://www.w3.org/2000/svg">
<path d="M32.5945 0H0.594482V32H32.5945V0Z" fill="#F7DF1E"/>
<path d="M22.0902 25.0002C22.7348 26.0527 23.5734 26.8262 25.0566 26.8262C26.3026 26.8262 27.0985 26.2035 27.0985 25.3431C27.0985 24.312 26.2807 23.9468 24.9093 23.3469L24.1575 23.0243C21.9876 22.0999 20.5461 20.9418 20.5461 18.4935C20.5461 16.2383 22.2645 14.5215 24.9499 14.5215C26.8618 14.5215 28.2363 15.1869 29.2268 16.9291L26.8852 18.4326C26.3696 17.5082 25.8134 17.144 24.9499 17.144C24.0692 17.144 23.5109 17.7027 23.5109 18.4326C23.5109 19.3347 24.0697 19.6999 25.3598 20.2586L26.1116 20.5807C28.6665 21.6763 30.109 22.7932 30.109 25.3045C30.109 28.0118 27.9823 29.4949 25.1262 29.4949C22.3335 29.4949 20.5294 28.1642 19.6466 26.4199L22.0902 25.0002ZM11.4678 25.2608C11.9401 26.0989 12.3699 26.8075 13.403 26.8075C14.3909 26.8075 15.0142 26.4209 15.0142 24.9179V14.6932H18.0212V24.9586C18.0212 28.0722 16.1956 29.4894 13.531 29.4894C11.1234 29.4894 9.7291 28.2434 9.02002 26.7427L11.4678 25.2608Z" fill="#9C9C9C"/>
<g style="mix-blend-mode:saturation">
<rect x="0.594482" width="32" height="32" fill="#D9D9D9"/>
</g>
<path d="M58.4581 9.86364H60.2081V18.1136C60.2081 18.8598 60.0604 19.4981 59.7649 20.0284C59.4733 20.5587 59.0623 20.964 58.532 21.2443C58.0017 21.5208 57.3805 21.6591 56.6683 21.6591C56.013 21.6591 55.424 21.5398 54.9013 21.3011C54.3824 21.0625 53.9714 20.7159 53.6683 20.2614C53.3691 19.803 53.2195 19.2462 53.2195 18.5909H54.9638C54.9638 18.9129 55.0377 19.1913 55.1854 19.4261C55.3369 19.661 55.5433 19.8447 55.8047 19.9773C56.0699 20.1061 56.3729 20.1705 56.7138 20.1705C57.085 20.1705 57.3994 20.0928 57.657 19.9375C57.9183 19.7784 58.1172 19.5455 58.2536 19.2386C58.3899 18.9318 58.4581 18.5568 58.4581 18.1136V9.86364ZM65.1669 21.6932C64.6139 21.6932 64.1139 21.5909 63.6669 21.3864C63.22 21.178 62.8658 20.8769 62.6044 20.483C62.3468 20.089 62.2181 19.6061 62.2181 19.0341C62.2181 18.5417 62.3128 18.1364 62.5022 17.8182C62.6915 17.5 62.9472 17.2481 63.2692 17.0625C63.5912 16.8769 63.951 16.7367 64.3487 16.642C64.7465 16.5473 65.1518 16.4754 65.5647 16.4261C66.0874 16.3655 66.5116 16.3163 66.8374 16.2784C67.1631 16.2367 67.3999 16.1705 67.5476 16.0795C67.6953 15.9886 67.7692 15.8409 67.7692 15.6364V15.5966C67.7692 15.1004 67.629 14.7159 67.3487 14.4432C67.0722 14.1705 66.6594 14.0341 66.1101 14.0341C65.5381 14.0341 65.0874 14.161 64.7578 14.4148C64.4321 14.6648 64.2067 14.9432 64.0817 15.25L62.4851 14.8864C62.6745 14.3561 62.951 13.928 63.3147 13.6023C63.6821 13.2727 64.1044 13.0341 64.5817 12.8864C65.059 12.7348 65.5609 12.6591 66.0874 12.6591C66.4359 12.6591 66.8052 12.7008 67.1953 12.7841C67.5893 12.8636 67.9567 13.0114 68.2976 13.2273C68.6423 13.4432 68.9245 13.7519 69.1442 14.1534C69.3639 14.5511 69.4737 15.0682 69.4737 15.7045V21.5H67.8147V20.3068H67.7465C67.6366 20.5265 67.4718 20.7424 67.2522 20.9545C67.0325 21.1667 66.7503 21.3428 66.4056 21.483C66.0609 21.6231 65.648 21.6932 65.1669 21.6932ZM65.5362 20.3295C66.0059 20.3295 66.4075 20.2367 66.7408 20.0511C67.0779 19.8655 67.3336 19.6231 67.5078 19.3239C67.6859 19.0208 67.7749 18.697 67.7749 18.3523V17.2273C67.7143 17.2879 67.5969 17.3447 67.4226 17.3977C67.2522 17.447 67.0571 17.4905 66.8374 17.5284C66.6177 17.5625 66.4037 17.5947 66.1953 17.625C65.987 17.6515 65.8128 17.6742 65.6726 17.6932C65.3431 17.7348 65.0419 17.8049 64.7692 17.9034C64.5003 18.0019 64.2843 18.1439 64.1215 18.3295C63.9624 18.5114 63.8828 18.7538 63.8828 19.0568C63.8828 19.4773 64.0381 19.7955 64.3487 20.0114C64.6593 20.2235 65.0552 20.3295 65.5362 20.3295ZM78.8899 12.7727L75.7252 21.5H73.907L70.7365 12.7727H72.5604L74.7706 19.4886H74.8615L77.0661 12.7727H78.8899ZM82.7763 21.6932C82.2233 21.6932 81.7233 21.5909 81.2763 21.3864C80.8293 21.178 80.4752 20.8769 80.2138 20.483C79.9562 20.089 79.8274 19.6061 79.8274 19.0341C79.8274 18.5417 79.9221 18.1364 80.1115 17.8182C80.3009 17.5 80.5566 17.2481 80.8786 17.0625C81.2005 16.8769 81.5604 16.7367 81.9581 16.642C82.3558 16.5473 82.7611 16.4754 83.174 16.4261C83.6968 16.3655 84.121 16.3163 84.4468 16.2784C84.7725 16.2367 85.0093 16.1705 85.157 16.0795C85.3047 15.9886 85.3786 15.8409 85.3786 15.6364V15.5966C85.3786 15.1004 85.2384 14.7159 84.9581 14.4432C84.6816 14.1705 84.2687 14.0341 83.7195 14.0341C83.1475 14.0341 82.6968 14.161 82.3672 14.4148C82.0415 14.6648 81.8161 14.9432 81.6911 15.25L80.0945 14.8864C80.2839 14.3561 80.5604 13.928 80.924 13.6023C81.2915 13.2727 81.7138 13.0341 82.1911 12.8864C82.6683 12.7348 83.1702 12.6591 83.6968 12.6591C84.0452 12.6591 84.4146 12.7008 84.8047 12.7841C85.1986 12.8636 85.5661 13.0114 85.907 13.2273C86.2517 13.4432 86.5339 13.7519 86.7536 14.1534C86.9733 14.5511 87.0831 15.0682 87.0831 15.7045V21.5H85.424V20.3068H85.3558C85.246 20.5265 85.0812 20.7424 84.8615 20.9545C84.6418 21.1667 84.3596 21.3428 84.0149 21.483C83.6702 21.6231 83.2574 21.6932 82.7763 21.6932ZM83.1456 20.3295C83.6153 20.3295 84.0168 20.2367 84.3502 20.0511C84.6873 19.8655 84.943 19.6231 85.1172 19.3239C85.2952 19.0208 85.3843 18.697 85.3843 18.3523V17.2273C85.3236 17.2879 85.2062 17.3447 85.032 17.3977C84.8615 17.447 84.6665 17.4905 84.4468 17.5284C84.2271 17.5625 84.013 17.5947 83.8047 17.625C83.5964 17.6515 83.4221 17.6742 83.282 17.6932C82.9524 17.7348 82.6513 17.8049 82.3786 17.9034C82.1096 18.0019 81.8937 18.1439 81.7308 18.3295C81.5718 18.5114 81.4922 18.7538 81.4922 19.0568C81.4922 19.4773 81.6475 19.7955 81.9581 20.0114C82.2687 20.2235 82.6646 20.3295 83.1456 20.3295ZM95.8289 12.9205C95.7683 12.3826 95.5183 11.9659 95.0789 11.6705C94.6395 11.3712 94.0864 11.2216 93.4198 11.2216C92.9425 11.2216 92.5296 11.2973 92.1811 11.4489C91.8326 11.5966 91.5618 11.8011 91.3686 12.0625C91.1792 12.3201 91.0845 12.6136 91.0845 12.9432C91.0845 13.2197 91.1489 13.4583 91.2777 13.6591C91.4103 13.8598 91.5826 14.0284 91.7948 14.1648C92.0107 14.2973 92.2417 14.4091 92.4879 14.5C92.7342 14.5871 92.9709 14.6591 93.1982 14.7159L94.3345 15.0114C94.7058 15.1023 95.0864 15.2254 95.4766 15.3807C95.8667 15.536 96.2285 15.7405 96.5618 15.9943C96.8951 16.2481 97.1641 16.5625 97.3686 16.9375C97.577 17.3125 97.6811 17.7614 97.6811 18.2841C97.6811 18.9432 97.5107 19.5284 97.1698 20.0398C96.8326 20.5511 96.3421 20.9545 95.6982 21.25C95.058 21.5455 94.2834 21.6932 93.3743 21.6932C92.5031 21.6932 91.7493 21.5549 91.1129 21.2784C90.4766 21.0019 89.9785 20.6098 89.6186 20.1023C89.2588 19.5909 89.0599 18.9848 89.022 18.2841H90.7834C90.8175 18.7045 90.9539 19.0549 91.1925 19.3352C91.4349 19.6117 91.7436 19.8182 92.1186 19.9545C92.4974 20.0871 92.9122 20.1534 93.3629 20.1534C93.8592 20.1534 94.3004 20.0758 94.6868 19.9205C95.077 19.7614 95.3838 19.5417 95.6073 19.2614C95.8308 18.9773 95.9425 18.6458 95.9425 18.267C95.9425 17.9223 95.844 17.6402 95.647 17.4205C95.4539 17.2008 95.1906 17.0189 94.8573 16.875C94.5277 16.7311 94.1546 16.6042 93.7379 16.4943L92.3629 16.1193C91.4311 15.8655 90.6925 15.4924 90.147 15C89.6054 14.5076 89.3345 13.8561 89.3345 13.0455C89.3345 12.375 89.5164 11.7898 89.88 11.2898C90.2436 10.7898 90.7361 10.4015 91.3573 10.125C91.9785 9.8447 92.6792 9.70455 93.4595 9.70455C94.2474 9.70455 94.9425 9.8428 95.5448 10.1193C96.1508 10.3958 96.6281 10.7765 96.9766 11.2614C97.3251 11.7424 97.5069 12.2955 97.522 12.9205H95.8289ZM103.319 21.6761C102.474 21.6761 101.747 21.4848 101.137 21.1023C100.531 20.7159 100.065 20.1837 99.7394 19.5057C99.4136 18.8277 99.2507 18.0511 99.2507 17.1761C99.2507 16.2898 99.4174 15.5076 99.7507 14.8295C100.084 14.1477 100.554 13.6155 101.16 13.233C101.766 12.8504 102.48 12.6591 103.302 12.6591C103.965 12.6591 104.556 12.7822 105.075 13.0284C105.594 13.2708 106.012 13.6117 106.33 14.0511C106.652 14.4905 106.844 15.0038 106.904 15.5909H105.251C105.16 15.1818 104.951 14.8295 104.626 14.5341C104.304 14.2386 103.872 14.0909 103.33 14.0909C102.857 14.0909 102.442 14.2159 102.086 14.4659C101.734 14.7121 101.459 15.0644 101.262 15.5227C101.065 15.9773 100.967 16.5152 100.967 17.1364C100.967 17.7727 101.063 18.322 101.256 18.7841C101.45 19.2462 101.722 19.6042 102.075 19.858C102.431 20.1117 102.849 20.2386 103.33 20.2386C103.652 20.2386 103.944 20.1799 104.205 20.0625C104.47 19.9413 104.692 19.7689 104.87 19.5455C105.052 19.322 105.179 19.053 105.251 18.7386H106.904C106.844 19.303 106.66 19.8068 106.353 20.25C106.046 20.6932 105.635 21.0417 105.12 21.2955C104.609 21.5492 104.008 21.6761 103.319 21.6761ZM108.721 21.5V12.7727H110.363V14.1591H110.454C110.613 13.6894 110.893 13.3201 111.295 13.0511C111.7 12.7784 112.158 12.642 112.67 12.642C112.776 12.642 112.901 12.6458 113.045 12.6534C113.192 12.661 113.308 12.6705 113.391 12.6818V14.3068C113.323 14.2879 113.202 14.267 113.028 14.2443C112.853 14.2178 112.679 14.2045 112.505 14.2045C112.103 14.2045 111.746 14.2898 111.431 14.4602C111.121 14.6269 110.874 14.8598 110.692 15.1591C110.511 15.4545 110.42 15.7917 110.42 16.1705V21.5H108.721ZM114.862 21.5V12.7727H116.56V21.5H114.862ZM115.719 11.4261C115.424 11.4261 115.17 11.3277 114.958 11.1307C114.75 10.9299 114.646 10.6913 114.646 10.4148C114.646 10.1345 114.75 9.89583 114.958 9.69886C115.17 9.49811 115.424 9.39773 115.719 9.39773C116.015 9.39773 116.267 9.49811 116.475 9.69886C116.687 9.89583 116.793 10.1345 116.793 10.4148C116.793 10.6913 116.687 10.9299 116.475 11.1307C116.267 11.3277 116.015 11.4261 115.719 11.4261ZM118.846 24.7727V12.7727H120.505V14.1875H120.647C120.746 14.0057 120.888 13.7955 121.073 13.5568C121.259 13.3182 121.516 13.1098 121.846 12.9318C122.175 12.75 122.611 12.6591 123.153 12.6591C123.857 12.6591 124.486 12.8371 125.039 13.1932C125.592 13.5492 126.026 14.0625 126.34 14.733C126.658 15.4034 126.817 16.2102 126.817 17.1534C126.817 18.0966 126.66 18.9053 126.346 19.5795C126.032 20.25 125.6 20.767 125.05 21.1307C124.501 21.4905 123.874 21.6705 123.17 21.6705C122.639 21.6705 122.206 21.5814 121.869 21.4034C121.535 21.2254 121.274 21.017 121.085 20.7784C120.895 20.5398 120.749 20.3277 120.647 20.142H120.545V24.7727H118.846ZM120.511 17.1364C120.511 17.75 120.6 18.2879 120.778 18.75C120.956 19.2121 121.213 19.5739 121.55 19.8352C121.888 20.0928 122.3 20.2216 122.789 20.2216C123.297 20.2216 123.721 20.0871 124.062 19.8182C124.403 19.5455 124.66 19.1761 124.835 18.7102C125.013 18.2443 125.102 17.7197 125.102 17.1364C125.102 16.5606 125.014 16.0436 124.84 15.5852C124.67 15.1269 124.412 14.7652 124.067 14.5C123.727 14.2348 123.3 14.1023 122.789 14.1023C122.297 14.1023 121.88 14.2292 121.539 14.483C121.202 14.7367 120.946 15.0909 120.772 15.5455C120.598 16 120.511 16.5303 120.511 17.1364ZM132.795 12.7727V14.1364H128.028V12.7727H132.795ZM129.306 10.6818H131.005V18.9375C131.005 19.267 131.054 19.5152 131.153 19.6818C131.251 19.8447 131.378 19.9564 131.533 20.017C131.692 20.0739 131.865 20.1023 132.05 20.1023C132.187 20.1023 132.306 20.0928 132.408 20.0739C132.511 20.0549 132.59 20.0398 132.647 20.0284L132.954 21.4318C132.855 21.4697 132.715 21.5076 132.533 21.5455C132.352 21.5871 132.124 21.6098 131.852 21.6136C131.405 21.6212 130.988 21.5417 130.602 21.375C130.215 21.2083 129.903 20.9508 129.664 20.6023C129.425 20.2538 129.306 19.8163 129.306 19.2898V10.6818Z" fill="#C8C8C8"/>
</svg>
