<svg width="107" height="32" viewBox="0 0 107 32" fill="none" xmlns="http://www.w3.org/2000/svg">
<path d="M16.5622 0C8.39615 0 8.90603 3.54129 8.90603 3.54129L8.9151 7.21017H16.7078V8.31167H5.81995C5.81995 8.31167 0.594482 7.71904 0.594482 15.9585C0.594482 24.1983 5.1554 23.9061 5.1554 23.9061H7.87734V20.0825C7.87734 20.0825 7.7306 15.5216 12.3654 15.5216H20.0944C20.0944 15.5216 24.4368 15.5917 24.4368 11.3248V4.2697C24.4368 4.2697 25.0963 0 16.5622 0ZM12.2653 2.46725C12.4495 2.46708 12.6318 2.50323 12.802 2.57363C12.9722 2.64402 13.1268 2.74728 13.257 2.87749C13.3872 3.0077 13.4904 3.16231 13.5608 3.33247C13.6312 3.50263 13.6674 3.68501 13.6672 3.86915C13.6674 4.0533 13.6312 4.23567 13.5608 4.40584C13.4904 4.576 13.3872 4.73061 13.257 4.86082C13.1268 4.99103 12.9722 5.09429 12.802 5.16468C12.6318 5.23508 12.4495 5.27122 12.2653 5.27106C12.0812 5.27122 11.8988 5.23508 11.7286 5.16468C11.5585 5.09429 11.4039 4.99103 11.2736 4.86082C11.1434 4.73061 11.0402 4.576 10.9698 4.40584C10.8994 4.23567 10.8632 4.0533 10.8634 3.86915C10.8632 3.68501 10.8994 3.50263 10.9698 3.33247C11.0402 3.16231 11.1434 3.0077 11.2736 2.87749C11.4039 2.74728 11.5585 2.64402 11.7286 2.57363C11.8988 2.50323 12.0812 2.46708 12.2653 2.46725V2.46725Z" fill="#C8C3C3"/>
<path d="M16.794 31.9997C24.9601 31.9997 24.4502 28.4584 24.4502 28.4584L24.4411 24.7896H16.6483V23.6881H27.5362C27.5362 23.6881 32.7616 24.2807 32.7616 16.041C32.7616 7.80135 28.2007 8.09357 28.2007 8.09357H25.4788V11.917C25.4788 11.917 25.6255 16.4779 20.9907 16.4779H13.2617C13.2617 16.4779 8.91928 16.4078 8.91928 20.6748V27.7301C8.91928 27.7301 8.2599 31.9997 16.7939 31.9997H16.794ZM21.0909 29.5327C20.9068 29.5328 20.7244 29.4967 20.5542 29.4263C20.3841 29.3559 20.2295 29.2526 20.0993 29.1224C19.969 28.9922 19.8658 28.8376 19.7954 28.6674C19.725 28.4973 19.6889 28.3149 19.689 28.1308C19.6888 27.9466 19.725 27.7642 19.7954 27.594C19.8657 27.4239 19.969 27.2692 20.0992 27.139C20.2294 27.0088 20.384 26.9055 20.5542 26.8351C20.7244 26.7647 20.9068 26.7286 21.0909 26.7287C21.2751 26.7286 21.4574 26.7647 21.6276 26.8351C21.7978 26.9055 21.9524 27.0088 22.0826 27.139C22.2128 27.2692 22.3161 27.4238 22.3865 27.5939C22.4568 27.7641 22.493 27.9465 22.4928 28.1306C22.493 28.3148 22.4568 28.4972 22.3865 28.6673C22.3161 28.8375 22.2128 28.9921 22.0826 29.1223C21.9524 29.2525 21.7978 29.3558 21.6276 29.4262C21.4574 29.4966 21.2751 29.5327 21.0909 29.5325V29.5327Z" fill="url(#paint0_linear_653_66687)"/>
<g style="mix-blend-mode:saturation">
<rect x="0.594482" width="32" height="32" fill="#D9D9D9"/>
</g>
<path d="M54.2042 21.5V9.86364H58.3519C59.2572 9.86364 60.0072 10.0284 60.6019 10.358C61.1966 10.6875 61.6417 11.1383 61.9371 11.7102C62.2326 12.2784 62.3803 12.9186 62.3803 13.6307C62.3803 14.3466 62.2307 14.9905 61.9315 15.5625C61.636 16.1307 61.189 16.5814 60.5906 16.9148C59.9959 17.2443 59.2478 17.4091 58.3462 17.4091H55.494V15.9205H58.1871C58.7591 15.9205 59.2231 15.822 59.5792 15.625C59.9353 15.4242 60.1966 15.1515 60.3633 14.8068C60.5299 14.4621 60.6133 14.0701 60.6133 13.6307C60.6133 13.1913 60.5299 12.8011 60.3633 12.4602C60.1966 12.1193 59.9334 11.8523 59.5735 11.6591C59.2174 11.4659 58.7478 11.3693 58.1644 11.3693H55.9599V21.5H54.2042ZM66.0011 16.3182V21.5H64.3022V9.86364H65.9783V14.1932H66.0863C66.2908 13.7235 66.6033 13.3504 67.0238 13.0739C67.4442 12.7973 67.9935 12.6591 68.6715 12.6591C69.27 12.6591 69.7927 12.7822 70.2397 13.0284C70.6905 13.2746 71.0389 13.642 71.2852 14.1307C71.5352 14.6155 71.6602 15.2216 71.6602 15.9489V21.5H69.9613V16.1534C69.9613 15.5133 69.7965 15.017 69.467 14.6648C69.1374 14.3087 68.6791 14.1307 68.092 14.1307C67.6905 14.1307 67.3306 14.2159 67.0124 14.3864C66.698 14.5568 66.4499 14.8068 66.2681 15.1364C66.0901 15.4621 66.0011 15.8561 66.0011 16.3182ZM74.6886 24.7727C74.4348 24.7727 74.2037 24.7519 73.9954 24.7102C73.7871 24.6723 73.6317 24.6307 73.5295 24.5852L73.9386 23.1932C74.2492 23.2765 74.5257 23.3125 74.7681 23.3011C75.0105 23.2898 75.2246 23.1989 75.4102 23.0284C75.5996 22.858 75.7662 22.5795 75.9102 22.1932L76.1204 21.6136L72.9272 12.7727H74.7454L76.9556 19.5455H77.0465L79.2567 12.7727H81.0806L77.484 22.6648C77.3174 23.1193 77.1052 23.5038 76.8477 23.8182C76.5901 24.1364 76.2833 24.375 75.9272 24.5341C75.5711 24.6932 75.1583 24.7727 74.6886 24.7727ZM86.7511 12.7727V14.1364H81.984V12.7727H86.7511ZM83.2624 10.6818H84.9613V18.9375C84.9613 19.267 85.0105 19.5152 85.109 19.6818C85.2075 19.8447 85.3344 19.9564 85.4897 20.017C85.6488 20.0739 85.8211 20.1023 86.0067 20.1023C86.1431 20.1023 86.2624 20.0928 86.3647 20.0739C86.467 20.0549 86.5465 20.0398 86.6033 20.0284L86.9102 21.4318C86.8117 21.4697 86.6715 21.5076 86.4897 21.5455C86.3079 21.5871 86.0806 21.6098 85.8079 21.6136C85.3609 21.6212 84.9442 21.5417 84.5579 21.375C84.1715 21.2083 83.859 20.9508 83.6204 20.6023C83.3817 20.2538 83.2624 19.8163 83.2624 19.2898V10.6818ZM92.2127 21.6761C91.3945 21.6761 90.6805 21.4886 90.0707 21.1136C89.4608 20.7386 88.9873 20.214 88.6502 19.5398C88.3131 18.8655 88.1445 18.0777 88.1445 17.1761C88.1445 16.2708 88.3131 15.4792 88.6502 14.8011C88.9873 14.1231 89.4608 13.5966 90.0707 13.2216C90.6805 12.8466 91.3945 12.6591 92.2127 12.6591C93.0309 12.6591 93.7449 12.8466 94.3548 13.2216C94.9646 13.5966 95.4381 14.1231 95.7752 14.8011C96.1123 15.4792 96.2809 16.2708 96.2809 17.1761C96.2809 18.0777 96.1123 18.8655 95.7752 19.5398C95.4381 20.214 94.9646 20.7386 94.3548 21.1136C93.7449 21.4886 93.0309 21.6761 92.2127 21.6761ZM92.2184 20.25C92.7487 20.25 93.1881 20.1098 93.5366 19.8295C93.8851 19.5492 94.1426 19.1761 94.3093 18.7102C94.4798 18.2443 94.565 17.7311 94.565 17.1705C94.565 16.6136 94.4798 16.1023 94.3093 15.6364C94.1426 15.1667 93.8851 14.7898 93.5366 14.5057C93.1881 14.2216 92.7487 14.0795 92.2184 14.0795C91.6843 14.0795 91.2411 14.2216 90.8888 14.5057C90.5404 14.7898 90.2809 15.1667 90.1104 15.6364C89.9438 16.1023 89.8604 16.6136 89.8604 17.1705C89.8604 17.7311 89.9438 18.2443 90.1104 18.7102C90.2809 19.1761 90.5404 19.5492 90.8888 19.8295C91.2411 20.1098 91.6843 20.25 92.2184 20.25ZM99.8761 16.3182V21.5H98.1772V12.7727H99.8079V14.1932H99.9158C100.117 13.7311 100.431 13.3598 100.859 13.0795C101.291 12.7992 101.834 12.6591 102.49 12.6591C103.084 12.6591 103.605 12.7841 104.052 13.0341C104.499 13.2803 104.846 13.6477 105.092 14.1364C105.338 14.625 105.461 15.2292 105.461 15.9489V21.5H103.762V16.1534C103.762 15.5208 103.598 15.0265 103.268 14.6705C102.939 14.3106 102.486 14.1307 101.91 14.1307C101.516 14.1307 101.166 14.2159 100.859 14.3864C100.556 14.5568 100.315 14.8068 100.137 15.1364C99.9632 15.4621 99.8761 15.8561 99.8761 16.3182Z" fill="#C8C8C8"/>
<defs>
<linearGradient id="paint0_linear_653_66687" x1="13.4703" y1="13.0122" x2="30.5892" y2="29.1952" gradientUnits="userSpaceOnUse">
<stop stop-color="#FFE052"/>
<stop offset="1" stop-color="#FFC331"/>
</linearGradient>
</defs>
</svg>
