<svg width="129" height="32" viewBox="0 0 129 32" fill="none" xmlns="http://www.w3.org/2000/svg">
<path d="M0.594482 27.8739C0.594482 30.1529 2.44186 32 4.72061 32H28.4682C30.7474 32 32.5945 30.1526 32.5945 27.8739V4.12625C32.5945 1.84712 30.7471 0 28.4684 0H4.72073C2.44161 0 0.594482 1.84737 0.594482 4.12612V27.8738V27.8739Z" fill="#61DAFB"/>
<path d="M13.8644 14.1547V9.62313H17.8533C18.2333 9.62313 18.5995 9.65475 18.9523 9.71813C19.305 9.78138 19.6172 9.89438 19.8885 10.0573C20.1598 10.2201 20.3769 10.4463 20.5398 10.7356C20.7025 11.0251 20.784 11.396 20.784 11.8481C20.784 12.6623 20.5398 13.2503 20.0513 13.612C19.5629 13.9739 18.9388 14.1547 18.1789 14.1547H13.8644V14.1547ZM9.604 6.3125V25.6875H18.993C19.8614 25.6875 20.7072 25.579 21.5303 25.3619C22.3534 25.1448 23.086 24.8101 23.7283 24.3579C24.3704 23.9056 24.8815 23.3221 25.2614 22.6076C25.6414 21.893 25.8313 21.0473 25.8313 20.0704C25.8313 18.8583 25.5373 17.8226 24.9494 16.9634C24.3614 16.104 23.4704 15.5025 22.2764 15.1587C23.1448 14.7427 23.8007 14.209 24.2439 13.5577C24.687 12.9065 24.9087 12.0925 24.9087 11.1155C24.9087 10.211 24.7594 9.45125 24.4609 8.83613C24.1624 8.22113 23.7418 7.72813 23.199 7.35725C22.6564 6.98638 22.0052 6.7195 21.2453 6.55675C20.4855 6.39387 19.6443 6.3125 18.7217 6.3125H9.604V6.3125ZM13.8644 22.3769V17.0583H18.5045C19.4272 17.0583 20.1689 17.2707 20.7298 17.696C21.2905 18.1211 21.571 18.8311 21.571 19.8261C21.571 20.3327 21.485 20.7488 21.3132 21.0744C21.1413 21.4 20.9107 21.6579 20.6212 21.8477C20.3318 22.0377 19.997 22.1734 19.6172 22.2549C19.2372 22.3361 18.8393 22.3769 18.4232 22.3769H13.8644V22.3769Z" fill="white"/>
<g style="mix-blend-mode:saturation">
<rect x="0.594482" width="32" height="32" fill="#D9D9D9"/>
</g>
<path d="M54.3026 21.5V9.86364H58.5639C59.3897 9.86364 60.0734 10 60.6151 10.2727C61.1567 10.5417 61.562 10.9072 61.831 11.3693C62.0999 11.8277 62.2344 12.3447 62.2344 12.9205C62.2344 13.4053 62.1454 13.8144 61.9674 14.1477C61.7893 14.4773 61.5507 14.7424 61.2514 14.9432C60.956 15.1402 60.6302 15.2841 60.2742 15.375V15.4886C60.6605 15.5076 61.0374 15.6326 61.4049 15.8636C61.7761 16.0909 62.0829 16.4148 62.3253 16.8352C62.5677 17.2557 62.6889 17.767 62.6889 18.3693C62.6889 18.964 62.5488 19.4981 62.2685 19.9716C61.992 20.4413 61.5639 20.8144 60.9844 21.0909C60.4049 21.3636 59.6643 21.5 58.7628 21.5H54.3026ZM56.0583 19.9943H58.5924C59.4333 19.9943 60.0355 19.8314 60.3992 19.5057C60.7628 19.1799 60.9446 18.7727 60.9446 18.2841C60.9446 17.9167 60.8518 17.5795 60.6662 17.2727C60.4806 16.9659 60.2155 16.7216 59.8708 16.5398C59.5299 16.358 59.1245 16.267 58.6549 16.267H56.0583V19.9943ZM56.0583 14.8977H58.4105C58.8045 14.8977 59.1586 14.822 59.473 14.6705C59.7912 14.5189 60.0431 14.3068 60.2287 14.0341C60.4181 13.7576 60.5128 13.4318 60.5128 13.0568C60.5128 12.5758 60.3442 12.1723 60.0071 11.8466C59.67 11.5208 59.153 11.358 58.456 11.358H56.0583V14.8977ZM68.3111 21.6761C67.4929 21.6761 66.7789 21.4886 66.1691 21.1136C65.5592 20.7386 65.0857 20.214 64.7486 19.5398C64.4115 18.8655 64.2429 18.0777 64.2429 17.1761C64.2429 16.2708 64.4115 15.4792 64.7486 14.8011C65.0857 14.1231 65.5592 13.5966 66.1691 13.2216C66.7789 12.8466 67.4929 12.6591 68.3111 12.6591C69.1293 12.6591 69.8433 12.8466 70.4531 13.2216C71.063 13.5966 71.5365 14.1231 71.8736 14.8011C72.2107 15.4792 72.3793 16.2708 72.3793 17.1761C72.3793 18.0777 72.2107 18.8655 71.8736 19.5398C71.5365 20.214 71.063 20.7386 70.4531 21.1136C69.8433 21.4886 69.1293 21.6761 68.3111 21.6761ZM68.3168 20.25C68.8471 20.25 69.2865 20.1098 69.635 19.8295C69.9835 19.5492 70.241 19.1761 70.4077 18.7102C70.5781 18.2443 70.6634 17.7311 70.6634 17.1705C70.6634 16.6136 70.5781 16.1023 70.4077 15.6364C70.241 15.1667 69.9835 14.7898 69.635 14.5057C69.2865 14.2216 68.8471 14.0795 68.3168 14.0795C67.7827 14.0795 67.3395 14.2216 66.9872 14.5057C66.6388 14.7898 66.3793 15.1667 66.2088 15.6364C66.0422 16.1023 65.9588 16.6136 65.9588 17.1705C65.9588 17.7311 66.0422 18.2443 66.2088 18.7102C66.3793 19.1761 66.6388 19.5492 66.9872 19.8295C67.3395 20.1098 67.7827 20.25 68.3168 20.25ZM77.9517 21.6761C77.1335 21.6761 76.4195 21.4886 75.8097 21.1136C75.1998 20.7386 74.7263 20.214 74.3892 19.5398C74.0521 18.8655 73.8835 18.0777 73.8835 17.1761C73.8835 16.2708 74.0521 15.4792 74.3892 14.8011C74.7263 14.1231 75.1998 13.5966 75.8097 13.2216C76.4195 12.8466 77.1335 12.6591 77.9517 12.6591C78.7699 12.6591 79.4839 12.8466 80.0938 13.2216C80.7036 13.5966 81.1771 14.1231 81.5142 14.8011C81.8513 15.4792 82.0199 16.2708 82.0199 17.1761C82.0199 18.0777 81.8513 18.8655 81.5142 19.5398C81.1771 20.214 80.7036 20.7386 80.0938 21.1136C79.4839 21.4886 78.7699 21.6761 77.9517 21.6761ZM77.9574 20.25C78.4877 20.25 78.9271 20.1098 79.2756 19.8295C79.6241 19.5492 79.8817 19.1761 80.0483 18.7102C80.2188 18.2443 80.304 17.7311 80.304 17.1705C80.304 16.6136 80.2188 16.1023 80.0483 15.6364C79.8817 15.1667 79.6241 14.7898 79.2756 14.5057C78.9271 14.2216 78.4877 14.0795 77.9574 14.0795C77.4233 14.0795 76.9801 14.2216 76.6279 14.5057C76.2794 14.7898 76.0199 15.1667 75.8495 15.6364C75.6828 16.1023 75.5995 16.6136 75.5995 17.1705C75.5995 17.7311 75.6828 18.2443 75.8495 18.7102C76.0199 19.1761 76.2794 19.5492 76.6279 19.8295C76.9801 20.1098 77.4233 20.25 77.9574 20.25ZM87.9901 12.7727V14.1364H83.223V12.7727H87.9901ZM84.5014 10.6818H86.2003V18.9375C86.2003 19.267 86.2495 19.5152 86.348 19.6818C86.4465 19.8447 86.5734 19.9564 86.7287 20.017C86.8878 20.0739 87.0602 20.1023 87.2458 20.1023C87.3821 20.1023 87.5014 20.0928 87.6037 20.0739C87.706 20.0549 87.7855 20.0398 87.8424 20.0284L88.1492 21.4318C88.0507 21.4697 87.9105 21.5076 87.7287 21.5455C87.5469 21.5871 87.3196 21.6098 87.0469 21.6136C86.5999 21.6212 86.1833 21.5417 85.7969 21.375C85.4105 21.2083 85.098 20.9508 84.8594 20.6023C84.6208 20.2538 84.5014 19.8163 84.5014 19.2898V10.6818ZM96.2685 14.9034L94.7287 15.1761C94.6643 14.9792 94.562 14.7917 94.4219 14.6136C94.2855 14.4356 94.0999 14.2898 93.8651 14.1761C93.6302 14.0625 93.3367 14.0057 92.9844 14.0057C92.5033 14.0057 92.1018 14.1136 91.7799 14.3295C91.4579 14.5417 91.2969 14.8163 91.2969 15.1534C91.2969 15.4451 91.4049 15.6799 91.6208 15.858C91.8367 16.036 92.1852 16.1818 92.6662 16.2955L94.0526 16.6136C94.8556 16.7992 95.4541 17.0852 95.848 17.4716C96.242 17.858 96.4389 18.3598 96.4389 18.9773C96.4389 19.5 96.2874 19.9659 95.9844 20.375C95.6852 20.7803 95.2666 21.0985 94.7287 21.3295C94.1946 21.5606 93.5753 21.6761 92.8708 21.6761C91.8935 21.6761 91.0961 21.4678 90.4787 21.0511C89.8613 20.6307 89.4825 20.0341 89.3424 19.2614L90.9844 19.0114C91.0867 19.4394 91.2969 19.7633 91.6151 19.983C91.9333 20.1989 92.348 20.3068 92.8594 20.3068C93.4162 20.3068 93.8613 20.1913 94.1946 19.9602C94.528 19.7254 94.6946 19.4394 94.6946 19.1023C94.6946 18.8295 94.5924 18.6004 94.3878 18.4148C94.187 18.2292 93.8783 18.089 93.4617 17.9943L91.9844 17.6705C91.17 17.4848 90.5677 17.1894 90.1776 16.7841C89.7912 16.3788 89.598 15.8655 89.598 15.2443C89.598 14.7292 89.742 14.2784 90.0299 13.892C90.3177 13.5057 90.7155 13.2045 91.223 12.9886C91.7306 12.7689 92.312 12.6591 92.9674 12.6591C93.9105 12.6591 94.653 12.8636 95.1946 13.2727C95.7363 13.678 96.0942 14.2216 96.2685 14.9034ZM102.381 12.7727V14.1364H97.6137V12.7727H102.381ZM98.8921 10.6818H100.591V18.9375C100.591 19.267 100.64 19.5152 100.739 19.6818C100.837 19.8447 100.964 19.9564 101.119 20.017C101.278 20.0739 101.451 20.1023 101.636 20.1023C101.773 20.1023 101.892 20.0928 101.994 20.0739C102.097 20.0549 102.176 20.0398 102.233 20.0284L102.54 21.4318C102.441 21.4697 102.301 21.5076 102.119 21.5455C101.938 21.5871 101.71 21.6098 101.438 21.6136C100.991 21.6212 100.574 21.5417 100.188 21.375C99.8012 21.2083 99.4887 20.9508 99.25 20.6023C99.0114 20.2538 98.8921 19.8163 98.8921 19.2898V10.6818ZM104.26 21.5V12.7727H105.902V14.1591H105.993C106.152 13.6894 106.432 13.3201 106.834 13.0511C107.239 12.7784 107.697 12.642 108.209 12.642C108.315 12.642 108.44 12.6458 108.584 12.6534C108.732 12.661 108.847 12.6705 108.93 12.6818V14.3068C108.862 14.2879 108.741 14.267 108.567 14.2443C108.393 14.2178 108.218 14.2045 108.044 14.2045C107.643 14.2045 107.285 14.2898 106.97 14.4602C106.66 14.6269 106.413 14.8598 106.232 15.1591C106.05 15.4545 105.959 15.7917 105.959 16.1705V21.5H104.26ZM112.862 21.6932C112.309 21.6932 111.809 21.5909 111.362 21.3864C110.915 21.178 110.561 20.8769 110.3 20.483C110.042 20.089 109.913 19.6061 109.913 19.0341C109.913 18.5417 110.008 18.1364 110.197 17.8182C110.387 17.5 110.643 17.2481 110.965 17.0625C111.286 16.8769 111.646 16.7367 112.044 16.642C112.442 16.5473 112.847 16.4754 113.26 16.4261C113.783 16.3655 114.207 16.3163 114.533 16.2784C114.858 16.2367 115.095 16.1705 115.243 16.0795C115.391 15.9886 115.465 15.8409 115.465 15.6364V15.5966C115.465 15.1004 115.324 14.7159 115.044 14.4432C114.768 14.1705 114.355 14.0341 113.805 14.0341C113.233 14.0341 112.783 14.161 112.453 14.4148C112.127 14.6648 111.902 14.9432 111.777 15.25L110.18 14.8864C110.37 14.3561 110.646 13.928 111.01 13.6023C111.377 13.2727 111.8 13.0341 112.277 12.8864C112.754 12.7348 113.256 12.6591 113.783 12.6591C114.131 12.6591 114.5 12.7008 114.891 12.7841C115.285 12.8636 115.652 13.0114 115.993 13.2273C116.338 13.4432 116.62 13.7519 116.84 14.1534C117.059 14.5511 117.169 15.0682 117.169 15.7045V21.5H115.51V20.3068H115.442C115.332 20.5265 115.167 20.7424 114.947 20.9545C114.728 21.1667 114.446 21.3428 114.101 21.483C113.756 21.6231 113.343 21.6932 112.862 21.6932ZM113.232 20.3295C113.701 20.3295 114.103 20.2367 114.436 20.0511C114.773 19.8655 115.029 19.6231 115.203 19.3239C115.381 19.0208 115.47 18.697 115.47 18.3523V17.2273C115.41 17.2879 115.292 17.3447 115.118 17.3977C114.947 17.447 114.752 17.4905 114.533 17.5284C114.313 17.5625 114.099 17.5947 113.891 17.625C113.682 17.6515 113.508 17.6742 113.368 17.6932C113.038 17.7348 112.737 17.8049 112.465 17.9034C112.196 18.0019 111.98 18.1439 111.817 18.3295C111.658 18.5114 111.578 18.7538 111.578 19.0568C111.578 19.4773 111.733 19.7955 112.044 20.0114C112.355 20.2235 112.75 20.3295 113.232 20.3295ZM119.432 24.7727V12.7727H121.091V14.1875H121.233C121.331 14.0057 121.474 13.7955 121.659 13.5568C121.845 13.3182 122.102 13.1098 122.432 12.9318C122.761 12.75 123.197 12.6591 123.739 12.6591C124.443 12.6591 125.072 12.8371 125.625 13.1932C126.178 13.5492 126.612 14.0625 126.926 14.733C127.244 15.4034 127.403 16.2102 127.403 17.1534C127.403 18.0966 127.246 18.9053 126.932 19.5795C126.617 20.25 126.186 20.767 125.636 21.1307C125.087 21.4905 124.46 21.6705 123.756 21.6705C123.225 21.6705 122.792 21.5814 122.455 21.4034C122.121 21.2254 121.86 21.017 121.67 20.7784C121.481 20.5398 121.335 20.3277 121.233 20.142H121.131V24.7727H119.432ZM121.097 17.1364C121.097 17.75 121.186 18.2879 121.364 18.75C121.542 19.2121 121.799 19.5739 122.136 19.8352C122.474 20.0928 122.886 20.2216 123.375 20.2216C123.883 20.2216 124.307 20.0871 124.648 19.8182C124.989 19.5455 125.246 19.1761 125.42 18.7102C125.599 18.2443 125.688 17.7197 125.688 17.1364C125.688 16.5606 125.6 16.0436 125.426 15.5852C125.256 15.1269 124.998 14.7652 124.653 14.5C124.313 14.2348 123.886 14.1023 123.375 14.1023C122.883 14.1023 122.466 14.2292 122.125 14.483C121.788 14.7367 121.532 15.0909 121.358 15.5455C121.184 16 121.097 16.5303 121.097 17.1364Z" fill="#C8C8C8"/>
</svg>
