<svg width="97" height="32" viewBox="0 0 97 32" fill="none" xmlns="http://www.w3.org/2000/svg">
<path d="M17.1852 18.8211C18.7433 18.8211 20.0064 17.558 20.0064 15.9999C20.0064 14.4418 18.7433 13.1787 17.1852 13.1787C15.6271 13.1787 14.364 14.4418 14.364 15.9999C14.364 17.558 15.6271 18.8211 17.1852 18.8211Z" fill="#61DAFB"/>
<path d="M17.1852 21.7802C25.5458 21.7802 32.3234 19.1924 32.3234 16.0002C32.3234 12.808 25.5458 10.2202 17.1852 10.2202C8.82469 10.2202 2.04712 12.808 2.04712 16.0002C2.04712 19.1924 8.82469 21.7802 17.1852 21.7802Z" stroke="#61DAFB" stroke-width="3"/>
<path d="M12.1796 18.89C16.3599 26.1305 21.9898 30.7061 24.7543 29.11C27.5188 27.5139 26.3712 20.3504 22.1909 13.11C18.0106 5.86954 12.3807 1.2939 9.61619 2.89C6.85166 4.48611 7.99934 11.6496 12.1796 18.89Z" stroke="#61DAFB" stroke-width="3"/>
<path d="M12.1797 13.1098C7.99941 20.3502 6.85172 27.5137 9.61626 29.1098C12.3808 30.7059 18.0107 26.1302 22.191 18.8898C26.3712 11.6493 27.5189 4.48589 24.7544 2.88978C21.9898 1.29367 16.36 5.86932 12.1797 13.1098Z" stroke="#61DAFB" stroke-width="3"/>
<g style="mix-blend-mode:saturation">
<rect x="0.904541" width="32" height="32" fill="#D9D9D9"/>
</g>
<path d="M54.3158 21.5V9.86364H58.4635C59.365 9.86364 60.1131 10.0189 60.7078 10.3295C61.3063 10.6402 61.7533 11.0701 62.0487 11.6193C62.3442 12.1648 62.4919 12.7955 62.4919 13.5114C62.4919 14.2235 62.3423 14.8504 62.043 15.392C61.7476 15.9299 61.3006 16.3485 60.7021 16.6477C60.1074 16.947 59.3593 17.0966 58.4578 17.0966H55.3158V15.5852H58.2987C58.8669 15.5852 59.329 15.5038 59.6851 15.3409C60.0449 15.178 60.3082 14.9413 60.4749 14.6307C60.6415 14.3201 60.7249 13.947 60.7249 13.5114C60.7249 13.072 60.6396 12.6913 60.4692 12.3693C60.3025 12.0473 60.0392 11.8011 59.6794 11.6307C59.3233 11.4564 58.8555 11.3693 58.276 11.3693H56.0714V21.5H54.3158ZM60.0601 16.25L62.9351 21.5H60.9351L58.1169 16.25H60.0601ZM68.1439 21.6761C67.284 21.6761 66.5435 21.4924 65.9223 21.125C65.3049 20.7538 64.8276 20.233 64.4905 19.5625C64.1571 18.8883 63.9905 18.0985 63.9905 17.1932C63.9905 16.2992 64.1571 15.5114 64.4905 14.8295C64.8276 14.1477 65.2973 13.6155 65.8996 13.233C66.5056 12.8504 67.214 12.6591 68.0246 12.6591C68.517 12.6591 68.9943 12.7405 69.4564 12.9034C69.9185 13.0663 70.3333 13.322 70.7007 13.6705C71.0681 14.0189 71.3579 14.4716 71.57 15.0284C71.7821 15.5814 71.8882 16.2538 71.8882 17.0455V17.6477H64.9507V16.375H70.2234C70.2234 15.928 70.1325 15.5322 69.9507 15.1875C69.7689 14.839 69.5132 14.5644 69.1837 14.3636C68.8579 14.1629 68.4753 14.0625 68.0359 14.0625C67.5587 14.0625 67.142 14.1799 66.7859 14.4148C66.4337 14.6458 66.1609 14.9489 65.9678 15.3239C65.7784 15.6951 65.6837 16.0985 65.6837 16.5341V17.5284C65.6837 18.1117 65.7859 18.608 65.9905 19.017C66.1988 19.4261 66.4886 19.7386 66.8598 19.9545C67.231 20.1667 67.6647 20.2727 68.1609 20.2727C68.4829 20.2727 68.7765 20.2273 69.0416 20.1364C69.3068 20.0417 69.5359 19.9015 69.7291 19.7159C69.9223 19.5303 70.07 19.3011 70.1723 19.0284L71.7803 19.3182C71.6515 19.7917 71.4204 20.2064 71.0871 20.5625C70.7575 20.9148 70.3428 21.1894 69.8428 21.3864C69.3465 21.5795 68.7803 21.6761 68.1439 21.6761ZM76.3129 21.6932C75.7599 21.6932 75.2599 21.5909 74.8129 21.3864C74.366 21.178 74.0118 20.8769 73.7504 20.483C73.4928 20.089 73.3641 19.6061 73.3641 19.0341C73.3641 18.5417 73.4588 18.1364 73.6481 17.8182C73.8375 17.5 74.0932 17.2481 74.4152 17.0625C74.7372 16.8769 75.097 16.7367 75.4947 16.642C75.8925 16.5473 76.2978 16.4754 76.7106 16.4261C77.2334 16.3655 77.6576 16.3163 77.9834 16.2784C78.3091 16.2367 78.5459 16.1705 78.6936 16.0795C78.8413 15.9886 78.9152 15.8409 78.9152 15.6364V15.5966C78.9152 15.1004 78.775 14.7159 78.4947 14.4432C78.2182 14.1705 77.8053 14.0341 77.2561 14.0341C76.6841 14.0341 76.2334 14.161 75.9038 14.4148C75.5781 14.6648 75.3527 14.9432 75.2277 15.25L73.6311 14.8864C73.8205 14.3561 74.097 13.928 74.4606 13.6023C74.8281 13.2727 75.2504 13.0341 75.7277 12.8864C76.205 12.7348 76.7069 12.6591 77.2334 12.6591C77.5819 12.6591 77.9512 12.7008 78.3413 12.7841C78.7353 12.8636 79.1027 13.0114 79.4436 13.2273C79.7883 13.4432 80.0705 13.7519 80.2902 14.1534C80.5099 14.5511 80.6197 15.0682 80.6197 15.7045V21.5H78.9606V20.3068H78.8925C78.7826 20.5265 78.6178 20.7424 78.3981 20.9545C78.1785 21.1667 77.8963 21.3428 77.5516 21.483C77.2069 21.6231 76.794 21.6932 76.3129 21.6932ZM76.6822 20.3295C77.1519 20.3295 77.5535 20.2367 77.8868 20.0511C78.2239 19.8655 78.4796 19.6231 78.6538 19.3239C78.8319 19.0208 78.9209 18.697 78.9209 18.3523V17.2273C78.8603 17.2879 78.7428 17.3447 78.5686 17.3977C78.3981 17.447 78.2031 17.4905 77.9834 17.5284C77.7637 17.5625 77.5497 17.5947 77.3413 17.625C77.133 17.6515 76.9588 17.6742 76.8186 17.6932C76.4891 17.7348 76.1879 17.8049 75.9152 17.9034C75.6463 18.0019 75.4303 18.1439 75.2675 18.3295C75.1084 18.5114 75.0288 18.7538 75.0288 19.0568C75.0288 19.4773 75.1841 19.7955 75.4947 20.0114C75.8053 20.2235 76.2012 20.3295 76.6822 20.3295ZM86.5587 21.6761C85.714 21.6761 84.9867 21.4848 84.3768 21.1023C83.7708 20.7159 83.3049 20.1837 82.9791 19.5057C82.6534 18.8277 82.4905 18.0511 82.4905 17.1761C82.4905 16.2898 82.6571 15.5076 82.9905 14.8295C83.3238 14.1477 83.7935 13.6155 84.3996 13.233C85.0056 12.8504 85.7196 12.6591 86.5416 12.6591C87.2045 12.6591 87.7954 12.7822 88.3143 13.0284C88.8333 13.2708 89.2518 13.6117 89.57 14.0511C89.892 14.4905 90.0833 15.0038 90.1439 15.5909H88.4905C88.3996 15.1818 88.1912 14.8295 87.8655 14.5341C87.5435 14.2386 87.1117 14.0909 86.57 14.0909C86.0965 14.0909 85.6818 14.2159 85.3257 14.4659C84.9734 14.7121 84.6988 15.0644 84.5018 15.5227C84.3049 15.9773 84.2064 16.5152 84.2064 17.1364C84.2064 17.7727 84.303 18.322 84.4962 18.7841C84.6893 19.2462 84.9621 19.6042 85.3143 19.858C85.6704 20.1117 86.089 20.2386 86.57 20.2386C86.892 20.2386 87.1837 20.1799 87.445 20.0625C87.7102 19.9413 87.9318 19.7689 88.1098 19.5455C88.2916 19.322 88.4185 19.053 88.4905 18.7386H90.1439C90.0833 19.303 89.8996 19.8068 89.5928 20.25C89.2859 20.6932 88.8749 21.0417 88.3598 21.2955C87.8484 21.5492 87.2481 21.6761 86.5587 21.6761ZM96.0345 12.7727V14.1364H91.2675V12.7727H96.0345ZM92.5459 10.6818H94.2447V18.9375C94.2447 19.267 94.294 19.5152 94.3925 19.6818C94.491 19.8447 94.6178 19.9564 94.7731 20.017C94.9322 20.0739 95.1046 20.1023 95.2902 20.1023C95.4266 20.1023 95.5459 20.0928 95.6481 20.0739C95.7504 20.0549 95.83 20.0398 95.8868 20.0284L96.1936 21.4318C96.0951 21.4697 95.955 21.5076 95.7731 21.5455C95.5913 21.5871 95.3641 21.6098 95.0913 21.6136C94.6444 21.6212 94.2277 21.5417 93.8413 21.375C93.455 21.2083 93.1425 20.9508 92.9038 20.6023C92.6652 20.2538 92.5459 19.8163 92.5459 19.2898V10.6818Z" fill="#C8C8C8"/>
</svg>
