<svg width="108" height="32" viewBox="0 0 108 32" fill="none" xmlns="http://www.w3.org/2000/svg">
<g opacity="0.8">
<path d="M4.28108 28.8109L1.71423 0H29.934L27.3671 28.7953L15.8008 32" fill="#61DAFB"/>
<path d="M15.8239 29.55V2.36475H27.3591L25.1578 26.9442" fill="#FFC8B1"/>
<path d="M6.95667 5.88818H15.8239V9.41954H10.8303L11.157 13.0365H15.8239V16.56H7.92118L6.95667 5.88818ZM8.07674 18.3335H11.6237L11.8726 21.157L15.8239 22.2149V25.9018L8.57456 23.8794" fill="#EBEBEB"/>
<path d="M24.66 5.88818H15.8082V9.41954H24.3333L24.66 5.88818ZM24.0144 13.0365H15.8082V16.5678H20.1641L19.7518 21.157L15.8082 22.2149V25.8862L23.0421 23.8794" fill="white"/>
<g style="mix-blend-mode:saturation">
<rect width="32" height="32" fill="#D9D9D9"/>
</g>
</g>
<path d="M53.4737 21.5V9.86364H55.2294V14.9205H61.0305V9.86364H62.7919V21.5H61.0305V16.4261H55.2294V21.5H53.4737ZM64.7749 11.375V9.86364H73.7805V11.375H70.1499V21.5H68.3999V11.375H64.7749ZM75.7706 9.86364H77.9013L81.6058 18.9091H81.7422L85.4467 9.86364H87.5774V21.5H85.907V13.0795H85.799L82.3672 21.483H80.9808L77.549 13.0739H77.4411V21.5H75.7706V9.86364ZM90.13 21.5V9.86364H91.8857V19.9886H97.1584V21.5H90.13ZM102.843 21.6591C102.131 21.6591 101.491 21.5227 100.923 21.25C100.358 20.9735 99.9074 20.5947 99.5703 20.1136C99.2332 19.6326 99.0533 19.0833 99.0305 18.4659H100.735C100.777 18.9659 100.998 19.3769 101.4 19.6989C101.801 20.0208 102.282 20.1818 102.843 20.1818C103.29 20.1818 103.686 20.0795 104.031 19.875C104.379 19.6667 104.652 19.3807 104.849 19.017C105.049 18.6534 105.15 18.2386 105.15 17.7727C105.15 17.2992 105.048 16.8769 104.843 16.5057C104.638 16.1345 104.356 15.8428 103.996 15.6307C103.64 15.4186 103.231 15.3106 102.769 15.3068C102.417 15.3068 102.063 15.3674 101.707 15.4886C101.351 15.6098 101.063 15.7689 100.843 15.9659L99.2351 15.7273L99.8885 9.86364H106.286V11.3693H101.349L100.979 14.625H101.048C101.275 14.4053 101.576 14.2216 101.951 14.0739C102.33 13.9261 102.735 13.8523 103.167 13.8523C103.875 13.8523 104.506 14.0208 105.059 14.358C105.616 14.6951 106.053 15.1553 106.371 15.7386C106.693 16.3182 106.853 16.9848 106.849 17.7386C106.853 18.4924 106.682 19.1648 106.337 19.7557C105.996 20.3466 105.523 20.8125 104.917 21.1534C104.315 21.4905 103.623 21.6591 102.843 21.6591Z" fill="#C8C8C8"/>
</svg>
