<svg width="117" height="32" viewBox="0 0 117 32" fill="none" xmlns="http://www.w3.org/2000/svg">
<path d="M14.9234 0.341395C15.7168 -0.112772 16.7503 -0.114823 17.543 0.341395C21.5314 2.59502 25.521 4.84511 29.5087 7.10011C30.2587 7.52259 30.7604 8.3573 30.7528 9.22153V22.7802C30.7583 23.6802 30.2071 24.5349 29.4158 24.9478C25.4405 27.189 21.4673 29.4329 17.4928 31.6741C16.6829 32.1372 15.6287 32.1015 14.8441 31.6005C13.6524 30.9096 12.4585 30.2222 11.2667 29.532C11.0231 29.3868 10.7486 29.2712 10.5766 29.0351C10.7286 28.8301 11.0004 28.8046 11.2213 28.7151C11.7188 28.557 12.1757 28.303 12.6327 28.0566C12.7483 27.9775 12.8893 28.0079 13.0001 28.0786C14.0192 28.6629 15.0293 29.2643 16.0519 29.843C16.27 29.9689 16.4909 29.8017 16.6773 29.6978C20.5783 27.4931 24.484 25.2966 28.3842 23.0912C28.5288 23.0217 28.6087 22.8683 28.5969 22.71C28.5996 18.2373 28.5976 13.7638 28.5983 9.29105C28.6148 9.11143 28.5109 8.94629 28.3485 8.87278C24.387 6.64184 20.4276 4.40747 16.4668 2.17596C16.3982 2.12878 16.3169 2.10347 16.2336 2.10334C16.1504 2.10322 16.069 2.1283 16.0002 2.17527C12.0395 4.40747 8.08076 6.64389 4.11999 8.87472C3.95816 8.94834 3.84954 9.11075 3.8688 9.29105C3.86949 13.7638 3.8688 18.2373 3.8688 22.7107C3.86194 22.7879 3.8789 22.8654 3.91741 22.9327C3.95592 23 4.01414 23.0539 4.08421 23.0871C5.14116 23.6865 6.19947 24.2816 7.25711 24.8789C7.85294 25.1997 8.5845 25.3902 9.24097 25.1445C9.82027 24.9367 10.2263 24.3456 10.2153 23.7305C10.2208 19.2839 10.2126 14.8366 10.2194 10.3906C10.2049 10.1932 10.3922 10.0301 10.5841 10.0487C11.0919 10.0453 11.6005 10.0419 12.1083 10.0501C12.3203 10.0453 12.4662 10.2578 12.44 10.4567C12.4379 14.9315 12.4454 19.4064 12.4365 23.8811C12.4379 25.0737 11.948 26.3714 10.8449 26.9549C9.48589 27.6589 7.80621 27.5096 6.46365 26.8345C5.3014 26.2544 4.19225 25.5698 3.05062 24.9484C2.25728 24.5377 1.70875 23.6796 1.71433 22.7803V9.22153C1.70601 8.33941 2.22765 7.48954 3.00104 7.07321C6.9756 4.83018 10.9495 2.58545 14.9234 0.341395Z" fill="#61DAFB"/>
<path d="M18.3906 9.73365C20.1241 9.62207 21.9798 9.66755 23.5397 10.5215C24.7475 11.1759 25.417 12.5494 25.4383 13.8911C25.4046 14.0721 25.2154 14.1719 25.0426 14.1595C24.5397 14.1588 24.0366 14.1664 23.5337 14.1561C23.3203 14.1643 23.1963 13.9676 23.1696 13.779C23.0251 13.137 22.6749 12.5012 22.0707 12.1915C21.1431 11.7271 20.0676 11.7504 19.0561 11.7601C18.3177 11.7993 17.5237 11.8633 16.8981 12.2975C16.4178 12.6264 16.2719 13.2904 16.4433 13.8251C16.6049 14.2091 17.0482 14.333 17.4108 14.4472C19.4999 14.9936 21.7136 14.9392 23.7628 15.6582C24.6112 15.9513 25.4411 16.5212 25.7315 17.4095C26.1113 18.6 25.9448 20.023 25.0978 20.9788C24.4109 21.7653 23.4105 22.1933 22.4127 22.4258C21.0853 22.7218 19.7078 22.7293 18.3597 22.5979C17.0922 22.4534 15.7731 22.1204 14.7945 21.2567C13.9578 20.5302 13.5491 19.3981 13.5897 18.3055C13.5994 18.121 13.7831 17.9923 13.9598 18.0075C14.4663 18.0034 14.9728 18.002 15.4793 18.0081C15.6816 17.9937 15.8316 18.1685 15.8419 18.3592C15.9354 18.9708 16.1653 19.6128 16.6986 19.9755C17.728 20.6396 19.0196 20.5941 20.1983 20.6127C21.1748 20.5694 22.2709 20.5563 23.0678 19.9109C23.4882 19.5427 23.6128 18.9269 23.4992 18.397C23.3761 17.9497 22.9081 17.7412 22.5063 17.6049C20.444 16.9526 18.2055 17.1893 16.1632 16.4516C15.3341 16.1585 14.5323 15.6045 14.2138 14.7527C13.7693 13.5472 13.9729 12.056 14.9087 11.1325C15.8212 10.2139 17.1383 9.86015 18.3906 9.73353V9.73365Z" fill="#61DAFB"/>
<g style="mix-blend-mode:saturation">
<rect width="32" height="32" fill="#D9D9D9"/>
</g>
<path d="M62.9908 9.86364V21.5H61.3771L55.4624 12.9659H55.3544V21.5H53.5987V9.86364H55.2237L61.1442 18.4091H61.2521V9.86364H62.9908ZM69.0916 21.6761C68.2734 21.6761 67.5594 21.4886 66.9496 21.1136C66.3397 20.7386 65.8662 20.214 65.5291 19.5398C65.192 18.8655 65.0234 18.0777 65.0234 17.1761C65.0234 16.2708 65.192 15.4792 65.5291 14.8011C65.8662 14.1231 66.3397 13.5966 66.9496 13.2216C67.5594 12.8466 68.2734 12.6591 69.0916 12.6591C69.9098 12.6591 70.6238 12.8466 71.2337 13.2216C71.8435 13.5966 72.317 14.1231 72.6541 14.8011C72.9912 15.4792 73.1598 16.2708 73.1598 17.1761C73.1598 18.0777 72.9912 18.8655 72.6541 19.5398C72.317 20.214 71.8435 20.7386 71.2337 21.1136C70.6238 21.4886 69.9098 21.6761 69.0916 21.6761ZM69.0973 20.25C69.6276 20.25 70.067 20.1098 70.4155 19.8295C70.764 19.5492 71.0215 19.1761 71.1882 18.7102C71.3587 18.2443 71.4439 17.7311 71.4439 17.1705C71.4439 16.6136 71.3587 16.1023 71.1882 15.6364C71.0215 15.1667 70.764 14.7898 70.4155 14.5057C70.067 14.2216 69.6276 14.0795 69.0973 14.0795C68.5632 14.0795 68.12 14.2216 67.7678 14.5057C67.4193 14.7898 67.1598 15.1667 66.9893 15.6364C66.8227 16.1023 66.7393 16.6136 66.7393 17.1705C66.7393 17.7311 66.8227 18.2443 66.9893 18.7102C67.1598 19.1761 67.4193 19.5492 67.7678 19.8295C68.12 20.1098 68.5632 20.25 69.0973 20.25ZM78.3232 21.6705C77.6186 21.6705 76.9898 21.4905 76.4368 21.1307C75.8875 20.767 75.4557 20.25 75.1413 19.5795C74.8307 18.9053 74.6754 18.0966 74.6754 17.1534C74.6754 16.2102 74.8326 15.4034 75.147 14.733C75.4652 14.0625 75.9008 13.5492 76.4538 13.1932C77.0069 12.8371 77.6338 12.6591 78.3345 12.6591C78.8762 12.6591 79.3118 12.75 79.6413 12.9318C79.9747 13.1098 80.2322 13.3182 80.4141 13.5568C80.5997 13.7955 80.7436 14.0057 80.8459 14.1875H80.9482V9.86364H82.647V21.5H80.9879V20.142H80.8459C80.7436 20.3277 80.5959 20.5398 80.4027 20.7784C80.2133 21.017 79.9519 21.2254 79.6186 21.4034C79.2853 21.5814 78.8535 21.6705 78.3232 21.6705ZM78.6982 20.2216C79.1868 20.2216 79.5997 20.0928 79.9368 19.8352C80.2777 19.5739 80.5353 19.2121 80.7095 18.75C80.8875 18.2879 80.9766 17.75 80.9766 17.1364C80.9766 16.5303 80.8894 16 80.7152 15.5455C80.541 15.0909 80.2853 14.7367 79.9482 14.483C79.611 14.2292 79.1944 14.1023 78.6982 14.1023C78.1868 14.1023 77.7607 14.2348 77.4197 14.5C77.0788 14.7652 76.8213 15.1269 76.647 15.5852C76.4766 16.0436 76.3913 16.5606 76.3913 17.1364C76.3913 17.7197 76.4785 18.2443 76.6527 18.7102C76.8269 19.1761 77.0845 19.5455 77.4254 19.8182C77.7701 20.0871 78.1944 20.2216 78.6982 20.2216ZM88.8331 21.6761C87.9732 21.6761 87.2327 21.4924 86.6115 21.125C85.9941 20.7538 85.5168 20.233 85.1797 19.5625C84.8464 18.8883 84.6797 18.0985 84.6797 17.1932C84.6797 16.2992 84.8464 15.5114 85.1797 14.8295C85.5168 14.1477 85.9865 13.6155 86.5888 13.233C87.1948 12.8504 87.9032 12.6591 88.7138 12.6591C89.2062 12.6591 89.6835 12.7405 90.1456 12.9034C90.6077 13.0663 91.0225 13.322 91.3899 13.6705C91.7573 14.0189 92.0471 14.4716 92.2592 15.0284C92.4714 15.5814 92.5774 16.2538 92.5774 17.0455V17.6477H85.6399V16.375H90.9126C90.9126 15.928 90.8217 15.5322 90.6399 15.1875C90.4581 14.839 90.2024 14.5644 89.8729 14.3636C89.5471 14.1629 89.1645 14.0625 88.7251 14.0625C88.2479 14.0625 87.8312 14.1799 87.4751 14.4148C87.1229 14.6458 86.8501 14.9489 86.657 15.3239C86.4676 15.6951 86.3729 16.0985 86.3729 16.5341V17.5284C86.3729 18.1117 86.4751 18.608 86.6797 19.017C86.888 19.4261 87.1778 19.7386 87.549 19.9545C87.9202 20.1667 88.3539 20.2727 88.8501 20.2727C89.1721 20.2727 89.4657 20.2273 89.7308 20.1364C89.996 20.0417 90.2251 19.9015 90.4183 19.7159C90.6115 19.5303 90.7592 19.3011 90.8615 19.0284L92.4695 19.3182C92.3407 19.7917 92.1096 20.2064 91.7763 20.5625C91.4467 20.9148 91.032 21.1894 90.532 21.3864C90.0357 21.5795 89.4695 21.6761 88.8331 21.6761ZM103.356 9.86364H105.106V18.1136C105.106 18.8598 104.958 19.4981 104.663 20.0284C104.371 20.5587 103.96 20.964 103.43 21.2443C102.899 21.5208 102.278 21.6591 101.566 21.6591C100.911 21.6591 100.322 21.5398 99.799 21.3011C99.2801 21.0625 98.8691 20.7159 98.5661 20.2614C98.2668 19.803 98.1172 19.2462 98.1172 18.5909H99.8615C99.8615 18.9129 99.9354 19.1913 100.083 19.4261C100.235 19.661 100.441 19.8447 100.702 19.9773C100.968 20.1061 101.271 20.1705 101.612 20.1705C101.983 20.1705 102.297 20.0928 102.555 19.9375C102.816 19.7784 103.015 19.5455 103.151 19.2386C103.288 18.9318 103.356 18.5568 103.356 18.1136V9.86364ZM114.008 12.9205C113.947 12.3826 113.697 11.9659 113.258 11.6705C112.818 11.3712 112.265 11.2216 111.599 11.2216C111.121 11.2216 110.709 11.2973 110.36 11.4489C110.012 11.5966 109.741 11.8011 109.548 12.0625C109.358 12.3201 109.263 12.6136 109.263 12.9432C109.263 13.2197 109.328 13.4583 109.457 13.6591C109.589 13.8598 109.762 14.0284 109.974 14.1648C110.19 14.2973 110.421 14.4091 110.667 14.5C110.913 14.5871 111.15 14.6591 111.377 14.7159L112.513 15.0114C112.885 15.1023 113.265 15.2254 113.656 15.3807C114.046 15.536 114.407 15.7405 114.741 15.9943C115.074 16.2481 115.343 16.5625 115.548 16.9375C115.756 17.3125 115.86 17.7614 115.86 18.2841C115.86 18.9432 115.69 19.5284 115.349 20.0398C115.012 20.5511 114.521 20.9545 113.877 21.25C113.237 21.5455 112.462 21.6932 111.553 21.6932C110.682 21.6932 109.928 21.5549 109.292 21.2784C108.656 21.0019 108.157 20.6098 107.798 20.1023C107.438 19.5909 107.239 18.9848 107.201 18.2841H108.962C108.996 18.7045 109.133 19.0549 109.371 19.3352C109.614 19.6117 109.923 19.8182 110.298 19.9545C110.676 20.0871 111.091 20.1534 111.542 20.1534C112.038 20.1534 112.479 20.0758 112.866 19.9205C113.256 19.7614 113.563 19.5417 113.786 19.2614C114.01 18.9773 114.121 18.6458 114.121 18.267C114.121 17.9223 114.023 17.6402 113.826 17.4205C113.633 17.2008 113.37 17.0189 113.036 16.875C112.707 16.7311 112.334 16.6042 111.917 16.4943L110.542 16.1193C109.61 15.8655 108.871 15.4924 108.326 15C107.784 14.5076 107.513 13.8561 107.513 13.0455C107.513 12.375 107.695 11.7898 108.059 11.2898C108.423 10.7898 108.915 10.4015 109.536 10.125C110.157 9.8447 110.858 9.70455 111.638 9.70455C112.426 9.70455 113.121 9.8428 113.724 10.1193C114.33 10.3958 114.807 10.7765 115.156 11.2614C115.504 11.7424 115.686 12.2955 115.701 12.9205H114.008Z" fill="#C8C8C8"/>
</svg>
