<svg width="85" height="32" viewBox="0 0 85 32" fill="none" xmlns="http://www.w3.org/2000/svg">
<path d="M29.9302 0L27.3597 28.7967L15.805 32L4.28206 28.8012L1.71423 0H29.9302Z" fill="#61DAFB"/>
<path d="M25.1589 26.963L27.3556 2.35498H15.8221V29.5516L25.1589 26.963Z" fill="#B0C6FC"/>
<path d="M7.60083 13.0366L7.91742 16.5689H15.8221V13.0366H7.60083Z" fill="#EBEBEB"/>
<path d="M15.8222 5.88721H15.81H6.96472L7.28583 9.41959H15.8222V5.88721Z" fill="#EBEBEB"/>
<path d="M15.8221 25.8859V22.2108L15.8066 22.2149L11.8726 21.1527L11.6211 18.3354H9.7095H8.0752L8.57008 23.8817L15.8058 25.8904L15.8221 25.8859Z" fill="#EBEBEB"/>
<path d="M20.1595 16.5691L19.7495 21.1503L15.8098 22.2136V25.8886L23.0513 23.8816L23.1044 23.2848L23.9345 13.9853L24.0207 13.0368L24.6584 5.88721H15.8098V9.41959H20.7872L20.4658 13.0368H15.8098V16.5691H20.1595Z" fill="white"/>
<g style="mix-blend-mode:saturation">
<rect width="32" height="32" fill="#D9D9D9"/>
</g>
<path d="M63.2635 13.6477H61.4908C61.4226 13.2689 61.2957 12.9356 61.1101 12.6477C60.9245 12.3598 60.6972 12.1155 60.4283 11.9148C60.1593 11.714 59.8582 11.5625 59.5249 11.4602C59.1953 11.358 58.8449 11.3068 58.4737 11.3068C57.8033 11.3068 57.2029 11.4754 56.6726 11.8125C56.1461 12.1496 55.7294 12.6439 55.4226 13.2955C55.1196 13.947 54.968 14.7424 54.968 15.6818C54.968 16.6288 55.1196 17.428 55.4226 18.0795C55.7294 18.7311 56.148 19.2235 56.6783 19.5568C57.2086 19.8902 57.8052 20.0568 58.468 20.0568C58.8355 20.0568 59.1839 20.0076 59.5135 19.9091C59.8468 19.8068 60.148 19.6572 60.4169 19.4602C60.6858 19.2633 60.9131 19.0227 61.0987 18.7386C61.2881 18.4508 61.4188 18.1212 61.4908 17.75L63.2635 17.7557C63.1688 18.3277 62.9851 18.8542 62.7124 19.3352C62.4434 19.8125 62.0968 20.2254 61.6726 20.5739C61.2521 20.9186 60.7711 21.1856 60.2294 21.375C59.6877 21.5644 59.0968 21.6591 58.4567 21.6591C57.4491 21.6591 56.5514 21.4205 55.7635 20.9432C54.9756 20.4621 54.3544 19.7746 53.8999 18.8807C53.4491 17.9867 53.2237 16.9205 53.2237 15.6818C53.2237 14.4394 53.451 13.3731 53.9055 12.483C54.3601 11.589 54.9813 10.9034 55.7692 10.4261C56.5571 9.94508 57.4529 9.70455 58.4567 9.70455C59.0741 9.70455 59.6499 9.79356 60.1839 9.97159C60.7218 10.1458 61.2048 10.4034 61.6328 10.7443C62.0608 11.0814 62.415 11.4943 62.6953 11.983C62.9756 12.4678 63.165 13.0227 63.2635 13.6477ZM71.7109 12.9205C71.6503 12.3826 71.4003 11.9659 70.9609 11.6705C70.5215 11.3712 69.9685 11.2216 69.3018 11.2216C68.8246 11.2216 68.4117 11.2973 68.0632 11.4489C67.7147 11.5966 67.4439 11.8011 67.2507 12.0625C67.0613 12.3201 66.9666 12.6136 66.9666 12.9432C66.9666 13.2197 67.031 13.4583 67.1598 13.6591C67.2924 13.8598 67.4647 14.0284 67.6768 14.1648C67.8928 14.2973 68.1238 14.4091 68.37 14.5C68.6162 14.5871 68.853 14.6591 69.0803 14.7159L70.2166 15.0114C70.5878 15.1023 70.9685 15.2254 71.3587 15.3807C71.7488 15.536 72.1106 15.7405 72.4439 15.9943C72.7772 16.2481 73.0462 16.5625 73.2507 16.9375C73.459 17.3125 73.5632 17.7614 73.5632 18.2841C73.5632 18.9432 73.3928 19.5284 73.0518 20.0398C72.7147 20.5511 72.2242 20.9545 71.5803 21.25C70.9401 21.5455 70.1655 21.6932 69.2564 21.6932C68.3852 21.6932 67.6314 21.5549 66.995 21.2784C66.3587 21.0019 65.8606 20.6098 65.5007 20.1023C65.1409 19.5909 64.942 18.9848 64.9041 18.2841H66.6655C66.6996 18.7045 66.8359 19.0549 67.0746 19.3352C67.317 19.6117 67.6257 19.8182 68.0007 19.9545C68.3795 20.0871 68.7943 20.1534 69.245 20.1534C69.7412 20.1534 70.1825 20.0758 70.5689 19.9205C70.959 19.7614 71.2659 19.5417 71.4893 19.2614C71.7128 18.9773 71.8246 18.6458 71.8246 18.267C71.8246 17.9223 71.7261 17.6402 71.5291 17.4205C71.3359 17.2008 71.0727 17.0189 70.7393 16.875C70.4098 16.7311 70.0367 16.6042 69.62 16.4943L68.245 16.1193C67.3132 15.8655 66.5746 15.4924 66.0291 15C65.4875 14.5076 65.2166 13.8561 65.2166 13.0455C65.2166 12.375 65.3984 11.7898 65.7621 11.2898C66.1257 10.7898 66.6181 10.4015 67.2393 10.125C67.8606 9.8447 68.5613 9.70455 69.3416 9.70455C70.1295 9.70455 70.8246 9.8428 71.4268 10.1193C72.0329 10.3958 72.5102 10.7765 72.8587 11.2614C73.2072 11.7424 73.389 12.2955 73.4041 12.9205H71.7109ZM82.0078 12.9205C81.9472 12.3826 81.6972 11.9659 81.2578 11.6705C80.8184 11.3712 80.2654 11.2216 79.5987 11.2216C79.1214 11.2216 78.7086 11.2973 78.3601 11.4489C78.0116 11.5966 77.7408 11.8011 77.5476 12.0625C77.3582 12.3201 77.2635 12.6136 77.2635 12.9432C77.2635 13.2197 77.3279 13.4583 77.4567 13.6591C77.5893 13.8598 77.7616 14.0284 77.9737 14.1648C78.1896 14.2973 78.4207 14.4091 78.6669 14.5C78.9131 14.5871 79.1499 14.6591 79.3771 14.7159L80.5135 15.0114C80.8847 15.1023 81.2654 15.2254 81.6555 15.3807C82.0457 15.536 82.4074 15.7405 82.7408 15.9943C83.0741 16.2481 83.343 16.5625 83.5476 16.9375C83.7559 17.3125 83.8601 17.7614 83.8601 18.2841C83.8601 18.9432 83.6896 19.5284 83.3487 20.0398C83.0116 20.5511 82.5211 20.9545 81.8771 21.25C81.237 21.5455 80.4624 21.6932 79.5533 21.6932C78.6821 21.6932 77.9283 21.5549 77.2919 21.2784C76.6555 21.0019 76.1574 20.6098 75.7976 20.1023C75.4377 19.5909 75.2389 18.9848 75.201 18.2841H76.9624C76.9964 18.7045 77.1328 19.0549 77.3714 19.3352C77.6139 19.6117 77.9226 19.8182 78.2976 19.9545C78.6764 20.0871 79.0911 20.1534 79.5419 20.1534C80.0381 20.1534 80.4794 20.0758 80.8658 19.9205C81.2559 19.7614 81.5627 19.5417 81.7862 19.2614C82.0097 18.9773 82.1214 18.6458 82.1214 18.267C82.1214 17.9223 82.023 17.6402 81.826 17.4205C81.6328 17.2008 81.3696 17.0189 81.0362 16.875C80.7067 16.7311 80.3336 16.6042 79.9169 16.4943L78.5419 16.1193C77.6101 15.8655 76.8714 15.4924 76.326 15C75.7843 14.5076 75.5135 13.8561 75.5135 13.0455C75.5135 12.375 75.6953 11.7898 76.0589 11.2898C76.4226 10.7898 76.915 10.4015 77.5362 10.125C78.1574 9.8447 78.8582 9.70455 79.6385 9.70455C80.4264 9.70455 81.1214 9.8428 81.7237 10.1193C82.3298 10.3958 82.8071 10.7765 83.1555 11.2614C83.504 11.7424 83.6858 12.2955 83.701 12.9205H82.0078Z" fill="#C8C8C8"/>
</svg>
