<svg width="40" height="40" viewBox="0 0 40 40" fill="none" xmlns="http://www.w3.org/2000/svg">
<rect width="40" height="40" rx="20" fill="#1A1A1A"/>
<path fill-rule="evenodd" clip-rule="evenodd" d="M14.25 16C14.25 15.5858 14.5858 15.25 15 15.25H25C25.4142 15.25 25.75 15.5858 25.75 16C25.75 16.4142 25.4142 16.75 25 16.75H15C14.5858 16.75 14.25 16.4142 14.25 16ZM14.25 20C14.25 19.5858 14.5858 19.25 15 19.25H25C25.4142 19.25 25.75 19.5858 25.75 20C25.75 20.4142 25.4142 20.75 25 20.75H15C14.5858 20.75 14.25 20.4142 14.25 20ZM15 23.25C14.5858 23.25 14.25 23.5858 14.25 24C14.25 24.4142 14.5858 24.75 15 24.75H25C25.4142 24.75 25.75 24.4142 25.75 24C25.75 23.5858 25.4142 23.25 25 23.25H15Z" fill="white"/>
</svg>
