<svg width="80" height="79" viewBox="0 0 80 79" fill="none" xmlns="http://www.w3.org/2000/svg">
<rect x="1.17355" y="0.219444" width="78.5611" height="78.5611" rx="13.825" fill="white"/>
<rect x="1.17355" y="0.219444" width="78.5611" height="78.5611" rx="13.825" stroke="#D9D9D9" stroke-width="0.438889"/>
<path d="M33.1852 61.4445C37.223 61.4445 40.5 58.1675 40.5 54.1297V46.8149H33.1852C29.1474 46.8149 25.8704 50.092 25.8704 54.1297C25.8704 58.1675 29.1474 61.4445 33.1852 61.4445Z" fill="#0ACF83"/>
<path d="M25.8704 39.4999C25.8704 35.4621 29.1474 32.1851 33.1852 32.1851H40.5V46.8147H33.1852C29.1474 46.8147 25.8704 43.5376 25.8704 39.4999Z" fill="#A259FF"/>
<path d="M25.8704 24.8705C25.8704 20.8327 29.1474 17.5557 33.1852 17.5557H40.5V32.1853H33.1852C29.1474 32.1853 25.8704 28.9083 25.8704 24.8705Z" fill="#F24E1E"/>
<path d="M40.5 17.5557H47.8148C51.8526 17.5557 55.1297 20.8327 55.1297 24.8705C55.1297 28.9083 51.8526 32.1853 47.8148 32.1853H40.5V17.5557Z" fill="#FF7262"/>
<path d="M55.1297 39.4999C55.1297 43.5376 51.8526 46.8147 47.8148 46.8147C43.777 46.8147 40.5 43.5376 40.5 39.4999C40.5 35.4621 43.777 32.1851 47.8148 32.1851C51.8526 32.1851 55.1297 35.4621 55.1297 39.4999Z" fill="#1ABCFE"/>
</svg>
