<svg width="80" height="80" viewBox="0 0 80 80" fill="none" xmlns="http://www.w3.org/2000/svg">
<rect x="1.09835" y="0.397423" width="78.5611" height="78.5611" rx="13.825" fill="white"/>
<rect x="1.09835" y="0.397423" width="78.5611" height="78.5611" rx="13.825" stroke="#D9D9D9" stroke-width="0.438889"/>
<path d="M34.7402 51.4975C34.7402 51.4975 33.063 52.4728 35.9338 52.8028C39.4116 53.1995 41.189 53.1427 45.0217 52.4173C45.0217 52.4173 46.0294 53.0491 47.4365 53.5964C38.8449 57.2786 27.9918 53.383 34.7402 51.4975ZM33.6903 46.6924C33.6903 46.6924 31.8092 48.0849 34.6821 48.3819C38.3972 48.7652 41.3311 48.7966 46.408 47.819C46.408 47.819 47.1102 48.5309 48.2143 48.9202C37.8264 51.9578 26.2562 49.1598 33.6903 46.6924Z" fill="#5382A1"/>
<path d="M42.5414 38.5413C44.6584 40.9786 41.9852 43.1719 41.9852 43.1719C41.9852 43.1719 47.3605 40.397 44.8918 36.922C42.5862 33.6817 40.818 32.0714 50.3901 26.52C50.3901 26.52 35.3651 30.2725 42.5414 38.5412" fill="#E76F00"/>
<path d="M53.9042 55.0518C53.9042 55.0518 55.1454 56.0743 52.5373 56.8655C47.5781 58.3679 31.8964 58.8216 27.5401 56.9254C25.9742 56.2442 28.9108 55.2988 29.8345 55.1003C30.7979 54.8914 31.3485 54.9304 31.3485 54.9304C29.6069 53.7035 20.0919 57.3394 26.5154 58.3805C44.0329 61.2214 58.448 57.1014 53.9042 55.0518ZM35.5466 41.7138C35.5466 41.7138 27.5701 43.6085 32.722 44.2963C34.8973 44.5876 39.2337 44.5218 43.273 44.1832C46.5741 43.9049 49.8888 43.3128 49.8888 43.3128C49.8888 43.3128 48.7248 43.8113 47.8827 44.3863C39.7825 46.5167 24.1344 45.5257 28.6393 43.3465C32.4491 41.5049 35.5468 41.7138 35.5468 41.7138H35.5466ZM49.8559 49.7121C58.0903 45.4333 54.283 41.3214 51.6257 41.8754C50.9743 42.0109 50.6839 42.1283 50.6839 42.1283C50.6839 42.1283 50.9257 41.7496 51.3875 41.5857C56.6446 39.7374 60.6877 47.0368 49.6905 49.9278C49.6905 49.9279 49.8179 49.814 49.8559 49.7121Z" fill="#5382A1"/>
<path d="M44.8914 17.5558C44.8914 17.5558 49.4517 22.1177 40.5662 29.1323C33.441 34.7594 38.9414 37.9678 40.5633 41.6335C36.4041 37.881 33.3518 34.5776 35.3996 31.5032C38.4051 26.9899 46.7313 24.8018 44.8914 17.5557" fill="#E76F00"/>
<path d="M36.3563 61.3065C44.2601 61.8125 56.3974 61.0258 56.6848 57.2859C56.6848 57.2859 56.1323 58.7038 50.1527 59.8296C43.4066 61.0991 35.0863 60.9509 30.1514 60.1373C30.1515 60.1373 31.1616 60.9734 36.3564 61.3065" fill="#5382A1"/>
</svg>
