<svg width="80" height="80" viewBox="0 0 80 80" fill="none" xmlns="http://www.w3.org/2000/svg">
<rect x="0.294884" y="0.397423" width="78.5611" height="78.5611" rx="13.825" fill="white"/>
<rect x="0.294884" y="0.397423" width="78.5611" height="78.5611" rx="13.825" stroke="#D9D9D9" stroke-width="0.438889"/>
<path d="M61.4446 17.5557H17.5557V61.4446H61.4446V17.5557Z" fill="#F7DF1E"/>
<path d="M47.0377 51.844C47.9218 53.2875 49.072 54.3485 51.1062 54.3485C52.8151 54.3485 53.9067 53.4944 53.9067 52.3143C53.9067 50.9001 52.7851 50.3992 50.9041 49.5764L49.8731 49.1341C46.897 47.8662 44.9199 46.2778 44.9199 42.92C44.9199 39.8268 47.2767 37.4722 50.9599 37.4722C53.5821 37.4722 55.4672 38.3848 56.8257 40.7743L53.6141 42.8364C52.907 41.5685 52.1442 41.069 50.9599 41.069C49.7519 41.069 48.9863 41.8353 48.9863 42.8364C48.9863 44.0736 49.7526 44.5745 51.5221 45.3408L52.5531 45.7825C56.0573 47.2852 58.0357 48.8171 58.0357 52.2613C58.0357 55.9745 55.1189 58.0087 51.2016 58.0087C47.3714 58.0087 44.8969 56.1835 43.6862 53.7912L47.0377 51.844ZM32.4687 52.2014C33.1166 53.3509 33.706 54.3227 35.123 54.3227C36.4779 54.3227 37.3327 53.7926 37.3327 51.7312V37.7076H41.4569V51.7869C41.4569 56.0574 38.9531 58.001 35.2985 58.001C31.9964 58.001 30.0841 56.2921 29.1116 54.2339L32.4687 52.2014Z" fill="black"/>
</svg>
