<svg width="80" height="80" viewBox="0 0 80 80" fill="none" xmlns="http://www.w3.org/2000/svg">
<rect x="0.416016" y="0.397545" width="78.5611" height="78.5611" rx="13.825" fill="white"/>
<rect x="0.416016" y="0.397545" width="78.5611" height="78.5611" rx="13.825" stroke="#D9D9D9" stroke-width="0.438889"/>
<path d="M60.6253 27.5691C60.641 27.6272 60.649 27.6872 60.6492 27.7474V37.1108C60.6492 37.2309 60.6174 37.349 60.5572 37.453C60.497 37.557 60.4104 37.6432 60.3061 37.703L52.4473 42.2276V51.1959C52.4473 51.4399 52.3176 51.6652 52.106 51.7881L35.7014 61.2316C35.6638 61.253 35.6229 61.2666 35.5819 61.2811C35.5666 61.2862 35.5521 61.2956 35.5358 61.2999C35.4212 61.3301 35.3006 61.3301 35.186 61.2999C35.1672 61.2948 35.1501 61.2845 35.1322 61.2777C35.0946 61.2641 35.0554 61.2521 35.0195 61.2316L18.6184 51.7881C18.5142 51.7282 18.4276 51.642 18.3674 51.538C18.3072 51.434 18.2754 51.316 18.2753 51.1959V23.1059C18.2753 23.0445 18.2839 22.9847 18.2992 22.9267C18.3044 22.9071 18.3163 22.8891 18.3231 22.8695C18.3359 22.8337 18.3479 22.797 18.3666 22.7637C18.3794 22.7415 18.3982 22.7236 18.4136 22.7031C18.4332 22.6758 18.4511 22.6476 18.4742 22.6237C18.4938 22.6041 18.5194 22.5896 18.5416 22.5725C18.5663 22.5521 18.5885 22.5299 18.6167 22.5137H18.6175L26.8185 17.7919C26.9224 17.7321 27.0401 17.7007 27.1599 17.7007C27.2797 17.7007 27.3974 17.7321 27.5012 17.7919L35.7022 22.5137H35.704C35.7313 22.5307 35.7543 22.5521 35.7791 22.5717C35.8012 22.5888 35.826 22.6041 35.8456 22.6229C35.8695 22.6476 35.8866 22.6758 35.9071 22.7031C35.9216 22.7236 35.9412 22.7415 35.9531 22.7637C35.9728 22.7978 35.9839 22.8337 35.9975 22.8695C36.0043 22.8891 36.0163 22.9071 36.0214 22.9275C36.0371 22.9857 36.0452 23.0457 36.0453 23.1059V40.6506L42.8792 36.7156V27.7466C42.8792 27.6869 42.8877 27.6263 42.9031 27.5691C42.9091 27.5486 42.9202 27.5307 42.927 27.5111C42.9406 27.4752 42.9526 27.4385 42.9714 27.4052C42.9842 27.3831 43.0029 27.3651 43.0174 27.3447C43.0379 27.3173 43.055 27.2892 43.0789 27.2653C43.0985 27.2457 43.1233 27.2312 43.1454 27.2141C43.171 27.1936 43.1932 27.1714 43.2205 27.1552H43.2214L51.4233 22.4334C51.5271 22.3736 51.6448 22.3421 51.7646 22.3421C51.8844 22.3421 52.0021 22.3736 52.106 22.4334L60.307 27.1552C60.336 27.1723 60.3582 27.1936 60.3838 27.2132C60.4051 27.2303 60.4298 27.2457 60.4495 27.2644C60.4734 27.2892 60.4904 27.3173 60.5109 27.3447C60.5263 27.3651 60.5451 27.3831 60.557 27.4052C60.5766 27.4385 60.5877 27.4752 60.6014 27.5111C60.6091 27.5307 60.6201 27.5486 60.6253 27.5691ZM59.282 36.7156V28.9294L56.4121 30.5815L52.4473 32.8643V40.6506L59.2829 36.7156H59.282ZM51.081 50.8007V43.0093L47.1811 45.2367L36.0445 51.5927V59.4574L51.081 50.8007ZM19.6425 24.2878V50.8007L34.6773 59.4566V51.5935L26.8228 47.1483L26.8203 47.1465L26.8168 47.1448C26.7904 47.1295 26.7682 47.1073 26.7434 47.0885C26.7221 47.0714 26.6974 47.0578 26.6786 47.039L26.6769 47.0365C26.6547 47.0151 26.6393 46.9887 26.6206 46.9648C26.6035 46.9417 26.583 46.9221 26.5694 46.8982L26.5685 46.8957C26.5531 46.8701 26.5438 46.8393 26.5327 46.8103C26.5216 46.7847 26.5071 46.7608 26.5002 46.7335V46.7327C26.4917 46.7002 26.49 46.6661 26.4866 46.6328C26.4832 46.6072 26.4763 46.5816 26.4763 46.556V28.2228L22.5124 25.9391L19.6425 24.2887V24.2878ZM27.1607 19.1727L20.3277 23.1059L27.159 27.0391L33.9912 23.105L27.159 19.1727H27.1607ZM30.7142 43.7194L34.6782 41.4374V24.2878L31.8083 25.94L27.8435 28.2228V45.3724L30.7142 43.7194ZM51.7646 23.8142L44.9324 27.7474L51.7646 31.6807L58.5959 27.7466L51.7646 23.8142ZM51.081 32.8643L47.1162 30.5815L44.2463 28.9294V36.7156L48.2103 38.9976L51.081 40.6506V32.8643ZM35.36 50.4107L45.3813 44.6897L50.3907 41.8308L43.5636 37.9001L35.7031 42.4256L28.539 46.55L35.36 50.4107Z" fill="#FF2D20"/>
</svg>
