<svg width="17" height="18" viewBox="0 0 17 18" fill="none" xmlns="http://www.w3.org/2000/svg">
<path fill-rule="evenodd" clip-rule="evenodd" d="M3.99984 2.33341C3.99984 3.25389 3.25365 4.00008 2.33317 4.00008C1.4127 4.00008 0.666504 3.25389 0.666504 2.33341C0.666504 1.41294 1.4127 0.666748 2.33317 0.666748C3.25365 0.666748 3.99984 1.41294 3.99984 2.33341ZM3.99984 6.08343V17.3334H0.666504V6.08343H3.99984ZM6.49993 6.08343H9.83326V6.7846C10.3546 6.60035 10.9155 6.50009 11.4999 6.50009C14.2613 6.50009 16.4999 8.73867 16.4999 11.5001V17.3334H13.1666V11.5001C13.1666 10.5796 12.4204 9.83343 11.4999 9.83343C10.5795 9.83343 9.83326 10.5796 9.83326 11.5001V17.3334H6.49993V11.5001V6.08343Z" fill="#C8C8C8"/>
</svg>
