<svg width="95" height="26" viewBox="0 0 95 26" fill="none" xmlns="http://www.w3.org/2000/svg">
<path d="M37.1431 4.61719C37.0967 4.183 36.9012 3.84493 36.5565 3.60298C36.2151 3.36103 35.771 3.24006 35.2241 3.24006C34.8396 3.24006 34.5098 3.29806 34.2347 3.41406C33.9596 3.53007 33.7492 3.6875 33.6033 3.88636C33.4575 4.08523 33.3829 4.31226 33.3796 4.56747C33.3796 4.77959 33.4277 4.96354 33.5238 5.11932C33.6232 5.27509 33.7575 5.40767 33.9265 5.51705C34.0955 5.62311 34.2828 5.71259 34.4883 5.78551C34.6938 5.85843 34.9009 5.91974 35.1097 5.96946L36.0643 6.2081C36.4487 6.29758 36.8183 6.41856 37.1729 6.57102C37.5309 6.72348 37.8507 6.91572 38.1325 7.14773C38.4175 7.37973 38.6429 7.6598 38.8086 7.98793C38.9743 8.31605 39.0572 8.70052 39.0572 9.14134C39.0572 9.73793 38.9047 10.2633 38.5998 10.7173C38.2949 11.1681 37.854 11.5211 37.2773 11.7763C36.704 12.0282 36.0096 12.1541 35.1942 12.1541C34.4021 12.1541 33.7144 12.0315 33.131 11.7862C32.551 11.541 32.0969 11.183 31.7688 10.7124C31.444 10.2417 31.2683 9.66832 31.2418 8.99219H33.0565C33.083 9.34683 33.1924 9.64181 33.3846 9.87713C33.5768 10.1125 33.8271 10.2881 34.1353 10.4041C34.4469 10.5201 34.7949 10.5781 35.1793 10.5781C35.5804 10.5781 35.9317 10.5185 36.2333 10.3991C36.5382 10.2765 36.7769 10.1075 36.9492 9.89205C37.1216 9.6733 37.2094 9.41809 37.2127 9.12642C37.2094 8.86127 37.1315 8.64252 36.979 8.47017C36.8266 8.29451 36.6128 8.14867 36.3377 8.03267C36.0659 7.91335 35.7478 7.80729 35.3832 7.71449L34.2248 7.41619C33.3862 7.20076 32.7234 6.87429 32.2362 6.43679C31.7522 5.99598 31.5103 5.41098 31.5103 4.68182C31.5103 4.08191 31.6727 3.55658 31.9975 3.10582C32.3256 2.65507 32.7714 2.3054 33.3349 2.05682C33.8983 1.80492 34.5363 1.67898 35.2489 1.67898C35.9715 1.67898 36.6045 1.80492 37.1481 2.05682C37.695 2.3054 38.1242 2.65175 38.4357 3.09588C38.7473 3.53669 38.908 4.0438 38.918 4.61719H37.1431ZM43.9529 12.1491C43.2072 12.1491 42.5609 11.9851 42.014 11.657C41.4672 11.3288 41.0429 10.8698 40.7413 10.2798C40.443 9.68987 40.2939 9.00047 40.2939 8.21165C40.2939 7.42282 40.443 6.73177 40.7413 6.13849C41.0429 5.54522 41.4672 5.08452 42.014 4.75639C42.5609 4.42827 43.2072 4.2642 43.9529 4.2642C44.6987 4.2642 45.345 4.42827 45.8919 4.75639C46.4387 5.08452 46.8613 5.54522 47.1596 6.13849C47.4612 6.73177 47.612 7.42282 47.612 8.21165C47.612 9.00047 47.4612 9.68987 47.1596 10.2798C46.8613 10.8698 46.4387 11.3288 45.8919 11.657C45.345 11.9851 44.6987 12.1491 43.9529 12.1491ZM43.9629 10.7074C44.3672 10.7074 44.7053 10.5964 44.9771 10.3743C45.2489 10.1489 45.4511 9.8473 45.5836 9.46946C45.7195 9.09162 45.7875 8.67069 45.7875 8.20668C45.7875 7.73935 45.7195 7.31676 45.5836 6.93892C45.4511 6.55777 45.2489 6.2545 44.9771 6.02912C44.7053 5.80374 44.3672 5.69105 43.9629 5.69105C43.5486 5.69105 43.2039 5.80374 42.9288 6.02912C42.657 6.2545 42.4532 6.55777 42.3173 6.93892C42.1847 7.31676 42.1184 7.73935 42.1184 8.20668C42.1184 8.67069 42.1847 9.09162 42.3173 9.46946C42.4532 9.8473 42.657 10.1489 42.9288 10.3743C43.2039 10.5964 43.5486 10.7074 43.9629 10.7074ZM50.9393 1.81818V12H49.1396V1.81818H50.9393ZM52.79 12V4.36364H54.5897V12H52.79ZM53.6948 3.27983C53.4097 3.27983 53.1645 3.18537 52.959 2.99645C52.7535 2.80421 52.6507 2.57386 52.6507 2.3054C52.6507 2.03362 52.7535 1.80327 52.959 1.61435C53.1645 1.42211 53.4097 1.32599 53.6948 1.32599C53.9831 1.32599 54.2284 1.42211 54.4306 1.61435C54.6361 1.80327 54.7388 2.03362 54.7388 2.3054C54.7388 2.57386 54.6361 2.80421 54.4306 2.99645C54.2284 3.18537 53.9831 3.27983 53.6948 3.27983ZM59.2741 12.1342C58.6742 12.1342 58.1373 11.9801 57.6634 11.6719C57.1894 11.3636 56.8149 10.9162 56.5398 10.3295C56.2647 9.7429 56.1271 9.0303 56.1271 8.19176C56.1271 7.34328 56.2663 6.62737 56.5447 6.04403C56.8265 5.45739 57.206 5.01491 57.6832 4.71662C58.1605 4.41501 58.6925 4.2642 59.2791 4.2642C59.7266 4.2642 60.0945 4.34044 60.3828 4.4929C60.6712 4.64205 60.8999 4.82268 61.0689 5.0348C61.2379 5.24361 61.3688 5.44081 61.4616 5.62642H61.5362V1.81818H63.3409V12H61.571V10.7969H61.4616C61.3688 10.9825 61.2346 11.1797 61.0589 11.3885C60.8833 11.594 60.6513 11.7696 60.3629 11.9155C60.0746 12.0613 59.7116 12.1342 59.2741 12.1342ZM59.7763 10.6577C60.1574 10.6577 60.4822 10.5549 60.7507 10.3494C61.0192 10.1406 61.223 9.85062 61.3622 9.4794C61.5014 9.10819 61.571 8.67566 61.571 8.18182C61.571 7.68797 61.5014 7.25876 61.3622 6.89418C61.2263 6.52959 61.0241 6.24621 60.7557 6.04403C60.4905 5.84186 60.1641 5.74077 59.7763 5.74077C59.3752 5.74077 59.0405 5.84517 58.772 6.05398C58.5036 6.26278 58.3014 6.55114 58.1655 6.91903C58.0296 7.28693 57.9616 7.70786 57.9616 8.18182C57.9616 8.65909 58.0296 9.08499 58.1655 9.45952C58.3047 9.83073 58.5085 10.1241 58.777 10.3395C59.0488 10.5516 59.3819 10.6577 59.7763 10.6577ZM37.1431 17.6172C37.0967 17.183 36.9012 16.8449 36.5565 16.603C36.2151 16.361 35.771 16.2401 35.2241 16.2401C34.8396 16.2401 34.5098 16.2981 34.2347 16.4141C33.9596 16.5301 33.7492 16.6875 33.6033 16.8864C33.4575 17.0852 33.3829 17.3123 33.3796 17.5675C33.3796 17.7796 33.4277 17.9635 33.5238 18.1193C33.6232 18.2751 33.7575 18.4077 33.9265 18.517C34.0955 18.6231 34.2828 18.7126 34.4883 18.7855C34.6938 18.8584 34.9009 18.9197 35.1097 18.9695L36.0643 19.2081C36.4487 19.2976 36.8183 19.4186 37.1729 19.571C37.5309 19.7235 37.8507 19.9157 38.1325 20.1477C38.4175 20.3797 38.6429 20.6598 38.8086 20.9879C38.9743 21.3161 39.0572 21.7005 39.0572 22.1413C39.0572 22.7379 38.9047 23.2633 38.5998 23.7173C38.2949 24.1681 37.854 24.5211 37.2773 24.7763C36.704 25.0282 36.0096 25.1541 35.1942 25.1541C34.4021 25.1541 33.7144 25.0315 33.131 24.7862C32.551 24.541 32.0969 24.183 31.7688 23.7124C31.444 23.2417 31.2683 22.6683 31.2418 21.9922H33.0565C33.083 22.3468 33.1924 22.6418 33.3846 22.8771C33.5768 23.1125 33.8271 23.2881 34.1353 23.4041C34.4469 23.5201 34.7949 23.5781 35.1793 23.5781C35.5804 23.5781 35.9317 23.5185 36.2333 23.3991C36.5382 23.2765 36.7769 23.1075 36.9492 22.892C37.1216 22.6733 37.2094 22.4181 37.2127 22.1264C37.2094 21.8613 37.1315 21.6425 36.979 21.4702C36.8266 21.2945 36.6128 21.1487 36.3377 21.0327C36.0659 20.9134 35.7478 20.8073 35.3832 20.7145L34.2248 20.4162C33.3862 20.2008 32.7234 19.8743 32.2362 19.4368C31.7522 18.996 31.5103 18.411 31.5103 17.6818C31.5103 17.0819 31.6727 16.5566 31.9975 16.1058C32.3256 15.6551 32.7714 15.3054 33.3349 15.0568C33.8983 14.8049 34.5363 14.679 35.2489 14.679C35.9715 14.679 36.6045 14.8049 37.1481 15.0568C37.695 15.3054 38.1242 15.6518 38.4357 16.0959C38.7473 16.5367 38.908 17.0438 38.918 17.6172H37.1431ZM43.9529 25.1491C43.2072 25.1491 42.5609 24.9851 42.014 24.657C41.4672 24.3288 41.0429 23.8698 40.7413 23.2798C40.443 22.6899 40.2939 22.0005 40.2939 21.2116C40.2939 20.4228 40.443 19.7318 40.7413 19.1385C41.0429 18.5452 41.4672 18.0845 42.014 17.7564C42.5609 17.4283 43.2072 17.2642 43.9529 17.2642C44.6987 17.2642 45.345 17.4283 45.8919 17.7564C46.4387 18.0845 46.8613 18.5452 47.1596 19.1385C47.4612 19.7318 47.612 20.4228 47.612 21.2116C47.612 22.0005 47.4612 22.6899 47.1596 23.2798C46.8613 23.8698 46.4387 24.3288 45.8919 24.657C45.345 24.9851 44.6987 25.1491 43.9529 25.1491ZM43.9629 23.7074C44.3672 23.7074 44.7053 23.5964 44.9771 23.3743C45.2489 23.1489 45.4511 22.8473 45.5836 22.4695C45.7195 22.0916 45.7875 21.6707 45.7875 21.2067C45.7875 20.7393 45.7195 20.3168 45.5836 19.9389C45.4511 19.5578 45.2489 19.2545 44.9771 19.0291C44.7053 18.8037 44.3672 18.6911 43.9629 18.6911C43.5486 18.6911 43.2039 18.8037 42.9288 19.0291C42.657 19.2545 42.4532 19.5578 42.3173 19.9389C42.1847 20.3168 42.1184 20.7393 42.1184 21.2067C42.1184 21.6707 42.1847 22.0916 42.3173 22.4695C42.4532 22.8473 42.657 23.1489 42.9288 23.3743C43.2039 23.5964 43.5486 23.7074 43.9629 23.7074ZM50.9393 14.8182V25H49.1396V14.8182H50.9393ZM57.6571 21.7884V17.3636H59.4569V25H57.7118V23.6428H57.6323C57.4599 24.0703 57.1766 24.42 56.7821 24.6918C56.391 24.9635 55.9088 25.0994 55.3354 25.0994C54.8349 25.0994 54.3925 24.9884 54.008 24.7663C53.6268 24.541 53.3285 24.2145 53.1131 23.7869C52.8977 23.3561 52.79 22.8357 52.79 22.2259V17.3636H54.5897V21.9474C54.5897 22.4313 54.7222 22.8158 54.9874 23.1009C55.2525 23.3859 55.6006 23.5284 56.0314 23.5284C56.2966 23.5284 56.5534 23.4638 56.802 23.3345C57.0506 23.2053 57.2544 23.013 57.4135 22.7578C57.5759 22.4993 57.6571 22.1761 57.6571 21.7884ZM65.1207 17.3636V18.7557H60.7308V17.3636H65.1207ZM61.8146 15.5341H63.6143V22.7031C63.6143 22.9451 63.6508 23.1307 63.7237 23.2599C63.8 23.3859 63.8994 23.4721 64.022 23.5185C64.1446 23.5649 64.2805 23.5881 64.4297 23.5881C64.5424 23.5881 64.6451 23.5798 64.7379 23.5632C64.834 23.5466 64.907 23.5317 64.9567 23.5185L65.2599 24.9254C65.1638 24.9586 65.0263 24.995 64.8473 25.0348C64.6716 25.0746 64.4562 25.0978 64.201 25.1044C63.7502 25.1177 63.3442 25.0497 62.983 24.9006C62.6217 24.7481 62.335 24.5128 62.1229 24.1946C61.9141 23.8764 61.8113 23.4787 61.8146 23.0014V15.5341ZM66.6259 25V17.3636H68.4256V25H66.6259ZM67.5307 16.2798C67.2457 16.2798 67.0004 16.1854 66.7949 15.9964C66.5894 15.8042 66.4867 15.5739 66.4867 15.3054C66.4867 15.0336 66.5894 14.8033 66.7949 14.6143C67.0004 14.4221 67.2457 14.326 67.5307 14.326C67.8191 14.326 68.0643 14.4221 68.2665 14.6143C68.472 14.8033 68.5748 15.0336 68.5748 15.3054C68.5748 15.5739 68.472 15.8042 68.2665 15.9964C68.0643 16.1854 67.8191 16.2798 67.5307 16.2798ZM73.6072 25.1491C72.8615 25.1491 72.2152 24.9851 71.6683 24.657C71.1214 24.3288 70.6972 23.8698 70.3956 23.2798C70.0973 22.6899 69.9482 22.0005 69.9482 21.2116C69.9482 20.4228 70.0973 19.7318 70.3956 19.1385C70.6972 18.5452 71.1214 18.0845 71.6683 17.7564C72.2152 17.4283 72.8615 17.2642 73.6072 17.2642C74.353 17.2642 74.9993 17.4283 75.5462 17.7564C76.093 18.0845 76.5156 18.5452 76.8139 19.1385C77.1155 19.7318 77.2663 20.4228 77.2663 21.2116C77.2663 22.0005 77.1155 22.6899 76.8139 23.2798C76.5156 23.8698 76.093 24.3288 75.5462 24.657C74.9993 24.9851 74.353 25.1491 73.6072 25.1491ZM73.6172 23.7074C74.0215 23.7074 74.3596 23.5964 74.6314 23.3743C74.9032 23.1489 75.1054 22.8473 75.2379 22.4695C75.3738 22.0916 75.4418 21.6707 75.4418 21.2067C75.4418 20.7393 75.3738 20.3168 75.2379 19.9389C75.1054 19.5578 74.9032 19.2545 74.6314 19.0291C74.3596 18.8037 74.0215 18.6911 73.6172 18.6911C73.2029 18.6911 72.8582 18.8037 72.5831 19.0291C72.3113 19.2545 72.1075 19.5578 71.9716 19.9389C71.839 20.3168 71.7727 20.7393 71.7727 21.2067C71.7727 21.6707 71.839 22.0916 71.9716 22.4695C72.1075 22.8473 72.3113 23.1489 72.5831 23.3743C72.8582 23.5964 73.2029 23.7074 73.6172 23.7074ZM80.5936 20.5256V25H78.7939V17.3636H80.514V18.6612H80.6035C80.7792 18.2337 81.0592 17.8939 81.4437 17.642C81.8315 17.3902 82.3104 17.2642 82.8805 17.2642C83.4075 17.2642 83.8665 17.3769 84.2576 17.6023C84.652 17.8277 84.957 18.1541 85.1724 18.5817C85.3912 19.0092 85.4989 19.5279 85.4956 20.1378V25H83.6958V20.4162C83.6958 19.9058 83.5633 19.5064 83.2981 19.218C83.0363 18.9297 82.6734 18.7855 82.2093 18.7855C81.8945 18.7855 81.6144 18.8551 81.3691 18.9943C81.1272 19.1302 80.9366 19.3274 80.7974 19.5859C80.6615 19.8445 80.5936 20.1577 80.5936 20.5256ZM93.3606 19.3821L91.72 19.5611C91.6736 19.3954 91.5924 19.2396 91.4764 19.0938C91.3637 18.9479 91.2112 18.8303 91.019 18.7408C90.8268 18.6513 90.5914 18.6065 90.313 18.6065C89.9385 18.6065 89.6236 18.6877 89.3684 18.8501C89.1165 19.0125 88.9922 19.223 88.9956 19.4815C88.9922 19.7036 89.0734 19.8842 89.2392 20.0234C89.4082 20.1626 89.6866 20.277 90.0744 20.3665L91.377 20.6449C92.0995 20.8007 92.6364 21.0476 92.9877 21.3857C93.3424 21.7237 93.5214 22.1662 93.5247 22.7131C93.5214 23.1937 93.3805 23.6179 93.1021 23.9858C92.827 24.3504 92.4442 24.6354 91.9537 24.8409C91.4631 25.0464 90.8997 25.1491 90.2633 25.1491C89.3287 25.1491 88.5763 24.9536 88.0062 24.5625C87.4361 24.1681 87.0964 23.6196 86.987 22.9169L88.742 22.7479C88.8216 23.0926 88.9906 23.3527 89.2491 23.5284C89.5076 23.7041 89.844 23.7919 90.2583 23.7919C90.6859 23.7919 91.0289 23.7041 91.2875 23.5284C91.5493 23.3527 91.6802 23.1357 91.6802 22.8771C91.6802 22.6584 91.5957 22.4777 91.4267 22.3352C91.2609 22.1927 91.0024 22.0833 90.6511 22.0071L89.3485 21.7337C88.6161 21.5812 88.0742 21.3243 87.7228 20.9631C87.3715 20.5985 87.1975 20.1378 87.2008 19.581C87.1975 19.1103 87.3251 18.7027 87.5836 18.358C87.8455 18.0099 88.2084 17.7415 88.6724 17.5526C89.1397 17.3603 89.6783 17.2642 90.2882 17.2642C91.1831 17.2642 91.8874 17.4548 92.4011 17.8359C92.9181 18.2171 93.238 18.7325 93.3606 19.3821Z" fill="#0E0D35"/>
<path d="M23.6571 7.51429L14.691 2.19065C13.4471 1.45209 11.9067 1.42107 10.6341 2.10898L3.26671 6.09135C1.84498 6.85985 1.82397 8.89237 3.2295 9.6901L12.6857 15.0571" stroke="#0E0D35" stroke-width="1.71429" stroke-linecap="round"/>
<path d="M1.37168 18.4857L10.3378 23.8093C11.5817 24.5479 13.1221 24.5789 14.3947 23.891L21.7621 19.9086C23.1838 19.1401 23.2048 17.1076 21.7993 16.3099L12.3431 10.9429" stroke="#0E0D35" stroke-width="1.71429" stroke-linecap="round"/>
<path d="M8.22913 8.54282L10.9704 6.94377C11.8196 6.44839 12.869 6.44542 13.721 6.93597L23.6577 12.6571" stroke="#3769F1" stroke-width="1.71429" stroke-linecap="round"/>
<path d="M16.7997 17.4572L14.0585 19.0562C13.2092 19.5516 12.1598 19.5546 11.3078 19.064L1.37112 13.3429" stroke="#FCCA13" stroke-width="1.71429" stroke-linecap="round"/>
</svg>
