<svg width="117" height="32" viewBox="0 0 117 32" fill="none" xmlns="http://www.w3.org/2000/svg">
<path d="M45.7145 4.91346C45.6574 4.37908 45.4168 3.96299 44.9925 3.66521C44.5724 3.36742 44.0257 3.21853 43.3527 3.21853C42.8795 3.21853 42.4736 3.28992 42.135 3.43269C41.7964 3.57547 41.5374 3.76923 41.3579 4.01398C41.1784 4.25874 41.0866 4.53817 41.0825 4.85227C41.0825 5.11334 41.1417 5.33974 41.26 5.53147C41.3824 5.72319 41.5476 5.88636 41.7556 6.02098C41.9637 6.15151 42.1941 6.26165 42.4471 6.3514C42.7 6.44114 42.9549 6.51661 43.2119 6.5778L44.3867 6.8715C44.8599 6.98164 45.3148 7.13054 45.7513 7.31818C46.1918 7.50583 46.5855 7.74242 46.9322 8.02797C47.283 8.31352 47.5604 8.65822 47.7644 9.06206C47.9683 9.46591 48.0703 9.9391 48.0703 10.4816C48.0703 11.2159 47.8827 11.8625 47.5074 12.4213C47.1321 12.9761 46.5895 13.4105 45.8798 13.7247C45.174 14.0347 44.3194 14.1897 43.3159 14.1897C42.341 14.1897 41.4946 14.0388 40.7766 13.7369C40.0627 13.435 39.5039 12.9945 39.1 12.4152C38.7003 11.836 38.4841 11.1302 38.4514 10.2981H40.6848C40.7175 10.7346 40.8521 11.0976 41.0887 11.3872C41.3253 11.6769 41.6332 11.8931 42.0126 12.0358C42.3961 12.1786 42.8244 12.25 43.2976 12.25C43.7912 12.25 44.2236 12.1766 44.5948 12.0297C44.9701 11.8788 45.2638 11.6707 45.4759 11.4056C45.688 11.1364 45.7961 10.8223 45.8002 10.4633C45.7961 10.1369 45.7003 9.86772 45.5126 9.65559C45.325 9.43939 45.0619 9.25991 44.7233 9.11713C44.3888 8.97028 43.9972 8.83974 43.5485 8.72552L42.1228 8.35839C41.0907 8.09324 40.2749 7.69143 39.6752 7.15297C39.0796 6.61043 38.7818 5.89044 38.7818 4.99301C38.7818 4.25466 38.9817 3.6081 39.3815 3.05332C39.7853 2.49854 40.334 2.06818 41.0275 1.76224C41.721 1.45221 42.5062 1.2972 43.3832 1.2972C44.2725 1.2972 45.0517 1.45221 45.7207 1.76224C46.3937 2.06818 46.922 2.49446 47.3055 3.04108C47.6889 3.58362 47.8867 4.20775 47.899 4.91346H45.7145ZM54.0959 14.1836C53.178 14.1836 52.3826 13.9816 51.7095 13.5778C51.0364 13.174 50.5143 12.609 50.1431 11.8829C49.7759 11.1568 49.5924 10.3083 49.5924 9.33741C49.5924 8.36655 49.7759 7.51602 50.1431 6.78584C50.5143 6.05565 51.0364 5.48864 51.7095 5.08479C52.3826 4.68094 53.178 4.47902 54.0959 4.47902C55.0137 4.47902 55.8092 4.68094 56.4822 5.08479C57.1553 5.48864 57.6754 6.05565 58.0426 6.78584C58.4138 7.51602 58.5994 8.36655 58.5994 9.33741C58.5994 10.3083 58.4138 11.1568 58.0426 11.8829C57.6754 12.609 57.1553 13.174 56.4822 13.5778C55.8092 13.9816 55.0137 14.1836 54.0959 14.1836ZM54.1081 12.4091C54.6058 12.4091 55.0219 12.2724 55.3564 11.9991C55.6909 11.7217 55.9397 11.3505 56.1029 10.8855C56.2701 10.4205 56.3537 9.90239 56.3537 9.33129C56.3537 8.75612 56.2701 8.23601 56.1029 7.77098C55.9397 7.30186 55.6909 6.92861 55.3564 6.65122C55.0219 6.37383 54.6058 6.23514 54.1081 6.23514C53.5982 6.23514 53.174 6.37383 52.8354 6.65122C52.5009 6.92861 52.25 7.30186 52.0828 7.77098C51.9196 8.23601 51.838 8.75612 51.838 9.33129C51.838 9.90239 51.9196 10.4205 52.0828 10.8855C52.25 11.3505 52.5009 11.7217 52.8354 11.9991C53.174 12.2724 53.5982 12.4091 54.1081 12.4091ZM62.6944 1.46853V14H60.4794V1.46853H62.6944ZM64.9722 14V4.6014H67.1872V14H64.9722ZM66.0858 3.26748C65.735 3.26748 65.4331 3.15122 65.1802 2.91871C64.9273 2.68211 64.8009 2.3986 64.8009 2.06818C64.8009 1.73368 64.9273 1.45017 65.1802 1.21766C65.4331 0.981059 65.735 0.862761 66.0858 0.862761C66.4407 0.862761 66.7426 0.981059 66.9914 1.21766C67.2443 1.45017 67.3708 1.73368 67.3708 2.06818C67.3708 2.3986 67.2443 2.68211 66.9914 2.91871C66.7426 3.15122 66.4407 3.26748 66.0858 3.26748ZM72.9527 14.1652C72.2144 14.1652 71.5536 13.9755 70.9702 13.5962C70.3869 13.2168 69.9259 12.6661 69.5874 11.9441C69.2488 11.222 69.0795 10.345 69.0795 9.31294C69.0795 8.26865 69.2508 7.38753 69.5935 6.66958C69.9402 5.94755 70.4073 5.40297 70.9947 5.03584C71.5821 4.66463 72.2368 4.47902 72.9589 4.47902C73.5096 4.47902 73.9624 4.57284 74.3173 4.76049C74.6721 4.94406 74.9536 5.16637 75.1617 5.42745C75.3697 5.68444 75.5308 5.92716 75.6451 6.15559H75.7368V1.46853H77.958V14H75.7797V12.5192H75.6451C75.5308 12.7477 75.3656 12.9904 75.1494 13.2474C74.9332 13.5003 74.6477 13.7165 74.2928 13.896C73.9379 14.0755 73.4912 14.1652 72.9527 14.1652ZM73.5707 12.3479C74.0399 12.3479 74.4396 12.2214 74.7701 11.9685C75.1005 11.7115 75.3513 11.3546 75.5227 10.8977C75.694 10.4409 75.7797 9.90851 75.7797 9.3007C75.7797 8.69289 75.694 8.16463 75.5227 7.71591C75.3554 7.26719 75.1066 6.91841 74.7762 6.66958C74.4498 6.42075 74.048 6.29633 73.5707 6.29633C73.0772 6.29633 72.6652 6.42482 72.3347 6.68182C72.0043 6.93881 71.7555 7.29371 71.5882 7.7465C71.421 8.1993 71.3374 8.71737 71.3374 9.3007C71.3374 9.88811 71.421 10.4123 71.5882 10.8733C71.7596 11.3301 72.0104 11.6911 72.3409 11.9563C72.6754 12.2174 73.0853 12.3479 73.5707 12.3479ZM45.7145 20.9135C45.6574 20.3791 45.4168 19.963 44.9925 19.6652C44.5724 19.3674 44.0257 19.2185 43.3527 19.2185C42.8795 19.2185 42.4736 19.2899 42.135 19.4327C41.7964 19.5755 41.5374 19.7692 41.3579 20.014C41.1784 20.2587 41.0866 20.5382 41.0825 20.8523C41.0825 21.1133 41.1417 21.3397 41.26 21.5315C41.3824 21.7232 41.5476 21.8864 41.7556 22.021C41.9637 22.1515 42.1941 22.2617 42.4471 22.3514C42.7 22.4411 42.9549 22.5166 43.2119 22.5778L44.3867 22.8715C44.8599 22.9816 45.3148 23.1305 45.7513 23.3182C46.1918 23.5058 46.5855 23.7424 46.9322 24.028C47.283 24.3135 47.5604 24.6582 47.7644 25.0621C47.9683 25.4659 48.0703 25.9391 48.0703 26.4816C48.0703 27.2159 47.8827 27.8625 47.5074 28.4213C47.1321 28.9761 46.5895 29.4105 45.8798 29.7247C45.174 30.0347 44.3194 30.1897 43.3159 30.1897C42.341 30.1897 41.4946 30.0388 40.7766 29.7369C40.0627 29.435 39.5039 28.9945 39.1 28.4152C38.7003 27.836 38.4841 27.1302 38.4514 26.2981H40.6848C40.7175 26.7346 40.8521 27.0976 41.0887 27.3872C41.3253 27.6769 41.6332 27.8931 42.0126 28.0358C42.3961 28.1786 42.8244 28.25 43.2976 28.25C43.7912 28.25 44.2236 28.1766 44.5948 28.0297C44.9701 27.8788 45.2638 27.6707 45.4759 27.4056C45.688 27.1364 45.7961 26.8223 45.8002 26.4633C45.7961 26.1369 45.7003 25.8677 45.5126 25.6556C45.325 25.4394 45.0619 25.2599 44.7233 25.1171C44.3888 24.9703 43.9972 24.8397 43.5485 24.7255L42.1228 24.3584C41.0907 24.0932 40.2749 23.6914 39.6752 23.153C39.0796 22.6104 38.7818 21.8904 38.7818 20.993C38.7818 20.2547 38.9817 19.6081 39.3815 19.0533C39.7853 18.4985 40.334 18.0682 41.0275 17.7622C41.721 17.4522 42.5062 17.2972 43.3832 17.2972C44.2725 17.2972 45.0517 17.4522 45.7207 17.7622C46.3937 18.0682 46.922 18.4945 47.3055 19.0411C47.6889 19.5836 47.8867 20.2077 47.899 20.9135H45.7145ZM54.0959 30.1836C53.178 30.1836 52.3826 29.9816 51.7095 29.5778C51.0364 29.174 50.5143 28.609 50.1431 27.8829C49.7759 27.1568 49.5924 26.3083 49.5924 25.3374C49.5924 24.3665 49.7759 23.516 50.1431 22.7858C50.5143 22.0557 51.0364 21.4886 51.7095 21.0848C52.3826 20.6809 53.178 20.479 54.0959 20.479C55.0137 20.479 55.8092 20.6809 56.4822 21.0848C57.1553 21.4886 57.6754 22.0557 58.0426 22.7858C58.4138 23.516 58.5994 24.3665 58.5994 25.3374C58.5994 26.3083 58.4138 27.1568 58.0426 27.8829C57.6754 28.609 57.1553 29.174 56.4822 29.5778C55.8092 29.9816 55.0137 30.1836 54.0959 30.1836ZM54.1081 28.4091C54.6058 28.4091 55.0219 28.2724 55.3564 27.9991C55.6909 27.7217 55.9397 27.3505 56.1029 26.8855C56.2701 26.4205 56.3537 25.9024 56.3537 25.3313C56.3537 24.7561 56.2701 24.236 56.1029 23.771C55.9397 23.3019 55.6909 22.9286 55.3564 22.6512C55.0219 22.3738 54.6058 22.2351 54.1081 22.2351C53.5982 22.2351 53.174 22.3738 52.8354 22.6512C52.5009 22.9286 52.25 23.3019 52.0828 23.771C51.9196 24.236 51.838 24.7561 51.838 25.3313C51.838 25.9024 51.9196 26.4205 52.0828 26.8855C52.25 27.3505 52.5009 27.7217 52.8354 27.9991C53.174 28.2724 53.5982 28.4091 54.1081 28.4091ZM62.6944 17.4685V30H60.4794V17.4685H62.6944ZM70.9626 26.0472V20.6014H73.1776V30H71.0299V28.3295H70.932C70.7199 28.8558 70.3711 29.2861 69.8857 29.6206C69.4043 29.9551 68.8108 30.1224 68.1051 30.1224C67.4891 30.1224 66.9445 29.9857 66.4713 29.7124C66.0022 29.435 65.6351 29.0332 65.3699 28.507C65.1048 27.9767 64.9722 27.3362 64.9722 26.5857V20.6014H67.1872V26.243C67.1872 26.8386 67.3504 27.3118 67.6767 27.6626C68.0031 28.0134 68.4314 28.1888 68.9617 28.1888C69.288 28.1888 69.6042 28.1093 69.9101 27.9502C70.2161 27.7911 70.4669 27.5545 70.6628 27.2404C70.8626 26.9222 70.9626 26.5245 70.9626 26.0472ZM80.1485 20.6014V22.3147H74.7456V20.6014H80.1485ZM76.0795 18.3496H78.2945V27.1731C78.2945 27.4709 78.3394 27.6993 78.4291 27.8584C78.523 28.0134 78.6453 28.1195 78.7963 28.1766C78.9472 28.2337 79.1145 28.2622 79.298 28.2622C79.4367 28.2622 79.5632 28.252 79.6774 28.2316C79.7957 28.2112 79.8854 28.1929 79.9466 28.1766L80.3199 29.9082C80.2016 29.949 80.0323 29.9939 79.812 30.0428C79.5958 30.0918 79.3307 30.1203 79.0166 30.1285C78.4618 30.1448 77.9621 30.0612 77.5174 29.8776C77.0728 29.69 76.7199 29.4003 76.4589 29.0087C76.2019 28.6171 76.0754 28.1276 76.0795 27.5402V18.3496ZM82.001 30V20.6014H84.2161V30H82.001ZM83.1147 19.2675C82.7639 19.2675 82.462 19.1512 82.2091 18.9187C81.9562 18.6821 81.8297 18.3986 81.8297 18.0682C81.8297 17.7337 81.9562 17.4502 82.2091 17.2177C82.462 16.9811 82.7639 16.8628 83.1147 16.8628C83.4696 16.8628 83.7714 16.9811 84.0203 17.2177C84.2732 17.4502 84.3996 17.7337 84.3996 18.0682C84.3996 18.3986 84.2732 18.6821 84.0203 18.9187C83.7714 19.1512 83.4696 19.2675 83.1147 19.2675ZM90.5935 30.1836C89.6756 30.1836 88.8802 29.9816 88.2071 29.5778C87.534 29.174 87.0119 28.609 86.6407 27.8829C86.2735 27.1568 86.09 26.3083 86.09 25.3374C86.09 24.3665 86.2735 23.516 86.6407 22.7858C87.0119 22.0557 87.534 21.4886 88.2071 21.0848C88.8802 20.6809 89.6756 20.479 90.5935 20.479C91.5113 20.479 92.3068 20.6809 92.9798 21.0848C93.6529 21.4886 94.173 22.0557 94.5402 22.7858C94.9114 23.516 95.097 24.3665 95.097 25.3374C95.097 26.3083 94.9114 27.1568 94.5402 27.8829C94.173 28.609 93.6529 29.174 92.9798 29.5778C92.3068 29.9816 91.5113 30.1836 90.5935 30.1836ZM90.6057 28.4091C91.1034 28.4091 91.5195 28.2724 91.854 27.9991C92.1885 27.7217 92.4373 27.3505 92.6005 26.8855C92.7677 26.4205 92.8513 25.9024 92.8513 25.3313C92.8513 24.7561 92.7677 24.236 92.6005 23.771C92.4373 23.3019 92.1885 22.9286 91.854 22.6512C91.5195 22.3738 91.1034 22.2351 90.6057 22.2351C90.0958 22.2351 89.6716 22.3738 89.333 22.6512C88.9985 22.9286 88.7476 23.3019 88.5804 23.771C88.4172 24.236 88.3356 24.7561 88.3356 25.3313C88.3356 25.9024 88.4172 26.4205 88.5804 26.8855C88.7476 27.3505 88.9985 27.7217 89.333 27.9991C89.6716 28.2724 90.0958 28.4091 90.6057 28.4091ZM99.192 24.493V30H96.977V20.6014H99.0941V22.1984H99.2043C99.4205 21.6722 99.7652 21.2541 100.238 20.9441C100.716 20.634 101.305 20.479 102.007 20.479C102.655 20.479 103.22 20.6177 103.702 20.8951C104.187 21.1725 104.562 21.5743 104.828 22.1005C105.097 22.6267 105.229 23.2652 105.225 24.0157V30H103.01V24.3584C103.01 23.7302 102.847 23.2386 102.521 22.8837C102.198 22.5288 101.752 22.3514 101.181 22.3514C100.793 22.3514 100.448 22.4371 100.147 22.6084C99.8488 22.7756 99.6142 23.0184 99.4429 23.3365C99.2757 23.6547 99.192 24.0402 99.192 24.493ZM114.905 23.0857L112.886 23.3059C112.829 23.102 112.729 22.9103 112.586 22.7308C112.448 22.5513 112.26 22.4065 112.023 22.2963C111.787 22.1862 111.497 22.1311 111.154 22.1311C110.693 22.1311 110.306 22.2311 109.992 22.4309C109.682 22.6308 109.529 22.8899 109.533 23.208C109.529 23.4814 109.629 23.7037 109.833 23.875C110.041 24.0463 110.383 24.1871 110.861 24.2972L112.464 24.6399C113.353 24.8316 114.014 25.1355 114.446 25.5516C114.883 25.9677 115.103 26.5122 115.107 27.1853C115.103 27.7768 114.93 28.299 114.587 28.7517C114.249 29.2005 113.777 29.5513 113.174 29.8042C112.57 30.0571 111.876 30.1836 111.093 30.1836C109.943 30.1836 109.017 29.9429 108.315 29.4615C107.614 28.9761 107.196 28.301 107.061 27.4362L109.221 27.2281C109.319 27.6524 109.527 27.9726 109.845 28.1888C110.163 28.405 110.577 28.5131 111.087 28.5131C111.613 28.5131 112.036 28.405 112.354 28.1888C112.676 27.9726 112.837 27.7054 112.837 27.3872C112.837 27.118 112.733 26.8957 112.525 26.7203C112.321 26.5449 112.003 26.4103 111.571 26.3164L109.967 25.9799C109.066 25.7922 108.399 25.4761 107.967 25.0315C107.534 24.5828 107.32 24.0157 107.324 23.3304C107.32 22.7512 107.477 22.2494 107.795 21.8252C108.117 21.3969 108.564 21.0664 109.135 20.8339C109.71 20.5973 110.373 20.479 111.124 20.479C112.225 20.479 113.092 20.7136 113.724 21.1827C114.361 21.6518 114.754 22.2861 114.905 23.0857Z" fill="#0E0D35"/>
<path d="M29.1165 9.2483L18.0812 2.69613C16.5503 1.78712 14.6544 1.74896 13.0881 2.59561L4.02056 7.49699C2.27075 8.44284 2.24488 10.9444 3.97476 11.9262L15.6132 18.5318" stroke="#0E0D35" stroke-width="2.10989" stroke-linecap="round"/>
<path d="M1.68822 22.7515L12.7234 29.3036C14.2544 30.2126 16.1503 30.2508 17.7166 29.4041L26.7841 24.5028C28.5339 23.5569 28.5598 21.0554 26.8299 20.0735L15.1915 13.4679" stroke="#0E0D35" stroke-width="2.10989" stroke-linecap="round"/>
<path d="M10.1282 10.5141L13.502 8.54609C14.5472 7.93639 15.8388 7.93273 16.8874 8.53649L29.1172 15.5779" stroke="#3769F1" stroke-width="2.10989" stroke-linecap="round"/>
<path d="M20.6765 21.4856L17.3027 23.4537C16.2575 24.0634 14.9659 24.067 13.9173 23.4633L1.68752 16.4219" stroke="#FCCA13" stroke-width="2.10989" stroke-linecap="round"/>
</svg>
