<svg width="34" height="34" viewBox="0 0 34 34" fill="none" xmlns="http://www.w3.org/2000/svg">
<path d="M31.7143 9.68574L19.7595 2.58755C18.101 1.60278 16.0471 1.56144 14.3503 2.47865L4.52711 7.78849C2.63148 8.81316 2.60345 11.5232 4.47749 12.5868L17.0858 19.7429" stroke="#0E0D35" stroke-width="2.28572" stroke-linecap="round"/>
<path d="M2.0004 24.3143L13.9552 31.4125C15.6137 32.3972 17.6676 32.4386 19.3644 31.5214L29.1876 26.2115C31.0832 25.1868 31.1113 22.4768 29.2372 21.4132L16.629 14.2571" stroke="#0E0D35" stroke-width="2.28572" stroke-linecap="round"/>
<path d="M11.1437 11.0572L14.7986 8.92512C15.9309 8.26461 17.3301 8.26064 18.4662 8.91472L31.7151 16.5429" stroke="#3769F1" stroke-width="2.28572" stroke-linecap="round"/>
<path d="M22.571 22.9428L18.9161 25.0749C17.7838 25.7354 16.3846 25.7394 15.2486 25.0853L1.99965 17.4571" stroke="#FCCA13" stroke-width="2.28572" stroke-linecap="round"/>
</svg>
