<svg width="40" height="40" viewBox="0 0 40 40" fill="none" xmlns="http://www.w3.org/2000/svg">
<circle cx="20" cy="20" r="20" fill="white"/>
<path d="M14.2951 19.303V20.5433H13.1122V21.841H11.7226V20.5433H10.5398V19.303H11.7226V18.0053H13.1122V19.303H14.2951ZM18.566 24V22.1511H15.1322V20.773L19.0483 15.8463H20.1048V20.7615H21.1154V22.1511H20.1048V24H18.566ZM16.6826 20.7615H18.7382V18.1661L16.6826 20.7615ZM25.582 24.1148C25.0078 24.1072 24.4987 23.977 24.0546 23.7244C23.6106 23.4717 23.2393 23.1387 22.9407 22.7253C22.6421 22.3118 22.4162 21.8678 22.2631 21.3931C22.1177 20.9108 22.0449 20.4399 22.0449 19.9806C22.0449 19.4906 22.1253 19.0006 22.2861 18.5106C22.4469 18.0206 22.6804 17.5766 22.9866 17.1784C23.3005 16.7727 23.6757 16.4511 24.1121 16.2138C24.5485 15.9688 25.0384 15.8463 25.582 15.8463C26.1715 15.8463 26.6845 15.9764 27.1209 16.2368C27.565 16.4971 27.9363 16.8339 28.2349 17.2474C28.5334 17.6608 28.7555 18.1087 28.9009 18.591C29.0541 19.0733 29.1306 19.5365 29.1306 19.9806C29.1306 20.4782 29.0502 20.972 28.8894 21.462C28.7287 21.9443 28.4913 22.3846 28.1774 22.7827C27.8712 23.1808 27.4999 23.5024 27.0635 23.7473C26.6271 23.9847 26.1333 24.1072 25.582 24.1148ZM23.6412 19.9806C23.6489 20.3021 23.691 20.6237 23.7675 20.9452C23.8518 21.2591 23.9704 21.5501 24.1236 21.818C24.2843 22.086 24.4872 22.3042 24.7322 22.4726C24.9772 22.6334 25.2605 22.7138 25.582 22.7138C25.9266 22.7138 26.2213 22.6257 26.4663 22.4496C26.7113 22.2736 26.9104 22.0477 27.0635 21.7721C27.2243 21.4965 27.3429 21.2017 27.4195 20.8878C27.496 20.5739 27.5343 20.2715 27.5343 19.9806C27.5343 19.659 27.4922 19.3413 27.408 19.0274C27.3314 18.7058 27.2089 18.4111 27.0405 18.1431C26.8797 17.8752 26.6768 17.6608 26.4319 17.5C26.1945 17.3316 25.9112 17.2474 25.582 17.2474C25.2452 17.2474 24.9542 17.3354 24.7092 17.5115C24.4642 17.6876 24.2614 17.9134 24.1006 18.189C23.9475 18.4647 23.8326 18.7594 23.7561 19.0733C23.6795 19.3872 23.6412 19.6896 23.6412 19.9806Z" fill="#3E3D5D"/>
</svg>
