<svg width="80" height="80" viewBox="0 0 80 80" fill="none" xmlns="http://www.w3.org/2000/svg">
<rect x="1.17355" y="1.08907" width="78.5611" height="78.5611" rx="13.825" fill="white"/>
<rect x="1.17355" y="1.08907" width="78.5611" height="78.5611" rx="13.825" stroke="#D9D9D9" stroke-width="0.438889"/>
<path d="M38.7036 19.0237C39.7918 18.4007 41.2093 18.3979 42.2966 19.0237C47.7667 22.1146 53.2386 25.2006 58.7078 28.2934C59.7364 28.8729 60.4245 30.0177 60.4141 31.203V49.7991C60.4217 51.0335 59.6656 52.2057 58.5804 52.772C53.1282 55.8459 47.6789 58.9235 42.2276 61.9974C41.1169 62.6325 39.671 62.5835 38.595 61.8964C36.9604 60.9488 35.323 60.006 33.6883 59.0593C33.3543 58.8602 32.9777 58.7017 32.7419 58.3778C32.9504 58.0968 33.3232 58.0617 33.6261 57.939C34.3084 57.7221 34.9351 57.3738 35.5619 57.0359C35.7204 56.9274 35.9139 56.969 36.0658 57.066C37.4636 57.8675 38.849 58.6922 40.2514 59.4859C40.5506 59.6586 40.8535 59.4293 41.1092 59.2868C46.4595 56.2629 51.8163 53.2505 57.1656 50.2257C57.3638 50.1303 57.4734 49.9199 57.4573 49.7028C57.461 43.5684 57.4582 37.4328 57.4591 31.2984C57.4818 31.052 57.3392 30.8255 57.1165 30.7247C51.6833 27.6649 46.2528 24.6004 40.8205 21.5398C40.7264 21.4751 40.6149 21.4404 40.5007 21.4402C40.3865 21.44 40.2749 21.4744 40.1806 21.5389C34.7483 24.6004 29.3188 27.6677 23.8865 30.7273C23.6645 30.8283 23.5156 31.0511 23.542 31.2984C23.5429 37.4328 23.542 43.5684 23.542 49.7038C23.5325 49.8097 23.5558 49.916 23.6086 50.0083C23.6615 50.1006 23.7413 50.1745 23.8374 50.2201C25.287 51.0421 26.7385 51.8584 28.1891 52.6776C29.0063 53.1175 30.0097 53.3788 30.91 53.0418C31.7046 52.7568 32.2615 51.946 32.2463 51.1024C32.2538 45.0038 32.2426 38.9042 32.252 32.8064C32.2321 32.5357 32.4889 32.312 32.7522 32.3375C33.4487 32.3328 34.1462 32.3281 34.8427 32.3394C35.1334 32.3328 35.3335 32.6243 35.2976 32.8971C35.2947 39.0344 35.3051 45.1718 35.2929 51.3091C35.2947 52.9447 34.6228 54.7245 33.1098 55.5248C31.246 56.4903 28.9422 56.2856 27.1009 55.3597C25.5068 54.5641 23.9856 53.6251 22.4198 52.7728C21.3317 52.2096 20.5794 51.0327 20.587 49.7993V31.203C20.5756 29.9931 21.2911 28.8275 22.3518 28.2565C27.803 25.1802 33.2533 22.1014 38.7036 19.0237Z" fill="#8CC84B"/>
<path d="M43.4595 31.9053C45.837 31.7523 48.3822 31.8147 50.5217 32.9859C52.1781 33.8835 53.0964 35.7672 53.1257 37.6074C53.0794 37.8557 52.8199 37.9926 52.583 37.9756C51.8931 37.9746 51.2032 37.9849 50.5134 37.9709C50.2208 37.9821 50.0507 37.7123 50.014 37.4536C49.8158 36.5731 49.3356 35.7011 48.5068 35.2764C47.2346 34.6394 45.7595 34.6714 44.3722 34.6847C43.3595 34.7385 42.2704 34.8262 41.4124 35.4217C40.7537 35.8728 40.5537 36.7835 40.7888 37.5169C41.0104 38.0436 41.6183 38.2135 42.1157 38.3701C44.9809 39.1194 48.0171 39.0449 50.8276 40.0311C51.9912 40.4331 53.1294 41.2146 53.5277 42.4329C54.0487 44.0658 53.8203 46.0175 52.6586 47.3283C51.7165 48.407 50.3444 48.9941 48.9759 49.313C47.1553 49.7189 45.266 49.7293 43.4171 49.549C41.6786 49.3508 39.8695 48.8941 38.5274 47.7096C37.3798 46.7131 36.8192 45.1604 36.8749 43.6619C36.8882 43.4088 37.1401 43.2323 37.3826 43.2531C38.0772 43.2475 38.7719 43.2456 39.4665 43.254C39.744 43.2342 39.9497 43.474 39.9639 43.7355C40.0921 44.5744 40.4074 45.4549 41.1389 45.9523C42.5507 46.8631 44.3222 46.8008 45.9388 46.8262C47.278 46.7668 48.7814 46.7489 49.8744 45.8637C50.451 45.3588 50.6219 44.5141 50.466 43.7874C50.2972 43.1739 49.6554 42.888 49.1042 42.701C46.2758 41.8063 43.2057 42.1309 40.4045 41.1191C39.2674 40.7173 38.1677 39.9574 37.7308 38.7892C37.1212 37.1357 37.4005 35.0905 38.684 33.8239C39.9355 32.564 41.7419 32.0788 43.4595 31.9052V31.9053Z" fill="#8CC84B"/>
</svg>
