<svg width="44" height="44" viewBox="0 0 64 64" fill="none" xmlns="http://www.w3.org/2000/svg">
<circle cx="31.5" cy="31.5" r="31.5" fill="#0E0D35"/>
<path d="M55.8887 31.6899C55.8887 44.9448 45.1435 55.6899 31.8887 55.6899C18.6338 55.6899 7.88867 44.9448 7.88867 31.6899C7.88867 18.4351 18.6338 7.68994 31.8887 7.68994C45.1435 7.68994 55.8887 18.4351 55.8887 31.6899Z" fill="#0E0D35"/>
<path d="M51.0693 34.4022C51.1603 33.8442 51.3824 33.3738 51.7356 32.991C52.0883 32.611 52.5339 32.3412 53.0723 32.1814C53.6135 32.0222 54.2122 31.996 54.8683 32.1031C55.53 32.211 56.0921 32.4265 56.5547 32.7494C57.02 33.0729 57.3581 33.4706 57.569 33.9425C57.7822 34.4177 57.8433 34.9343 57.7523 35.4922C57.6613 36.0502 57.4395 36.5192 57.0868 36.8992C56.7341 37.2792 56.2871 37.5488 55.7459 37.7081C55.2042 37.8701 54.6025 37.8972 53.9408 37.7893C53.2847 37.6823 52.7254 37.4673 52.2628 37.1443C51.803 36.8217 51.4666 36.4229 51.2533 35.9477C51.0397 35.4753 50.9783 34.9601 51.0693 34.4022ZM51.7549 34.514C51.6817 34.9626 51.7403 35.3622 51.9307 35.7128C52.121 36.0633 52.4037 36.3512 52.7785 36.5764C53.153 36.8044 53.5813 36.9578 54.0636 37.0364C54.5458 37.1151 55.0021 37.1061 55.4324 37.0093C55.8622 36.9153 56.2245 36.7326 56.5192 36.4612C56.8139 36.1897 56.9978 35.8297 57.071 35.3811C57.1437 34.9353 57.0837 34.5355 56.891 34.1816C56.6978 33.8306 56.4126 33.5409 56.0354 33.3124C55.6577 33.0867 55.2277 32.9346 54.7455 32.8559C54.2632 32.7772 53.8086 32.7851 53.3815 32.8795C52.9541 32.9768 52.5944 33.1613 52.3025 33.4332C52.0106 33.7051 51.8281 34.0654 51.7549 34.514Z" fill="#E7E7EB"/>
<path d="M48.2948 37.2244L56.1913 41.5424L55.8376 42.1892L54.7421 41.5902L54.6992 41.6687C54.8275 41.8425 54.9433 42.0483 55.0464 42.286C55.1521 42.5251 55.2045 42.7934 55.2037 43.0908C55.2016 43.3908 55.1044 43.7165 54.9123 44.068C54.6533 44.5416 54.3024 44.8872 53.8596 45.1048C53.4179 45.3263 52.9202 45.4135 52.3663 45.3665C51.8136 45.3233 51.2419 45.1402 50.6511 44.8171C50.0579 44.4927 49.5927 44.1088 49.2556 43.6654C48.9171 43.2246 48.7206 42.7577 48.6663 42.265C48.6106 41.7747 48.7109 41.2953 48.9671 40.8267C49.1566 40.4802 49.3777 40.2239 49.6304 40.0578C49.8818 39.8941 50.138 39.7898 50.399 39.7447C50.6612 39.7035 50.9006 39.6919 51.1173 39.7101L51.15 39.6503L47.9309 37.8899L48.2948 37.2244ZM52.9563 40.6282C52.4926 40.3747 52.0439 40.2184 51.61 40.1592C51.1772 40.1039 50.7878 40.1499 50.4416 40.2974C50.0966 40.4487 49.8226 40.7101 49.6195 41.0815C49.4109 41.4628 49.3398 41.8416 49.406 42.2178C49.4734 42.5979 49.6491 42.9546 49.9331 43.288C50.2157 43.6238 50.5801 43.9138 51.0262 44.1577C51.4674 44.399 51.9025 44.5478 52.3314 44.6043C52.7589 44.6632 53.1484 44.6172 53.4998 44.4661C53.8536 44.3164 54.1355 44.0496 54.3454 43.6657C54.5499 43.2918 54.6227 42.9188 54.5639 42.5467C54.5076 42.1759 54.34 41.8252 54.061 41.4946C53.7831 41.1678 53.4149 40.879 52.9563 40.6282Z" fill="#E7E7EB"/>
<path d="M45.1007 45.8471C45.5434 45.4263 46.0243 45.1653 46.5433 45.0639C47.0643 44.9646 47.5875 45.0141 48.113 45.2124C48.6383 45.4146 49.129 45.7556 49.585 46.2355C50.039 46.7132 50.3547 47.2206 50.5319 47.7576C50.7091 48.2986 50.742 48.8219 50.6306 49.3275C50.5192 49.8371 50.2586 50.2866 49.8488 50.6761C49.5914 50.9207 49.2982 51.1092 48.9693 51.2415C48.6424 51.3758 48.2922 51.4362 47.9188 51.4227C47.5453 51.4132 47.164 51.3151 46.7749 51.1284C46.3877 50.9437 46.0053 50.6526 45.6276 50.2552L45.3692 49.9834L49.0759 46.4606L49.5368 46.9456L46.3923 49.9341C46.6819 50.2388 47.004 50.454 47.3585 50.5796C47.7129 50.7091 48.0668 50.7413 48.4201 50.6759C48.7713 50.6125 49.0891 50.4457 49.3732 50.1757C49.6739 49.8899 49.8622 49.5581 49.9381 49.1803C50.014 48.8024 49.9916 48.42 49.8708 48.0332C49.748 47.6482 49.5389 47.2983 49.2435 46.9833L48.9675 46.693C48.6094 46.3161 48.2314 46.0483 47.8335 45.8895C47.4355 45.7347 47.0427 45.6945 46.655 45.7691C46.2673 45.8436 45.9087 46.0374 45.5792 46.3506C45.3547 46.5639 45.1913 46.7858 45.089 47.0163C44.9847 47.2488 44.9306 47.4785 44.9268 47.7054C44.9229 47.9364 44.9587 48.1514 45.034 48.3502L44.3505 48.6764C44.2327 48.4082 44.176 48.1113 44.1803 47.7859C44.1825 47.4624 44.2572 47.1328 44.4044 46.7969C44.5514 46.4651 44.7836 46.1485 45.1007 45.8471Z" fill="#E7E7EB"/>
<path d="M44.0636 51.9695L42.2079 48.3237L42.8839 47.9796L45.853 53.8129L45.196 54.1473L44.7302 53.232L44.6694 53.263C44.6847 53.6313 44.5938 53.9788 44.3967 54.3055C44.1983 54.636 43.8852 54.9101 43.4573 55.1279C43.0649 55.3276 42.6787 55.4206 42.2987 55.4068C41.9175 55.3968 41.564 55.2755 41.2384 55.0428C40.9102 54.8114 40.6288 54.4653 40.3943 54.0045L38.471 50.2257L39.147 49.8817L41.049 53.6186C41.2926 54.0971 41.6194 54.4073 42.0296 54.5492C42.4372 54.6924 42.865 54.65 43.3132 54.4219C43.6195 54.266 43.8582 54.0616 44.0292 53.8088C44.2001 53.556 44.2921 53.2701 44.3051 52.9511C44.3168 52.636 44.2363 52.3087 44.0636 51.9695Z" fill="#E7E7EB"/>
<path d="M22.6373 50.9513C22.9031 51.0804 23.1142 51.2635 23.2706 51.5006C23.4258 51.7402 23.5152 52.0016 23.5387 52.2846C23.5623 52.5677 23.5108 52.8427 23.3842 53.1097C23.2538 53.378 23.0707 53.5891 22.8349 53.743C22.5978 53.8995 22.3377 53.9894 22.0546 54.013C21.7678 54.0379 21.4915 53.9857 21.2257 53.8566C20.9574 53.7263 20.7469 53.5419 20.5943 53.3035C20.4379 53.0664 20.3479 52.8063 20.3243 52.5232C20.297 52.2415 20.3485 51.9665 20.4788 51.6982C20.608 51.4324 20.7923 51.2219 21.032 51.0667C21.2691 50.9103 21.5298 50.819 21.8141 50.7929C22.0946 50.7681 22.369 50.8209 22.6373 50.9513Z" fill="#FCCA13"/>
<path d="M12.9999 27.4033C12.8728 27.9745 12.6192 28.4405 12.2391 28.8012C11.8597 29.1591 11.3958 29.3993 10.8476 29.5218C10.2994 29.6442 9.70775 29.6348 9.07273 29.4934C8.43215 29.3509 7.88852 29.1062 7.44184 28.7594C6.99577 28.4098 6.67822 27.9928 6.48918 27.5083C6.29738 27.0232 6.26351 26.502 6.38757 25.9446C6.48262 25.5176 6.65191 25.1492 6.89545 24.8396C7.13621 24.5294 7.43133 24.2953 7.78082 24.1374C8.12815 23.976 8.50657 23.9104 8.91607 23.9404L8.74942 24.6891C8.37164 24.6865 8.02217 24.8052 7.70101 25.0451C7.37769 25.2817 7.16542 25.6273 7.0642 26.0821C6.97346 26.4897 7.00415 26.8749 7.15625 27.2377C7.30557 27.5998 7.55737 27.9134 7.91164 28.1785C8.26375 28.4402 8.6977 28.6285 9.21349 28.7433C9.73205 28.8587 10.2101 28.8749 10.6477 28.7919C11.0825 28.7082 11.4468 28.5361 11.7406 28.2755C12.0349 28.0121 12.2287 27.6711 12.3219 27.2524C12.3849 26.9695 12.3896 26.6999 12.336 26.4435C12.2804 26.1837 12.1717 25.9529 12.01 25.751C11.8489 25.5463 11.6386 25.386 11.3792 25.2701L11.5458 24.5214C11.919 24.6626 12.2323 24.8764 12.4858 25.1628C12.7371 25.4457 12.9102 25.7797 13.005 26.1646C13.1003 26.5467 13.0987 26.9596 12.9999 27.4033Z" fill="#E7E7EB"/>
<path d="M14.564 22.9727C14.3644 23.3135 14.1159 23.586 13.8184 23.7904C13.5184 23.9933 13.1934 24.1041 12.8433 24.1229C12.4907 24.1403 12.133 24.0427 11.7702 23.8302C11.4908 23.6665 11.2863 23.4759 11.1569 23.2585C11.0274 23.0411 10.9581 22.7997 10.949 22.5342C10.9399 22.2688 10.9773 21.9829 11.0613 21.6765C11.1453 21.3701 11.261 21.0461 11.4085 20.7044C11.5545 20.3652 11.6767 20.078 11.7751 19.8426C11.8749 19.6047 11.9267 19.4095 11.9304 19.257C11.9342 19.1044 11.865 18.9865 11.7228 18.9032L11.5904 18.8257C11.2056 18.6002 10.8353 18.5381 10.4797 18.6393C10.1231 18.7366 9.81918 18.9997 9.56789 19.4287C9.32953 19.8356 9.22443 20.2202 9.2526 20.5824C9.28221 20.9422 9.3882 21.2446 9.57057 21.4897L8.98226 21.9797C8.74807 21.6713 8.6051 21.3505 8.55336 21.0173C8.49917 20.6827 8.51347 20.3519 8.59628 20.0251C8.67663 19.6968 8.80081 19.3893 8.96881 19.1025C9.09517 18.8868 9.25475 18.679 9.44755 18.4791C9.64178 18.2768 9.86763 18.1161 10.1251 17.997C10.3801 17.8764 10.668 17.8261 10.9888 17.8461C11.3072 17.8647 11.6551 17.9845 12.0326 18.2057L15.8677 20.4522L15.4843 21.1067L14.5908 20.5833L14.5671 20.6237C14.6878 20.7998 14.7814 21.011 14.8478 21.2573C14.9143 21.5037 14.9295 21.7727 14.8936 22.0645C14.8577 22.3562 14.7478 22.659 14.564 22.9727ZM14.0164 22.5334C14.2203 22.1853 14.3197 21.8386 14.3146 21.4932C14.3095 21.1478 14.2197 20.8318 14.0452 20.5452C13.8696 20.2547 13.6274 20.0189 13.3186 19.838L12.5023 19.3599C12.5202 19.4362 12.5137 19.5427 12.483 19.6794C12.4537 19.8137 12.41 19.9643 12.3518 20.131C12.2926 20.2939 12.2297 20.4546 12.1632 20.6132C12.0967 20.7718 12.0363 20.9142 11.9821 21.0405C11.8346 21.3821 11.7365 21.6901 11.6877 21.9644C11.639 22.2388 11.653 22.4791 11.7297 22.6853C11.8039 22.8902 11.9551 23.0594 12.183 23.1929C12.5262 23.3939 12.864 23.4272 13.1963 23.2926C13.5262 23.1566 13.7996 22.9035 14.0164 22.5334Z" fill="#E7E7EB"/>
<path d="M16.9389 12.0501L16.5504 12.6583C16.3691 12.5572 16.1789 12.4887 15.9798 12.453C15.7806 12.4173 15.5746 12.4314 15.3616 12.4955C15.1507 12.5577 14.9349 12.687 14.7142 12.8834C14.3831 13.178 14.1814 13.4983 14.1089 13.8442C14.0365 14.1901 14.1107 14.4872 14.3317 14.7355C14.5187 14.9456 14.7429 15.0522 15.0043 15.0554C15.2659 15.0545 15.5825 14.9572 15.9539 14.7636L16.8539 14.2877C17.3523 14.023 17.7996 13.9081 18.196 13.9433C18.5945 13.9765 18.9392 14.1566 19.23 14.4834C19.4756 14.7593 19.6173 15.0724 19.6553 15.4227C19.6932 15.773 19.6301 16.1316 19.4659 16.4983C19.3019 16.861 19.0406 17.202 18.682 17.5211C18.2045 17.9461 17.7154 18.1893 17.2148 18.2507C16.7124 18.31 16.2363 18.1746 15.7867 17.8446L16.212 17.2264C16.5408 17.4549 16.8731 17.5527 17.2091 17.5199C17.5471 17.4853 17.8838 17.3187 18.2191 17.0203C18.5947 16.686 18.8204 16.3349 18.8962 15.9671C18.97 15.5971 18.8936 15.2848 18.667 15.0301C18.4913 14.8328 18.2782 14.7258 18.0277 14.7092C17.7752 14.6905 17.487 14.7683 17.1629 14.9426L16.1939 15.4627C15.6788 15.7386 15.2212 15.8568 14.8211 15.8174C14.4209 15.778 14.0754 15.5949 13.7846 15.2681C13.5447 14.9986 13.4073 14.6968 13.3724 14.3628C13.3357 14.0266 13.3937 13.6859 13.5466 13.3406C13.6995 12.9954 13.9405 12.6764 14.2694 12.3836C14.7172 11.9851 15.1654 11.7687 15.6141 11.7345C16.0631 11.6962 16.5047 11.8014 16.9389 12.0501Z" fill="#E7E7EB"/>
<path d="M24.1624 13.7989C23.632 14.1017 23.1027 14.2404 22.5745 14.2149C22.0449 14.1869 21.5486 14.0139 21.0857 13.6959C20.6239 13.3741 20.2288 12.9257 19.9006 12.3509C19.5737 11.7786 19.3884 11.2105 19.3445 10.6467C19.3017 10.079 19.3947 9.563 19.6235 9.09864C19.8534 8.63041 20.2138 8.25612 20.7047 7.97578C21.0131 7.79968 21.3428 7.68667 21.6938 7.63673C22.0433 7.58433 22.3978 7.60928 22.7572 7.71157C23.1176 7.80999 23.4645 7.99632 23.7978 8.27057C24.1296 8.54234 24.4315 8.9163 24.7034 9.39243L24.8893 9.71808L20.4487 12.2538L20.1169 11.6729L23.8841 9.52169C23.6756 9.15657 23.4142 8.87072 23.1 8.66414C22.7868 8.45368 22.4508 8.338 22.0921 8.3171C21.7359 8.2948 21.3875 8.38085 21.0471 8.57526C20.6869 8.78094 20.4248 9.05818 20.2609 9.40698C20.0969 9.75578 20.0274 10.1324 20.0523 10.537C20.0796 10.9401 20.1991 11.3298 20.4108 11.7062L20.6094 12.0541C20.8672 12.5056 21.1704 12.8559 21.5188 13.1051C21.8683 13.3505 22.2401 13.4833 22.6344 13.5035C23.0287 13.5237 23.4233 13.4211 23.818 13.1957C24.0869 13.0421 24.2985 12.8656 24.4529 12.6662C24.6098 12.4654 24.7172 12.2553 24.775 12.0358C24.8339 11.8124 24.8505 11.5952 24.8249 11.3841L25.5665 11.2305C25.6168 11.5191 25.601 11.8209 25.5192 12.1359C25.4398 12.4495 25.2886 12.7518 25.0654 13.0428C24.8433 13.3299 24.5423 13.5819 24.1624 13.7989Z" fill="#E7E7EB"/>
<path d="M45.4477 15.181C45.2207 14.9919 45.0597 14.7635 44.9647 14.4958C44.8715 14.226 44.8474 13.9508 44.8925 13.6703C44.9375 13.3899 45.0535 13.1352 45.2404 12.9064C45.4313 12.6772 45.6597 12.5162 45.9256 12.4234C46.1933 12.3284 46.4674 12.3034 46.7478 12.3484C47.0323 12.3931 47.288 12.51 47.515 12.6991C47.7442 12.89 47.9043 13.1195 47.9953 13.3876C48.0903 13.6552 48.1153 13.9293 48.0702 14.2098C48.0292 14.4899 47.9132 14.7445 47.7223 14.9737C47.5332 15.2007 47.3037 15.3608 47.0339 15.454C46.7662 15.549 46.4912 15.5751 46.2089 15.5322C45.9306 15.489 45.6769 15.3719 45.4477 15.181Z" fill="#3769F1"/>
<path d="M26 26H38M38 26V38M38 26L26 38" stroke="#E7E7EB" stroke-width="2"/>
</svg>
