<svg width="64" height="64" viewBox="0 0 64 64" fill="none" xmlns="http://www.w3.org/2000/svg">
<circle cx="31.5" cy="31.5" r="31.5" fill="white"/>
<path d="M55.8882 31.6899C55.8882 44.9448 45.143 55.6899 31.8882 55.6899C18.6333 55.6899 7.88818 44.9448 7.88818 31.6899C7.88818 18.4351 18.6333 7.68994 31.8882 7.68994C45.143 7.68994 55.8882 18.4351 55.8882 31.6899Z" fill="white"/>
<path d="M51.0693 34.4022C51.1603 33.8442 51.3824 33.3738 51.7356 32.991C52.0883 32.611 52.5339 32.3412 53.0723 32.1814C53.6135 32.0222 54.2122 31.996 54.8683 32.1031C55.53 32.211 56.0921 32.4265 56.5547 32.7494C57.02 33.0729 57.3581 33.4706 57.569 33.9425C57.7822 34.4177 57.8433 34.9343 57.7523 35.4922C57.6613 36.0502 57.4395 36.5192 57.0868 36.8992C56.7341 37.2792 56.2871 37.5488 55.7459 37.7081C55.2042 37.8701 54.6025 37.8972 53.9408 37.7893C53.2847 37.6823 52.7254 37.4673 52.2628 37.1443C51.803 36.8217 51.4666 36.4229 51.2533 35.9477C51.0397 35.4753 50.9783 34.9601 51.0693 34.4022ZM51.7549 34.514C51.6817 34.9626 51.7403 35.3622 51.9307 35.7128C52.121 36.0633 52.4037 36.3512 52.7785 36.5764C53.153 36.8044 53.5813 36.9578 54.0636 37.0364C54.5458 37.1151 55.0021 37.1061 55.4324 37.0093C55.8622 36.9153 56.2245 36.7326 56.5192 36.4612C56.8139 36.1897 56.9978 35.8297 57.071 35.3811C57.1437 34.9353 57.0837 34.5355 56.891 34.1816C56.6978 33.8306 56.4126 33.5409 56.0354 33.3124C55.6577 33.0867 55.2277 32.9346 54.7455 32.8559C54.2632 32.7772 53.8086 32.7851 53.3815 32.8795C52.9541 32.9768 52.5944 33.1613 52.3025 33.4332C52.0106 33.7051 51.8281 34.0654 51.7549 34.514Z" fill="#3E3D5D"/>
<path d="M48.2943 37.2244L56.1908 41.5424L55.8371 42.1892L54.7416 41.5902L54.6987 41.6687C54.8271 41.8425 54.9428 42.0483 55.0459 42.286C55.1516 42.5251 55.204 42.7934 55.2032 43.0908C55.2011 43.3908 55.104 43.7165 54.9118 44.068C54.6528 44.5416 54.3019 44.8872 53.8591 45.1048C53.4174 45.3263 52.9197 45.4135 52.3658 45.3665C51.8131 45.3233 51.2414 45.1402 50.6506 44.8171C50.0574 44.4927 49.5922 44.1088 49.2551 43.6654C48.9166 43.2246 48.7202 42.7577 48.6658 42.265C48.6101 41.7747 48.7104 41.2953 48.9666 40.8267C49.1561 40.4802 49.3772 40.2239 49.6299 40.0578C49.8813 39.8941 50.1375 39.7898 50.3985 39.7447C50.6607 39.7035 50.9001 39.6919 51.1168 39.7101L51.1496 39.6503L47.9304 37.8899L48.2943 37.2244ZM52.9558 40.6282C52.4922 40.3747 52.0434 40.2184 51.6095 40.1592C51.1767 40.1039 50.7873 40.1499 50.4411 40.2974C50.0961 40.4487 49.8221 40.7101 49.619 41.0815C49.4104 41.4628 49.3393 41.8416 49.4056 42.2178C49.473 42.5979 49.6486 42.9546 49.9326 43.288C50.2152 43.6238 50.5796 43.9138 51.0258 44.1577C51.4669 44.399 51.902 44.5478 52.3309 44.6043C52.7585 44.6632 53.1479 44.6172 53.4993 44.4661C53.8531 44.3164 54.135 44.0496 54.3449 43.6657C54.5494 43.2918 54.6222 42.9188 54.5634 42.5467C54.5071 42.1759 54.3395 41.8252 54.0605 41.4946C53.7827 41.1678 53.4144 40.879 52.9558 40.6282Z" fill="#3E3D5D"/>
<path d="M45.1002 45.8471C45.5429 45.4263 46.0238 45.1653 46.5428 45.0639C47.0638 44.9646 47.587 45.0141 48.1125 45.2124C48.6378 45.4146 49.1285 45.7556 49.5845 46.2355C50.0386 46.7132 50.3542 47.2206 50.5314 47.7576C50.7086 48.2986 50.7415 48.8219 50.6302 49.3275C50.5187 49.8371 50.2581 50.2866 49.8483 50.6761C49.5909 50.9207 49.2978 51.1092 48.9689 51.2415C48.6419 51.3758 48.2917 51.4362 47.9183 51.4227C47.5448 51.4132 47.1635 51.3151 46.7744 51.1284C46.3872 50.9437 46.0048 50.6526 45.6271 50.2552L45.3687 49.9834L49.0754 46.4606L49.5363 46.9456L46.3918 49.9341C46.6815 50.2388 47.0035 50.454 47.358 50.5796C47.7124 50.7091 48.0663 50.7413 48.4196 50.6759C48.7709 50.6125 49.0886 50.4457 49.3727 50.1757C49.6734 49.8899 49.8617 49.5581 49.9376 49.1803C50.0135 48.8024 49.9911 48.42 49.8703 48.0332C49.7475 47.6482 49.5384 47.2983 49.243 46.9833L48.967 46.693C48.6089 46.3161 48.2309 46.0483 47.833 45.8895C47.4351 45.7347 47.0422 45.6945 46.6545 45.7691C46.2668 45.8436 45.9082 46.0374 45.5787 46.3506C45.3542 46.5639 45.1909 46.7858 45.0885 47.0163C44.9842 47.2488 44.9301 47.4785 44.9263 47.7054C44.9225 47.9364 44.9582 48.1514 45.0335 48.3502L44.35 48.6764C44.2323 48.4082 44.1755 48.1113 44.1798 47.7859C44.182 47.4624 44.2567 47.1328 44.4039 46.7969C44.551 46.4651 44.7831 46.1485 45.1002 45.8471Z" fill="#3E3D5D"/>
<path d="M44.0636 51.9695L42.2079 48.3237L42.8839 47.9796L45.853 53.8129L45.196 54.1473L44.7302 53.232L44.6694 53.263C44.6847 53.6313 44.5938 53.9788 44.3967 54.3055C44.1983 54.636 43.8852 54.9101 43.4573 55.1279C43.0649 55.3276 42.6787 55.4206 42.2987 55.4068C41.9175 55.3968 41.564 55.2755 41.2384 55.0428C40.9102 54.8114 40.6288 54.4653 40.3943 54.0045L38.471 50.2257L39.147 49.8817L41.049 53.6186C41.2926 54.0971 41.6194 54.4073 42.0296 54.5492C42.4372 54.6924 42.865 54.65 43.3132 54.4219C43.6195 54.266 43.8582 54.0616 44.0292 53.8088C44.2001 53.556 44.2921 53.2701 44.3051 52.9511C44.3168 52.636 44.2363 52.3087 44.0636 51.9695Z" fill="#3E3D5D"/>
<path d="M22.6373 50.9513C22.9031 51.0804 23.1142 51.2635 23.2706 51.5006C23.4258 51.7402 23.5152 52.0016 23.5387 52.2846C23.5623 52.5677 23.5108 52.8427 23.3842 53.1097C23.2538 53.378 23.0707 53.5891 22.8349 53.743C22.5978 53.8995 22.3377 53.9894 22.0546 54.013C21.7678 54.0379 21.4915 53.9857 21.2257 53.8566C20.9574 53.7263 20.7469 53.5419 20.5943 53.3035C20.4379 53.0664 20.3479 52.8063 20.3243 52.5232C20.297 52.2415 20.3485 51.9665 20.4788 51.6982C20.608 51.4324 20.7923 51.2219 21.032 51.0667C21.2691 50.9103 21.5298 50.819 21.8141 50.7929C22.0946 50.7681 22.369 50.8209 22.6373 50.9513Z" fill="#FCCA13"/>
<path d="M12.9278 36.9307L6.71853 39.7938L6.60779 39.0004L11.7407 36.7178L11.733 36.6629L6.17188 35.8772L6.06055 35.0796L11.1831 32.8156L11.1749 32.7565L5.62582 31.9649L5.51508 31.1714L12.271 32.2249L12.3794 33.0015L7.28027 35.2794L7.29147 35.3595L12.8194 36.1542L12.9278 36.9307Z" fill="#3E3D5D"/>
<path d="M13.0194 27.3159C12.8866 27.9121 12.6332 28.3971 12.259 28.7707C11.882 29.1437 11.4202 29.3946 10.8735 29.5232C10.3246 29.6484 9.72717 29.6391 9.08104 29.4953C8.4377 29.3521 7.89268 29.1071 7.446 28.7603C6.99715 28.4101 6.67791 27.9941 6.48826 27.5125C6.29645 27.0274 6.26196 26.5089 6.38479 25.9571C6.46194 25.6105 6.6001 25.2905 6.79925 24.9972C6.99564 24.7033 7.25256 24.4578 7.57001 24.2607C7.8853 24.0602 8.2565 23.9289 8.68361 23.8668C9.10794 23.8041 9.5877 23.8323 10.1229 23.9514L10.4889 24.0329L9.37794 29.0244L8.72489 28.879L9.66739 24.6446C9.25698 24.5532 8.86964 24.5543 8.50539 24.6479C8.13898 24.7381 7.82739 24.9088 7.57063 25.1602C7.31448 25.4088 7.14382 25.7244 7.05864 26.1071C6.96853 26.5119 6.99736 26.8923 7.14515 27.2483C7.29293 27.6042 7.52486 27.9091 7.84093 28.1628C8.15761 28.4137 8.52639 28.5875 8.94728 28.6841L9.33828 28.7711C9.84575 28.884 10.3089 28.8954 10.7277 28.8053C11.1443 28.7118 11.4927 28.5259 11.7729 28.2478C12.0531 27.9696 12.2426 27.6087 12.3413 27.165C12.4086 26.8627 12.4204 26.5874 12.3767 26.3391C12.3337 26.0879 12.2504 25.8671 12.1269 25.6766C12.0013 25.4828 11.8517 25.3243 11.6783 25.2013L12.0635 24.5493C12.3109 24.7062 12.5236 24.9209 12.7016 25.1933C12.8802 25.463 13.0022 25.7783 13.0674 26.1392C13.1304 26.4966 13.1144 26.8889 13.0194 27.3159Z" fill="#3E3D5D"/>
<path d="M13.5905 24.3387L6.06015 19.9275L6.44569 19.2693L9.40563 21.0032L9.4401 20.9444C9.31404 20.7718 9.20174 20.5644 9.10321 20.3223C9.00611 20.0778 8.96356 19.8076 8.97555 19.5117C8.98653 19.2119 9.09325 18.8892 9.29572 18.5436C9.56711 18.0803 9.92804 17.7452 10.3785 17.5382C10.8265 17.3298 11.3274 17.2561 11.881 17.3171C12.4322 17.3765 12.9983 17.5765 13.5793 17.9168C14.1627 18.2585 14.6163 18.656 14.9402 19.1091C15.2656 19.5598 15.4481 20.0322 15.4879 20.5263C15.5292 21.018 15.4148 21.4943 15.1448 21.9551C14.9438 22.2983 14.7145 22.5492 14.457 22.7078C14.2009 22.864 13.9424 22.9595 13.6816 22.9944C13.4184 23.0279 13.1787 23.0324 12.9626 23.0078L12.9152 23.0887L13.9632 23.7026L13.5905 24.3387ZM11.1494 22.0395C11.6053 22.3066 12.0493 22.4761 12.4813 22.5481C12.9122 22.6161 13.3028 22.5816 13.6532 22.4444C14.0025 22.3033 14.2842 22.0502 14.4981 21.6849C14.7178 21.3099 14.8008 20.9321 14.7471 20.5517C14.691 20.1698 14.5259 19.808 14.2519 19.4664C13.9779 19.1248 13.6215 18.8255 13.1827 18.5685C12.7488 18.3143 12.3183 18.1527 11.8913 18.0836C11.4656 18.0121 11.075 18.0466 10.7193 18.1873C10.3612 18.3265 10.0716 18.5849 9.85046 18.9624C9.63507 19.3301 9.55126 19.7008 9.59904 20.0745C9.64581 20.4443 9.80375 20.7985 10.0729 21.1373C10.3395 21.4746 10.6984 21.7753 11.1494 22.0395Z" fill="#3E3D5D"/>
<path d="M16.9389 12.0503L16.5504 12.6585C16.3691 12.5574 16.1789 12.489 15.9798 12.4533C15.7806 12.4175 15.5746 12.4317 15.3616 12.4957C15.1507 12.5579 14.9349 12.6872 14.7142 12.8836C14.3831 13.1783 14.1814 13.4986 14.1089 13.8445C14.0365 14.1904 14.1107 14.4875 14.3317 14.7358C14.5187 14.9459 14.7429 15.0525 15.0043 15.0556C15.2659 15.0548 15.5825 14.9575 15.9539 14.7638L16.8539 14.288C17.3523 14.0232 17.7996 13.9084 18.196 13.9435C18.5945 13.9768 18.9392 14.1568 19.23 14.4836C19.4756 14.7595 19.6173 15.0726 19.6553 15.423C19.6932 15.7733 19.6301 16.1318 19.4659 16.4985C19.3019 16.8612 19.0406 17.2022 18.682 17.5214C18.2045 17.9463 17.7154 18.1895 17.2148 18.2509C16.7124 18.3102 16.2363 18.1749 15.7867 17.8448L16.212 17.2267C16.5408 17.4551 16.8731 17.5529 17.2091 17.5202C17.5471 17.4855 17.8838 17.319 18.2191 17.0206C18.5947 16.6863 18.8204 16.3352 18.8962 15.9673C18.97 15.5974 18.8936 15.285 18.667 15.0304C18.4913 14.833 18.2782 14.726 18.0277 14.7094C17.7752 14.6907 17.487 14.7685 17.1629 14.9428L16.1939 15.4629C15.6788 15.7388 15.2212 15.857 14.8211 15.8177C14.4209 15.7783 14.0754 15.5952 13.7846 15.2683C13.5447 14.9988 13.4073 14.697 13.3724 14.363C13.3357 14.0268 13.3937 13.6861 13.5466 13.3409C13.6995 12.9956 13.9405 12.6766 14.2694 12.3839C14.7172 11.9854 15.1654 11.769 15.6141 11.7347C16.0631 11.6965 16.5047 11.8017 16.9389 12.0503Z" fill="#3E3D5D"/>
<path d="M21.8042 14.9885L18.5584 9.30446L19.2208 8.92621L22.4666 14.6102L21.8042 14.9885ZM18.3373 8.13523C18.2016 8.21271 18.0596 8.23328 17.9112 8.19694C17.7615 8.15814 17.6493 8.07336 17.5746 7.94261C17.5 7.81186 17.4847 7.67337 17.5288 7.52715C17.5714 7.37846 17.6606 7.26538 17.7963 7.18789C17.932 7.11041 18.0747 7.09107 18.2245 7.12988C18.3728 7.16622 18.4843 7.24976 18.559 7.38051C18.6336 7.51127 18.6496 7.65099 18.6069 7.79967C18.5629 7.9459 18.473 8.05775 18.3373 8.13523Z" fill="#3E3D5D"/>
<path d="M23.9261 6.86121L24.1534 7.48135L21.2208 8.55669L20.9934 7.93656L23.9261 6.86121ZM21.3697 6.12828L22.0859 5.86568L24.2909 11.879C24.3848 12.135 24.5026 12.3203 24.6444 12.4347C24.7853 12.5465 24.9376 12.6071 25.1015 12.6166C25.2643 12.6235 25.4258 12.5975 25.5858 12.5389C25.6792 12.5046 25.7572 12.47 25.82 12.4348C25.8818 12.397 25.9356 12.3622 25.9814 12.3303L26.3696 12.9187C26.31 12.9708 26.2335 13.0261 26.14 13.0846C26.0474 13.1457 25.9265 13.2037 25.7771 13.2585C25.5157 13.3543 25.2426 13.3894 24.9578 13.3637C24.6757 13.337 24.4158 13.2387 24.1779 13.0687C23.9401 12.8987 23.7596 12.6457 23.6363 12.3096L21.3697 6.12828Z" fill="#3E3D5D"/>
<path d="M30.0579 12.4108C29.4501 12.4719 28.9102 12.3835 28.438 12.1455C27.9655 11.9046 27.5824 11.5448 27.2887 11.0661C26.9975 10.5843 26.8188 10.0141 26.7526 9.35553C26.6866 8.69974 26.7482 8.10537 26.9372 7.57241C27.1289 7.03634 27.4236 6.60267 27.8214 6.27142C28.2218 5.93706 28.7032 5.74159 29.2657 5.68502C29.6191 5.64948 29.9662 5.68023 30.3072 5.77727C30.6479 5.87149 30.9616 6.03838 31.2484 6.27792C31.5377 6.51436 31.7789 6.82559 31.9719 7.21163C32.1646 7.59483 32.2884 8.0592 32.3433 8.60475L32.3808 8.97786L27.2928 9.48963L27.2259 8.82395L31.5422 8.38981C31.5001 7.97146 31.3775 7.60405 31.1743 7.28756C30.9737 6.96797 30.7138 6.72572 30.3946 6.56082C30.0781 6.39563 29.7249 6.33265 29.3348 6.37189C28.9221 6.4134 28.57 6.56017 28.2784 6.81221C27.9868 7.06425 27.7702 7.38013 27.6285 7.75985C27.4897 8.13929 27.4404 8.54398 27.4808 8.97391L27.5209 9.37247C27.5729 9.88974 27.7075 10.3331 27.9245 10.7024C28.1441 11.0686 28.4299 11.3411 28.7819 11.5198C29.1339 11.6986 29.5361 11.7652 29.9884 11.7197C30.2965 11.6887 30.5616 11.6135 30.7837 11.4941C31.0086 11.3744 31.1922 11.226 31.3342 11.049C31.4789 10.8688 31.5824 10.6771 31.6447 10.4738L32.3847 10.6349C32.3134 10.9191 32.1763 11.1884 31.9735 11.4429C31.7735 11.6972 31.5124 11.9119 31.1902 12.0871C30.8706 12.2591 30.4932 12.367 30.0579 12.4108Z" fill="#3E3D5D"/>
<path d="M45.4472 15.181C45.2202 14.9919 45.0592 14.7635 44.9642 14.4958C44.871 14.226 44.847 13.9508 44.892 13.6703C44.937 13.3899 45.053 13.1352 45.2399 12.9064C45.4308 12.6772 45.6592 12.5162 45.9251 12.4234C46.1928 12.3284 46.4669 12.3034 46.7473 12.3484C47.0318 12.3931 47.2875 12.51 47.5145 12.6991C47.7437 12.89 47.9038 13.1195 47.9948 13.3876C48.0898 13.6552 48.1148 13.9293 48.0698 14.2098C48.0287 14.4899 47.9127 14.7445 47.7218 14.9737C47.5327 15.2007 47.3033 15.3608 47.0334 15.454C46.7657 15.549 46.4907 15.5751 46.2084 15.5322C45.9302 15.489 45.6764 15.3719 45.4472 15.181Z" fill="#3769F1"/>
<path d="M26 26H38M38 26V38M38 26L26 38" stroke="#3E3D5D" stroke-width="2"/>
</svg>
