<svg width="80" height="80" viewBox="0 0 80 80" fill="none" xmlns="http://www.w3.org/2000/svg">
<rect x="0.415734" y="0.397423" width="78.5611" height="78.5611" rx="13.825" fill="white"/>
<rect x="0.415734" y="0.397423" width="78.5611" height="78.5611" rx="13.825" stroke="#D9D9D9" stroke-width="0.438889"/>
<path d="M60.6147 43.8458C60.3596 43.0709 59.6912 42.5311 58.8268 42.4016C58.4192 42.3406 57.9524 42.3666 57.4 42.4808C56.4372 42.68 55.7229 42.7558 55.2016 42.7705C57.1693 39.4392 58.7692 35.6404 59.6903 32.0644C61.1797 26.2822 60.3838 23.648 59.4538 22.4565C56.9924 19.3027 53.4014 17.6085 49.0691 17.5567C46.758 17.5283 44.7292 17.9859 43.6708 18.3149C42.6854 18.1406 41.6259 18.0432 40.5141 18.0252C38.4301 17.9919 36.5888 18.4475 35.0155 19.3837C34.1444 19.0884 32.7464 18.672 31.132 18.4063C27.335 17.7812 24.2747 18.2683 22.0363 19.854C19.3258 21.7739 18.0692 25.1097 18.3016 29.7686C18.3754 31.2478 19.2006 35.7484 20.4998 40.0166C21.2465 42.47 22.0428 44.5072 22.8664 46.0724C24.0345 48.2919 25.2844 49.5989 26.6876 50.0683C27.474 50.331 28.9029 50.515 30.4058 49.2599C30.5963 49.4912 30.8504 49.7211 31.1877 49.9346C31.6161 50.2055 32.1399 50.4269 32.663 50.558C34.5482 51.0306 36.314 50.9124 37.8206 50.25C37.8299 50.5187 37.837 50.7754 37.843 50.9971C37.853 51.3566 37.863 51.7092 37.8761 52.0389C37.9654 54.2682 38.1166 56.0016 38.5648 57.2144C38.5894 57.2811 38.6225 57.3828 38.6574 57.4906C38.8809 58.177 39.2548 59.3262 40.206 60.2262C41.1909 61.1584 42.3822 61.4443 43.4734 61.4443C44.0206 61.4443 44.5427 61.3723 45.0007 61.274C46.633 60.9231 48.487 60.3887 49.8281 58.4738C51.0961 56.6635 51.7125 53.937 51.824 49.6409C51.8385 49.5194 51.8518 49.4034 51.8646 49.2929L51.8912 49.0658L52.1899 49.0922L52.2669 49.0973C53.9295 49.1734 55.9625 48.8198 57.211 48.2382C58.1976 47.7792 61.3591 46.1054 60.6147 43.8458Z" fill="black"/>
<path d="M57.7717 44.2852C52.8281 45.3078 52.4881 43.6294 52.4881 43.6294C57.7077 35.8629 59.8898 26.0044 58.007 23.5916C52.8698 17.0099 43.9774 20.1226 43.8289 20.2033L43.7812 20.212C42.8045 20.0086 41.7115 19.8876 40.4829 19.8674C38.2461 19.8307 36.5493 20.4555 35.2617 21.4346C35.2617 21.4346 19.3984 14.8814 20.1363 29.6764C20.2932 32.8238 24.6351 53.4917 29.8138 47.2491C31.7067 44.9663 33.5357 43.0362 33.5357 43.0362C34.444 43.6412 35.5314 43.95 36.6714 43.8391L36.76 43.7638C36.7324 44.0471 36.7451 44.3243 36.7954 44.6525C35.4613 46.1472 35.8534 46.4096 33.1864 46.9602C30.4877 47.5179 32.073 48.5107 33.1082 48.7704C34.363 49.085 37.266 49.5307 39.2275 46.7772L39.1494 47.0914C39.672 47.5113 40.0391 49.8222 39.9776 51.9173C39.9161 54.0123 39.875 55.4507 40.2868 56.5741C40.6988 57.6976 41.1093 60.2255 44.6154 59.4722C47.5448 58.8426 49.063 57.2112 49.2743 54.4899C49.424 52.5553 49.7633 52.8413 49.7846 51.1116L50.0567 50.2928C50.3704 47.6703 50.1066 46.8242 51.9113 47.2177L52.3502 47.2564C53.6783 47.3169 55.4171 47.042 56.4376 46.5665C58.6348 45.544 59.938 43.8366 57.7714 44.2852H57.7717Z" fill="#336791"/>
<path d="M36.1899 31.084C35.7444 31.0219 35.341 31.0794 35.1369 31.2344C35.0222 31.3216 34.9866 31.4226 34.9769 31.4921C34.9513 31.6763 35.08 31.88 35.1591 31.985C35.3829 32.2824 35.7097 32.4867 36.0332 32.5317C36.08 32.5384 36.1268 32.5414 36.1731 32.5414C36.7125 32.5414 37.2031 32.1202 37.2463 31.8093C37.3003 31.4199 36.7366 31.1604 36.1899 31.0842V31.084ZM50.9484 31.0964C50.9059 30.7912 50.3643 30.7042 49.8503 30.7758C49.337 30.8475 48.8393 31.0799 48.8809 31.3857C48.9141 31.6236 49.3425 32.0297 49.8495 32.0297C49.8924 32.0297 49.9356 32.0268 49.9791 32.0207C50.3176 31.9736 50.5659 31.7581 50.6839 31.6339C50.8635 31.4446 50.9675 31.2336 50.9484 31.0964Z" fill="white"/>
<path d="M59.4169 44.1691C59.2284 43.5975 58.6217 43.4136 57.6136 43.6223C54.6207 44.2417 53.5488 43.8127 53.1969 43.5528C55.5233 39.999 57.4371 35.7031 58.4696 31.695C58.9586 29.7965 59.2287 28.0332 59.2508 26.596C59.2753 25.0186 59.0073 23.8595 58.4548 23.1514C56.227 20.2968 52.9572 18.7656 48.9993 18.7236C46.2783 18.693 43.9793 19.3912 43.5337 19.5876C42.5951 19.3536 41.572 19.2099 40.4581 19.1915C38.4155 19.1584 36.6498 19.6488 35.188 20.6484C34.553 20.4114 32.912 19.8465 30.9051 19.5222C27.4355 18.9622 24.6785 19.3866 22.711 20.7842C20.3633 22.4521 19.2795 25.4335 19.4894 29.6454C19.5601 31.0625 20.3653 35.4217 21.636 39.5964C23.3086 45.0912 25.1268 48.2018 27.0397 48.8417C27.2636 48.9165 27.5218 48.9689 27.8066 48.9689C28.5044 48.9689 29.36 48.6535 30.2501 47.5803C31.3359 46.2743 32.459 44.9999 33.6181 43.7588C34.3701 44.1636 35.1963 44.3896 36.0412 44.4123C36.0429 44.4344 36.045 44.4566 36.047 44.4786C35.9016 44.6525 35.7592 44.829 35.6198 45.0078C35.0344 45.7531 34.9125 45.9083 33.028 46.2973C32.4919 46.4084 31.0681 46.7026 31.0472 47.7034C31.0246 48.7968 32.7303 49.2561 32.9246 49.3047C33.6018 49.4748 34.2543 49.5586 34.8765 49.5586C36.3896 49.5586 37.7213 49.0599 38.7855 48.0949C38.7528 51.9931 38.9148 55.8343 39.3816 57.0046C39.7639 57.9627 40.6978 60.3042 43.6477 60.3041C44.0806 60.3041 44.557 60.2536 45.0811 60.1409C48.1598 59.4791 49.4968 58.1146 50.014 55.1064C50.2907 53.4986 50.7657 49.6596 50.9891 47.6003C51.4605 47.7479 52.0674 47.8154 52.7235 47.8152C54.0919 47.8152 55.6709 47.5237 56.6611 47.0628C57.7736 46.5447 59.7809 45.2735 59.4169 44.1691ZM52.0852 30.2539C52.075 30.8618 51.9916 31.4137 51.9032 31.9898C51.8079 32.6093 51.7095 33.2499 51.6847 34.0275C51.6603 34.7843 51.7546 35.5711 51.8456 36.332C52.0298 37.8689 52.2188 39.4511 51.4873 41.0123C51.3657 40.7964 51.2575 40.5732 51.1631 40.344C51.0722 40.123 50.8747 39.768 50.6013 39.2766C49.5376 37.3636 47.0466 32.884 48.3218 31.0561C48.7016 30.5121 49.6655 29.9526 52.0852 30.2539ZM49.1522 19.9546C52.6986 20.0331 55.5039 21.3635 57.49 23.9085C59.0133 25.8606 57.3359 34.743 52.4798 42.4058C52.431 42.3435 52.3819 42.2815 52.3325 42.2196L52.271 42.1426C53.5259 40.0645 53.2805 38.0084 53.0621 36.1855C52.9723 35.4374 52.8876 34.7308 52.9092 34.067C52.9315 33.3636 53.0242 32.7602 53.114 32.1768C53.2242 31.4578 53.3364 30.7139 53.3055 29.837C53.3286 29.7449 53.3379 29.6363 53.3258 29.5073C53.2468 28.6663 52.2893 26.1495 50.3378 23.8715C49.2703 22.6255 47.7135 21.2311 45.5879 20.2907C46.5022 20.1007 47.7524 19.9235 49.1522 19.9546ZM29.3081 46.7949C28.3274 47.9774 27.6501 47.7507 27.4274 47.6764C25.9762 47.191 24.2923 44.1152 22.8077 39.2379C21.5231 35.0177 20.7724 30.7739 20.7129 29.5839C20.5254 25.8204 21.4352 23.1976 23.4171 21.788C26.6426 19.4944 31.9457 20.8673 34.0766 21.5635C34.046 21.5939 34.0141 21.6222 33.9838 21.653C30.487 25.1942 30.57 31.2443 30.5786 31.6142C30.5783 31.7569 30.5902 31.9589 30.6065 32.2368C30.6667 33.2544 30.7787 35.1483 30.4795 37.2931C30.2016 39.2862 30.8143 41.237 32.1603 42.6454C32.2984 42.7896 32.4436 42.9269 32.5953 43.0567C31.9962 43.7002 30.6941 45.123 29.3081 46.7949ZM33.0448 41.7954C31.96 40.6602 31.4673 39.0814 31.6928 37.4632C32.0087 35.1975 31.8921 33.2242 31.8295 32.1641C31.8207 32.0158 31.8128 31.8857 31.8084 31.7832C32.3192 31.329 34.6865 30.0572 36.3747 30.445C37.145 30.6219 37.6144 31.148 37.8096 32.0528C38.8196 36.7372 37.9432 38.6897 37.2391 40.2587C37.094 40.5819 36.9568 40.8874 36.8398 41.2035L36.749 41.4479C36.5193 42.0656 36.3055 42.64 36.173 43.1854C35.0197 43.1821 33.8979 42.688 33.0448 41.7952V41.7954ZM33.2218 48.1129C32.885 48.0286 32.5822 47.8821 32.4045 47.7605C32.5529 47.6905 32.817 47.5952 33.2752 47.5005C35.4922 47.0429 35.8346 46.7199 36.5823 45.7679C36.7537 45.5496 36.948 45.3022 37.2171 45.0008L37.2175 45.0005C37.6182 44.5504 37.8016 44.6268 38.1341 44.7651C38.4035 44.8768 38.666 45.2155 38.7724 45.5882C38.8227 45.7643 38.8793 46.0983 38.6942 46.3583C37.1324 48.5513 34.8563 48.5231 33.2218 48.1129ZM44.8245 58.9397C42.1123 59.5224 41.1519 58.1348 40.5191 56.5484C40.1107 55.5242 39.9099 50.906 40.0523 45.8058C40.0542 45.7379 40.0445 45.6724 40.0259 45.6107C40.0093 45.489 39.9839 45.3685 39.9501 45.2504C39.7383 44.5083 39.2222 43.8875 38.603 43.6301C38.357 43.528 37.9055 43.3404 37.3629 43.4796C37.4786 43.0016 37.6792 42.4617 37.8968 41.8771L37.9881 41.6312C38.0908 41.354 38.2198 41.0668 38.3561 40.7628C39.093 39.1212 40.1022 36.8727 39.0069 31.7932C38.5967 29.8906 37.2266 28.9615 35.1497 29.1774C33.9047 29.3066 32.7655 29.8103 32.1973 30.0992C32.0752 30.1612 31.9635 30.2212 31.8591 30.2795C32.0176 28.3626 32.6167 24.7801 34.8578 22.5135C36.269 21.0866 38.1482 20.3819 40.4378 20.4199C44.9493 20.4939 47.8423 22.8155 49.475 24.7503C50.882 26.4173 51.6438 28.0967 51.9479 29.0025C49.6614 28.7693 48.1063 29.2219 47.3181 30.352C45.6031 32.8104 48.2563 37.5817 49.5314 39.8748C49.7653 40.295 49.9671 40.6583 50.0306 40.8126C50.4458 41.8217 50.9834 42.4955 51.3759 42.9872C51.4962 43.1379 51.6129 43.2841 51.7017 43.4118C51.0092 43.612 49.7653 44.0745 49.8787 46.3867C49.7872 47.5468 49.1371 52.9786 48.8068 54.8977C48.3708 57.433 47.4404 58.3773 44.8245 58.9399V58.9397ZM56.1453 45.9486C55.4372 46.2782 54.2522 46.5254 53.1264 46.5785C51.883 46.6369 51.25 46.4389 51.1011 46.317C51.0313 44.8762 51.566 44.7256 52.1321 44.5663C52.221 44.5413 52.3078 44.5168 52.3915 44.4874C52.4436 44.5299 52.5006 44.5721 52.5631 44.6134C53.5625 45.2749 55.3449 45.3462 57.8615 44.8253L57.8891 44.8198C57.5496 45.138 56.9688 45.5651 56.1453 45.9486Z" fill="white"/>
</svg>
