<svg width="80" height="80" viewBox="0 0 80 80" fill="none" xmlns="http://www.w3.org/2000/svg">
<rect x="1.05245" y="0.397423" width="78.5611" height="78.5611" rx="13.825" fill="white"/>
<rect x="1.05245" y="0.397423" width="78.5611" height="78.5611" rx="13.825" stroke="#D9D9D9" stroke-width="0.438889"/>
<path d="M40.5002 43.3693C42.6372 43.3693 44.3696 41.6369 44.3696 39.5C44.3696 37.363 42.6372 35.6306 40.5002 35.6306C38.3632 35.6306 36.6309 37.363 36.6309 39.5C36.6309 41.6369 38.3632 43.3693 40.5002 43.3693Z" fill="#61DAFB"/>
<path d="M40.5006 47.4274C51.9674 47.4274 61.263 43.8782 61.263 39.5C61.263 35.1217 51.9674 31.5725 40.5006 31.5725C29.0339 31.5725 19.7383 35.1217 19.7383 39.5C19.7383 43.8782 29.0339 47.4274 40.5006 47.4274Z" stroke="#61DAFB" stroke-width="2.19444"/>
<path d="M33.6348 43.4636C39.3682 53.3941 47.0897 59.6697 50.8814 57.4806C54.673 55.2915 53.0989 45.4666 47.3655 35.5361C41.6322 25.6057 33.9106 19.33 30.119 21.5191C26.3274 23.7082 27.9015 33.5331 33.6348 43.4636Z" stroke="#61DAFB" stroke-width="2.19444"/>
<path d="M33.6352 35.5362C27.9018 45.4667 26.3277 55.2915 30.1194 57.4806C33.911 59.6697 41.6325 53.3941 47.3659 43.4636C53.0993 33.5332 54.6733 23.7083 50.8817 21.5192C47.0901 19.3301 39.3685 25.6057 33.6352 35.5362Z" stroke="#61DAFB" stroke-width="2.19444"/>
</svg>
