<svg width="80" height="80" viewBox="0 0 80 80" fill="none" xmlns="http://www.w3.org/2000/svg">
<rect x="0.415734" y="0.397423" width="78.5611" height="78.5611" rx="13.825" fill="white"/>
<rect x="0.415734" y="0.397423" width="78.5611" height="78.5611" rx="13.825" stroke="#D9D9D9" stroke-width="0.438889"/>
<path d="M27.3063 17.5557H51.6071C52.7896 17.5557 53.9378 17.7442 55.0518 18.1386C56.6627 18.7215 58.1193 19.7501 59.2161 21.0873C60.3301 22.4246 61.067 24.0704 61.324 25.7848C61.4269 26.4192 61.444 27.0535 61.444 27.6878V51.3981C61.444 52.1525 61.4097 52.9239 61.2555 53.6611C60.9127 55.3584 60.1073 56.9528 58.9419 58.2386C57.7937 59.5244 56.2856 60.4845 54.6576 60.9988C53.6636 61.3074 52.6354 61.4446 51.59 61.4446C51.1273 61.4446 27.2377 61.4446 26.8779 61.4274C25.1298 61.3417 23.399 60.7759 21.9423 59.7987C20.5199 58.8386 19.3545 57.5014 18.6005 55.9584C17.9493 54.6383 17.6237 53.164 17.6237 51.6896V27.3107C17.5894 25.8534 17.8979 24.4133 18.5319 23.1104C19.2689 21.5674 20.4171 20.213 21.8395 19.2529C23.2961 18.2586 25.0099 17.6757 26.7579 17.59C26.9293 17.5557 27.1178 17.5557 27.3063 17.5557Z" fill="url(#paint0_linear_2182_17310)"/>
<path d="M54.5724 53.4554C54.4182 53.2154 54.2468 52.9754 54.0583 52.7525C53.6299 52.2382 53.1329 51.7924 52.5845 51.4153C51.899 50.9524 51.0935 50.6609 50.2709 50.6266C49.6883 50.5923 49.1056 50.6952 48.5572 50.9009C48.0088 51.0895 47.4775 51.3638 46.9634 51.6381C46.3636 51.9467 45.7638 52.2553 45.1297 52.5125C44.3757 52.8211 43.5873 53.0611 42.7819 53.2325C41.7708 53.4211 40.7425 53.4897 39.7314 53.4725C37.8977 53.4383 36.064 53.164 34.316 52.6496C32.7737 52.1867 31.2998 51.5524 29.9117 50.7466C28.695 50.0437 27.5639 49.238 26.5014 48.3293C25.6274 47.575 24.8219 46.7692 24.0679 45.912C23.5537 45.312 23.0568 44.6776 22.5941 44.0261C22.4055 43.769 22.2342 43.4947 22.0799 43.2204L17.5557 38.3343V27.2764C17.5557 21.9103 21.8914 17.5557 27.2554 17.5557H35.9098L42.3192 24.0704C56.7831 33.9111 52.1046 44.7633 52.1046 44.7633C52.1046 44.7633 56.2176 49.3923 54.5724 53.4554Z" fill="url(#paint1_linear_2182_17310)"/>
<path d="M42.3536 24.0703C56.8175 33.911 52.139 44.7632 52.139 44.7632C52.139 44.7632 56.252 49.4093 54.5896 53.4724C54.5896 53.4724 52.893 50.6265 50.0482 50.6265C47.3063 50.6265 45.6954 53.4724 40.1771 53.4724C27.8896 53.4724 22.0801 43.2031 22.0801 43.2031C33.1508 50.4894 40.7084 45.329 40.7084 45.329C35.7214 42.4316 25.1134 28.5792 25.1134 28.5792C34.3504 36.4484 38.3434 38.5228 38.3434 38.5228C35.9613 36.5512 29.2778 26.9162 29.2778 26.9162C34.6246 32.3338 45.2498 39.8943 45.2498 39.8943C48.266 31.528 42.3536 24.0703 42.3536 24.0703Z" fill="white"/>
<defs>
<linearGradient id="paint0_linear_2182_17310" x1="43.6538" y1="15.9896" x2="35.3587" y2="63.0149" gradientUnits="userSpaceOnUse">
<stop stop-color="#FAAE42"/>
<stop offset="1" stop-color="#EF3E31"/>
</linearGradient>
<linearGradient id="paint1_linear_2182_17310" x1="39.9391" y1="18.2647" x2="33.8681" y2="52.6819" gradientUnits="userSpaceOnUse">
<stop stop-color="#E39F3A"/>
<stop offset="1" stop-color="#D33929"/>
</linearGradient>
</defs>
</svg>
