<svg width="80" height="80" viewBox="0 0 80 80" fill="none" xmlns="http://www.w3.org/2000/svg">
<rect x="0.369835" y="0.397423" width="78.5611" height="78.5611" rx="13.825" fill="white"/>
<rect x="0.369835" y="0.397423" width="78.5611" height="78.5611" rx="13.825" stroke="#D9D9D9" stroke-width="0.438889"/>
<path d="M17.5557 17.5557H61.4446V61.4446H17.5557V17.5557Z" fill="#017ACB"/>
<path d="M38.6293 33.8082H40.7346V37.4428H35.0428V53.6131L34.8919 53.6542C34.6862 53.7091 31.9774 53.7091 31.3945 53.6474L30.9282 53.6062V37.4428H25.2363V33.8082L27.0399 33.7876C28.0274 33.7739 30.5647 33.7739 32.6769 33.7876C34.789 33.8014 37.4635 33.8082 38.6293 33.8082ZM54.6968 51.8987C53.8602 52.7833 52.9618 53.2771 51.4668 53.6817C50.8154 53.86 50.7056 53.8668 49.2381 53.86C47.7706 53.8531 47.654 53.8531 46.9408 53.6679C45.0961 53.1948 43.608 52.269 42.593 50.9592C42.305 50.5889 41.8318 49.8208 41.8318 49.7248C41.8318 49.6974 41.9004 49.6356 41.9896 49.5945C42.0787 49.5534 42.2639 49.4368 42.4147 49.3476C42.5656 49.2585 42.8399 49.0939 43.0251 48.9979C43.2102 48.9019 43.7451 48.5864 44.2114 48.3053C44.6778 48.0241 45.1029 47.7978 45.1509 47.7978C45.1989 47.7978 45.2881 47.8938 45.3567 48.0104C45.7681 48.703 46.7282 49.5876 47.4071 49.8894C47.8254 50.0677 48.7512 50.2666 49.197 50.2666C49.6084 50.2666 50.3628 50.0883 50.7674 49.9031C51.1994 49.7042 51.4188 49.5054 51.6794 49.1076C51.8577 48.8264 51.8783 48.751 51.8714 48.2161C51.8714 47.7224 51.844 47.5852 51.7069 47.3589C51.3228 46.728 50.8016 46.3988 48.6895 45.4662C46.5088 44.4993 45.5281 43.9232 44.7326 43.1483C44.1429 42.5723 44.0263 42.4146 43.656 41.6945C43.1759 40.7687 43.1142 40.467 43.1074 39.0886C43.1005 38.1217 43.1211 37.8062 43.2239 37.4771C43.368 36.9833 43.8343 36.0301 44.0469 35.7901C44.4858 35.2758 44.6435 35.118 44.9521 34.8643C45.8847 34.0962 47.3385 33.5888 48.7306 33.5408C48.8884 33.5408 49.4095 33.5682 49.8964 33.6025C51.2954 33.7191 52.2486 34.062 53.1675 34.7957C53.8602 35.3443 54.9094 36.6336 54.8065 36.805C54.7379 36.9079 52.0017 38.732 51.8234 38.7869C51.7137 38.8212 51.6383 38.78 51.4874 38.6017C50.5548 37.4839 50.1776 37.2439 49.2724 37.189C48.6278 37.1479 48.2849 37.2233 47.8529 37.5113C47.4003 37.8131 47.1808 38.2725 47.1808 38.9103C47.1877 39.8429 47.5443 40.2818 48.8609 40.9333C49.7113 41.3516 50.4382 41.6945 50.4931 41.6945C50.5753 41.6945 52.3378 42.5723 52.7972 42.8466C54.9368 44.1015 55.8077 45.3908 56.034 47.6126C56.1986 49.2859 55.7254 50.8152 54.6968 51.8987Z" fill="white"/>
</svg>
