<svg width="80" height="80" viewBox="0 0 80 80" fill="none" xmlns="http://www.w3.org/2000/svg">
<rect x="1.09835" y="0.397423" width="78.5611" height="78.5611" rx="13.825" fill="white"/>
<rect x="1.09835" y="0.397423" width="78.5611" height="78.5611" rx="13.825" stroke="#D9D9D9" stroke-width="0.438889"/>
<path d="M60.6109 17.5557H39.4763C39.4763 20.086 40.4815 22.5126 42.2707 24.3018C44.0599 26.091 46.4865 27.0962 49.0168 27.0962H52.91V30.8552C52.9135 36.1194 57.1801 40.3862 62.4443 40.3897V19.3891C62.4443 18.3768 61.6237 17.5557 60.6109 17.5557Z" fill="#2684FF"/>
<path d="M50.1535 28.0862H29.019C29.0223 33.3504 33.2889 37.6172 38.5534 37.6207H42.4466V41.3917C42.4533 46.6559 46.7228 50.9198 51.9871 50.9198V29.92C51.9871 28.9073 51.1661 28.0864 50.1535 28.0864V28.0862Z" fill="url(#paint0_linear_2158_517)"/>
<path d="M39.6903 38.6108H18.5557C18.5557 43.8799 22.8272 48.1514 28.0962 48.1514H32.0016V51.9102C32.005 57.1696 36.2642 61.4345 41.5239 61.4445V40.4444C41.5239 39.4318 40.7029 38.6108 39.6903 38.6108Z" fill="url(#paint1_linear_2158_517)"/>
<defs>
<linearGradient id="paint0_linear_2158_517" x1="51.5349" y1="28.1229" x2="42.5992" y2="37.447" gradientUnits="userSpaceOnUse">
<stop offset="0.18" stop-color="#0052CC"/>
<stop offset="1" stop-color="#2684FF"/>
</linearGradient>
<linearGradient id="paint1_linear_2158_517" x1="41.6766" y1="38.7147" x2="31.3403" y2="48.8844" gradientUnits="userSpaceOnUse">
<stop offset="0.18" stop-color="#0052CC"/>
<stop offset="1" stop-color="#2684FF"/>
</linearGradient>
</defs>
</svg>
