<svg width="81" height="81" viewBox="0 0 81 81" fill="none" xmlns="http://www.w3.org/2000/svg">
<rect x="0.298394" y="0.402642" width="79.5555" height="79.5555" rx="14" fill="white"/>
<rect x="0.298394" y="0.402642" width="79.5555" height="79.5555" rx="14" stroke="#D9D9D9" stroke-width="0.444444"/>
<path d="M50.2274 46.1876C49.2069 46.1876 48.3769 45.3568 48.3769 44.3364C48.3769 43.3159 49.2069 42.4858 50.2274 42.4858C51.248 42.4858 52.0781 43.3157 52.0781 44.3364C52.0781 45.357 51.248 46.1876 50.2274 46.1876ZM29.7717 46.1876C28.7513 46.1876 27.9212 45.3568 27.9212 44.3364C27.9212 43.3159 28.7511 42.4858 29.7717 42.4858C30.7922 42.4858 31.6223 43.3157 31.6223 44.3364C31.6223 45.357 30.7924 46.1876 29.7717 46.1876ZM50.8912 35.0396L54.5899 28.6336C54.6917 28.4568 54.7192 28.2468 54.6664 28.0498C54.6136 27.8527 54.4848 27.6847 54.3082 27.5825C54.1314 27.4807 53.9215 27.4532 53.7245 27.506C53.5274 27.5588 53.3593 27.6876 53.2571 27.8641L49.5121 34.3511C46.6481 33.0442 43.4317 32.3161 39.9996 32.3161C36.5674 32.3161 33.3511 33.0442 30.4872 34.3511L26.742 27.8641C26.6398 27.6876 26.4717 27.5588 26.2747 27.506C26.0776 27.4532 25.8677 27.4807 25.6909 27.5825C25.5142 27.6846 25.3853 27.8526 25.3325 28.0497C25.2797 28.2468 25.3073 28.4568 25.4092 28.6336L29.108 35.0396C22.7567 38.4939 18.4128 44.9237 17.7773 52.5202H62.2218C61.5858 44.9239 57.2419 38.4939 50.8912 35.0394" fill="#3DDB85"/>
</svg>
