<svg width="81" height="81" viewBox="0 0 81 81" fill="none" xmlns="http://www.w3.org/2000/svg">
<rect x="0.251519" y="0.402398" width="79.5555" height="79.5555" rx="14" fill="white"/>
<rect x="0.251519" y="0.402398" width="79.5555" height="79.5555" rx="14" stroke="#D9D9D9" stroke-width="0.444444"/>
<path d="M27.7433 52.933L23.4414 53.9145V26.0547L27.7433 27.0381V52.933Z" fill="#F68536"/>
<path d="M33.1095 54.5778L27.7422 56.1031V23.9049L33.1095 25.4284V54.5778ZM39.9947 56.2673L33.1095 58.787V21.221L39.9947 23.7396V56.2673ZM58.4045 53.0174L39.9947 62.2223V17.7778L58.4045 26.9827V53.0174Z" fill="#F68536"/>
<path d="M36.326 19.613L39.9957 17.7778V62.2223L36.326 60.3877V19.613ZM30.2697 22.6408L33.1106 21.2204V58.7797L30.2697 57.3593V22.6408ZM25.4803 25.0358L27.7432 23.9044V56.0957L25.4803 54.9635V25.0358ZM23.4414 26.055L21.5957 26.9778V53.0228L23.4414 53.9451V26.055Z" fill="#9D5025"/>
</svg>
