<svg width="81" height="81" viewBox="0 0 81 81" fill="none" xmlns="http://www.w3.org/2000/svg">
<rect x="0.374566" y="0.402398" width="79.5555" height="79.5555" rx="14" fill="white"/>
<rect x="0.374566" y="0.402398" width="79.5555" height="79.5555" rx="14" stroke="#D9D9D9" stroke-width="0.444444"/>
<path d="M30.3044 36.3639C30.3044 36.9108 30.3635 37.3543 30.467 37.6795C30.5853 38.0047 30.7331 38.3595 30.94 38.7438C31.0139 38.862 31.0435 38.9803 31.0435 39.0838C31.0435 39.2316 30.9548 39.3794 30.7626 39.5272L29.8314 40.1481C29.6984 40.2367 29.5653 40.2811 29.4471 40.2811C29.2992 40.2811 29.1514 40.2072 29.0036 40.0741C28.7967 39.8524 28.6193 39.6159 28.4715 39.3794C28.3236 39.1281 28.1758 38.8473 28.0132 38.5073C26.8603 39.8672 25.4116 40.5472 23.6674 40.5472C22.4257 40.5472 21.4353 40.1924 20.711 39.4829C19.9867 38.7733 19.6172 37.8273 19.6172 36.6448C19.6172 35.3883 20.0606 34.3684 20.9623 33.5997C21.864 32.8311 23.0613 32.4468 24.5839 32.4468C25.0864 32.4468 25.6038 32.4911 26.1507 32.565C26.6977 32.6389 27.2594 32.7572 27.8506 32.8902V31.8111C27.8506 30.6877 27.6141 29.9043 27.1559 29.4461C26.6829 28.9878 25.8847 28.7661 24.7465 28.7661C24.2291 28.7661 23.697 28.8252 23.15 28.9583C22.6031 29.0913 22.071 29.2539 21.5536 29.4608C21.3171 29.5643 21.1397 29.6234 21.0362 29.653C20.9328 29.6826 20.8589 29.6973 20.7997 29.6973C20.5928 29.6973 20.4893 29.5495 20.4893 29.2391V28.5148C20.4893 28.2783 20.5189 28.1009 20.5928 27.9974C20.6667 27.894 20.7997 27.7905 21.0067 27.687C21.524 27.421 22.1449 27.1992 22.8692 27.0218C23.5935 26.8297 24.3621 26.741 25.1751 26.741C26.9342 26.741 28.2202 27.1401 29.048 27.9383C29.861 28.7365 30.2748 29.9486 30.2748 31.5746V36.3639H30.3044ZM24.303 38.6107C24.7908 38.6107 25.2934 38.5221 25.8255 38.3447C26.3577 38.1673 26.8307 37.8421 27.2298 37.3986C27.4663 37.1178 27.6437 36.8074 27.7324 36.4526C27.8211 36.0978 27.8802 35.6692 27.8802 35.1666V34.5458C27.4515 34.4423 26.9933 34.3536 26.5203 34.2945C26.0473 34.2353 25.589 34.2058 25.1308 34.2058C24.1404 34.2058 23.4161 34.3979 22.9283 34.7971C22.4405 35.1962 22.204 35.7579 22.204 36.497C22.204 37.1917 22.3814 37.7091 22.7509 38.0638C23.1057 38.4334 23.623 38.6107 24.303 38.6107V38.6107ZM36.1728 40.2072C35.9067 40.2072 35.7293 40.1628 35.6111 40.0594C35.4928 39.9707 35.3893 39.7637 35.3006 39.4829L31.8269 28.0566C31.7382 27.7609 31.6939 27.5688 31.6939 27.4653C31.6939 27.2288 31.8121 27.0958 32.0487 27.0958H33.4973C33.7781 27.0958 33.9703 27.1401 34.0738 27.2436C34.192 27.3323 34.2807 27.5392 34.3694 27.8201L36.8527 37.6056L39.1587 27.8201C39.2326 27.5244 39.3213 27.3323 39.4395 27.2436C39.5578 27.1549 39.7647 27.0958 40.0308 27.0958H41.2133C41.4942 27.0958 41.6864 27.1401 41.8046 27.2436C41.9229 27.3323 42.0263 27.5392 42.0855 27.8201L44.421 37.7238L46.9782 27.8201C47.0669 27.5244 47.1704 27.3323 47.2739 27.2436C47.3921 27.1549 47.5843 27.0958 47.8504 27.0958H49.2251C49.4616 27.0958 49.5946 27.214 49.5946 27.4653C49.5946 27.5392 49.5798 27.6131 49.565 27.7018C49.5503 27.7905 49.5207 27.9087 49.4616 28.0713L45.8992 39.4977C45.8105 39.7933 45.707 39.9855 45.5887 40.0741C45.4705 40.1628 45.2783 40.222 45.027 40.222H43.7558C43.475 40.222 43.2828 40.1776 43.1645 40.0741C43.0463 39.9707 42.9428 39.7785 42.8837 39.4829L40.5925 29.9486L38.3161 39.4681C38.2422 39.7637 38.1535 39.9559 38.0353 40.0594C37.917 40.1628 37.7101 40.2072 37.444 40.2072H36.1728ZM55.1673 40.6063C54.3987 40.6063 53.63 40.5176 52.8909 40.3402C52.1519 40.1628 51.5754 39.9707 51.191 39.7489C50.9545 39.6159 50.7919 39.4681 50.7328 39.3351C50.6737 39.202 50.6441 39.0542 50.6441 38.9212V38.1673C50.6441 37.8569 50.7624 37.7091 50.9841 37.7091C51.0728 37.7091 51.1615 37.7238 51.2502 37.7534C51.3389 37.783 51.4719 37.8421 51.6197 37.9012C52.1223 38.123 52.6692 38.3003 53.2457 38.4186C53.837 38.5368 54.4135 38.596 55.0047 38.596C55.936 38.596 56.6603 38.4334 57.1629 38.1082C57.6655 37.783 57.9315 37.31 57.9315 36.7039C57.9315 36.29 57.7985 35.95 57.5324 35.6692C57.2663 35.3883 56.7638 35.137 56.0395 34.9005L53.8961 34.2353C52.817 33.8954 52.0188 33.3928 51.531 32.7276C51.0432 32.0772 50.7919 31.3529 50.7919 30.5842C50.7919 29.9634 50.925 29.4165 51.191 28.9435C51.4571 28.4705 51.8119 28.0566 52.2553 27.7314C52.6988 27.3914 53.2014 27.1401 53.7926 26.9627C54.3839 26.7853 55.0047 26.7114 55.6551 26.7114C55.9803 26.7114 56.3203 26.7262 56.6455 26.7706C56.9855 26.8149 57.2959 26.874 57.6063 26.9332C57.902 27.0071 58.1828 27.081 58.4489 27.1697C58.715 27.2584 58.9219 27.347 59.0697 27.4357C59.2767 27.554 59.4245 27.6722 59.5132 27.8053C59.6019 27.9235 59.6462 28.0861 59.6462 28.2931V28.9878C59.6462 29.2982 59.528 29.4608 59.3062 29.4608C59.188 29.4608 58.9958 29.4017 58.7445 29.2835C57.902 28.8991 56.9559 28.707 55.9064 28.707C55.0639 28.707 54.3987 28.84 53.9404 29.1209C53.4822 29.4017 53.2457 29.8304 53.2457 30.4364C53.2457 30.8503 53.3935 31.2051 53.6892 31.4859C53.9848 31.7668 54.5317 32.0476 55.3152 32.2989L57.4142 32.9641C58.4784 33.3041 59.2471 33.7771 59.7053 34.3832C60.1636 34.9892 60.3853 35.684 60.3853 36.4526C60.3853 37.0882 60.2523 37.6647 60.001 38.1673C59.7349 38.6699 59.3801 39.1133 58.9219 39.4681C58.4637 39.8376 57.9167 40.1037 57.2811 40.2959C56.6159 40.5028 55.9212 40.6063 55.1673 40.6063V40.6063Z" fill="#252F3E"/>
<path fill-rule="evenodd" clip-rule="evenodd" d="M57.9608 47.7901C53.0976 51.3821 46.032 53.2889 39.9567 53.2889C31.4424 53.2889 23.7706 50.1404 17.9762 44.9077C17.518 44.4938 17.9318 43.9321 18.4788 44.2573C24.7462 47.8936 32.4771 50.0961 40.474 50.0961C45.8694 50.0961 51.7968 48.9727 57.2513 46.6667C58.0643 46.2972 58.759 47.1989 57.9608 47.7901V47.7901Z" fill="#FF9900"/>
<path fill-rule="evenodd" clip-rule="evenodd" d="M59.9865 45.4844C59.3657 44.6862 55.8772 45.1001 54.2956 45.2922C53.8226 45.3514 53.7487 44.9375 54.1774 44.627C56.9563 42.6759 61.5238 43.2376 62.056 43.888C62.5881 44.5531 61.9082 49.1207 59.3066 51.3084C58.9075 51.6484 58.5232 51.471 58.7005 51.0276C59.2918 49.5642 60.6074 46.2678 59.9865 45.4844V45.4844Z" fill="#FF9900"/>
</svg>
