<svg width="81" height="81" viewBox="0 0 81 81" fill="none" xmlns="http://www.w3.org/2000/svg">
<rect x="1.09918" y="0.402398" width="79.5555" height="79.5555" rx="14" fill="white"/>
<rect x="1.09918" y="0.402398" width="79.5555" height="79.5555" rx="14" stroke="#D9D9D9" stroke-width="0.444444"/>
<path d="M33.5943 19.049H46.7457L33.0931 59.5238C33.0233 59.7305 32.9217 59.9251 32.792 60.1005C32.6626 60.2761 32.5064 60.43 32.3292 60.5572C32.152 60.6844 31.9564 60.7833 31.7486 60.85C31.5408 60.9167 31.3241 60.9511 31.1063 60.9511H20.8712C20.539 60.9511 20.2112 60.8722 19.9156 60.72C19.6197 60.5682 19.3643 60.348 19.1706 60.0777C18.9767 59.8074 18.8499 59.4949 18.8005 59.166C18.7511 58.8371 18.7811 58.5009 18.8872 58.1859L31.6069 20.4752C31.6764 20.2685 31.7781 20.074 31.9081 19.8985C32.0375 19.7229 32.1942 19.569 32.3709 19.4418C32.5481 19.3145 32.7437 19.2156 32.9515 19.149C33.1593 19.0823 33.3759 19.0479 33.5937 19.0479V19.0484L33.5943 19.049Z" fill="url(#paint0_linear_1546_74405)"/>
<path d="M57.8379 60.951H46.0288C45.8971 60.951 45.7654 60.9388 45.6354 60.9138C45.506 60.8893 45.3787 60.8527 45.256 60.8043C45.1332 60.756 45.0154 60.696 44.9037 60.626C44.7922 60.5555 44.6875 60.4748 44.5909 60.3849L31.19 47.8696C31.0483 47.7372 30.9496 47.5654 30.9067 47.3762C30.8638 47.1871 30.8789 46.9894 30.95 46.809C31.021 46.6285 31.1447 46.4736 31.305 46.3645C31.4656 46.2556 31.6551 46.1973 31.849 46.1973H52.7037L57.8368 60.9516L57.8379 60.951Z" fill="#0078D4"/>
<path d="M46.7931 19.0489L37.5869 46.2001L52.629 46.1968L57.7888 60.9511H46.0242C45.9025 60.95 45.7808 60.9388 45.6608 60.9172C45.5408 60.8955 45.423 60.8638 45.3086 60.8216C45.0791 60.738 44.8656 60.6157 44.6774 60.4599L35.6313 52.0171L33.0989 59.4854C33.0333 59.6721 32.9433 59.8493 32.8311 60.0121C32.6061 60.3396 32.2985 60.6017 31.9394 60.7716C31.7606 60.8562 31.5713 60.9165 31.3765 60.9511H20.8775C20.5419 60.9522 20.2108 60.8722 19.9125 60.7177C19.6141 60.5634 19.3572 60.3395 19.1636 60.065C18.97 59.7904 18.8453 59.4733 18.8002 59.1404C18.7551 58.8074 18.7908 58.4684 18.9041 58.152L31.6032 20.5034C31.6693 20.2928 31.7688 20.0945 31.8977 19.9156C32.026 19.7367 32.1827 19.5789 32.3605 19.4489C32.5383 19.3189 32.7361 19.2178 32.9455 19.15C33.155 19.0822 33.3744 19.0477 33.595 19.0489H46.7937H46.7931Z" fill="url(#paint1_linear_1546_74405)"/>
<path d="M63.1117 58.1859C63.2179 58.5011 63.2478 58.8369 63.1989 59.1659C63.1495 59.4948 63.0229 59.8072 62.8294 60.0777C62.6357 60.3478 62.3803 60.5679 62.0846 60.7198C61.7889 60.8716 61.4612 60.9509 61.1288 60.951H46.4711C46.8034 60.951 47.1312 60.8716 47.4273 60.7199C47.7229 60.5682 47.9785 60.3477 48.1724 60.0777C48.3663 59.8076 48.4929 59.4948 48.5424 59.1659C48.5918 58.837 48.5618 58.5009 48.4557 58.1859L35.7354 20.4739C35.5954 20.0585 35.3286 19.6975 34.9726 19.4416C34.7959 19.3144 34.6003 19.2161 34.3931 19.1494C34.1859 19.0827 33.9692 19.0488 33.752 19.0488H48.409C48.6268 19.0488 48.843 19.0827 49.0508 19.1494C49.258 19.2161 49.4536 19.315 49.6308 19.4416C49.8075 19.5689 49.9636 19.7228 50.093 19.8978C50.2225 20.0728 50.3236 20.2672 50.3936 20.4739L63.1139 58.1859H63.1117Z" fill="url(#paint2_linear_1546_74405)"/>
<defs>
<linearGradient id="paint0_linear_1546_74405" x1="38.394" y1="22.1547" x2="24.7265" y2="62.5296" gradientUnits="userSpaceOnUse">
<stop stop-color="#114A8B"/>
<stop offset="1" stop-color="#0669BC"/>
</linearGradient>
<linearGradient id="paint1_linear_1546_74405" x1="42.6556" y1="40.967" x2="39.4943" y2="42.0393" gradientUnits="userSpaceOnUse">
<stop stop-opacity="0.3"/>
<stop offset="0.1" stop-opacity="0.2"/>
<stop offset="0.3" stop-opacity="0.1"/>
<stop offset="0.6" stop-opacity="0.1"/>
<stop offset="1" stop-opacity="0"/>
</linearGradient>
<linearGradient id="paint2_linear_1546_74405" x1="40.9108" y1="20.9767" x2="55.9117" y2="60.9405" gradientUnits="userSpaceOnUse">
<stop stop-color="#3CCBF4"/>
<stop offset="1" stop-color="#2892DF"/>
</linearGradient>
</defs>
</svg>
