<svg width="81" height="81" viewBox="0 0 81 81" fill="none" xmlns="http://www.w3.org/2000/svg">
<rect x="0.251519" y="0.402642" width="79.5555" height="79.5555" rx="14" fill="white"/>
<rect x="0.251519" y="0.402642" width="79.5555" height="79.5555" rx="14" stroke="#D9D9D9" stroke-width="0.444444"/>
<path fill-rule="evenodd" clip-rule="evenodd" d="M27.0086 22.2976C24.4727 22.2976 22.5962 24.5172 22.6802 26.9243C22.7609 29.2369 22.6561 32.2321 21.9021 34.6746C21.1454 37.124 19.8666 38.6762 17.7773 38.8754V41.1247C19.8666 41.3243 21.1454 42.8757 21.902 45.3255C22.6561 47.768 22.7608 50.7631 22.6801 53.0757C22.5961 55.4825 24.4726 57.7025 27.0089 57.7025H52.9939C55.5299 57.7025 57.406 55.4828 57.322 53.0757C57.2413 50.7631 57.3461 47.768 58.1001 45.3255C58.8568 42.8757 60.1325 41.3237 62.2218 41.1247V38.8754C60.1325 38.6757 58.8569 37.1243 58.1001 34.6746C57.346 32.2324 57.2413 29.2369 57.322 26.9243C57.406 24.5176 55.5299 22.2976 52.9939 22.2976H27.0082H27.0086ZM47.9092 44.0916C47.9092 47.4061 45.4369 49.4163 41.334 49.4163H34.3498C34.15 49.4163 33.9584 49.3369 33.8172 49.1956C33.6759 49.0544 33.5965 48.8628 33.5965 48.663V31.3372C33.5965 31.1374 33.6759 30.9458 33.8172 30.8045C33.9584 30.6633 34.15 30.5839 34.3498 30.5839H41.2943C44.7154 30.5839 46.9606 32.437 46.9606 35.2822C46.9606 37.2791 45.4502 39.0669 43.526 39.3801V39.4842C46.1454 39.7716 47.9092 41.5858 47.9092 44.0916ZM40.5725 32.9718H36.5902V38.5968H39.9443C42.5372 38.5968 43.9668 37.5527 43.9668 35.6865C43.9666 33.9375 42.7374 32.9718 40.5725 32.9718ZM36.5902 40.8287V47.0276H40.719C43.4187 47.0276 44.8486 45.9443 44.8486 43.9085C44.8486 41.8728 43.3786 40.8283 40.5454 40.8283H36.5902V40.8287Z" fill="#7952B3"/>
</svg>
