<svg width="81" height="81" viewBox="0 0 81 81" fill="none" xmlns="http://www.w3.org/2000/svg">
<rect x="1.09918" y="0.402642" width="79.5555" height="79.5555" rx="14" fill="white"/>
<rect x="1.09918" y="0.402642" width="79.5555" height="79.5555" rx="14" stroke="#D9D9D9" stroke-width="0.444444"/>
<path d="M34.4005 62.1629C34.4001 62.1627 34.3997 62.1626 34.3994 62.1624C29.1176 60.9466 24.4405 57.5091 22.9813 52.1095C21.521 46.7056 23.5081 41.2579 26.754 36.9263C28.3769 34.7622 30.2751 32.8199 32.2496 30.9761C34.0877 29.2594 36.1126 27.6818 37.7776 25.7924C39.4947 23.8432 41.6409 20.3567 40.0118 17.7214C42.9696 19.9313 45.3552 23.6242 44.9564 27.4282C44.6378 30.4634 42.3605 33.5537 44.5911 36.4199C45.9786 38.2018 48.7873 37.8281 49.8248 36.1073L49.7485 36.1894C49.9263 35.9066 50.0563 35.5966 50.1336 35.2717C50.1389 35.008 50.0922 34.7134 49.9495 34.3671L50.2212 34.5154C55.4216 37.2118 59.6198 41.9215 59.5022 48.0412C59.3602 55.4798 52.4298 60.6855 45.7225 62.1659C48.8966 60.9155 51.7263 58.4388 52.1118 54.8776C52.4674 51.5921 50.7062 48.7594 48.3212 46.6643C46.0538 44.6709 43.3481 43.3857 40.8822 41.6851C39.4606 40.705 37.303 38.7372 38.0623 36.7419C37.0745 37.5922 36.2947 38.7817 35.9871 40.0516C35.3726 42.5849 36.9344 44.5581 38.5487 46.305C40.1815 48.069 40.0552 51.0967 37.301 51.6997C36.1222 51.9561 34.8739 51.4836 34.1612 50.5113C33.3945 49.4654 33.5632 48.3959 33.8727 47.2267C31.2985 49.0489 29.2287 51.8218 29.236 55.0877C29.2419 58.0829 31.7349 61.0102 34.3994 62.1624C34.3998 62.1625 34.4002 62.1626 34.4007 62.1627L34.4005 62.1629Z" fill="#EE4323"/>
</svg>
