<svg width="81" height="80" viewBox="0 0 81 80" fill="none" xmlns="http://www.w3.org/2000/svg">
<rect x="1.0523" y="0.222222" width="79.5555" height="79.5555" rx="14" fill="white"/>
<rect x="1.0523" y="0.222222" width="79.5555" height="79.5555" rx="14" stroke="#D9D9D9" stroke-width="0.444444"/>
<path d="M60.5931 17.7778L57.0229 57.7732L40.9747 62.2223L24.9707 57.7795L21.4043 17.7778H60.5931Z" fill="#264DE4"/>
<path d="M53.9658 55.2264L57.0168 21.0486H40.998V58.8216L53.9658 55.2264Z" fill="#2965F1"/>
<path d="M29.5801 35.8845L30.0198 40.7905H40.9986V35.8845H29.5801Z" fill="#EBEBEB"/>
<path d="M40.9993 25.9546H40.9823H28.6973L29.1432 30.8607H40.9993V25.9546Z" fill="#EBEBEB"/>
<path d="M40.9998 53.7304V48.6261L40.9783 48.6318L35.5144 47.1564L35.1651 43.2437H32.5101H30.2402L30.9276 50.9468L40.9772 53.7367L40.9998 53.7304Z" fill="#EBEBEB"/>
<path d="M47.0237 40.7905L46.4542 47.1533L40.9824 48.6301V53.7343L51.0401 50.9468L51.1138 50.1179L52.2667 37.2019L52.3864 35.8845L53.2721 25.9546H40.9824V30.8607H47.8955L47.4491 35.8845H40.9824V40.7905H47.0237Z" fill="white"/>
</svg>
