<svg width="81" height="81" viewBox="0 0 81 81" fill="none" xmlns="http://www.w3.org/2000/svg">
<rect x="1.09918" y="0.402398" width="79.5555" height="79.5555" rx="14" fill="white"/>
<rect x="1.09918" y="0.402398" width="79.5555" height="79.5555" rx="14" stroke="#D9D9D9" stroke-width="0.444444"/>
<path fill-rule="evenodd" clip-rule="evenodd" d="M41.0017 62.2223V53.6091C50.1185 53.6091 57.1955 44.5681 53.6945 34.9724C53.0515 33.2096 52.0309 31.6087 50.7042 30.2818C49.3774 28.9549 47.7766 27.9341 46.0139 27.2909C36.4183 23.8157 27.3772 30.8669 27.3772 39.9838H18.7891C18.7891 25.4535 32.8423 14.1203 48.0787 18.8793C54.7278 20.9708 60.0413 26.2585 62.107 32.9085C66.8669 48.169 55.5587 62.2223 41.0017 62.2223Z" fill="#0080FF"/>
<path fill-rule="evenodd" clip-rule="evenodd" d="M32.4638 53.6342H41.0261V45.0718H32.4647L32.4638 53.6342ZM25.8655 60.2325H32.4629V53.635H25.8655V60.2325ZM20.3496 53.635H25.8655V48.1182H20.3496V53.635Z" fill="#0080FF"/>
</svg>
