<svg width="81" height="81" viewBox="0 0 81 81" fill="none" xmlns="http://www.w3.org/2000/svg">
<rect x="0.298394" y="0.402398" width="79.5555" height="79.5555" rx="14" fill="white"/>
<rect x="0.298394" y="0.402398" width="79.5555" height="79.5555" rx="14" stroke="#D9D9D9" stroke-width="0.444444"/>
<path d="M61.7835 36.0929C61.6629 35.9971 60.5377 35.1475 58.1646 35.1475C57.538 35.1502 56.9127 35.204 56.2948 35.3082C55.8355 32.1601 53.2328 30.6253 53.1161 30.5564L52.4789 30.189L52.0598 30.7937C51.535 31.6061 51.1518 32.5017 50.9269 33.4423C50.502 35.2394 50.7604 36.9272 51.6732 38.3702C50.5709 38.9845 48.8026 39.1357 48.4448 39.1491H19.1686C18.4039 39.1501 17.7834 39.7681 17.7792 40.5327C17.7451 43.0975 18.1796 45.6469 19.0614 48.0555C20.0699 50.7003 21.5703 52.6485 23.5223 53.8408C25.7097 55.1804 29.2635 55.9459 33.2919 55.9459C35.1117 55.9516 36.9282 55.7869 38.7173 55.454C41.2045 54.9974 43.5977 54.1281 45.7981 52.8819C47.6112 51.832 49.2429 50.4963 50.6303 48.9263C52.9498 46.3006 54.3315 43.3764 55.3591 40.7776H55.7687C58.3082 40.7776 59.8698 39.7614 60.731 38.9098C61.3033 38.3667 61.7501 37.7051 62.04 36.9713L62.2218 36.4393L61.7835 36.0929Z" fill="#2496ED"/>
<path d="M21.8816 38.2919H25.8047C25.9939 38.2919 26.1473 38.1385 26.1473 37.9493V34.4548C26.1483 34.2656 25.9958 34.1114 25.8067 34.1104C25.806 34.1104 25.8054 34.1104 25.8047 34.1104H21.8816C21.6924 34.1104 21.5391 34.2637 21.5391 34.4529V34.4548V37.9493C21.5391 38.1385 21.6924 38.2919 21.8816 38.2919Z" fill="#2496ED"/>
<path d="M27.2879 38.2919H31.211C31.4002 38.2919 31.5536 38.1385 31.5536 37.9493V34.4548C31.5546 34.2656 31.4021 34.1114 31.2129 34.1104C31.2123 34.1104 31.2116 34.1104 31.211 34.1104H27.2878C27.0976 34.1104 26.9434 34.2645 26.9434 34.4548V37.9493C26.9445 38.1388 27.0984 38.2919 27.2879 38.2919Z" fill="#2496ED"/>
<path d="M32.7762 38.2919H36.6993C36.8885 38.2919 37.0419 38.1385 37.0419 37.9493V34.4548C37.0429 34.2656 36.8904 34.1114 36.7012 34.1104C36.7006 34.1104 36.6999 34.1104 36.6993 34.1104H32.7761C32.5869 34.1104 32.4336 34.2637 32.4336 34.4529V34.4548V37.9493C32.4337 38.1385 32.587 38.2919 32.7762 38.2919Z" fill="#2496ED"/>
<path d="M38.2 38.2919H42.1231C42.3126 38.2919 42.4665 38.1389 42.4676 37.9493V34.4548C42.4676 34.2645 42.3134 34.1104 42.1231 34.1104H38.2C38.0107 34.1104 37.8574 34.2637 37.8574 34.4529V34.4548V37.9493C37.8574 38.1385 38.0108 38.2919 38.2 38.2919Z" fill="#2496ED"/>
<path d="M27.2878 33.2645H31.211C31.4004 33.2634 31.5535 33.1095 31.5535 32.92V29.4255C31.5535 29.2363 31.4001 29.083 31.211 29.083H27.2878C27.0984 29.083 26.9444 29.236 26.9434 29.4255V32.92C26.9444 33.1098 27.098 33.2634 27.2878 33.2645Z" fill="#2496ED"/>
<path d="M32.7761 33.2645H36.6993C36.8887 33.2634 37.0418 33.1095 37.0418 32.92V29.4255C37.0418 29.2363 36.8884 29.083 36.6993 29.083H32.7761C32.5869 29.083 32.4336 29.2364 32.4336 29.4255V32.92C32.4336 33.1095 32.5867 33.2634 32.7761 33.2645Z" fill="#2496ED"/>
<path d="M38.2 33.2645H42.1231C42.3129 33.2634 42.4665 33.1098 42.4676 32.92V29.4255C42.4665 29.236 42.3126 29.083 42.1231 29.083H38.2C38.0107 29.083 37.8574 29.2364 37.8574 29.4255V32.92C37.8574 33.1095 38.0105 33.2634 38.2 33.2645Z" fill="#2496ED"/>
<path d="M38.2 28.2352H42.1231C42.3126 28.2352 42.4665 28.0822 42.4676 27.8927V24.3962C42.4665 24.2067 42.3126 24.0537 42.1231 24.0537H38.2C38.0107 24.0537 37.8574 24.207 37.8574 24.3962V27.8926C37.8574 28.0818 38.0108 28.2352 38.2 28.2352Z" fill="#2496ED"/>
<path d="M43.6726 38.2919H47.5958C47.7853 38.2919 47.9392 38.1389 47.9402 37.9493V34.4548C47.9402 34.2645 47.786 34.1104 47.5958 34.1104H43.6726C43.4835 34.1104 43.3301 34.2637 43.3301 34.4529V34.4548V37.9493C43.3301 38.1385 43.4835 38.2919 43.6726 38.2919Z" fill="#2496ED"/>
</svg>
