<svg width="81" height="81" viewBox="0 0 81 81" fill="none" xmlns="http://www.w3.org/2000/svg">
<rect x="1.17535" y="0.402642" width="79.5555" height="79.5555" rx="14" fill="white"/>
<rect x="1.17535" y="0.402642" width="79.5555" height="79.5555" rx="14" stroke="#D9D9D9" stroke-width="0.444444"/>
<path d="M46.0258 33.8309L41.581 37.9694L37.4551 29.6438L39.5865 24.8567C40.1252 23.9018 41.0062 23.8891 41.5449 24.8567L46.0258 33.8309Z" fill="#FFA000"/>
<path d="M41.5832 37.9677L24.957 53.4317L37.4573 29.6438L41.5832 37.9677Z" fill="#F57F17"/>
<path d="M50.8998 27.5017C51.6961 26.7432 52.5159 26.9991 52.7231 28.0765L57.0454 53.2229L42.7092 61.8296C42.2065 62.1107 40.8733 62.2206 40.8733 62.2206C40.8733 62.2206 39.6607 62.0729 39.1959 61.817L24.957 53.4319L50.8998 27.5017Z" fill="#FFCA28"/>
<path d="M37.4573 29.6439L24.957 53.4318L30.5279 18.6625C30.7369 17.5851 31.3477 17.4752 31.899 18.4301L37.4573 29.6439Z" fill="#FFA000"/>
</svg>
