<svg width="81" height="81" viewBox="0 0 81 81" fill="none" xmlns="http://www.w3.org/2000/svg">
<rect x="0.251519" y="0.402398" width="79.5555" height="79.5555" rx="14" fill="white"/>
<rect x="0.251519" y="0.402398" width="79.5555" height="79.5555" rx="14" stroke="#D9D9D9" stroke-width="0.444444"/>
<path d="M28.8889 46.8422L22.0449 39.9983L44.2671 17.7778H57.9533L28.8889 46.8422ZM57.9533 38.2828H44.2671L39.1405 43.4095L45.9844 50.2534" fill="#42A5F5" fill-opacity="0.8"/>
<path d="M39.1406 57.0956L44.2673 62.2223H57.9535L45.9846 50.2534" fill="#0D47A1"/>
<path d="M32.3125 50.2569L39.1457 43.4219L45.9789 50.2551L39.1457 57.09L32.3125 50.2569Z" fill="#42A5F5"/>
<path d="M39.1465 57.09L45.9797 50.2568L46.9335 51.2107L40.1003 58.0439L39.1465 57.09Z" fill="url(#paint0_linear_1546_74351)"/>
<path d="M39.1406 57.0954L49.2952 53.5872L45.9846 50.2515" fill="url(#paint1_linear_1546_74351)"/>
<defs>
<linearGradient id="paint0_linear_1546_74351" x1="42.5644" y1="53.6722" x2="43.5183" y2="54.6261" gradientUnits="userSpaceOnUse">
<stop offset="0.2" stop-opacity="0.15"/>
<stop offset="0.85" stop-color="#616161" stop-opacity="0.01"/>
</linearGradient>
<linearGradient id="paint1_linear_1546_74351" x1="39.143" y1="53.6736" x2="49.2975" y2="53.6736" gradientUnits="userSpaceOnUse">
<stop offset="0.2" stop-opacity="0.55"/>
<stop offset="0.85" stop-color="#616161" stop-opacity="0.01"/>
</linearGradient>
</defs>
</svg>
