<svg width="81" height="81" viewBox="0 0 81 81" fill="none" xmlns="http://www.w3.org/2000/svg">
<rect x="0.298394" y="0.402642" width="79.5555" height="79.5555" rx="14" fill="white"/>
<rect x="0.298394" y="0.402642" width="79.5555" height="79.5555" rx="14" stroke="#D9D9D9" stroke-width="0.444444"/>
<path d="M61.3836 38.0198L41.9787 18.616C40.8619 17.4984 39.0494 17.4984 37.9312 18.616L33.9016 22.6455L39.0133 27.7571C40.2011 27.3557 41.5633 27.625 42.5102 28.5719C43.4615 29.5248 43.7289 30.8986 43.3178 32.0903L48.244 37.0167C49.4358 36.6061 50.811 36.8717 51.7629 37.8252C53.0933 39.155 53.0933 41.3104 51.7629 42.6412C50.4322 43.9721 48.2768 43.9721 46.9454 42.6412C45.9447 41.6394 45.6975 40.1698 46.2041 38.937L41.61 34.3429L41.6095 46.4326C41.9425 46.5973 42.2467 46.8148 42.5102 47.0767C43.8405 48.4066 43.8405 50.5622 42.5102 51.8939C41.1794 53.2241 39.023 53.2241 37.6942 51.8939C36.3638 50.5622 36.3638 48.4068 37.6942 47.0769C38.013 46.7579 38.3919 46.5053 38.8089 46.3337V34.1313C38.3913 33.9608 38.0122 33.708 37.6942 33.388C36.6862 32.3814 36.4438 30.9024 36.9603 29.6648L31.9214 24.6254L18.6159 37.93C17.4978 39.0486 17.4978 40.8613 18.6159 41.979L38.0211 61.3832C39.1383 62.5009 40.9504 62.5009 42.069 61.3832L61.3834 42.0691C62.5011 40.9511 62.5011 39.1373 61.3834 38.0198" fill="#DE4C36"/>
</svg>
