<svg width="81" height="81" viewBox="0 0 81 81" fill="none" xmlns="http://www.w3.org/2000/svg">
<rect x="0.374566" y="1.09039" width="79.5555" height="79.5555" rx="14" fill="white"/>
<rect x="0.374566" y="1.09039" width="79.5555" height="79.5555" rx="14" stroke="#D9D9D9" stroke-width="0.444444"/>
<path d="M40.0001 61.4708L48.1836 36.2847H31.8164L39.9999 61.4708H40.0001Z" fill="#E24329"/>
<path d="M40.0002 61.4708L31.8165 36.2847H20.3477L40.0002 61.4708Z" fill="#FC6D26"/>
<path d="M20.3471 36.2847L17.8603 43.9387C17.7497 44.2789 17.7497 44.6455 17.8602 44.9857C17.9708 45.326 18.1862 45.6226 18.4756 45.8329L39.9996 61.4709L20.3469 36.2848L20.3471 36.2847Z" fill="#FCA326"/>
<path d="M20.3477 36.2847H31.8165L26.8878 21.1152C26.6342 20.3346 25.5299 20.3347 25.2765 21.1152L20.3477 36.2847Z" fill="#E24329"/>
<path d="M40.0002 61.4708L48.1837 36.2847H59.6527L40 61.4708H40.0002Z" fill="#FC6D26"/>
<path d="M59.6525 36.2847L62.1393 43.9387C62.2498 44.2789 62.2498 44.6455 62.1392 44.9858C62.0287 45.326 61.8132 45.6226 61.5237 45.8329L40 61.4709L59.6525 36.2848V36.2847Z" fill="#FCA326"/>
<path d="M59.6526 36.2847H48.1836L53.1124 21.1152C53.3661 20.3346 54.4703 20.3347 54.7238 21.1152L59.6526 36.2847Z" fill="#E24329"/>
</svg>
