<svg width="81" height="81" viewBox="0 0 81 81" fill="none" xmlns="http://www.w3.org/2000/svg">
<rect x="0.251519" y="0.402398" width="79.5555" height="79.5555" rx="14" fill="white"/>
<rect x="0.251519" y="0.402398" width="79.5555" height="79.5555" rx="14" stroke="#D9D9D9" stroke-width="0.444444"/>
<g clip-path="url(#clip0_1546_74403)">
<path d="M47.43 30.0168H49.1152L53.9164 25.2156L54.1525 23.1785C45.2192 15.2938 31.5819 16.1434 23.6972 25.0767C21.505 27.5583 19.9146 30.5099 19.0488 33.7045C19.5836 33.4846 20.1762 33.4499 20.7341 33.6026L30.3341 32.0192C30.3341 32.0192 30.8226 31.2113 31.0749 31.2622C35.346 26.5722 42.5339 26.0259 47.4647 30.0168H47.43Z" fill="#EA4335"/>
<path d="M60.7548 33.7046C59.6506 29.6419 57.3866 25.989 54.2359 23.1948L47.4995 29.9313C50.3446 32.2555 51.965 35.758 51.8956 39.4318V40.6286C55.2082 40.6286 57.8912 43.3139 57.8912 46.6243C57.8912 49.937 55.2059 52.62 51.8956 52.62H39.9019L38.7051 53.833V61.0255L39.9019 62.2223H51.8956C58.7709 62.2756 64.8707 57.8193 66.9125 51.2542C68.9496 44.6867 66.4495 37.5567 60.7548 33.7046Z" fill="#4285F4"/>
<path d="M27.8898 62.155H39.8835V52.555H27.8898C27.0356 52.555 26.1906 52.3721 25.4128 52.0156L23.7276 52.5365L18.894 57.3377L18.4727 59.0229C21.1834 61.0693 24.4915 62.1689 27.8898 62.155Z" fill="#34A853"/>
<path d="M27.8911 31.0099C21.2287 31.0492 15.3279 35.3156 13.2028 41.6285C11.0777 47.9413 13.1958 54.9092 18.4762 58.9696L25.4326 52.0132C22.4139 50.6497 21.0736 47.0986 22.4371 44.08C23.8006 41.0613 27.3517 39.7209 30.3703 41.0844C31.6991 41.6863 32.764 42.7512 33.3659 44.08L40.3223 37.1236C37.3615 33.2553 32.7617 30.9936 27.8911 31.0099Z" fill="#FBBC05"/>
</g>
<defs>
<clipPath id="clip0_1546_74403">
<rect width="55.2274" height="44.4444" fill="white" transform="translate(12.3867 17.7778)"/>
</clipPath>
</defs>
</svg>
