<svg width="80" height="80" viewBox="0 0 80 80" fill="none" xmlns="http://www.w3.org/2000/svg">
<rect x="0.222222" y="0.222222" width="79.5555" height="79.5555" rx="14" fill="white"/>
<rect x="0.222222" y="0.222222" width="79.5555" height="79.5555" rx="14" stroke="#D9D9D9" stroke-width="0.444444"/>
<path d="M23.9674 57.793L20.4023 17.7778H59.5964L56.0314 57.7713L39.967 62.2223" fill="#E44D26"/>
<path d="M40 58.8195V21.0623H56.0212L52.9639 55.2004" fill="#F16529"/>
<path d="M27.6836 25.9561H39.9993V30.8607H33.0636L33.5173 35.8842H39.9993V40.7781H29.0232L27.6836 25.9561ZM29.2393 43.2412H34.1655L34.5112 47.1628L39.9993 48.632V53.7527L29.9307 50.9439" fill="#EBEBEB"/>
<path d="M52.2726 25.9561H39.9785V30.8607H51.8188L52.2726 25.9561ZM51.3759 35.8842H39.9785V40.7889H46.0283L45.4557 47.1628L39.9785 48.632V53.7311L50.0255 50.9439" fill="white"/>
</svg>
