<svg width="81" height="81" viewBox="0 0 81 81" fill="none" xmlns="http://www.w3.org/2000/svg">
<rect x="1.09918" y="0.402398" width="79.5555" height="79.5555" rx="14" fill="white"/>
<rect x="1.09918" y="0.402398" width="79.5555" height="79.5555" rx="14" stroke="#D9D9D9" stroke-width="0.444444"/>
<path fill-rule="evenodd" clip-rule="evenodd" d="M61.045 30.3553L61.2264 30.7786C62.5566 33.7113 63.2218 36.7952 63.2218 40.0001C63.2218 52.2449 53.2444 62.2223 40.9996 62.2223C28.7547 62.2223 18.7773 52.2449 18.7773 40.0001C18.7773 27.7552 28.7547 17.7778 40.9996 17.7778C44.5975 17.7778 48.0139 18.6244 51.1583 20.1966L51.5815 20.4082L51.2187 20.7106C50.3118 21.4362 49.6164 22.3432 49.1629 23.4014L49.0419 23.7038L48.7698 23.5828C46.3208 22.4339 43.7207 21.8292 40.9996 21.8292C30.9618 21.8292 22.8287 29.9623 22.8287 40.0001C22.8287 50.0378 30.9618 58.1709 40.9996 58.1709C51.0373 58.1709 59.1704 50.0076 59.1704 40.0001C59.1704 37.6116 58.7169 35.2532 57.7796 33.0462L57.6587 32.7438L57.961 32.6228C59.0191 32.2298 59.9866 31.5647 60.7426 30.7181L61.045 30.3553ZM55.5422 30.7786C58.0971 30.7786 60.1682 28.7076 60.1682 26.1528C60.1682 23.598 58.0971 21.5269 55.5422 21.5269C52.9875 21.5269 50.9164 23.598 50.9164 26.1528C50.9164 28.7076 52.9875 30.7786 55.5422 30.7786ZM40.9994 29.8716C35.4061 29.8716 30.871 34.4067 30.871 40.0002C30.871 45.5935 35.4061 50.1287 40.9994 50.1287C46.5928 50.1287 51.1279 45.5935 51.1279 40.0002C51.1279 34.4067 46.5928 29.8716 40.9994 29.8716Z" fill="#3880FF"/>
</svg>
