<svg width="81" height="81" viewBox="0 0 81 81" fill="none" xmlns="http://www.w3.org/2000/svg">
<rect x="1.09918" y="0.402642" width="79.5555" height="79.5555" rx="14" fill="white"/>
<rect x="1.09918" y="0.402642" width="79.5555" height="79.5555" rx="14" stroke="#D9D9D9" stroke-width="0.444444"/>
<path d="M35.1681 52.1494C35.1681 52.1494 33.4698 53.137 36.3768 53.4712C39.8987 53.873 41.6986 53.8155 45.5798 53.0808C45.5798 53.0808 46.6003 53.7206 48.0252 54.2749C39.3248 58.0037 28.3343 54.0588 35.1681 52.1494V52.1494ZM34.1049 47.2834C34.1049 47.2834 32.2 48.6935 35.1093 48.9944C38.8715 49.3825 41.8425 49.4143 46.9836 48.4243C46.9836 48.4243 47.6947 49.1452 48.8128 49.5395C38.2934 52.6155 26.5767 49.7821 34.1049 47.2834" fill="#5382A1"/>
<path d="M43.0679 39.0292C45.2117 41.4973 42.5046 43.7184 42.5046 43.7184C42.5046 43.7184 47.948 40.9084 45.4481 37.3894C43.1133 34.108 41.3227 32.4773 51.0159 26.8557C51.0159 26.8557 35.8008 30.6557 43.0679 39.0291" fill="#E76F00"/>
<path d="M54.5747 55.7484C54.5747 55.7484 55.8315 56.784 53.1904 57.5851C48.1685 59.1066 32.2883 59.566 27.8768 57.6457C26.291 56.956 29.2649 55.9986 30.2003 55.7976C31.1758 55.586 31.7334 55.6256 31.7334 55.6256C29.9698 54.3831 20.3343 58.065 26.8391 59.1193C44.5784 61.9961 59.176 57.824 54.5747 55.7484ZM35.9847 42.2416C35.9847 42.2416 27.9072 44.1603 33.1243 44.8569C35.3271 45.1518 39.7184 45.0851 43.8088 44.7423C47.1517 44.4605 50.5084 43.8609 50.5084 43.8609C50.5084 43.8609 49.3297 44.3657 48.4769 44.948C40.2742 47.1053 24.428 46.1017 28.9899 43.895C32.8479 42.0301 35.9848 42.2416 35.9848 42.2416H35.9847ZM50.4751 50.3412C58.8137 46.0082 54.9583 41.8443 52.2673 42.4053C51.6076 42.5425 51.3136 42.6614 51.3136 42.6614C51.3136 42.6614 51.5585 42.2779 52.0261 42.1119C57.3497 40.2402 61.444 47.632 50.3076 50.5596C50.3076 50.5597 50.4366 50.4444 50.4751 50.3412" fill="#5382A1"/>
<path d="M45.4476 17.778C45.4476 17.778 50.0656 22.3977 41.0676 29.5011C33.8522 35.1994 39.4223 38.4483 41.0646 42.1604C36.8529 38.3604 33.7619 35.0152 35.8356 31.9019C38.8791 27.3315 47.3108 25.1157 45.4476 17.7778" fill="#E76F00"/>
<path d="M36.8049 62.0825C44.8089 62.5949 57.0997 61.7982 57.3908 58.011C57.3908 58.011 56.8313 59.4468 50.776 60.5869C43.9445 61.8725 35.5189 61.7224 30.5215 60.8985C30.5216 60.8985 31.5445 61.7452 36.8051 62.0825" fill="#5382A1"/>
</svg>
