<svg width="81" height="81" viewBox="0 0 81 81" fill="none" xmlns="http://www.w3.org/2000/svg">
<rect x="1.09918" y="0.402398" width="79.5555" height="79.5555" rx="14" fill="white"/>
<rect x="1.09918" y="0.402398" width="79.5555" height="79.5555" rx="14" stroke="#D9D9D9" stroke-width="0.444444"/>
<path d="M58.6025 39.6603C58.6025 37.3757 56.7503 35.5235 54.4657 35.5235C54.3186 35.5235 54.1738 35.5313 54.0308 35.5464L59.7127 18.7881H35.5663L41.2404 35.5318C41.1567 35.5265 41.0728 35.5238 40.9889 35.5236C38.7043 35.5236 36.8521 37.3755 36.8521 39.6604C36.8521 41.5071 38.0625 43.0707 39.7328 43.6026C38.8506 45.1308 37.7404 46.5072 36.48 47.6965C34.7661 49.3133 32.8046 50.5394 30.6831 51.2948C28.1572 49.9972 26.9645 47.1115 28.0407 44.5813C28.1622 44.2955 28.2863 44.0059 28.4049 43.7176C30.2348 43.2905 31.5985 41.6501 31.5985 39.69C31.5985 37.4053 29.7463 35.5532 27.4615 35.5532C25.1767 35.5532 23.3246 37.4053 23.3246 39.69C23.3246 41.0911 24.0216 42.3287 25.0873 43.077C24.0634 45.4082 22.5582 47.8481 22.0893 50.6759C21.5272 54.0647 22.0874 57.6621 25.0184 59.6936C31.8446 64.4248 39.2544 56.7607 47.067 54.834C49.8983 54.1359 53.0064 54.2483 55.5009 52.8037C57.3742 51.7187 58.6093 49.9205 58.9597 47.9018C59.3061 45.9076 58.8013 43.922 57.6404 42.312C58.2632 41.5689 58.6039 40.6299 58.6025 39.6603Z" fill="#99425B"/>
<path d="M57.964 47.729C57.6598 49.4817 56.5773 51.0125 54.9944 51.9295C53.5187 52.7841 51.7504 53.0392 49.878 53.3091C48.8751 53.4537 47.838 53.6034 46.8248 53.8532C44.1458 54.5138 41.551 55.8027 39.0418 57.0491C34.02 59.5435 29.6831 61.6974 25.5939 58.8632C22.5984 56.7872 22.7367 52.9461 23.0856 50.8413C23.4091 48.8912 24.2835 47.0952 25.129 45.3584C25.273 45.0632 25.4159 44.7675 25.5576 44.4712C25.9838 44.6416 26.431 44.7538 26.8872 44.8047C26.0264 47.6454 27.3801 50.7341 30.2211 52.1936L30.61 52.3934L31.0217 52.2468C33.2677 51.4468 35.3374 50.1634 37.1731 48.4314C38.3596 47.3119 39.3799 46.0733 40.2185 44.7499C40.4734 44.7884 40.7308 44.8077 40.9887 44.8077C43.5963 44.8077 45.7555 42.8584 46.0897 40.3407C47.1571 40.3016 48.2907 40.3013 49.3642 40.3404C49.6981 42.8584 51.8576 44.8079 54.4653 44.8079C55.5556 44.8079 56.5669 44.4662 57.4001 43.8857C57.9785 45.0698 58.1944 46.402 57.964 47.729ZM27.4613 36.5637C29.1854 36.5637 30.5878 37.9663 30.5878 39.6903C30.5878 40.3095 30.4061 40.8869 30.0942 41.3732C29.5745 42.1837 28.6911 42.7393 27.6761 42.8086C27.6051 42.8133 27.5335 42.8168 27.4613 42.8168C27.0771 42.8168 26.7091 42.7467 26.3688 42.6195C25.6834 42.3618 25.1095 41.8729 24.746 41.2373C24.4761 40.7664 24.3343 40.2331 24.3347 39.6903C24.3347 37.9663 25.7373 36.5637 27.4613 36.5637ZM37.8623 39.6605C37.8623 38.0941 39.0202 36.7936 40.5247 36.5687C40.6762 36.5459 40.8312 36.5341 40.9888 36.5341C41.9911 36.5341 42.8835 37.0088 43.4558 37.7446C43.5991 37.928 43.7216 38.1269 43.8208 38.3374C44.0152 38.7514 44.1157 39.2032 44.1153 39.6605C44.1153 39.9104 44.0851 40.1534 44.0295 40.3865C43.7248 41.662 42.6371 42.6371 41.3042 42.7713C41.2006 42.7817 41.0954 42.787 40.9888 42.787C40.3874 42.7875 39.7988 42.6135 39.2944 42.2861C38.4336 41.7285 37.8623 40.7602 37.8623 39.6605ZM50.9114 35.9426C50.231 36.592 49.7414 37.4153 49.4955 38.3231C48.3171 38.2797 47.1374 38.2797 45.959 38.3231C45.6944 37.3417 45.1461 36.4759 44.4084 35.8183L47.6437 29.2766L50.9114 35.9426ZM36.9753 19.7988H58.303L53.2656 34.6557C53.0489 34.7076 52.8358 34.7736 52.6277 34.8533L47.6515 24.7021L42.6612 34.7927C42.4436 34.718 42.2213 34.6581 41.9957 34.6133L36.9753 19.7988ZM57.5917 39.6607C57.5917 39.9741 57.545 40.2767 57.4588 40.5625C57.2545 41.2354 56.8301 41.8202 56.2537 42.2231C55.7298 42.5908 55.1053 42.7877 54.4653 42.7872C53.0217 42.7872 51.804 41.8034 51.4459 40.4712C51.3747 40.2069 51.3387 39.9344 51.3388 39.6607C51.3388 39.2333 51.4251 38.8258 51.581 38.4544C51.6614 38.2645 51.7605 38.0829 51.8767 37.9124C52.4394 37.0819 53.3888 36.5342 54.4653 36.5342C54.564 36.5342 54.6613 36.5393 54.7578 36.5484C56.3452 36.6963 57.5919 38.0353 57.5919 39.6607H57.5917ZM59.6126 39.6607C59.6126 37.1477 57.802 35.051 55.4172 34.6031L61.1218 17.7778H34.1568L39.8703 34.6371C37.5683 35.1494 35.8416 37.2065 35.8416 39.6605C35.8416 41.5033 36.8154 43.1218 38.2749 44.0314C37.5729 45.0773 36.7405 46.0615 35.7865 46.9617C34.2735 48.3888 32.5881 49.4713 30.771 50.1836C28.9407 49.0338 28.167 46.8656 28.9704 44.9769L29.0334 44.8288L29.1515 44.551C31.1618 43.8498 32.6085 41.9365 32.6085 39.6903C32.6085 36.852 30.2995 34.543 27.4613 34.543C24.6232 34.543 22.3138 36.852 22.3138 39.6903C22.3138 41.1228 22.9028 42.4201 23.8505 43.3542C23.6737 43.7287 23.4943 44.102 23.3122 44.4739C22.4457 46.2535 21.4636 48.2706 21.0922 50.5106C20.3546 54.9593 21.5444 58.5155 24.4427 60.5241C26.2014 61.7429 27.9875 62.2223 29.7847 62.2223C33.1688 62.2223 36.5923 60.522 39.9407 58.8588C42.3521 57.6612 44.8457 56.4227 47.3087 55.8151C48.2252 55.5892 49.1682 55.4531 50.1665 55.3092C52.1465 55.0235 54.1936 54.7283 56.0071 53.6781C58.1092 52.4605 59.548 50.418 59.955 48.0748C60.3042 46.0631 59.8839 44.0482 58.8588 42.3393C59.3527 41.5332 59.6137 40.606 59.6126 39.6605V39.6607Z" fill="white"/>
</svg>
