<svg width="81" height="80" viewBox="0 0 81 80" fill="none" xmlns="http://www.w3.org/2000/svg">
<rect x="0.251519" y="0.222222" width="79.5555" height="79.5555" rx="14" fill="white"/>
<rect x="0.251519" y="0.222222" width="79.5555" height="79.5555" rx="14" stroke="#D9D9D9" stroke-width="0.444444"/>
<path d="M20.3806 48.0481C20.4232 48.1444 20.4714 48.2333 20.5232 48.3222C20.5473 48.3741 20.5806 48.4278 20.6103 48.4759C20.6584 48.5722 20.7103 48.6648 20.7603 48.7574L21.051 49.2463C21.1047 49.337 21.1566 49.4259 21.2177 49.5148C21.3195 49.6889 21.4399 49.8593 21.5455 50.0333C21.5936 50.1056 21.6381 50.1778 21.6918 50.25C21.8955 50.5667 22.0807 50.8296 22.2788 51.0852C22.4196 51.2759 22.5603 51.463 22.7121 51.65C22.7621 51.7204 22.8177 51.7908 22.8696 51.8611L23.2788 52.3574C23.3288 52.4148 23.3788 52.4815 23.4325 52.5408C23.614 52.7593 23.8066 52.9704 23.9992 53.1852C23.9992 53.1889 24.0048 53.1926 24.0085 53.1982C24.2474 53.4982 24.5048 53.7649 24.7862 54.0019L24.7937 54.0093C24.9418 54.1612 25.09 54.3112 25.2474 54.4593L25.4344 54.6389C25.64 54.8315 25.8455 55.0223 26.0622 55.2075C26.0659 55.2075 26.0677 55.2112 26.0714 55.213L26.177 55.3056C26.3659 55.4704 26.5566 55.6334 26.7511 55.7852L26.9826 55.9797C27.14 56.1056 27.3029 56.2241 27.4641 56.3482L27.7159 56.5408C27.8881 56.6704 28.0715 56.7964 28.2474 56.9223C28.3122 56.9686 28.377 57.0149 28.4437 57.0575L28.4974 57.1001L29.0178 57.4408L29.24 57.589C29.5122 57.763 29.7826 57.926 30.053 58.089C30.1307 58.1279 30.2085 58.1705 30.2807 58.2149C30.4808 58.3297 30.6882 58.4464 30.89 58.5519C31.0011 58.6149 31.1159 58.6686 31.2308 58.726C31.3696 58.8038 31.5141 58.8797 31.6622 58.9575C31.703 58.9705 31.7363 58.9834 31.7697 59.0019L31.7771 58.9945C31.8382 59.0223 31.8956 59.0519 31.9548 59.0816C32.1771 59.1927 32.4085 59.2982 32.6493 59.4019C32.6937 59.4205 32.7419 59.439 32.79 59.4649C33.0567 59.5816 33.3234 59.6927 33.5993 59.8001C33.6623 59.8186 33.7289 59.8501 33.7937 59.8742C34.0438 59.9686 34.3012 60.0649 34.5567 60.1557L34.6493 60.189C34.9326 60.2853 35.2123 60.3779 35.5012 60.4649C35.5678 60.4834 35.6364 60.5075 35.7067 60.526C36.0012 60.6149 36.2864 60.7205 36.5845 60.776C55.6088 64.2261 61.1366 49.3944 61.1366 49.3944C56.4921 55.413 48.2495 57.0001 40.4438 55.2334C40.1549 55.1667 39.866 55.0741 39.5734 54.9889C39.1604 54.8721 38.751 54.743 38.3456 54.6019L38.5216 54.6556L38.4068 54.6112C38.1549 54.526 37.9123 54.4315 37.666 54.3371C37.6057 54.3115 37.5446 54.288 37.4827 54.2667L37.4623 54.2612C37.1901 54.1519 36.9253 54.0408 36.6623 53.9241C36.6049 53.9056 36.5567 53.8797 36.4993 53.8575C36.1879 53.7217 35.8792 53.5797 35.5734 53.4315L35.829 53.5445C35.7623 53.515 35.6968 53.4829 35.6327 53.4482C35.4586 53.3667 35.2845 53.2741 35.1141 53.1871C34.9844 53.1256 34.8565 53.0601 34.7308 52.9908L34.7678 53.0093C34.5586 52.8982 34.3493 52.7778 34.1382 52.6648C34.0752 52.6204 34.003 52.5834 33.9308 52.5426C33.617 52.3602 33.307 52.1713 33.0011 51.976L33.1178 52.0463C33.0394 51.9979 32.9628 51.9466 32.8882 51.8926L32.8993 51.9C32.7003 51.7778 32.5051 51.6493 32.3141 51.5148C32.2511 51.4741 32.1937 51.4297 32.1289 51.3852C31.9294 51.249 31.733 51.1082 31.54 50.963L31.5845 50.9945C31.5067 50.9315 31.4234 50.8722 31.34 50.8111C31.1771 50.6833 31.0122 50.5611 30.8493 50.4278L30.6308 50.2537C30.3979 50.0684 30.1694 49.8776 29.9456 49.6815L29.9437 49.6796L29.3011 49.0963L29.1159 48.9222C28.9641 48.7685 28.8085 48.6222 28.653 48.4704L28.4733 48.2852C28.2816 48.0953 28.0945 47.9008 27.9122 47.7018L27.9011 47.6889L27.8696 47.663C27.6735 47.4476 27.4803 47.2297 27.29 47.0092C27.24 46.9518 27.1937 46.8907 27.1418 46.8296L26.7215 46.3203C26.532 46.0823 26.3467 45.8409 26.1659 45.5963L26.0918 45.4926C21.7621 39.611 20.1955 31.4943 23.6603 24.835L20.601 28.7035C16.6658 34.3313 17.1528 41.6499 20.1621 47.6259C20.2306 47.7722 20.3066 47.9092 20.3806 48.0481Z" fill="#1266A9"/>
<path d="M33.6347 39.9408L33.6143 39.9111L33.5977 39.8889L33.6347 39.9408Z" fill="black"/>
<path d="M35.705 42.3703L35.8717 42.5369C36.0828 42.7406 36.2995 42.9388 36.5199 43.1369L36.5476 43.161C36.7699 43.3573 37.0199 43.5629 37.2773 43.7629L37.3162 43.7925C37.3791 43.8351 37.4328 43.8851 37.494 43.9277C37.7532 44.1277 38.0143 44.3184 38.2866 44.5092L38.3143 44.5259C38.4291 44.6092 38.5514 44.6851 38.681 44.7666C38.7329 44.7999 38.7921 44.8444 38.8477 44.8777C39.044 45.0036 39.2366 45.1203 39.4347 45.2407C39.4662 45.2536 39.494 45.2703 39.5236 45.2833C39.6903 45.3851 39.8718 45.4833 40.0458 45.5722C40.1069 45.6092 40.1662 45.637 40.2292 45.6722C40.3532 45.7333 40.4755 45.7981 40.594 45.861L40.6532 45.887C40.9032 46.0092 41.1588 46.124 41.4088 46.237C41.4718 46.2611 41.5255 46.2814 41.5792 46.3074C41.7847 46.3962 41.994 46.4814 42.1996 46.5592C42.2921 46.5907 42.3792 46.6277 42.4662 46.6555C42.6551 46.7259 42.8533 46.7907 43.0403 46.8555L43.2996 46.9388C43.5699 47.0222 43.844 47.1314 44.1311 47.1759C58.8219 49.5944 62.222 38.3406 62.222 38.3406C59.1608 42.724 53.2367 44.8129 46.9237 43.1814C46.6085 43.1019 46.296 43.0124 45.9866 42.9129L46.0922 42.9425C46.0033 42.9184 45.9255 42.8906 45.8403 42.8647C45.6477 42.7981 45.4496 42.7332 45.2625 42.6647L44.9959 42.5647C44.7885 42.4814 44.5774 42.4036 44.3755 42.3147C44.3125 42.2869 44.2551 42.2684 44.207 42.2406C43.9477 42.124 43.6866 42.0092 43.4329 41.8869L43.0514 41.6888L42.831 41.5777C42.6607 41.4888 42.5033 41.3962 42.3403 41.3017C42.2987 41.2822 42.2585 41.2599 42.2199 41.2351L42.2255 41.2369C42.0292 41.1147 41.8255 40.9962 41.6366 40.8721C41.5736 40.8369 41.5162 40.7943 41.457 40.7573L41.0718 40.5073C40.8051 40.3221 40.544 40.124 40.2792 39.9314C40.2199 39.8777 40.1625 39.8332 40.1051 39.7851C37.3291 37.6128 35.1402 34.6443 34.1013 31.2831C33.0069 27.7886 33.2476 23.8701 35.1384 20.6904L32.8143 23.9645C29.9605 28.0405 30.1217 33.4887 32.3439 37.7999C32.7495 38.5962 33.1606 39.2684 33.6143 39.9091C34.0365 40.5128 34.5032 41.2203 35.0662 41.7055C35.2662 41.9332 35.481 42.1499 35.705 42.3703Z" fill="#1266A9"/>
<path d="M22.2879 51.0963L22.2805 51.0852L22.2676 51.0685L22.2879 51.0963ZM29.988 49.7185L30.0065 49.7315L30.0102 49.737L29.988 49.7185Z" fill="black"/>
<path d="M43.0846 20.4201C41.4013 22.8775 41.2402 25.9294 42.3994 28.6387C43.6309 31.5165 46.1476 33.7757 49.081 34.8461C49.2014 34.8924 49.318 34.9313 49.4421 34.9757L49.6051 35.0258C49.7754 35.0795 49.9477 35.1424 50.1236 35.1813C58.2366 36.7387 60.433 31.0368 61.0237 30.1979C59.0922 32.9572 55.8533 33.6202 51.8792 32.6591C51.5336 32.5748 51.1935 32.4697 50.8606 32.3442L50.9218 32.3646C50.5076 32.2213 50.102 32.0543 49.7069 31.8646L49.7773 31.8961C49.018 31.5257 48.3662 31.1257 47.7606 30.6664C44.2087 27.9812 42.0124 22.8682 44.3309 18.7034L43.0846 20.4201Z" fill="#1266A9"/>
</svg>
