<svg width="81" height="81" viewBox="0 0 81 81" fill="none" xmlns="http://www.w3.org/2000/svg">
<rect x="0.298394" y="0.402642" width="79.5555" height="79.5555" rx="14" fill="white"/>
<rect x="0.298394" y="0.402642" width="79.5555" height="79.5555" rx="14" stroke="#D9D9D9" stroke-width="0.444444"/>
<path d="M62.2218 17.7778H17.7773V62.2223H62.2218V17.7778Z" fill="#F7DF1E"/>
<path d="M47.6336 52.5003C48.5288 53.9621 49.6935 55.0365 51.7535 55.0365C53.484 55.0365 54.5895 54.1716 54.5895 52.9765C54.5895 51.5444 53.4537 51.0372 51.5489 50.204L50.5048 49.7561C47.491 48.4721 45.4889 46.8636 45.4889 43.4633C45.4889 40.331 47.8755 37.9465 51.6053 37.9465C54.2607 37.9465 56.1697 38.8707 57.5454 41.2904L54.2932 43.3786C53.5771 42.0947 52.8046 41.5889 51.6053 41.5889C50.3821 41.5889 49.6067 42.3649 49.6067 43.3786C49.6067 44.6315 50.3828 45.1388 52.1746 45.9148L53.2187 46.3621C56.7672 47.8837 58.7708 49.4351 58.7708 52.9229C58.7708 56.683 55.817 58.743 51.8501 58.743C47.9715 58.743 45.4657 56.8947 44.2395 54.4721L47.6336 52.5003ZM32.8801 52.8622C33.5362 54.0263 34.133 55.0104 35.5679 55.0104C36.9401 55.0104 37.8057 54.4735 37.8057 52.386V38.185H41.9821V52.4425C41.9821 56.767 39.4466 58.7352 35.7457 58.7352C32.4018 58.7352 30.4653 57.0047 29.4805 54.9204L32.8801 52.8622Z" fill="black"/>
</svg>
