<svg width="81" height="81" viewBox="0 0 81 81" fill="none" xmlns="http://www.w3.org/2000/svg">
<rect x="0.421441" y="0.402642" width="79.5555" height="79.5555" rx="14" fill="white"/>
<rect x="0.421441" y="0.402642" width="79.5555" height="79.5555" rx="14" stroke="#D9D9D9" stroke-width="0.444444"/>
<path d="M61.3938 27.9181C61.4097 27.977 61.4179 28.0377 61.418 28.0987V37.5806C61.418 37.7023 61.3859 37.8218 61.3249 37.9271C61.2639 38.0324 61.1762 38.1198 61.0706 38.1803L53.1123 42.7622V51.844C53.1123 52.0911 52.981 52.3193 52.7667 52.4437L36.1545 62.0068C36.1164 62.0284 36.0749 62.0422 36.0335 62.0569C36.0179 62.0621 36.0032 62.0716 35.9868 62.0759C35.8707 62.1065 35.7486 62.1065 35.6325 62.0759C35.6135 62.0707 35.5962 62.0604 35.578 62.0534C35.54 62.0396 35.5003 62.0275 35.464 62.0068L18.8552 52.4437C18.7497 52.3831 18.662 52.2957 18.601 52.1904C18.5401 52.0851 18.5079 51.9656 18.5078 51.844V23.3984C18.5078 23.3362 18.5165 23.2757 18.532 23.217C18.5372 23.1971 18.5493 23.1789 18.5562 23.1591C18.5692 23.1228 18.5813 23.0856 18.6003 23.0519C18.6132 23.0294 18.6323 23.0113 18.6478 22.9905C18.6677 22.9629 18.6858 22.9344 18.7092 22.9102C18.729 22.8903 18.755 22.8756 18.7774 22.8583C18.8025 22.8376 18.825 22.8151 18.8535 22.7987H18.8544L27.1592 18.0172C27.2643 17.9567 27.3835 17.9248 27.5048 17.9248C27.6262 17.9248 27.7454 17.9567 27.8505 18.0172L36.1553 22.7987H36.157C36.1847 22.816 36.208 22.8376 36.2331 22.8575C36.2556 22.8747 36.2806 22.8903 36.3005 22.9093C36.3247 22.9344 36.342 22.9629 36.3627 22.9905C36.3774 23.0113 36.3973 23.0294 36.4094 23.0519C36.4293 23.0865 36.4405 23.1228 36.4543 23.1591C36.4612 23.1789 36.4733 23.1971 36.4785 23.2178C36.4944 23.2767 36.5026 23.3374 36.5027 23.3984V41.1652L43.4231 37.1805V28.0979C43.4231 28.0374 43.4317 27.976 43.4473 27.9181C43.4534 27.8974 43.4646 27.8792 43.4715 27.8594C43.4853 27.8231 43.4974 27.7859 43.5164 27.7522C43.5294 27.7297 43.5484 27.7116 43.5631 27.6908C43.5838 27.6632 43.6011 27.6347 43.6253 27.6105C43.6452 27.5906 43.6703 27.5759 43.6927 27.5586C43.7187 27.5379 43.7411 27.5154 43.7688 27.499H43.7696L52.0753 22.7175C52.1804 22.6569 52.2997 22.625 52.421 22.625C52.5423 22.625 52.6615 22.6569 52.7667 22.7175L61.0715 27.499C61.1009 27.5163 61.1233 27.5379 61.1493 27.5578C61.1709 27.575 61.1959 27.5906 61.2158 27.6096C61.24 27.6347 61.2573 27.6632 61.278 27.6908C61.2936 27.7116 61.3126 27.7297 61.3247 27.7522C61.3446 27.7859 61.3558 27.8231 61.3696 27.8594C61.3774 27.8792 61.3886 27.8974 61.3938 27.9181ZM60.0336 37.1805V29.2956L57.1273 30.9687L53.1123 33.2804V41.1652L60.0345 37.1805H60.0336ZM51.7288 51.4438V43.5538L47.7795 45.8094L36.5019 52.2458V60.2101L51.7288 51.4438ZM19.8922 24.5953V51.4438L35.1174 60.2093V52.2467L27.1635 47.7451L27.1609 47.7434L27.1574 47.7417C27.1306 47.7261 27.1082 47.7036 27.0831 47.6846C27.0615 47.6674 27.0364 47.6535 27.0174 47.6345L27.0157 47.6319C26.9932 47.6103 26.9777 47.5835 26.9587 47.5593C26.9414 47.536 26.9206 47.5161 26.9068 47.4919L26.906 47.4893C26.8904 47.4634 26.8809 47.4323 26.8697 47.4029C26.8584 47.377 26.8437 47.3528 26.8368 47.3251V47.3243C26.8282 47.2914 26.8264 47.2569 26.823 47.2232C26.8195 47.1972 26.8126 47.1713 26.8126 47.1454V28.5801L22.7985 26.2675L19.8922 24.5962V24.5953ZM27.5057 19.4154L20.5862 23.3984L27.504 27.3815L34.4226 23.3976L27.504 19.4154H27.5057ZM31.1042 44.2728L35.1183 41.962V24.5953L32.212 26.2684L28.197 28.5801V45.9468L31.1042 44.2728ZM52.421 24.1157L45.5023 28.0987L52.421 32.0818L59.3388 28.0979L52.421 24.1157ZM51.7288 33.2804L47.7138 30.9687L44.8075 29.2956V37.1805L48.8217 39.4913L51.7288 41.1652V33.2804ZM35.8088 51.0489L45.9569 45.2554L51.0297 42.3604L44.1162 38.38L36.1562 42.9627L28.9014 47.1393L35.8088 51.0489Z" fill="#FF2D20"/>
</svg>
