<svg width="81" height="81" viewBox="0 0 81 81" fill="none" xmlns="http://www.w3.org/2000/svg">
<rect x="0.253472" y="0.40191" width="79.5555" height="79.5555" rx="14" fill="white"/>
<rect x="0.253472" y="0.40191" width="79.5555" height="79.5555" rx="14" stroke="#D9D9D9" stroke-width="0.444444"/>
<path d="M12.5218 43.0675C12.5218 42.0588 11.8733 40.978 10 40.9059V38.3841C11.8733 38.3121 12.5218 37.2313 12.5218 36.2226C12.5218 34.4213 12.2336 33.2685 12.2336 31.179C12.2336 28.0087 13.3864 27 15.9803 27H22.8972V29.3056H17.2772C16.0523 29.3056 15.6921 29.738 15.6921 31.3231C15.6921 32.9082 15.8362 34.3493 15.8362 36.0785C15.8362 38.3121 15.1157 39.1767 13.6746 39.537V39.6811C15.1157 40.0413 15.8362 40.9059 15.8362 43.1395C15.8362 44.9408 15.6921 46.3098 15.6921 47.8949C15.6921 49.4801 16.0523 49.9844 17.2772 49.9844H17.8536V52.218H15.9803C13.3864 52.218 12.2336 51.2093 12.2336 48.039C12.2336 45.9495 12.5218 44.8688 12.5218 43.0675ZM18.6462 27.2162H22.9693V43.4277C22.9693 44.3644 23.4016 44.6526 23.7618 44.6526C23.9059 44.6526 24.05 44.6526 24.2662 44.5806L24.7705 47.7508C24.2662 47.967 23.5457 48.1111 22.609 48.1111C19.6549 48.1111 18.6462 46.1657 18.6462 43.2116V27.2162ZM30.8229 32.8362C34.9298 32.8362 37.0193 35.8623 37.0193 39.8252C37.0193 40.6177 36.9472 41.2662 36.8752 41.6264H28.0129C28.3731 43.86 29.8862 44.7967 31.8316 44.7967C32.9124 44.7967 33.9211 44.5085 35.0019 43.86L36.4429 46.4539C34.9298 47.4626 32.9844 48.1111 31.2552 48.1111C27.0762 48.1111 23.9059 45.3011 23.9059 40.4736C23.8339 35.7903 27.2924 32.8362 30.8229 32.8362ZM33.3447 38.9605C33.3447 37.3034 32.6242 36.0785 30.8949 36.0785C29.5259 36.0785 28.3731 37.0152 28.0849 38.9605H33.3447ZM39.469 43.4277C40.766 44.4365 41.9908 44.9408 43.2157 44.9408C44.5126 44.9408 45.0891 44.4365 45.0891 43.7159C45.0891 42.7793 43.648 42.2749 42.135 41.6985C40.4057 41.05 38.3162 39.8252 38.3162 37.4475C38.3162 34.7816 40.5498 32.9082 43.8642 32.9082C46.0978 32.9082 47.755 33.8449 48.9798 34.7816L47.0345 37.3754C45.9537 36.5828 45.017 36.1505 43.9362 36.1505C42.8555 36.1505 42.2791 36.5828 42.2791 37.3034C42.2791 38.24 43.648 38.6003 45.1611 39.1767C47.0345 39.8252 49.1239 40.9059 49.1239 43.5718C49.1239 46.2377 47.0345 48.2552 43.1437 48.2552C41.2703 48.2552 39.0367 47.4626 37.5957 46.2377L39.469 43.4277ZM51.2134 43.4277C52.5104 44.4365 53.7352 44.9408 54.9601 44.9408C56.257 44.9408 56.8335 44.4365 56.8335 43.7159C56.8335 42.7793 55.3924 42.2749 53.8793 41.6985C52.1501 41.05 50.0606 39.8252 50.0606 37.4475C50.0606 34.7816 52.2942 32.9082 55.6086 32.9082C57.8422 32.9082 59.4994 33.8449 60.7242 34.7816L58.7788 37.3754C57.6981 36.5828 56.7614 36.1505 55.6806 36.1505C54.5999 36.1505 54.0234 36.5828 54.0234 37.3034C54.0234 38.24 55.3924 38.6003 56.8335 39.1767C58.7068 39.8252 60.7963 40.9059 60.7963 43.5718C60.7963 46.2377 58.7068 48.2552 54.816 48.2552C52.9427 48.2552 50.7091 47.4626 49.268 46.2377L51.2134 43.4277ZM61.8771 49.9124C63.1019 49.9124 63.4622 49.4801 63.4622 47.8229C63.4622 46.2377 63.3181 44.7967 63.3181 43.0675C63.3181 40.8339 64.0386 39.9693 65.4796 39.609V39.4649C64.0386 39.1046 63.3181 38.24 63.3181 36.0064C63.3181 34.2772 63.4622 32.7641 63.4622 31.251C63.4622 29.6659 63.174 29.2336 61.8771 29.2336H61.3006V27H63.174C65.7678 27 66.9207 28.0087 66.9207 31.179C66.9207 33.1964 66.6325 34.3492 66.6325 36.2226C66.6325 37.2313 67.2809 38.3121 69.1543 38.3841V40.9059C67.2809 40.978 66.6325 42.0588 66.6325 43.0675C66.6325 44.9408 66.9207 46.0216 66.9207 48.1111C66.9207 51.2813 65.7678 52.2901 63.174 52.2901H61.3006V49.9844L61.8771 49.9124Z" fill="#214674"/>
</svg>
