<svg width="81" height="81" viewBox="0 0 81 81" fill="none" xmlns="http://www.w3.org/2000/svg">
<rect x="0.374566" y="0.402642" width="79.5555" height="79.5555" rx="14" fill="white"/>
<rect x="0.374566" y="0.402642" width="79.5555" height="79.5555" rx="14" stroke="#D9D9D9" stroke-width="0.444444"/>
<path d="M39.862 17.8992L41.048 20.1268C41.3146 20.5379 41.6035 20.9017 41.9438 21.2406C42.9413 22.2257 43.8711 23.2771 44.7269 24.3876C46.7365 27.0263 48.0919 29.9566 49.0599 33.1258C49.6404 35.0618 49.9557 37.0477 49.9793 39.0559C50.0765 45.0596 48.0183 50.2148 43.8686 54.4992C43.1936 55.1786 42.4644 55.8019 41.6882 56.363C41.2772 56.363 41.0827 56.0477 40.9133 55.7575C40.6047 55.2192 40.3994 54.6281 40.3078 54.0145C40.162 53.2882 40.0661 52.5619 40.1133 51.8119V51.4731C40.08 51.4008 39.7175 18.07 39.862 17.8992Z" fill="#599636"/>
<path d="M39.862 17.8256C39.8134 17.7284 39.7648 17.802 39.7162 17.8492C39.7398 18.3353 39.5703 18.7686 39.3051 19.1825C39.0134 19.5935 38.6273 19.9088 38.2399 20.2477C36.0873 22.1114 34.3929 24.3626 33.0361 26.8805C31.2307 30.2691 30.3002 33.9008 30.0363 37.7241C29.9155 39.1032 30.4724 43.9695 30.9071 45.3736C32.0931 49.1011 34.2235 52.2245 36.983 54.9354C37.6607 55.5881 38.3857 56.1936 39.1356 56.7755C39.3537 56.7755 39.3773 56.5811 39.4273 56.4366C39.5229 56.1276 39.5958 55.812 39.6453 55.4923L40.1314 51.862L39.862 17.8256Z" fill="#6CAC48"/>
<path d="M41.0491 57.8379C41.0977 57.2824 41.3643 56.8213 41.6546 56.3616C41.3629 56.2408 41.1463 56.0005 40.9769 55.7325C40.8308 55.4787 40.7098 55.2113 40.6158 54.934C40.2769 53.9174 40.2047 52.8508 40.1075 51.812V51.1829C39.9867 51.2801 39.9617 52.1022 39.9617 52.2244C39.891 53.3224 39.7453 54.4142 39.5256 55.4922C39.4534 55.9283 39.4048 56.363 39.1367 56.7505C39.1367 56.7991 39.1367 56.8477 39.1603 56.9199C39.5964 58.2031 39.7158 59.51 39.7895 60.8418V61.3279C39.7895 61.9084 39.7658 61.7862 40.2478 61.9806C40.4422 62.0528 40.6588 62.0778 40.8533 62.2223C40.9991 62.2223 41.0227 62.1014 41.0227 62.0042L40.9505 61.2057V58.9781C40.9269 58.5892 40.9991 58.2031 41.0477 57.8393L41.0491 57.8379Z" fill="#C2BFBF"/>
</svg>
