<svg width="81" height="81" viewBox="0 0 81 81" fill="none" xmlns="http://www.w3.org/2000/svg">
<rect x="1.09918" y="0.402642" width="79.5555" height="79.5555" rx="14" fill="white"/>
<rect x="1.09918" y="0.402642" width="79.5555" height="79.5555" rx="14" stroke="#D9D9D9" stroke-width="0.444444"/>
<path d="M59.7153 52.1089C57.2971 52.0477 55.423 52.2932 53.8511 52.9681C53.3977 53.1521 52.6721 53.1522 52.6116 53.7353C52.8535 53.9808 52.8837 54.3797 53.0954 54.7171C53.4585 55.3307 54.0928 56.1592 54.6672 56.589C55.3019 57.0798 55.9369 57.5706 56.6017 58.0003C57.7807 58.7367 59.1109 59.1662 60.2595 59.9027C60.9247 60.3319 61.5893 60.8847 62.2544 61.3448C62.5869 61.5899 62.7984 61.9892 63.2218 62.1425V62.0506C63.01 61.7742 62.9495 61.3755 62.7381 61.0686C62.4361 60.7617 62.1335 60.4856 61.8312 60.1787C60.9546 58.9822 59.8665 57.9389 58.6876 57.0798C57.7204 56.4047 55.6042 55.4843 55.2114 54.3488C55.2114 54.3488 55.181 54.3183 55.1509 54.2876C55.8158 54.2263 56.6017 53.9808 57.2367 53.7967C58.2644 53.5203 59.2014 53.5818 60.2595 53.3057C60.743 53.1829 61.2267 53.0295 61.7102 52.876V52.6C61.1664 52.0477 60.7734 51.3114 60.199 50.7897C58.6574 49.4393 56.9644 48.1201 55.2114 47.0155C54.2742 46.4018 53.0649 46.0028 52.0675 45.4813C51.7051 45.297 51.1003 45.2052 50.8888 44.8983C50.3445 44.2233 50.0422 43.3336 49.6493 42.5357C48.773 40.8479 47.9263 38.9764 47.1705 37.1969C46.6267 36.0001 46.2942 34.8033 45.6291 33.6989C42.5156 28.4826 39.1301 25.3222 33.931 22.223C32.8124 21.5788 31.4824 21.3026 30.0617 20.9652C29.3063 20.9343 28.5503 20.8731 27.7947 20.8423C27.311 20.6275 26.8273 20.0446 26.4041 19.7684C24.6814 18.6637 20.2376 16.2706 18.968 19.431C18.1518 21.4253 20.1773 23.3889 20.8723 24.4018C21.3866 25.1074 22.0513 25.9051 22.4141 26.703C22.6257 27.2243 22.686 27.777 22.8976 28.3292C23.3815 29.6789 23.8346 31.1828 24.4696 32.4409C24.8022 33.0852 25.1648 33.7601 25.588 34.3432C25.8299 34.6806 26.2529 34.8342 26.3438 35.3864C25.9207 36.0001 25.8903 36.9207 25.6483 37.6877C24.5601 41.155 24.9836 45.4507 26.525 47.9973C27.0085 48.7642 28.1573 50.4523 29.6989 49.8077C31.0593 49.2555 30.757 47.5065 31.1497 45.9723C31.2407 45.6037 31.1803 45.3586 31.3615 45.1131V45.1746C31.7847 46.0335 32.2078 46.8623 32.6008 47.7213C33.538 49.2246 35.1701 50.7897 36.5303 51.833C37.2561 52.385 37.8303 53.3363 38.7372 53.6739V53.5817H38.6766C38.4952 53.3055 38.2231 53.1829 37.9814 52.9679C37.4375 52.4159 36.8327 51.7408 36.4096 51.1271C35.1402 49.4086 34.0215 47.5063 33.024 45.5425C32.5405 44.5916 32.1171 43.5482 31.7243 42.5971C31.5427 42.2285 31.5427 41.6765 31.2406 41.4926C30.7871 42.1675 30.1222 42.7505 29.7896 43.5789C29.2156 44.8983 29.155 46.5245 28.9433 48.212C28.8224 48.243 28.8827 48.212 28.8222 48.2737C27.8552 48.0278 27.5226 47.0155 27.1597 46.1563C26.2527 43.9779 26.1016 40.4799 26.8878 37.9639C27.0994 37.3195 28.0063 35.2945 27.6436 34.6807C27.4622 34.0977 26.8574 33.7601 26.525 33.3C26.1322 32.7169 25.7088 31.9808 25.4369 31.3362C24.7113 29.6179 24.3485 27.7155 23.5627 25.9972C23.1999 25.1993 22.5654 24.3711 22.0513 23.6346C21.4771 22.8062 20.8422 22.223 20.3887 21.2412C20.2378 20.9038 20.026 20.3515 20.2678 19.9832C20.3283 19.7377 20.449 19.6458 20.6911 19.5845C21.0841 19.2467 22.2026 19.6763 22.5953 19.8605C23.7138 20.3204 24.6508 20.7504 25.588 21.3946C26.0111 21.7015 26.4645 22.2846 27.0085 22.438H27.6434C28.6108 22.6526 29.6988 22.4994 30.6057 22.7754C32.208 23.2969 33.6587 24.0641 34.9587 24.8926C38.9186 27.4393 42.1829 31.06 44.3898 35.3864C44.7526 36.0918 44.9035 36.7366 45.2361 37.4727C45.8711 38.9764 46.657 40.5106 47.2915 41.9834C47.9263 43.4253 48.5308 44.8983 49.4377 46.0951C49.8912 46.7392 51.7047 47.0769 52.521 47.4144C53.1256 47.6905 54.0627 47.9361 54.6067 48.2735C55.6344 48.9176 56.6621 49.6544 57.6295 50.3599C58.1132 50.7281 59.6244 51.4953 59.7153 52.1089Z" fill="#00546B"/>
<path d="M28.8837 25.4446C28.3699 25.4446 28.0073 25.5063 27.6445 25.5982V25.6596H27.705C27.947 26.1506 28.3699 26.4881 28.672 26.9176C28.9141 27.4084 29.1255 27.8995 29.3675 28.3905C29.3976 28.3597 29.4278 28.3292 29.4278 28.3292C29.8512 28.0221 30.0627 27.5313 30.0627 26.7948C29.8813 26.5802 29.8511 26.3654 29.6999 26.1506C29.5187 25.8435 29.1255 25.6903 28.8837 25.4446Z" fill="#00546B"/>
</svg>
