<svg width="81" height="81" viewBox="0 0 81 81" fill="none" xmlns="http://www.w3.org/2000/svg">
<rect x="1.0523" y="0.402642" width="79.5555" height="79.5555" rx="14" fill="white"/>
<rect x="1.0523" y="0.402642" width="79.5555" height="79.5555" rx="14" stroke="#D9D9D9" stroke-width="0.444444"/>
<path fill-rule="evenodd" clip-rule="evenodd" d="M40.9996 51.2618C53.2726 51.2618 63.2218 46.2196 63.2218 40.0001C63.2218 33.7807 53.2726 28.7385 40.9996 28.7385C28.7268 28.7385 18.7773 33.7807 18.7773 40.0001C18.7773 46.2196 28.7268 51.2618 40.9996 51.2618Z" fill="#6E81B6"/>
<path fill-rule="evenodd" clip-rule="evenodd" d="M45.5026 43.6401L46.6049 37.967C46.8537 36.6865 46.6468 35.7315 45.9903 35.128C45.3543 34.5441 44.2746 34.26 42.6897 34.26H40.7807L41.3267 31.4493C41.337 31.397 41.3355 31.343 41.3224 31.2914C41.3094 31.2397 41.285 31.1915 41.2511 31.1504C41.2172 31.1092 41.1747 31.0761 41.1265 31.0534C41.0783 31.0306 41.0256 31.0188 40.9723 31.0188H38.3376C38.1645 31.0188 38.0159 31.1416 37.9829 31.3114L36.8121 37.3342C36.7057 36.6565 36.4434 36.0739 36.0237 35.5931C35.2508 34.7085 34.0284 34.26 32.3901 34.26H27.2834C27.1104 34.26 26.9618 34.3829 26.9287 34.5524L24.5594 46.7435C24.5388 46.8496 24.5664 46.9587 24.6352 47.042C24.7037 47.1256 24.8059 47.1737 24.9141 47.1737H27.5696C27.7426 47.1737 27.8912 47.0509 27.9243 46.8808L28.4975 43.9322H30.4741C31.5114 43.9322 32.3831 43.8199 33.0635 43.5985C33.7592 43.3722 34.3995 42.9885 34.9638 42.4602C35.4198 42.0412 35.7966 41.5721 36.0865 41.0661L35.6133 43.5017C35.5926 43.6079 35.6203 43.7175 35.6891 43.8003C35.7576 43.8838 35.86 43.9319 35.968 43.9319H38.6028C38.7758 43.9319 38.9244 43.8091 38.9575 43.6396L40.2578 36.9477H42.0657C42.8361 36.9477 43.0618 37.1012 43.1234 37.167C43.179 37.2272 43.2946 37.4392 43.1648 38.1075L42.1168 43.5014C42.1067 43.5537 42.1084 43.6076 42.1215 43.6592C42.1347 43.7108 42.1591 43.7589 42.193 43.8C42.2268 43.841 42.2694 43.8742 42.3175 43.8969C42.3657 43.9197 42.4182 43.9315 42.4715 43.9317H45.1482C45.2319 43.9318 45.3131 43.9028 45.3778 43.8496C45.4425 43.7964 45.4866 43.7223 45.5026 43.6401ZM33.2873 38.9526C33.1218 39.8031 32.8101 40.4096 32.3603 40.7554C31.9034 41.1077 31.1728 41.2862 30.1885 41.2862H29.0115L29.8625 36.9066H31.3843C32.5021 36.9066 32.9525 37.1455 33.1333 37.3457C33.3841 37.6236 33.4373 38.1795 33.2873 38.9526ZM56.6008 35.5931C55.8282 34.7085 54.6059 34.26 52.9675 34.26H47.8608C47.6875 34.26 47.5392 34.3829 47.5061 34.5524L45.1371 46.7435C45.1162 46.8496 45.1439 46.9587 45.2126 47.042C45.2814 47.1253 45.3838 47.1737 45.4913 47.1737H48.147C48.3203 47.1737 48.4687 47.0509 48.5017 46.8808L49.0749 43.9322H51.0518C52.0893 43.9322 52.9602 43.8199 53.6409 43.5985C54.3369 43.3722 54.9772 42.9885 55.5413 42.4602C56.012 42.0278 56.3993 41.5417 56.6927 41.0169C56.9861 40.4921 57.1965 39.9068 57.3193 39.277C57.6211 37.7235 57.3795 36.4842 56.6008 35.5931ZM54.0155 38.9526C53.8497 39.8031 53.538 40.4096 53.0887 40.7554C52.6316 41.1077 51.901 41.2862 50.9169 41.2862H49.7397L50.5904 36.9066H52.1125C53.2303 36.9066 53.6807 37.1455 53.8618 37.3457C54.112 37.6236 54.1654 38.1795 54.0155 38.9526Z" fill="white"/>
<path fill-rule="evenodd" clip-rule="evenodd" d="M31.3103 36.5451C32.319 36.5451 32.9916 36.7313 33.3278 37.1038C33.6637 37.4762 33.7437 38.1157 33.568 39.0216C33.3842 39.965 33.0306 40.6384 32.5066 41.042C31.9826 41.4457 31.185 41.6472 30.1145 41.6472H28.499L29.4905 36.5451H31.3103ZM24.8398 46.8122H27.4953L28.1254 43.5712H30.4001C31.4038 43.5712 32.2295 43.4656 32.8777 43.2546C33.5258 43.0437 34.1151 42.6903 34.6453 42.194C35.0903 41.7853 35.4504 41.3339 35.7261 40.8405C36.0015 40.3471 36.1971 39.803 36.3129 39.2078C36.594 37.7626 36.382 36.637 35.6774 35.8309C34.9731 35.0244 33.8523 34.6214 32.3161 34.6214H27.2094L24.8398 46.8122ZM38.2633 31.3801H40.898L40.2682 34.6214H42.6157C44.092 34.6214 45.1112 34.8788 45.6718 35.3939C46.2323 35.9091 46.4003 36.7439 46.1762 37.8981L45.0739 43.5712H42.3972L43.4452 38.177C43.5642 37.5633 43.5207 37.1449 43.3135 36.9216C43.1064 36.6985 42.6654 36.5868 41.9914 36.5868H39.8858L38.5285 43.5712H35.8937L38.2633 31.3801ZM52.0385 36.5451C53.0472 36.5451 53.7196 36.7313 54.056 37.1038C54.3919 37.4762 54.4717 38.1157 54.296 39.0216C54.1127 39.965 53.7591 40.6384 53.2348 41.042C52.7111 41.4457 51.9133 41.6472 50.8432 41.6472H49.2277L50.219 36.5451H52.0385ZM45.5675 46.8122H48.2232L48.8531 43.5712H51.1278C52.1317 43.5712 52.9575 43.4656 53.6056 43.2546C54.2538 43.0437 54.8431 42.6903 55.3732 42.194C55.8182 41.7853 56.1783 41.3339 56.4537 40.8405C56.7292 40.3471 56.9251 39.803 57.0412 39.2078C57.322 37.7626 57.11 36.637 56.4056 35.8309C55.7008 35.0244 54.5803 34.6214 53.044 34.6214H47.9373L45.5675 46.8122Z" fill="black"/>
</svg>
