<svg width="81" height="81" viewBox="0 0 81 81" fill="none" xmlns="http://www.w3.org/2000/svg">
<rect x="0.298394" y="0.402398" width="79.5555" height="79.5555" rx="14" fill="white"/>
<rect x="0.298394" y="0.402398" width="79.5555" height="79.5555" rx="14" stroke="#D9D9D9" stroke-width="0.444444"/>
<path d="M57.5875 26.4181C54.901 22.9393 51.2432 20.3353 47.0767 18.9354C42.9101 17.5356 38.4221 17.4028 34.1801 18.5538C29.9381 19.7048 26.1327 22.088 23.2452 25.4018C20.3577 28.7157 18.5178 32.8114 17.9582 37.1711C17.3986 41.5307 18.1444 45.9583 20.1013 49.894C22.0582 53.8297 25.1383 57.0967 28.9521 59.2818C32.7658 61.4669 37.1419 62.472 41.5269 62.1698C45.9119 61.8677 50.1088 60.272 53.5868 57.5845C63.2951 50.0818 65.0867 36.1298 57.5868 26.4181H57.5875Z" fill="#FF6C37"/>
<path d="M47.4944 31.9374L38.1244 41.3818L35.4766 38.6596C44.6987 29.4374 45.6243 30.2708 47.4951 31.9374H47.4944Z" fill="white"/>
<path d="M38.125 41.6403C38.042 41.6383 37.9628 41.6053 37.9028 41.548L35.2362 38.8813C35.1761 38.8192 35.1426 38.7361 35.1426 38.6497C35.1426 38.5633 35.1761 38.4803 35.2362 38.4181C44.3285 29.3258 45.5694 29.7515 47.7173 31.696C47.7533 31.7247 47.782 31.7615 47.8013 31.8033C47.8206 31.8451 47.8299 31.8909 47.8284 31.9369C47.8423 32.0272 47.8076 32.1196 47.7361 32.1779L38.366 41.5486C38.3003 41.6089 38.2142 41.6419 38.125 41.641V41.6403ZM35.9396 38.6591L38.125 40.8445L47.0138 31.9557C46.7069 31.5711 46.269 31.3131 45.7838 31.2311C45.2986 31.1491 44.8003 31.2488 44.384 31.5112C42.7729 32.2335 40.1806 34.4369 35.9396 38.6591Z" fill="#FF6C37"/>
<path d="M40.8095 43.9927L38.2539 41.3817L47.624 32.1221C50.1428 34.5852 46.4018 38.6963 40.8095 43.992V43.9927Z" fill="white"/>
<path d="M40.8099 44.326C40.728 44.3195 40.6502 44.2872 40.5877 44.2337L37.9766 41.6781C37.9375 41.5832 37.9375 41.4766 37.9766 41.3816C37.9489 41.3037 37.9489 41.2186 37.9766 41.1406L47.3467 31.7706C47.4119 31.7094 47.4979 31.6753 47.5873 31.6753C47.6767 31.6753 47.7628 31.7094 47.8279 31.7706C48.1314 32.0499 48.3711 32.3913 48.5309 32.7715C48.6906 33.1517 48.7666 33.5618 48.7536 33.9741C48.7536 36.474 45.9016 39.6219 41.0502 44.2149C40.9854 44.279 40.9001 44.3184 40.8093 44.326H40.8099ZM38.7357 41.3816L40.828 43.4732C44.5314 39.9733 48.0689 36.3622 48.087 33.9178C48.1071 33.3996 47.9358 32.8921 47.6057 32.4921L38.7357 41.3816Z" fill="#FF6C37"/>
<path d="M35.5506 38.7155L37.4027 40.5676C37.4145 40.578 37.424 40.5908 37.4305 40.6052C37.437 40.6196 37.4403 40.6351 37.4403 40.6509C37.4403 40.6667 37.437 40.6823 37.4305 40.6966C37.424 40.711 37.4145 40.7238 37.4027 40.7342L33.4951 41.5676C33.4162 41.5846 33.3339 41.5754 33.2608 41.5413C33.1876 41.5073 33.1276 41.4502 33.0899 41.3789C33.0521 41.3076 33.0387 41.2259 33.0517 41.1462C33.0647 41.0666 33.1033 40.9934 33.1618 40.9377L35.4395 38.6787C35.4395 38.6787 35.5138 38.6787 35.5506 38.7155Z" fill="white"/>
<path d="M33.4021 41.9376C33.2787 41.936 33.1576 41.9028 33.0507 41.8412C32.9437 41.7796 32.8543 41.6915 32.791 41.5855C32.7198 41.4512 32.694 41.2974 32.7174 41.1472C32.7408 40.997 32.8122 40.8584 32.9209 40.7522L35.1799 38.4744C35.2613 38.4016 35.3668 38.3613 35.476 38.3613C35.5853 38.3613 35.6908 38.4016 35.7722 38.4744L37.6243 40.3265C37.734 40.4306 37.7771 40.5883 37.7354 40.7341C37.6937 40.8799 37.5715 40.9959 37.4208 41.0306L33.5132 41.864L33.4021 41.9376ZM35.4764 39.123L33.3841 41.2153L36.8472 40.4744L35.4764 39.123Z" fill="#FF6C37"/>
<path d="M52.4767 26.7333C51.1364 25.4402 49.0309 25.3861 47.6253 26.6062C46.2197 27.8263 45.9794 29.9208 47.0739 31.4277C48.1684 32.9346 50.2316 33.3568 51.8288 32.3999L49.31 29.8812L52.4767 26.7333Z" fill="white"/>
<path d="M49.9758 33.2514C49.2058 33.2415 48.4557 33.0052 47.819 32.5721C47.1823 32.1389 46.6871 31.5279 46.3952 30.8153C46.1036 30.1032 46.027 29.3212 46.1751 28.5661C46.3233 27.811 46.6895 27.1158 47.2286 26.5667C47.97 25.8389 48.9674 25.4312 50.0064 25.4312C51.0453 25.4312 52.0427 25.8389 52.7841 26.5667C52.855 26.6264 52.8952 26.7146 52.8952 26.8077C52.8951 26.8534 52.8851 26.8987 52.8659 26.9402C52.8467 26.9818 52.8188 27.0188 52.7841 27.0486L49.7841 29.8819L52.0619 32.1229C52.0988 32.1581 52.1265 32.2019 52.1426 32.2503C52.1587 32.2987 52.1627 32.3504 52.1543 32.4007C52.1488 32.4492 52.1327 32.496 52.1071 32.5376C52.0816 32.5793 52.0472 32.6148 52.0064 32.6416C51.3944 33.0241 50.691 33.2352 49.9695 33.2528L49.9758 33.2514ZM49.9758 26.066C48.6564 26.0729 47.4758 26.8667 46.9807 28.0799C46.4855 29.2931 46.755 30.6896 47.68 31.6215C48.1401 32.0843 48.7292 32.3973 49.3702 32.5196C50.0112 32.6419 50.6742 32.5678 51.2723 32.3069L49.0869 30.1215C49.0522 30.0937 49.0241 30.0585 49.0048 30.0184C48.9856 29.9783 48.9756 29.9344 48.9756 29.8899C48.9756 29.8454 48.9856 29.8015 49.0048 29.7614C49.0241 29.7214 49.0522 29.6861 49.0869 29.6583L51.9758 26.7507C51.4015 26.3106 50.6993 26.0699 49.9758 26.0653V26.066Z" fill="#FF6C37"/>
<path d="M52.5318 26.7891L49.3652 29.9369L51.8839 32.4557C52.1374 32.3101 52.3734 32.1361 52.5874 31.9369C53.2475 31.2392 53.6107 30.3122 53.6004 29.3518C53.59 28.3913 53.2069 27.4724 52.5318 26.7891Z" fill="white"/>
<path d="M51.8269 32.7332C51.7853 32.7354 51.7437 32.7283 51.7053 32.7123C51.6668 32.6963 51.6324 32.6719 51.6047 32.6408L49.086 30.1221C49.0512 30.0943 49.0232 30.0591 49.0039 30.019C48.9846 29.9789 48.9746 29.935 48.9746 29.8905C48.9746 29.846 48.9846 29.8021 49.0039 29.762C49.0232 29.7219 49.0512 29.6867 49.086 29.6589L52.2338 26.5666C52.2643 26.5207 52.3055 26.4831 52.354 26.4571C52.4025 26.4311 52.4566 26.4175 52.5116 26.4175C52.5666 26.4175 52.6208 26.4311 52.6692 26.4571C52.7177 26.4831 52.759 26.5207 52.7894 26.5666C53.1589 26.9286 53.4525 27.3608 53.653 27.8378C53.8534 28.3148 53.9566 28.8269 53.9566 29.3443C53.9566 29.8617 53.8534 30.3739 53.653 30.8508C53.4525 31.3278 53.1589 31.76 52.7894 32.1221C52.5714 32.3533 52.322 32.5527 52.0484 32.7144C51.9796 32.7491 51.8999 32.7559 51.8262 32.7332H51.8269ZM49.7901 29.8818L51.8825 31.9742C52.0264 31.8733 52.1626 31.7619 52.2901 31.6408C52.9052 31.0274 53.2516 30.1949 53.2533 29.3263C53.2547 28.5489 52.9713 27.7979 52.4568 27.2152L49.7901 29.8818Z" fill="#FF6C37"/>
<path d="M47.8828 32.3266C47.632 32.0911 47.3008 31.96 46.9567 31.96C46.6127 31.96 46.2815 32.0911 46.0307 32.3266L37.6426 40.696L39.0315 42.1036L47.9015 34.3259C48.0368 34.1963 48.1441 34.0403 48.2168 33.8676C48.2896 33.6949 48.3262 33.5092 48.3244 33.3219C48.3227 33.1345 48.2826 32.9495 48.2066 32.7782C48.1307 32.6069 48.0205 32.453 47.8828 32.3259V32.3266Z" fill="white"/>
<path d="M38.9578 42.4376C38.8748 42.4356 38.7956 42.4026 38.7356 42.3453L37.328 40.9376C37.2679 40.8755 37.2344 40.7925 37.2344 40.706C37.2344 40.6196 37.2679 40.5366 37.328 40.4744L45.7168 32.1224C45.9584 31.8811 46.267 31.7179 46.6024 31.6541C46.9379 31.5902 47.2849 31.6286 47.5982 31.7643C47.9116 31.9 48.177 32.1268 48.36 32.4151C48.543 32.7034 48.6351 33.0401 48.6244 33.3815C48.6148 33.6131 48.559 33.8406 48.4604 34.0504C48.3618 34.2603 48.2223 34.4484 48.0501 34.6037L39.18 42.3814C39.1155 42.427 39.0362 42.4469 38.9578 42.4369V42.4376ZM37.9766 40.696L38.9023 41.6404L47.6057 34.0662C47.8209 33.8787 47.9494 33.6106 47.9577 33.3252C47.9661 33.0398 47.8536 32.7606 47.6432 32.5662C47.4488 32.3727 47.1858 32.264 46.9116 32.264C46.6373 32.264 46.3743 32.3727 46.18 32.5662L37.9766 40.696Z" fill="#FF6C37"/>
<path d="M31.1432 50.233C31.1195 50.2652 31.1067 50.3042 31.1067 50.3441C31.1067 50.3841 31.1195 50.423 31.1432 50.4552L31.5133 52.0663C31.5281 52.1612 31.5141 52.2582 31.4729 52.3449C31.4318 52.4316 31.3655 52.504 31.2827 52.5525C31.2002 52.6007 31.1045 52.6215 31.0094 52.6119C30.9143 52.6023 30.8248 52.5628 30.7536 52.499L28.2168 50.0546L36.1243 42.0845H38.8653L40.7173 43.9365C37.8283 46.4625 34.607 48.581 31.1432 50.233Z" fill="white"/>
<path d="M30.9773 52.9553C30.7676 52.9512 30.5607 52.8651 30.4218 52.7144L27.9961 50.2887C27.9614 50.2609 27.9333 50.2257 27.914 50.1856C27.8948 50.1455 27.8848 50.1016 27.8848 50.0571C27.8848 50.0126 27.8948 49.9687 27.914 49.9286C27.9333 49.8885 27.9614 49.8533 27.9961 49.8255L35.9585 41.8443C36.0031 41.7969 36.0614 41.7647 36.1252 41.752H38.8842C38.9561 41.7266 39.0345 41.7266 39.1064 41.752L40.9585 43.604C40.9937 43.6365 41.0205 43.677 41.0366 43.7222C41.0527 43.7673 41.0576 43.8156 41.0509 43.8631C41.0522 43.9091 41.0428 43.9548 41.0235 43.9966C41.0043 44.0384 40.9756 44.0752 40.9397 44.104L40.7918 44.2339C37.8911 46.6522 34.6998 48.6987 31.2919 50.3262L31.644 51.8262C31.6712 51.9419 31.6723 52.0622 31.647 52.1784C31.6218 52.2946 31.571 52.4036 31.4983 52.4977C31.4256 52.5917 31.3328 52.6683 31.2266 52.7219C31.1205 52.7755 31.0038 52.8047 30.885 52.8074L30.9773 52.9553ZM28.7183 50.0477L30.903 52.2512C30.9234 52.2693 30.9497 52.2794 30.977 52.2794C31.0043 52.2794 31.0306 52.2693 31.0509 52.2512C31.0646 52.2323 31.0719 52.2096 31.0719 52.1863C31.0719 52.163 31.0646 52.1402 31.0509 52.1213L30.6808 50.5102C30.6516 50.3946 30.6634 50.2724 30.714 50.1645C30.7646 50.0565 30.851 49.9694 30.9586 49.9179C34.2748 48.3121 37.3839 46.3098 40.2175 43.9547L38.6988 42.436H36.2176L28.7183 50.0477Z" fill="#FF6C37"/>
<path d="M26.3112 51.9551L28.1633 50.103L31.0153 52.9551L26.4786 52.6405C26.4007 52.6344 26.3267 52.6038 26.2672 52.5532C26.2077 52.5026 26.1657 52.4344 26.1472 52.3585C26.1288 52.2826 26.1347 52.2028 26.1643 52.1305C26.1939 52.0581 26.2455 51.997 26.3119 51.9558L26.3112 51.9551Z" fill="white"/>
<path d="M31.0686 53.2333L26.5499 52.9187C26.2818 52.8937 26.0513 52.7103 25.9569 52.4652C25.8624 52.2201 25.92 51.9291 26.1055 51.7333L27.9575 49.8812C28.0197 49.8212 28.1027 49.7876 28.1891 49.7876C28.2755 49.7876 28.3586 49.8212 28.4207 49.8812L31.254 52.7145C31.2932 52.7682 31.3144 52.8331 31.3144 52.8996C31.3144 52.9661 31.2932 53.0309 31.254 53.0847C31.2112 53.1539 31.1456 53.2062 31.0686 53.2326V53.2333ZM26.5499 52.1965L30.2533 52.4374L28.2165 50.5298L26.5499 52.1965Z" fill="#FF6C37"/>
<path d="M39.1237 42.3085L35.3828 42.8827L37.5494 40.7349L39.1237 42.3085Z" fill="white"/>
<path d="M35.3846 43.2331C35.3224 43.2347 35.2611 43.218 35.2084 43.185C35.1556 43.152 35.1138 43.1043 35.088 43.0477C35.0486 42.994 35.0273 42.9292 35.0273 42.8626C35.0273 42.796 35.0486 42.7312 35.088 42.6775L37.2359 40.5108C37.3011 40.4496 37.3871 40.4155 37.4765 40.4155C37.5659 40.4155 37.652 40.4496 37.7172 40.5108L39.2921 42.0845C39.3236 42.1344 39.3403 42.1921 39.3403 42.2511C39.3403 42.3101 39.3236 42.3679 39.2921 42.4178C39.2767 42.4786 39.244 42.5337 39.1981 42.5764C39.1521 42.6192 39.0949 42.6477 39.0331 42.6588L35.3297 43.2331H35.3846ZM37.5512 41.2143L36.3477 42.4178L38.422 42.1032L37.5512 41.2143Z" fill="#FF6C37"/>
<path d="M39.1236 42.3067L36.5126 42.6401C36.4427 42.6559 36.3696 42.6489 36.304 42.6199C36.2385 42.5909 36.184 42.5416 36.1487 42.4793C36.1134 42.4169 36.0992 42.3448 36.108 42.2737C36.1169 42.2026 36.1485 42.1363 36.198 42.0845L37.5501 40.7324L39.1236 42.3067Z" fill="white"/>
<path d="M36.4385 42.9928C36.3175 42.9916 36.199 42.9585 36.0949 42.8966C35.9909 42.8348 35.905 42.7465 35.8462 42.6407C35.7755 42.514 35.7481 42.3676 35.7681 42.2238C35.7882 42.0801 35.8546 41.9468 35.9573 41.8442L37.3094 40.4921C37.3745 40.4309 37.4606 40.3968 37.55 40.3968C37.6394 40.3968 37.7255 40.4309 37.7906 40.4921L39.3649 42.0664C39.4117 42.1108 39.4447 42.1678 39.4597 42.2305C39.4748 42.2932 39.4714 42.3589 39.4498 42.4197C39.4283 42.4805 39.3896 42.5337 39.3384 42.573C39.2872 42.6122 39.2257 42.6357 39.1614 42.6407L36.5691 42.9741L36.4385 42.9928ZM36.4385 42.3074L38.4017 42.0664L37.5316 41.1963L36.4205 42.3074H36.4385ZM52.5495 28.9186C52.5146 28.8602 52.4595 28.8166 52.3946 28.7961C52.3297 28.7756 52.2595 28.7797 52.1974 28.8075C52.1668 28.823 52.1396 28.8445 52.1174 28.8708C52.0952 28.897 52.0785 28.9275 52.0683 28.9603C52.0477 29.0265 52.0541 29.0981 52.0863 29.1596C52.2162 29.4325 52.1801 29.7554 51.994 29.9929C51.9708 30.0158 51.9527 30.0432 51.9408 30.0734C51.9288 30.1037 51.9233 30.1361 51.9245 30.1686C51.9252 30.2337 51.9499 30.2963 51.994 30.3443C52.0415 30.363 52.0944 30.363 52.1419 30.3443C52.185 30.3551 52.2303 30.3539 52.2728 30.3408C52.3152 30.3277 52.3533 30.3032 52.3828 30.27C52.5353 30.0833 52.6319 29.8572 52.6614 29.618C52.6909 29.3788 52.6521 29.136 52.5495 28.9179V28.9186Z" fill="#FF6C37"/>
</svg>
