<svg width="81" height="81" viewBox="0 0 81 81" fill="none" xmlns="http://www.w3.org/2000/svg">
<rect x="0.421441" y="0.402642" width="79.5555" height="79.5555" rx="14" fill="white"/>
<rect x="0.421441" y="0.402642" width="79.5555" height="79.5555" rx="14" stroke="#D9D9D9" stroke-width="0.444444"/>
<path d="M61.3802 44.401C61.1218 43.6163 60.4449 43.0697 59.5696 42.9385C59.1568 42.8768 58.6841 42.9031 58.1248 43.0187C57.1498 43.2204 56.4265 43.2972 55.8986 43.3121C57.8911 39.9387 59.5113 36.0917 60.4441 32.4705C61.9523 26.615 61.1463 23.9475 60.2045 22.7409C57.712 19.5473 54.0755 17.8316 49.6884 17.7791C47.3481 17.7504 45.2936 18.2138 44.2218 18.547C43.2239 18.3704 42.151 18.2718 41.0252 18.2536C38.9148 18.2198 37.0501 18.6812 35.4569 19.6293C34.5748 19.3302 33.1591 18.9085 31.5243 18.6395C27.6792 18.0065 24.5802 18.4997 22.3134 20.1055C19.5686 22.0497 18.2961 25.4277 18.5315 30.1456C18.6062 31.6436 19.4418 36.2011 20.7575 40.5234C21.5137 43.0078 22.32 45.0708 23.1541 46.6558C24.3369 48.9034 25.6026 50.2269 27.0235 50.7023C27.8199 50.9683 29.2669 51.1547 30.7888 49.8836C30.9817 50.1179 31.2391 50.3507 31.5807 50.5669C32.0145 50.8412 32.5449 51.0654 33.0746 51.1982C34.9837 51.6768 36.7719 51.5571 38.2975 50.8863C38.3069 51.1584 38.3141 51.4183 38.3202 51.6428C38.3303 52.0069 38.3404 52.3639 38.3537 52.6978C38.4441 54.9553 38.5973 56.7107 39.0511 57.9388C39.076 58.0064 39.1095 58.1093 39.1449 58.2185C39.3713 58.9137 39.7499 60.0774 40.7131 60.9887C41.7104 61.9328 42.9169 62.2223 44.0218 62.2223C44.576 62.2223 45.1047 62.1494 45.5685 62.0498C47.2215 61.6944 49.0989 61.1533 50.457 59.2141C51.7411 57.381 52.3652 54.6199 52.4782 50.2695C52.4928 50.1464 52.5063 50.0289 52.5193 49.917L52.5462 49.6871L52.8487 49.7138L52.9266 49.719C54.6103 49.796 56.669 49.438 57.9334 48.849C58.9324 48.3842 62.134 46.6893 61.3802 44.401Z" fill="black"/>
<path d="M58.5004 44.846C53.4942 45.8816 53.1499 44.182 53.1499 44.182C58.4356 36.3171 60.6453 26.3339 58.7386 23.8905C53.5364 17.2255 44.5314 20.3776 44.3811 20.4593L44.3328 20.4681C43.3437 20.2622 42.2369 20.1396 40.9927 20.1192C38.7276 20.0821 37.0093 20.7147 35.7054 21.7062C35.7054 21.7062 19.6413 15.0701 20.3886 30.0523C20.5475 33.2396 24.9443 54.1691 30.1886 47.8475C32.1054 45.5358 33.9576 43.5812 33.9576 43.5812C34.8773 44.194 35.9786 44.5066 37.133 44.3943L37.2227 44.318C37.1948 44.605 37.2076 44.8857 37.2586 45.2181C35.9075 46.7317 36.3046 46.9974 33.6039 47.5549C30.871 48.1197 32.4764 49.1251 33.5246 49.3881C34.7954 49.7066 37.7351 50.158 39.7215 47.3696L39.6424 47.6878C40.1716 48.113 40.5433 50.4532 40.481 52.5748C40.4187 54.6963 40.3771 56.1529 40.7941 57.2906C41.2114 58.4283 41.627 60.9881 45.1775 60.2253C48.144 59.5878 49.6814 57.9357 49.8954 55.1799C50.047 53.2208 50.3906 53.5105 50.4122 51.7589L50.6877 50.9297C51.0054 48.274 50.7382 47.4172 52.5658 47.8157L53.0102 47.8549C54.3552 47.9162 56.116 47.6378 57.1494 47.1562C59.3744 46.1208 60.6941 44.3918 58.5001 44.846H58.5004Z" fill="#336791"/>
<path d="M36.6477 31.4776C36.1966 31.4147 35.788 31.4729 35.5813 31.6299C35.4652 31.7182 35.4291 31.8205 35.4194 31.8909C35.3934 32.0774 35.5237 32.2837 35.6039 32.39C35.8304 32.6911 36.1614 32.8981 36.489 32.9436C36.5364 32.9504 36.5837 32.9534 36.6307 32.9534C37.1769 32.9534 37.6737 32.5269 37.7175 32.2121C37.7722 31.8178 37.2013 31.555 36.6477 31.4778V31.4776ZM51.593 31.4901C51.5499 31.1811 51.0015 31.093 50.481 31.1655C49.9612 31.2381 49.4572 31.4734 49.4993 31.7832C49.5329 32.024 49.9667 32.4352 50.4802 32.4352C50.5236 32.4352 50.5674 32.4324 50.6115 32.4261C50.9542 32.3785 51.2057 32.1603 51.3252 32.0345C51.507 31.8428 51.6124 31.6291 51.593 31.4901Z" fill="white"/>
<path d="M60.1677 44.7285C59.9769 44.1497 59.3624 43.9635 58.3417 44.1748C55.3108 44.8021 54.2254 44.3676 53.869 44.1044C56.2249 40.5056 58.1629 36.1553 59.2084 32.0966C59.7036 30.1739 59.9772 28.3884 59.9996 26.933C60.0243 25.3356 59.753 24.1618 59.1934 23.4448C56.9374 20.5541 53.6263 19.0035 49.6183 18.961C46.8628 18.9299 44.5348 19.637 44.0835 19.8358C43.1331 19.5988 42.097 19.4533 40.969 19.4348C38.9005 19.4012 37.1124 19.8978 35.6321 20.9101C34.9891 20.67 33.3273 20.098 31.295 19.7697C27.7816 19.2025 24.9896 19.6323 22.9972 21.0476C20.6198 22.7367 19.5223 25.7558 19.7349 30.021C19.8064 31.456 20.6218 35.8704 21.9086 40.098C23.6023 45.6623 25.4436 48.8122 27.3808 49.4602C27.6075 49.536 27.8689 49.589 28.1573 49.589C28.8639 49.589 29.7304 49.2697 30.6318 48.1829C31.7313 46.8603 32.8686 45.5698 34.0424 44.3131C34.8039 44.7229 35.6405 44.9518 36.4962 44.9747C36.4979 44.9972 36.5001 45.0196 36.5021 45.0419C36.3548 45.218 36.2106 45.3967 36.0695 45.5779C35.4766 46.3326 35.3532 46.4897 33.4448 46.8837C32.9019 46.9961 31.4601 47.294 31.4389 48.3075C31.416 49.4148 33.1433 49.8799 33.3401 49.9292C34.0259 50.1013 34.6866 50.1862 35.3167 50.1862C36.849 50.1862 38.1975 49.6812 39.2752 48.704C39.242 52.6516 39.4062 56.5414 39.8788 57.7265C40.266 58.6968 41.2117 61.0679 44.199 61.0677C44.6373 61.0677 45.1197 61.0166 45.6505 60.9025C48.7682 60.2323 50.1221 58.8505 50.6458 55.8042C50.9261 54.1761 51.407 50.2885 51.6332 48.2032C52.1106 48.3526 52.7252 48.4209 53.3896 48.4208C54.7753 48.4208 56.3743 48.1255 57.3771 47.6588C58.5036 47.1342 60.5364 45.8469 60.1677 44.7285ZM52.7432 30.6371C52.733 31.2527 52.6485 31.8116 52.5589 32.395C52.4624 33.0224 52.3628 33.6711 52.3377 34.4586C52.313 35.2249 52.4084 36.0216 52.5007 36.7922C52.6872 38.3485 52.8786 39.9508 52.1377 41.5317C52.0147 41.3131 51.905 41.0871 51.8095 40.855C51.7174 40.6312 51.5174 40.2717 51.2405 39.774C50.1633 37.8369 47.6409 33.3006 48.9322 31.4496C49.3168 30.8986 50.293 30.3321 52.7432 30.6371ZM49.7731 20.2075C53.3644 20.287 56.2052 21.6342 58.2164 24.2114C59.759 26.1883 58.0604 35.183 53.1428 42.9429C53.0934 42.8799 53.0437 42.817 52.9937 42.7544L52.9314 42.6764C54.2022 40.572 53.9537 38.4898 53.7325 36.6438C53.6416 35.8863 53.5558 35.1707 53.5777 34.4986C53.6002 33.7862 53.6941 33.1752 53.785 32.5844C53.8966 31.8564 54.0103 31.103 53.979 30.215C54.0024 30.1218 54.0118 30.0117 53.9995 29.8811C53.9195 29.0295 52.9499 26.4808 50.9737 24.174C49.8927 22.9122 48.3162 21.5002 46.1637 20.5478C47.0896 20.3554 48.3556 20.176 49.7731 20.2075ZM29.6778 47.3876C28.6847 48.585 27.9989 48.3554 27.7733 48.2802C26.3038 47.7886 24.5985 44.6739 23.0951 39.7349C21.7943 35.4612 21.0341 31.1638 20.9738 29.9587C20.7839 26.1476 21.7052 23.4915 23.7123 22.0642C26.9786 19.7415 32.3488 21.1317 34.5066 21.8368C34.4757 21.8675 34.4434 21.8962 34.4127 21.9274C30.8717 25.5134 30.9557 31.6401 30.9644 32.0147C30.9641 32.1592 30.9762 32.3638 30.9927 32.6452C31.0536 33.6757 31.1671 35.5936 30.8641 37.7655C30.5826 39.7838 31.2031 41.7593 32.5661 43.1855C32.706 43.3316 32.853 43.4706 33.0066 43.6021C32.4 44.2536 31.0814 45.6945 29.6778 47.3876ZM33.4618 42.3248C32.3633 41.1752 31.8643 39.5764 32.0927 37.9377C32.4126 35.6434 32.2946 33.6451 32.2311 32.5716C32.2222 32.4213 32.2143 32.2897 32.2097 32.1859C32.727 31.7259 35.1243 30.4379 36.8339 30.8307C37.6139 31.0098 38.0893 31.5426 38.2869 32.4588C39.3097 37.2026 38.4223 39.1797 37.7092 40.7686C37.5622 41.0959 37.4234 41.4053 37.3049 41.7254L37.2129 41.9728C36.9803 42.5984 36.7638 43.1801 36.6297 43.7324C35.4618 43.729 34.3257 43.2287 33.4618 42.3246V42.3248ZM33.6411 48.7223C33.3 48.6368 32.9933 48.4885 32.8134 48.3654C32.9637 48.2945 33.2312 48.198 33.6951 48.1021C35.9402 47.6387 36.2869 47.3116 37.0441 46.3476C37.2177 46.1265 37.4144 45.876 37.687 45.5708L37.6873 45.5704C38.0932 45.1147 38.2788 45.192 38.6155 45.3321C38.8884 45.4452 39.1542 45.7882 39.2619 46.1656C39.3129 46.3439 39.3701 46.6821 39.1828 46.9455C37.6011 49.1662 35.2963 49.1377 33.6411 48.7223ZM45.3906 59.6861C42.6441 60.2762 41.6716 58.871 41.0307 57.2645C40.6172 56.2274 40.4138 51.5506 40.5581 46.3859C40.5599 46.3172 40.5502 46.2509 40.5313 46.1884C40.5144 46.0651 40.4888 45.9431 40.4545 45.8235C40.2401 45.072 39.7174 44.4434 39.0904 44.1827C38.8412 44.0793 38.384 43.8894 37.8346 44.0303C37.9518 43.5462 38.1549 42.9995 38.3753 42.4075L38.4677 42.1585C38.5717 41.8778 38.7024 41.5869 38.8404 41.2791C39.5866 39.6167 40.6086 37.3398 39.4994 32.196C39.084 30.2693 37.6966 29.3284 35.5934 29.547C34.3326 29.6778 33.179 30.1879 32.6036 30.4805C32.4799 30.5433 32.3668 30.604 32.2611 30.6631C32.4217 28.7219 33.0283 25.0941 35.2978 22.7988C36.7268 21.3538 38.6298 20.6402 40.9484 20.6787C45.517 20.7536 48.4467 23.1046 50.1001 25.0639C51.5248 26.752 52.2963 28.4527 52.6042 29.3699C50.2888 29.1338 48.714 29.5921 47.9158 30.7365C46.1791 33.226 48.8658 38.0577 50.1571 40.3799C50.394 40.8054 50.5983 41.1732 50.6626 41.3295C51.0831 42.3514 51.6275 43.0337 52.0249 43.5317C52.1468 43.6843 52.265 43.8323 52.3549 43.9616C51.6536 44.1643 50.394 44.6328 50.5088 46.9742C50.4162 48.149 49.7578 53.6495 49.4234 55.5929C48.9818 58.1603 48.0396 59.1166 45.3906 59.6863V59.6861ZM56.8548 46.5306C56.1377 46.8643 54.9376 47.1146 53.7977 47.1685C52.5385 47.2275 51.8975 47.027 51.7467 46.9036C51.676 45.4445 52.2175 45.2921 52.7907 45.1307C52.8808 45.1054 52.9686 45.0806 53.0535 45.0509C53.1062 45.0939 53.1639 45.1366 53.2272 45.1785C54.2392 45.8483 56.0442 45.9205 58.5926 45.393L58.6206 45.3875C58.2769 45.7097 57.6887 46.1422 56.8548 46.5306Z" fill="white"/>
</svg>
