<svg width="81" height="81" viewBox="0 0 81 81" fill="none" xmlns="http://www.w3.org/2000/svg">
<rect x="1.0523" y="0.402642" width="79.5555" height="79.5555" rx="14" fill="white"/>
<rect x="1.0523" y="0.402642" width="79.5555" height="79.5555" rx="14" stroke="#D9D9D9" stroke-width="0.444444"/>
<path d="M41.0004 43.9184C43.1644 43.9184 44.9187 42.1641 44.9187 40.0001C44.9187 37.8361 43.1644 36.0818 41.0004 36.0818C38.8363 36.0818 37.082 37.8361 37.082 40.0001C37.082 42.1641 38.8363 43.9184 41.0004 43.9184Z" fill="#61DAFB"/>
<path d="M40.9998 48.0277C52.6116 48.0277 62.0249 44.4336 62.0249 40C62.0249 35.5663 52.6116 31.9722 40.9998 31.9722C29.3879 31.9722 19.9746 35.5663 19.9746 40C19.9746 44.4336 29.3879 48.0277 40.9998 48.0277Z" stroke="#61DAFB" stroke-width="2.22222"/>
<path d="M34.0475 44.0139C39.8534 54.0701 47.6727 60.4252 51.5123 58.2084C55.352 55.9916 53.758 46.0423 47.952 35.9862C42.1461 25.93 34.3268 19.5749 30.4872 21.7917C26.6476 24.0085 28.2416 33.9578 34.0475 44.0139Z" stroke="#61DAFB" stroke-width="2.22222"/>
<path d="M34.0477 35.9862C28.2418 46.0424 26.6478 55.9916 30.4874 58.2084C34.327 60.4252 42.1463 54.0702 47.9523 44.014C53.7582 33.9578 55.3522 24.0086 51.5126 21.7918C47.6729 19.575 39.8537 25.93 34.0477 35.9862Z" stroke="#61DAFB" stroke-width="2.22222"/>
</svg>
