<svg width="81" height="81" viewBox="0 0 81 81" fill="none" xmlns="http://www.w3.org/2000/svg">
<rect x="1.09918" y="0.402642" width="79.5555" height="79.5555" rx="14" fill="white"/>
<rect x="1.09918" y="0.402642" width="79.5555" height="79.5555" rx="14" stroke="#D9D9D9" stroke-width="0.444444"/>
<path d="M61.4805 50.2544C59.1086 51.4907 46.8218 56.5426 44.206 57.9063C41.5902 59.2702 40.1371 59.257 38.0706 58.2691C36.0043 57.2813 22.9289 51.9997 20.5735 50.8738C19.3964 50.3113 18.7773 49.8363 18.7773 49.3877V44.8954C18.7773 44.8954 35.7999 41.1896 38.548 40.2037C41.2959 39.2177 42.2494 39.1822 44.5879 40.0388C46.9268 40.8957 60.9105 43.4186 63.2218 44.2651L63.2207 48.694C63.2211 49.1381 62.6878 49.6252 61.4805 50.2544Z" fill="#912626"/>
<path d="M61.4796 45.7885C59.1079 47.0242 46.8214 52.0763 44.2056 53.4398C41.59 54.8039 40.1369 54.7905 38.0705 53.8027C36.004 52.8155 22.9292 47.5331 20.574 46.4079C18.2188 45.282 18.1695 44.5072 20.483 43.6013C22.7966 42.6951 35.7997 37.5935 38.5481 36.6076C41.2961 35.622 42.2494 35.586 44.5879 36.443C46.9266 37.2996 59.1398 42.1609 61.4507 43.0072C63.7625 43.8546 63.8513 44.5523 61.4796 45.7885Z" fill="#C6302B"/>
<path d="M61.4805 42.9855C59.1086 44.2219 46.8218 49.2737 44.206 50.6379C41.5902 52.0013 40.1371 51.9881 38.0706 51.0002C36.0041 50.0129 22.9289 44.7308 20.5735 43.6049C19.3964 43.0424 18.7773 42.5681 18.7773 42.1193V37.6264C18.7773 37.6264 35.7999 33.9209 38.548 32.935C41.2959 31.949 42.2494 31.9133 44.5879 32.77C46.927 33.6268 60.9107 36.1492 63.2218 36.9959L63.2207 41.4252C63.2211 41.8692 62.6878 42.3563 61.4805 42.9855Z" fill="#912626"/>
<path d="M61.4796 38.5196C59.1079 39.7557 46.8214 44.8074 44.2056 46.1715C41.59 47.535 40.1369 47.5217 38.0705 46.5338C36.004 45.5467 22.9292 40.2644 20.574 39.139C18.2188 38.0135 18.1695 37.2385 20.483 36.3323C22.7966 35.4265 35.7999 30.3246 38.5481 29.3389C41.2961 28.3531 42.2494 28.3173 44.5879 29.1741C46.9266 30.0307 59.1398 34.8916 61.4507 35.7383C63.7625 36.5856 63.8513 37.2835 61.4796 38.5196Z" fill="#C6302B"/>
<path d="M61.4805 35.4471C59.1086 36.6832 46.8218 41.7353 44.206 43.0995C41.5902 44.463 40.1371 44.4497 38.0706 43.4618C36.0041 42.4745 22.9289 37.1922 20.5735 36.0668C19.3964 35.5038 18.7773 35.0293 18.7773 34.5811V30.088C18.7773 30.088 35.7999 26.3826 38.548 25.3969C41.2959 24.4108 42.2494 24.3753 44.5879 25.2319C46.927 26.0887 60.9107 28.6111 63.2218 29.4578L63.2207 33.887C63.2211 34.3306 62.6878 34.8177 61.4805 35.4471Z" fill="#912626"/>
<path d="M61.4795 30.9813C59.1078 32.2174 46.8213 37.2695 44.2055 38.633C41.5899 39.9966 40.1368 39.9832 38.0704 38.9959C36.0041 38.008 22.9291 32.7261 20.5741 31.6006C18.2187 30.4752 18.1696 29.7 20.4829 28.794C22.7965 27.8881 35.7998 22.7868 38.548 21.8007C41.296 20.8148 42.2493 20.7794 44.5878 21.6362C46.9265 22.4929 59.1397 27.3539 61.4506 28.2006C63.7625 29.0471 63.8512 29.7452 61.4795 30.9813Z" fill="#C6302B"/>
<path d="M46.4314 26.6111L42.6102 27.0078L41.7548 29.0661L40.3732 26.7692L35.9609 26.3727L39.2533 25.1854L38.2654 23.3628L41.3479 24.5683L44.2538 23.617L43.4684 25.5015L46.4314 26.6111ZM41.5267 36.5968L34.3953 33.639L44.6141 32.0704L41.5267 36.5968ZM31.6396 27.7551C34.656 27.7551 37.1014 28.7031 37.1014 29.8722C37.1014 31.0416 34.656 31.9893 31.6396 31.9893C28.6231 31.9893 26.1777 31.0414 26.1777 29.8722C26.1777 28.7031 28.6231 27.7551 31.6396 27.7551Z" fill="white"/>
<path d="M50.9473 27.1738L56.9952 29.5637L50.9525 31.9514L50.9473 27.1736" fill="#621B1C"/>
<path d="M44.2559 29.8203L50.9468 27.1736L50.952 31.9512L50.296 32.2078L44.2559 29.8203Z" fill="#9A2928"/>
</svg>
