<svg width="81" height="81" viewBox="0 0 81 81" fill="none" xmlns="http://www.w3.org/2000/svg">
<rect x="1.0523" y="1.09014" width="79.5555" height="79.5555" rx="14" fill="white"/>
<rect x="1.0523" y="1.09014" width="79.5555" height="79.5555" rx="14" stroke="#D9D9D9" stroke-width="0.444444"/>
<path d="M57.0475 43.4952C55.497 43.5033 54.1494 43.8768 53.021 44.4288C52.607 43.6089 52.193 42.8783 52.1199 42.3425C52.0387 41.7174 51.9413 41.3358 52.0387 40.589C52.1361 39.8421 52.5745 38.7787 52.5664 38.6975C52.5583 38.6163 52.469 38.2348 51.576 38.2267C50.683 38.2186 49.9118 38.3971 49.8225 38.6326C49.7332 38.868 49.5627 39.4038 49.4491 39.9558C49.2948 40.7676 47.6631 43.6657 46.7296 45.1838C46.4292 44.5911 46.1694 44.0716 46.1126 43.6576C46.0314 43.0325 45.934 42.651 46.0314 41.9041C46.1288 41.1572 46.5672 40.0938 46.5591 40.0126C46.551 39.9314 46.4617 39.5499 45.5687 39.5418C44.6757 39.5337 43.9045 39.7123 43.8152 39.9477C43.7259 40.1831 43.6285 40.7351 43.4418 41.2709C43.2551 41.8067 41.0876 46.645 40.5193 47.8951C40.2271 48.5365 39.9754 49.0479 39.7968 49.397C39.7968 49.397 39.7887 49.4213 39.7644 49.4619C39.6101 49.7623 39.5208 49.9246 39.5208 49.9246C39.5208 49.9246 39.5208 49.9246 39.5208 49.9328C39.3991 50.1519 39.2692 50.3549 39.2042 50.3549C39.1555 50.3549 39.0662 49.7704 39.2205 48.9748C39.5452 47.2944 40.3164 44.6804 40.3083 44.5911C40.3083 44.5424 40.4544 44.0878 39.805 43.8524C39.1718 43.617 38.9445 44.0066 38.8876 44.0066C38.8308 44.0066 38.7902 44.1447 38.7902 44.1447C38.7902 44.1447 39.4965 41.206 37.4426 41.206C36.16 41.206 34.3903 42.6104 33.5136 43.8768C32.9615 44.1771 31.7844 44.8184 30.5261 45.5085C30.0472 45.7764 29.552 46.0443 29.0893 46.2959C29.0568 46.2634 29.0243 46.2228 28.9919 46.1904C26.5078 43.5358 21.913 41.6606 22.1078 38.0968C22.1809 36.7979 22.6274 33.3884 30.932 29.2482C37.7674 25.8793 43.2064 26.8128 44.1481 28.8829C45.4956 31.8378 41.2337 37.3256 34.1711 38.1211C31.4759 38.4215 30.0634 37.3824 29.7062 36.9927C29.3328 36.5868 29.276 36.5625 29.138 36.6437C28.9107 36.7654 29.0568 37.1307 29.138 37.3418C29.349 37.8938 30.2177 38.868 31.687 39.3469C32.9859 39.7691 36.1438 40.0045 39.9673 38.527C44.2455 36.871 47.5901 32.2681 46.6078 28.4121C45.6255 24.4992 39.1312 23.2085 32.9859 25.3922C29.3328 26.6911 25.3712 28.7368 22.5218 31.3995C19.1367 34.5655 18.6009 37.3175 18.8201 38.4702C19.6075 42.5617 25.2495 45.2243 27.5063 47.197C27.3926 47.2619 27.2871 47.3188 27.1978 47.3675C26.0694 47.9276 21.7669 50.1763 20.6953 52.5548C19.4776 55.25 20.8901 57.1821 21.8237 57.4419C24.7218 58.2455 27.7011 56.8005 29.3003 54.4139C30.8996 52.0272 30.7047 48.9261 29.966 47.5055C29.9579 47.4892 29.9498 47.473 29.9335 47.4568C30.2258 47.2863 30.5261 47.1077 30.8184 46.9372C31.3948 46.5963 31.963 46.2797 32.4501 46.0199C32.1741 46.7749 31.9711 47.676 31.8737 48.9748C31.752 50.501 32.377 52.4818 33.197 53.2611C33.5623 53.6021 33.9925 53.6102 34.2685 53.6102C35.2264 53.6102 35.6567 52.8146 36.1356 51.8729C36.7201 50.7202 37.2478 49.3807 37.2478 49.3807C37.2478 49.3807 36.5903 53.0013 38.3762 53.0013C39.0256 53.0013 39.6832 52.1571 39.9754 51.7268C39.9754 51.7349 39.9754 51.7349 39.9754 51.7349C39.9754 51.7349 39.9917 51.7106 40.0241 51.6538C40.0891 51.5482 40.1297 51.4833 40.1297 51.4833C40.1297 51.4833 40.1297 51.4752 40.1297 51.467C40.3895 51.0124 40.9739 49.9815 41.8426 48.2686C42.9628 46.0605 44.0425 43.3004 44.0425 43.3004C44.0425 43.3004 44.1399 43.9742 44.4728 45.0945C44.6676 45.752 45.0735 46.4745 45.3982 47.1726C45.1385 47.538 44.9761 47.7409 44.9761 47.7409C44.9761 47.7409 44.9761 47.7409 44.9842 47.749C44.7731 48.025 44.5458 48.3254 44.2942 48.6176C43.4093 49.673 42.354 50.8826 42.2079 51.2316C42.0374 51.6456 42.078 51.946 42.4027 52.1895C42.6381 52.3681 43.0603 52.3925 43.4905 52.3681C44.2861 52.3113 44.8462 52.1165 45.1222 51.9947C45.5525 51.8405 46.0558 51.605 46.5266 51.256C47.3952 50.6147 47.9229 49.6973 47.8742 48.4878C47.8498 47.8221 47.6307 47.1564 47.3628 46.5313C47.444 46.4177 47.517 46.304 47.5982 46.1904C48.9701 44.1852 50.0336 41.9853 50.0336 41.9853C50.0336 41.9853 50.131 42.6591 50.4638 43.7793C50.6262 44.3476 50.959 44.9646 51.2513 45.5653C49.9605 46.6125 49.165 47.8302 48.8808 48.6258C48.3694 50.1032 48.7672 50.7689 49.5221 50.9231C49.8631 50.9962 50.3502 50.8338 50.7074 50.6796C51.162 50.5335 51.6978 50.2818 52.2092 49.9084C53.0778 49.2671 53.914 48.3741 53.8652 47.1645C53.8409 46.6125 53.6948 46.0686 53.4918 45.5409C54.5877 45.0863 56.0003 44.8347 57.8025 45.0457C61.6666 45.5004 62.4297 47.9114 62.2836 48.9261C62.1374 49.9409 61.3256 50.4929 61.0578 50.6634C60.7899 50.8338 60.7006 50.8907 60.7249 51.0124C60.7574 51.191 60.8873 51.1829 61.1146 51.1504C61.4312 51.0936 63.1441 50.3305 63.2171 48.4634C63.3389 46.0767 61.0659 43.4709 57.0475 43.4952ZM27.2384 53.5452C25.9557 54.9415 24.1698 55.4692 23.3986 55.0227C22.5706 54.5437 22.8953 52.4818 24.4702 51.0043C25.4281 50.1032 26.662 49.2671 27.4819 48.7556C27.6686 48.642 27.9446 48.4796 28.2775 48.2767C28.3343 48.2442 28.3668 48.228 28.3668 48.228C28.4317 48.1874 28.4967 48.1468 28.5616 48.1062C29.138 50.2169 28.586 52.0759 27.2384 53.5452ZM36.574 47.197C36.1275 48.2848 35.194 51.0693 34.6257 50.915C34.1386 50.7851 33.8383 48.6745 34.5283 46.5882C34.8774 45.5409 35.6161 44.2908 36.0464 43.8037C36.7445 43.0244 37.5157 42.7646 37.7024 43.0812C37.9378 43.4952 36.85 46.5151 36.574 47.197ZM44.278 50.8826C44.0912 50.98 43.9126 51.0449 43.8315 50.9962C43.7746 50.9637 43.9126 50.8338 43.9126 50.8338C43.9126 50.8338 44.8787 49.7947 45.2602 49.3239C45.4794 49.0479 45.7392 48.7232 46.0152 48.3579C46.0152 48.3903 46.0152 48.4309 46.0152 48.4634C46.0152 49.7055 44.8137 50.5416 44.278 50.8826ZM50.2203 49.5269C50.0823 49.4294 50.1066 49.1047 50.5694 48.09C50.748 47.6922 51.1701 47.0265 51.8926 46.3852C51.9738 46.645 52.0306 46.8966 52.0225 47.1321C52.0144 48.6988 50.8941 49.2833 50.2203 49.5269Z" fill="#CD6799"/>
</svg>
