<svg width="81" height="81" viewBox="0 0 81 81" fill="none" xmlns="http://www.w3.org/2000/svg">
<rect x="0.421441" y="0.402398" width="79.5555" height="79.5555" rx="14" fill="white"/>
<rect x="0.421441" y="0.402398" width="79.5555" height="79.5555" rx="14" stroke="#D9D9D9" stroke-width="0.444444"/>
<path d="M27.6516 17.7778H52.26C53.4574 17.7778 54.6202 17.9688 55.7482 18.3681C57.3795 18.9584 58.8546 20.0001 59.9653 21.3542C61.0933 22.7084 61.8396 24.3751 62.0999 26.1112C62.204 26.7535 62.2214 27.3959 62.2214 28.0382V52.0487C62.2214 52.8126 62.1867 53.5938 62.0305 54.3403C61.6834 56.0591 60.8677 57.6737 59.6876 58.9757C58.5249 60.2778 56.9977 61.2501 55.3491 61.7709C54.3425 62.0834 53.3013 62.2223 52.2426 62.2223C51.7741 62.2223 27.5821 62.2223 27.2177 62.2049C25.4476 62.1181 23.6948 61.5452 22.2196 60.5556C20.7792 59.5834 19.5991 58.2292 18.8356 56.6667C18.1761 55.3299 17.8464 53.8369 17.8464 52.3438V27.6563C17.8116 26.1806 18.124 24.7223 18.7661 23.4028C19.5124 21.8403 20.6751 20.4688 22.1155 19.4966C23.5906 18.4896 25.3261 17.8994 27.0962 17.8126C27.2698 17.7778 27.4607 17.7778 27.6516 17.7778Z" fill="url(#paint0_linear_1546_74324)"/>
<path d="M55.2627 54.132C55.1065 53.8889 54.9329 53.6459 54.742 53.4202C54.3082 52.8994 53.8049 52.448 53.2496 52.066C52.5554 51.5973 51.7397 51.3021 50.9067 51.2674C50.3167 51.2327 49.7266 51.3369 49.1713 51.5452C48.616 51.7362 48.078 52.0139 47.5573 52.2917C46.9499 52.6042 46.3425 52.9167 45.7004 53.1771C44.9368 53.4896 44.1385 53.7327 43.3229 53.9063C42.299 54.0973 41.2577 54.1667 40.2338 54.1494C38.3769 54.1146 36.52 53.8369 34.7499 53.316C33.188 52.8473 31.6955 52.2049 30.2898 51.3889C29.0576 50.6771 27.9123 49.8612 26.8363 48.941C25.9512 48.1771 25.1356 47.3612 24.372 46.4931C23.8514 45.8855 23.3481 45.2431 22.8795 44.5834C22.6886 44.323 22.5151 44.0452 22.3589 43.7674L17.7773 38.8195V27.6216C17.7773 22.1876 22.168 17.7778 27.5999 17.7778H36.3638L42.8543 24.3751C57.5014 34.3403 52.7636 45.3299 52.7636 45.3299C52.7636 45.3299 56.9287 50.0174 55.2627 54.132Z" fill="url(#paint1_linear_1546_74324)"/>
<path d="M42.8895 24.375C57.5365 34.3403 52.7988 45.3299 52.7988 45.3299C52.7988 45.3299 56.9638 50.0347 55.2804 54.1493C55.2804 54.1493 53.5624 51.2674 50.6816 51.2674C47.9049 51.2674 46.2736 54.1493 40.6855 54.1493C28.2425 54.1493 22.3594 43.75 22.3594 43.75C33.5702 51.1285 41.2235 45.9028 41.2235 45.9028C36.1734 42.9688 25.4311 28.941 25.4311 28.941C34.785 36.9097 38.8286 39.0104 38.8286 39.0104C36.4163 37.0139 29.6482 27.2569 29.6482 27.2569C35.0627 32.7431 45.8224 40.3993 45.8224 40.3993C48.8767 31.9271 42.8895 24.375 42.8895 24.375Z" fill="white"/>
<defs>
<linearGradient id="paint0_linear_1546_74324" x1="44.206" y1="16.1919" x2="35.8059" y2="63.8125" gradientUnits="userSpaceOnUse">
<stop stop-color="#FAAE42"/>
<stop offset="1" stop-color="#EF3E31"/>
</linearGradient>
<linearGradient id="paint1_linear_1546_74324" x1="40.4442" y1="18.4959" x2="34.2962" y2="53.3487" gradientUnits="userSpaceOnUse">
<stop stop-color="#E39F3A"/>
<stop offset="1" stop-color="#D33929"/>
</linearGradient>
</defs>
</svg>
