<svg width="246" height="48" viewBox="0 0 246 48" fill="none" xmlns="http://www.w3.org/2000/svg">
<path d="M0 24C0 10.7452 10.7452 0 24 0H222C235.255 0 246 10.7452 246 24C246 37.2548 235.255 48 222 48H0V24Z" fill="#F6F3EF"/>
<path d="M27.4659 19.8182V30H26.233V19.8182H27.4659ZM34.8897 25.4062V30H33.7164V22.3636H34.85V23.5568H34.9494C35.1284 23.169 35.4002 22.8575 35.7647 22.6222C36.1293 22.3835 36.6 22.2642 37.1767 22.2642C37.6937 22.2642 38.1461 22.3703 38.5339 22.5824C38.9217 22.7912 39.2233 23.1094 39.4387 23.5369C39.6542 23.9612 39.7619 24.4981 39.7619 25.1477V30H38.5886V25.2273C38.5886 24.6274 38.4328 24.16 38.1213 23.8253C37.8097 23.4872 37.3822 23.3182 36.8386 23.3182C36.4641 23.3182 36.1293 23.3994 35.8343 23.5618C35.5427 23.7242 35.3123 23.9612 35.1433 24.2727C34.9743 24.5843 34.8897 24.9621 34.8897 25.4062ZM45.1076 30.1591C44.3718 30.1591 43.7371 29.9967 43.2035 29.6719C42.6732 29.3438 42.2638 28.8864 41.9755 28.2997C41.6905 27.7098 41.5479 27.0237 41.5479 26.2415C41.5479 25.4593 41.6905 24.7699 41.9755 24.1733C42.2638 23.5734 42.6649 23.1061 43.1786 22.7713C43.6957 22.4332 44.2989 22.2642 44.9883 22.2642C45.386 22.2642 45.7788 22.3305 46.1665 22.4631C46.5543 22.5956 46.9073 22.8111 47.2255 23.1094C47.5437 23.4044 47.7972 23.7955 47.9862 24.2827C48.1751 24.7699 48.2695 25.3698 48.2695 26.0824V26.5795H42.3832V25.5653H47.0763C47.0763 25.1345 46.9902 24.75 46.8178 24.4119C46.6488 24.0739 46.4068 23.8071 46.092 23.6115C45.7804 23.416 45.4125 23.3182 44.9883 23.3182C44.521 23.3182 44.1166 23.4342 43.7752 23.6662C43.4371 23.8949 43.177 24.1932 42.9947 24.5611C42.8124 24.929 42.7212 25.3234 42.7212 25.7443V26.4205C42.7212 26.9972 42.8207 27.486 43.0195 27.8871C43.2217 28.2848 43.5018 28.5881 43.8597 28.7969C44.2177 29.0024 44.6336 29.1051 45.1076 29.1051C45.4158 29.1051 45.6942 29.062 45.9428 28.9759C46.1947 28.8864 46.4118 28.7538 46.5941 28.5781C46.7764 28.3991 46.9173 28.1771 47.0167 27.9119L48.1502 28.2301C48.0309 28.6146 47.8304 28.9527 47.5487 29.2443C47.2669 29.5327 46.9189 29.758 46.5046 29.9205C46.0903 30.0795 45.6246 30.1591 45.1076 30.1591ZM53.256 30.1591C52.5202 30.1591 51.8855 29.9967 51.3519 29.6719C50.8216 29.3438 50.4123 28.8864 50.1239 28.2997C49.8389 27.7098 49.6964 27.0237 49.6964 26.2415C49.6964 25.4593 49.8389 24.7699 50.1239 24.1733C50.4123 23.5734 50.8133 23.1061 51.3271 22.7713C51.8441 22.4332 52.4473 22.2642 53.1367 22.2642C53.5344 22.2642 53.9272 22.3305 54.315 22.4631C54.7028 22.5956 55.0558 22.8111 55.3739 23.1094C55.6921 23.4044 55.9457 23.7955 56.1346 24.2827C56.3235 24.7699 56.418 25.3698 56.418 26.0824V26.5795H50.5316V25.5653H55.2248C55.2248 25.1345 55.1386 24.75 54.9663 24.4119C54.7972 24.0739 54.5553 23.8071 54.2404 23.6115C53.9289 23.416 53.561 23.3182 53.1367 23.3182C52.6694 23.3182 52.265 23.4342 51.9237 23.6662C51.5856 23.8949 51.3254 24.1932 51.1431 24.5611C50.9608 24.929 50.8697 25.3234 50.8697 25.7443V26.4205C50.8697 26.9972 50.9691 27.486 51.168 27.8871C51.3701 28.2848 51.6502 28.5881 52.0082 28.7969C52.3661 29.0024 52.7821 29.1051 53.256 29.1051C53.5643 29.1051 53.8427 29.062 54.0913 28.9759C54.3432 28.8864 54.5603 28.7538 54.7425 28.5781C54.9248 28.3991 55.0657 28.1771 55.1651 27.9119L56.2987 28.2301C56.1793 28.6146 55.9788 28.9527 55.6971 29.2443C55.4154 29.5327 55.0674 29.758 54.6531 29.9205C54.2388 30.0795 53.7731 30.1591 53.256 30.1591ZM61.0863 30.1591C60.4499 30.1591 59.8881 29.9983 59.4009 29.6768C58.9137 29.352 58.5326 28.8946 58.2575 28.3047C57.9824 27.7114 57.8448 27.0104 57.8448 26.2017C57.8448 25.3996 57.9824 24.7036 58.2575 24.1136C58.5326 23.5237 58.9154 23.0679 59.4059 22.7464C59.8964 22.425 60.4632 22.2642 61.1062 22.2642C61.6033 22.2642 61.9961 22.3471 62.2844 22.5128C62.5761 22.6752 62.7982 22.8608 62.9506 23.0696C63.1064 23.2751 63.2274 23.4441 63.3136 23.5767H63.413V19.8182H64.5863V30H63.4528V28.8267H63.3136C63.2274 28.9659 63.1048 29.1416 62.9457 29.3537C62.7866 29.5625 62.5595 29.7498 62.2646 29.9155C61.9696 30.0779 61.5768 30.1591 61.0863 30.1591ZM61.2454 29.1051C61.716 29.1051 62.1138 28.9825 62.4386 28.7372C62.7634 28.4886 63.0103 28.1456 63.1793 27.7081C63.3484 27.2673 63.4329 26.7585 63.4329 26.1818C63.4329 25.6117 63.35 25.1129 63.1843 24.6854C63.0186 24.2545 62.7733 23.9197 62.4485 23.6811C62.1237 23.4392 61.7227 23.3182 61.2454 23.3182C60.7482 23.3182 60.3339 23.4458 60.0025 23.701C59.6744 23.9529 59.4274 24.2959 59.2617 24.7301C59.0993 25.161 59.0181 25.6449 59.0181 26.1818C59.0181 26.7254 59.101 27.2192 59.2667 27.6634C59.4357 28.1042 59.6843 28.4555 60.0124 28.7173C60.3439 28.9759 60.7549 29.1051 61.2454 29.1051ZM73.0827 30.179C72.5988 30.179 72.1597 30.0878 71.7653 29.9055C71.3709 29.7199 71.0576 29.4531 70.8256 29.1051C70.5936 28.7538 70.4776 28.3295 70.4776 27.8324C70.4776 27.3949 70.5638 27.0402 70.7362 26.7685C70.9085 26.4934 71.1388 26.2779 71.4272 26.1222C71.7156 25.9664 72.0337 25.8504 72.3817 25.7741C72.7331 25.6946 73.0861 25.6316 73.4407 25.5852C73.9047 25.5256 74.2809 25.4808 74.5692 25.451C74.8609 25.4179 75.073 25.3632 75.2056 25.2869C75.3415 25.2107 75.4094 25.0781 75.4094 24.8892V24.8494C75.4094 24.3589 75.2752 23.9777 75.0067 23.706C74.7416 23.4342 74.3389 23.2983 73.7987 23.2983C73.2385 23.2983 72.7994 23.4209 72.4812 23.6662C72.163 23.9115 71.9393 24.1733 71.81 24.4517L70.6964 24.054C70.8952 23.59 71.1604 23.2287 71.4918 22.9702C71.8266 22.7083 72.1912 22.526 72.5856 22.4233C72.9833 22.3172 73.3744 22.2642 73.7589 22.2642C74.0041 22.2642 74.2859 22.294 74.604 22.3537C74.9255 22.41 75.2354 22.5277 75.5337 22.7067C75.8353 22.8857 76.0856 23.1558 76.2844 23.517C76.4833 23.8783 76.5827 24.3622 76.5827 24.9688V30H75.4094V28.9659H75.3498C75.2702 29.1316 75.1377 29.3089 74.9521 29.4979C74.7665 29.6868 74.5195 29.8475 74.2113 29.9801C73.9031 30.1127 73.5269 30.179 73.0827 30.179ZM73.2617 29.125C73.7257 29.125 74.1168 29.0339 74.435 28.8516C74.7565 28.6693 74.9985 28.4339 75.1609 28.1456C75.3266 27.8572 75.4094 27.554 75.4094 27.2358V26.1619C75.3597 26.2216 75.2504 26.2763 75.0813 26.326C74.9156 26.3724 74.7234 26.4138 74.5046 26.4503C74.2892 26.4834 74.0787 26.5133 73.8732 26.5398C73.671 26.563 73.507 26.5829 73.381 26.5994C73.0761 26.6392 72.7911 26.7038 72.5259 26.7933C72.2641 26.8795 72.052 27.0104 71.8896 27.1861C71.7305 27.3584 71.6509 27.5937 71.6509 27.892C71.6509 28.2997 71.8017 28.608 72.1033 28.8168C72.4083 29.0223 72.7944 29.125 73.2617 29.125ZM84.3919 30L82.0652 22.3636H83.2981L84.9487 28.2102H85.0282L86.6589 22.3636H87.9118L89.5225 28.1903H89.6021L91.2527 22.3636H92.4856L90.1589 30H89.0055L87.335 24.1335H87.2157L85.5453 30H84.3919ZM96.9787 30.1591C96.2429 30.1591 95.6082 29.9967 95.0746 29.6719C94.5443 29.3438 94.1349 28.8864 93.8466 28.2997C93.5616 27.7098 93.419 27.0237 93.419 26.2415C93.419 25.4593 93.5616 24.7699 93.8466 24.1733C94.1349 23.5734 94.536 23.1061 95.0497 22.7713C95.5668 22.4332 96.17 22.2642 96.8594 22.2642C97.2571 22.2642 97.6499 22.3305 98.0376 22.4631C98.4254 22.5956 98.7784 22.8111 99.0966 23.1094C99.4148 23.4044 99.6683 23.7955 99.8572 24.2827C100.046 24.7699 100.141 25.3698 100.141 26.0824V26.5795H94.2543V25.5653H98.9474C98.9474 25.1345 98.8613 24.75 98.6889 24.4119C98.5199 24.0739 98.2779 23.8071 97.9631 23.6115C97.6515 23.416 97.2836 23.3182 96.8594 23.3182C96.392 23.3182 95.9877 23.4342 95.6463 23.6662C95.3082 23.8949 95.0481 24.1932 94.8658 24.5611C94.6835 24.929 94.5923 25.3234 94.5923 25.7443V26.4205C94.5923 26.9972 94.6918 27.486 94.8906 27.8871C95.0928 28.2848 95.3729 28.5881 95.7308 28.7969C96.0888 29.0024 96.5047 29.1051 96.9787 29.1051C97.2869 29.1051 97.5653 29.062 97.8139 28.9759C98.0658 28.8864 98.2829 28.7538 98.4652 28.5781C98.6475 28.3991 98.7884 28.1771 98.8878 27.9119L100.021 28.2301C99.902 28.6146 99.7015 28.9527 99.4197 29.2443C99.138 29.5327 98.79 29.758 98.3757 29.9205C97.9614 30.0795 97.4957 30.1591 96.9787 30.1591ZM102.085 30V19.8182H103.258V23.5767H103.357C103.443 23.4441 103.563 23.2751 103.715 23.0696C103.871 22.8608 104.093 22.6752 104.381 22.5128C104.673 22.3471 105.067 22.2642 105.565 22.2642C106.208 22.2642 106.774 22.425 107.265 22.7464C107.755 23.0679 108.138 23.5237 108.413 24.1136C108.688 24.7036 108.826 25.3996 108.826 26.2017C108.826 27.0104 108.688 27.7114 108.413 28.3047C108.138 28.8946 107.757 29.352 107.27 29.6768C106.783 29.9983 106.221 30.1591 105.585 30.1591C105.094 30.1591 104.701 30.0779 104.406 29.9155C104.111 29.7498 103.884 29.5625 103.725 29.3537C103.566 29.1416 103.443 28.9659 103.357 28.8267H103.218V30H102.085ZM103.238 26.1818C103.238 26.7585 103.322 27.2673 103.491 27.7081C103.661 28.1456 103.907 28.4886 104.232 28.7372C104.557 28.9825 104.955 29.1051 105.425 29.1051C105.916 29.1051 106.325 28.9759 106.653 28.7173C106.985 28.4555 107.233 28.1042 107.399 27.6634C107.568 27.2192 107.653 26.7254 107.653 26.1818C107.653 25.6449 107.57 25.161 107.404 24.7301C107.242 24.2959 106.995 23.9529 106.663 23.701C106.335 23.4458 105.923 23.3182 105.425 23.3182C104.948 23.3182 104.547 23.4392 104.222 23.6811C103.897 23.9197 103.652 24.2545 103.487 24.6854C103.321 25.1129 103.238 25.6117 103.238 26.1818ZM116.03 24.0739L114.976 24.3722C114.91 24.1965 114.812 24.0258 114.683 23.8601C114.557 23.6911 114.384 23.5518 114.165 23.4425C113.947 23.3331 113.667 23.2784 113.325 23.2784C112.858 23.2784 112.469 23.3861 112.157 23.6016C111.849 23.8137 111.695 24.0838 111.695 24.4119C111.695 24.7036 111.801 24.9339 112.013 25.103C112.225 25.272 112.556 25.4129 113.007 25.5256L114.141 25.804C114.823 25.9697 115.332 26.2232 115.667 26.5646C116.002 26.9027 116.169 27.3385 116.169 27.8722C116.169 28.3097 116.043 28.7008 115.791 29.0455C115.543 29.3902 115.195 29.6619 114.747 29.8608C114.3 30.0597 113.779 30.1591 113.186 30.1591C112.407 30.1591 111.763 29.9901 111.252 29.652C110.742 29.3139 110.419 28.8201 110.283 28.1705L111.396 27.892C111.502 28.303 111.703 28.6113 111.998 28.8168C112.296 29.0223 112.686 29.125 113.166 29.125C113.713 29.125 114.147 29.009 114.469 28.777C114.794 28.5417 114.956 28.2599 114.956 27.9318C114.956 27.6667 114.863 27.4446 114.678 27.2656C114.492 27.0833 114.207 26.9474 113.822 26.858L112.55 26.5597C111.85 26.3939 111.337 26.1371 111.009 25.7891C110.684 25.4377 110.521 24.9986 110.521 24.4716C110.521 24.0407 110.642 23.6596 110.884 23.3281C111.129 22.9967 111.463 22.7365 111.884 22.5476C112.308 22.3587 112.788 22.2642 113.325 22.2642C114.081 22.2642 114.674 22.4299 115.105 22.7614C115.539 23.0928 115.848 23.5303 116.03 24.0739ZM117.935 30V22.3636H119.108V30H117.935ZM118.532 21.0909C118.303 21.0909 118.106 21.013 117.94 20.8572C117.778 20.7015 117.697 20.5142 117.697 20.2955C117.697 20.0767 117.778 19.8894 117.94 19.7337C118.106 19.5779 118.303 19.5 118.532 19.5C118.76 19.5 118.956 19.5779 119.118 19.7337C119.284 19.8894 119.367 20.0767 119.367 20.2955C119.367 20.5142 119.284 20.7015 119.118 20.8572C118.956 21.013 118.76 21.0909 118.532 21.0909ZM124.578 22.3636V23.358H120.621V22.3636H124.578ZM121.775 20.5341H122.948V27.8125C122.948 28.1439 122.996 28.3925 123.092 28.5582C123.191 28.7206 123.317 28.83 123.47 28.8864C123.626 28.9394 123.79 28.9659 123.962 28.9659C124.091 28.9659 124.197 28.9593 124.28 28.946C124.363 28.9295 124.429 28.9162 124.479 28.9062L124.718 29.9602C124.638 29.9901 124.527 30.0199 124.385 30.0497C124.242 30.0829 124.061 30.0994 123.843 30.0994C123.511 30.0994 123.186 30.0282 122.868 29.8857C122.553 29.7431 122.292 29.526 122.083 29.2344C121.877 28.9427 121.775 28.5748 121.775 28.1307V20.5341ZM129.463 30.1591C128.727 30.1591 128.093 29.9967 127.559 29.6719C127.029 29.3438 126.619 28.8864 126.331 28.2997C126.046 27.7098 125.903 27.0237 125.903 26.2415C125.903 25.4593 126.046 24.7699 126.331 24.1733C126.619 23.5734 127.02 23.1061 127.534 22.7713C128.051 22.4332 128.654 22.2642 129.344 22.2642C129.741 22.2642 130.134 22.3305 130.522 22.4631C130.91 22.5956 131.263 22.8111 131.581 23.1094C131.899 23.4044 132.153 23.7955 132.342 24.2827C132.531 24.7699 132.625 25.3698 132.625 26.0824V26.5795H126.739V25.5653H131.432C131.432 25.1345 131.346 24.75 131.173 24.4119C131.004 24.0739 130.762 23.8071 130.447 23.6115C130.136 23.416 129.768 23.3182 129.344 23.3182C128.876 23.3182 128.472 23.4342 128.131 23.6662C127.793 23.8949 127.532 24.1932 127.35 24.5611C127.168 24.929 127.077 25.3234 127.077 25.7443V26.4205C127.077 26.9972 127.176 27.486 127.375 27.8871C127.577 28.2848 127.857 28.5881 128.215 28.7969C128.573 29.0024 128.989 29.1051 129.463 29.1051C129.771 29.1051 130.05 29.062 130.298 28.9759C130.55 28.8864 130.767 28.7538 130.95 28.5781C131.132 28.3991 131.273 28.1771 131.372 27.9119L132.506 28.2301C132.386 28.6146 132.186 28.9527 131.904 29.2443C131.622 29.5327 131.274 29.758 130.86 29.9205C130.446 30.0795 129.98 30.1591 129.463 30.1591ZM143.756 24.0739L142.702 24.3722C142.636 24.1965 142.538 24.0258 142.409 23.8601C142.283 23.6911 142.111 23.5518 141.892 23.4425C141.673 23.3331 141.393 23.2784 141.052 23.2784C140.585 23.2784 140.195 23.3861 139.884 23.6016C139.575 23.8137 139.421 24.0838 139.421 24.4119C139.421 24.7036 139.527 24.9339 139.739 25.103C139.951 25.272 140.283 25.4129 140.734 25.5256L141.867 25.804C142.55 25.9697 143.059 26.2232 143.393 26.5646C143.728 26.9027 143.896 27.3385 143.896 27.8722C143.896 28.3097 143.77 28.7008 143.518 29.0455C143.269 29.3902 142.921 29.6619 142.474 29.8608C142.026 30.0597 141.506 30.1591 140.913 30.1591C140.134 30.1591 139.489 29.9901 138.979 29.652C138.468 29.3139 138.145 28.8201 138.009 28.1705L139.123 27.892C139.229 28.303 139.429 28.6113 139.724 28.8168C140.023 29.0223 140.412 29.125 140.893 29.125C141.44 29.125 141.874 29.009 142.195 28.777C142.52 28.5417 142.683 28.2599 142.683 27.9318C142.683 27.6667 142.59 27.4446 142.404 27.2656C142.219 27.0833 141.933 26.9474 141.549 26.858L140.276 26.5597C139.577 26.3939 139.063 26.1371 138.735 25.7891C138.41 25.4377 138.248 24.9986 138.248 24.4716C138.248 24.0407 138.369 23.6596 138.611 23.3281C138.856 22.9967 139.189 22.7365 139.61 22.5476C140.034 22.3587 140.515 22.2642 141.052 22.2642C141.808 22.2642 142.401 22.4299 142.832 22.7614C143.266 23.0928 143.574 23.5303 143.756 24.0739ZM150.474 26.8778V22.3636H151.648V30H150.474V28.7074H150.395C150.216 29.0952 149.937 29.425 149.559 29.6967C149.182 29.9652 148.704 30.0994 148.128 30.0994C147.65 30.0994 147.226 29.995 146.855 29.7862C146.484 29.5741 146.192 29.2559 145.98 28.8317C145.768 28.4041 145.662 27.8655 145.662 27.2159V22.3636H146.835V27.1364C146.835 27.6932 146.991 28.1373 147.302 28.4688C147.617 28.8002 148.018 28.9659 148.506 28.9659C148.797 28.9659 149.094 28.8913 149.395 28.7422C149.7 28.593 149.956 28.3643 150.161 28.0561C150.37 27.7479 150.474 27.3551 150.474 26.8778ZM153.797 32.8636V22.3636H154.93V23.5767H155.069C155.155 23.4441 155.275 23.2751 155.427 23.0696C155.583 22.8608 155.805 22.6752 156.093 22.5128C156.385 22.3471 156.779 22.2642 157.277 22.2642C157.92 22.2642 158.486 22.425 158.977 22.7464C159.467 23.0679 159.85 23.5237 160.125 24.1136C160.4 24.7036 160.538 25.3996 160.538 26.2017C160.538 27.0104 160.4 27.7114 160.125 28.3047C159.85 28.8946 159.469 29.352 158.982 29.6768C158.495 29.9983 157.933 30.1591 157.297 30.1591C156.806 30.1591 156.413 30.0779 156.118 29.9155C155.823 29.7498 155.596 29.5625 155.437 29.3537C155.278 29.1416 155.155 28.9659 155.069 28.8267H154.97V32.8636H153.797ZM154.95 26.1818C154.95 26.7585 155.034 27.2673 155.203 27.7081C155.373 28.1456 155.619 28.4886 155.944 28.7372C156.269 28.9825 156.667 29.1051 157.137 29.1051C157.628 29.1051 158.037 28.9759 158.365 28.7173C158.697 28.4555 158.945 28.1042 159.111 27.6634C159.28 27.2192 159.365 26.7254 159.365 26.1818C159.365 25.6449 159.282 25.161 159.116 24.7301C158.954 24.2959 158.707 23.9529 158.375 23.701C158.047 23.4458 157.635 23.3182 157.137 23.3182C156.66 23.3182 156.259 23.4392 155.934 23.6811C155.609 23.9197 155.364 24.2545 155.199 24.6854C155.033 25.1129 154.95 25.6117 154.95 26.1818ZM165.529 30.1591C164.794 30.1591 164.159 29.9967 163.625 29.6719C163.095 29.3438 162.686 28.8864 162.397 28.2997C162.112 27.7098 161.97 27.0237 161.97 26.2415C161.97 25.4593 162.112 24.7699 162.397 24.1733C162.686 23.5734 163.087 23.1061 163.6 22.7713C164.118 22.4332 164.721 22.2642 165.41 22.2642C165.808 22.2642 166.201 22.3305 166.588 22.4631C166.976 22.5956 167.329 22.8111 167.647 23.1094C167.966 23.4044 168.219 23.7955 168.408 24.2827C168.597 24.7699 168.691 25.3698 168.691 26.0824V26.5795H162.805V25.5653H167.498C167.498 25.1345 167.412 24.75 167.24 24.4119C167.071 24.0739 166.829 23.8071 166.514 23.6115C166.202 23.416 165.834 23.3182 165.41 23.3182C164.943 23.3182 164.538 23.4342 164.197 23.6662C163.859 23.8949 163.599 24.1932 163.417 24.5611C163.234 24.929 163.143 25.3234 163.143 25.7443V26.4205C163.143 26.9972 163.243 27.486 163.441 27.8871C163.644 28.2848 163.924 28.5881 164.282 28.7969C164.64 29.0024 165.056 29.1051 165.529 29.1051C165.838 29.1051 166.116 29.062 166.365 28.9759C166.617 28.8864 166.834 28.7538 167.016 28.5781C167.198 28.3991 167.339 28.1771 167.439 27.9119L168.572 28.2301C168.453 28.6146 168.252 28.9527 167.971 29.2443C167.689 29.5327 167.341 29.758 166.926 29.9205C166.512 30.0795 166.047 30.1591 165.529 30.1591ZM170.476 30V22.3636H171.61V23.517H171.689C171.828 23.1392 172.08 22.8326 172.445 22.5973C172.81 22.362 173.221 22.2443 173.678 22.2443C173.764 22.2443 173.872 22.246 174.001 22.2493C174.13 22.2526 174.228 22.2576 174.294 22.2642V23.4574C174.255 23.4474 174.163 23.4325 174.021 23.4126C173.882 23.3894 173.734 23.3778 173.578 23.3778C173.207 23.3778 172.876 23.4557 172.584 23.6115C172.296 23.764 172.067 23.9761 171.898 24.2479C171.732 24.5163 171.65 24.8229 171.65 25.1676V30H170.476ZM183.023 22.3636V23.358H178.907V22.3636H183.023ZM180.14 30V21.3097C180.14 20.8722 180.242 20.5076 180.448 20.2159C180.653 19.9242 180.92 19.7055 181.248 19.5597C181.577 19.4138 181.923 19.3409 182.287 19.3409C182.576 19.3409 182.811 19.3641 182.993 19.4105C183.176 19.4569 183.312 19.5 183.401 19.5398L183.063 20.554C183.003 20.5341 182.921 20.5092 182.814 20.4794C182.712 20.4496 182.576 20.4347 182.407 20.4347C182.019 20.4347 181.739 20.5324 181.567 20.728C181.398 20.9235 181.313 21.2102 181.313 21.5881V30H180.14ZM186.696 30.179C186.212 30.179 185.773 30.0878 185.379 29.9055C184.984 29.7199 184.671 29.4531 184.439 29.1051C184.207 28.7538 184.091 28.3295 184.091 27.8324C184.091 27.3949 184.177 27.0402 184.349 26.7685C184.522 26.4934 184.752 26.2779 185.04 26.1222C185.329 25.9664 185.647 25.8504 185.995 25.7741C186.346 25.6946 186.699 25.6316 187.054 25.5852C187.518 25.5256 187.894 25.4808 188.183 25.451C188.474 25.4179 188.686 25.3632 188.819 25.2869C188.955 25.2107 189.023 25.0781 189.023 24.8892V24.8494C189.023 24.3589 188.888 23.9777 188.62 23.706C188.355 23.4342 187.952 23.2983 187.412 23.2983C186.852 23.2983 186.413 23.4209 186.094 23.6662C185.776 23.9115 185.553 24.1733 185.423 24.4517L184.31 24.054C184.509 23.59 184.774 23.2287 185.105 22.9702C185.44 22.7083 185.804 22.526 186.199 22.4233C186.597 22.3172 186.988 22.2642 187.372 22.2642C187.617 22.2642 187.899 22.294 188.217 22.3537C188.539 22.41 188.849 22.5277 189.147 22.7067C189.449 22.8857 189.699 23.1558 189.898 23.517C190.097 23.8783 190.196 24.3622 190.196 24.9688V30H189.023V28.9659H188.963C188.884 29.1316 188.751 29.3089 188.565 29.4979C188.38 29.6868 188.133 29.8475 187.825 29.9801C187.516 30.1127 187.14 30.179 186.696 30.179ZM186.875 29.125C187.339 29.125 187.73 29.0339 188.048 28.8516C188.37 28.6693 188.612 28.4339 188.774 28.1456C188.94 27.8572 189.023 27.554 189.023 27.2358V26.1619C188.973 26.2216 188.864 26.2763 188.695 26.326C188.529 26.3724 188.337 26.4138 188.118 26.4503C187.902 26.4834 187.692 26.5133 187.487 26.5398C187.284 26.563 187.12 26.5829 186.994 26.5994C186.689 26.6392 186.404 26.7038 186.139 26.7933C185.877 26.8795 185.665 27.0104 185.503 27.1861C185.344 27.3584 185.264 27.5937 185.264 27.892C185.264 28.2997 185.415 28.608 185.717 28.8168C186.022 29.0223 186.408 29.125 186.875 29.125ZM197.747 24.0739L196.693 24.3722C196.626 24.1965 196.529 24.0258 196.399 23.8601C196.273 23.6911 196.101 23.5518 195.882 23.4425C195.664 23.3331 195.383 23.2784 195.042 23.2784C194.575 23.2784 194.185 23.3861 193.874 23.6016C193.566 23.8137 193.411 24.0838 193.411 24.4119C193.411 24.7036 193.517 24.9339 193.73 25.103C193.942 25.272 194.273 25.4129 194.724 25.5256L195.857 25.804C196.54 25.9697 197.049 26.2232 197.384 26.5646C197.718 26.9027 197.886 27.3385 197.886 27.8722C197.886 28.3097 197.76 28.7008 197.508 29.0455C197.259 29.3902 196.911 29.6619 196.464 29.8608C196.017 30.0597 195.496 30.1591 194.903 30.1591C194.124 30.1591 193.479 29.9901 192.969 29.652C192.459 29.3139 192.135 28.8201 191.999 28.1705L193.113 27.892C193.219 28.303 193.42 28.6113 193.715 28.8168C194.013 29.0223 194.402 29.125 194.883 29.125C195.43 29.125 195.864 29.009 196.186 28.777C196.51 28.5417 196.673 28.2599 196.673 27.9318C196.673 27.6667 196.58 27.4446 196.394 27.2656C196.209 27.0833 195.924 26.9474 195.539 26.858L194.267 26.5597C193.567 26.3939 193.053 26.1371 192.725 25.7891C192.401 25.4377 192.238 24.9986 192.238 24.4716C192.238 24.0407 192.359 23.6596 192.601 23.3281C192.846 22.9967 193.179 22.7365 193.6 22.5476C194.025 22.3587 194.505 22.2642 195.042 22.2642C195.798 22.2642 196.391 22.4299 196.822 22.7614C197.256 23.0928 197.564 23.5303 197.747 24.0739ZM202.973 22.3636V23.358H199.016V22.3636H202.973ZM200.169 20.5341H201.342V27.8125C201.342 28.1439 201.39 28.3925 201.487 28.5582C201.586 28.7206 201.712 28.83 201.864 28.8864C202.02 28.9394 202.184 28.9659 202.357 28.9659C202.486 28.9659 202.592 28.9593 202.675 28.946C202.758 28.9295 202.824 28.9162 202.874 28.9062L203.112 29.9602C203.033 29.9901 202.922 30.0199 202.779 30.0497C202.637 30.0829 202.456 30.0994 202.237 30.0994C201.906 30.0994 201.581 30.0282 201.263 29.8857C200.948 29.7431 200.686 29.526 200.477 29.2344C200.272 28.9427 200.169 28.5748 200.169 28.1307V20.5341Z" fill="#1A1A1A"/>
</svg>
