<svg width="246" height="74" viewBox="0 0 246 74" fill="none" xmlns="http://www.w3.org/2000/svg">
<path d="M246 24C246 10.7452 235.255 0 222 0H37C16.5655 0 0 16.5655 0 37C0 57.4345 16.5655 74 37 74H246V24Z" fill="#F6F3EF"/>
<path d="M39.1932 25C39.0838 24.6652 38.9396 24.3653 38.7607 24.1001C38.585 23.8317 38.3745 23.603 38.1293 23.4141C37.8873 23.2251 37.6122 23.081 37.304 22.9815C36.9957 22.8821 36.6577 22.8324 36.2898 22.8324C35.6866 22.8324 35.138 22.9882 34.6442 23.2997C34.1503 23.6113 33.7576 24.0703 33.4659 24.6768C33.1742 25.2834 33.0284 26.0275 33.0284 26.9091C33.0284 27.7907 33.1759 28.5348 33.4709 29.1413C33.7659 29.7479 34.1652 30.2069 34.669 30.5185C35.1728 30.83 35.7396 30.9858 36.3693 30.9858C36.9527 30.9858 37.4664 30.8615 37.9105 30.6129C38.358 30.361 38.706 30.0064 38.9545 29.549C39.2064 29.0883 39.3324 28.5464 39.3324 27.9233L39.7102 28.0028H36.6477V26.9091H40.5256V28.0028C40.5256 28.8414 40.3466 29.5705 39.9886 30.1903C39.634 30.8101 39.1435 31.2907 38.517 31.6321C37.8939 31.9702 37.178 32.1392 36.3693 32.1392C35.4678 32.1392 34.6757 31.9271 33.9929 31.5028C33.3134 31.0786 32.7831 30.4754 32.402 29.6932C32.0241 28.911 31.8352 27.983 31.8352 26.9091C31.8352 26.1037 31.9429 25.3795 32.1584 24.7365C32.3771 24.0902 32.6854 23.54 33.0831 23.0859C33.4808 22.6319 33.9515 22.2839 34.495 22.0419C35.0386 21.8 35.6368 21.679 36.2898 21.679C36.8267 21.679 37.3272 21.7602 37.7912 21.9226C38.2585 22.0817 38.6745 22.3087 39.0391 22.6037C39.407 22.8954 39.7135 23.245 39.9588 23.6527C40.2041 24.0571 40.3731 24.5062 40.4659 25H39.1932ZM45.5804 32.1591C44.891 32.1591 44.2862 31.995 43.7658 31.6669C43.2488 31.3388 42.8444 30.8797 42.5527 30.2898C42.2644 29.6998 42.1202 29.0104 42.1202 28.2216C42.1202 27.4261 42.2644 26.7318 42.5527 26.1385C42.8444 25.5452 43.2488 25.0845 43.7658 24.7564C44.2862 24.4283 44.891 24.2642 45.5804 24.2642C46.2698 24.2642 46.873 24.4283 47.3901 24.7564C47.9105 25.0845 48.3148 25.5452 48.6032 26.1385C48.8948 26.7318 49.0407 27.4261 49.0407 28.2216C49.0407 29.0104 48.8948 29.6998 48.6032 30.2898C48.3148 30.8797 47.9105 31.3388 47.3901 31.6669C46.873 31.995 46.2698 32.1591 45.5804 32.1591ZM45.5804 31.1051C46.1041 31.1051 46.535 30.9709 46.873 30.7024C47.2111 30.4339 47.4614 30.081 47.6238 29.6435C47.7862 29.206 47.8674 28.732 47.8674 28.2216C47.8674 27.7112 47.7862 27.2356 47.6238 26.7947C47.4614 26.3539 47.2111 25.9976 46.873 25.7259C46.535 25.4541 46.1041 25.3182 45.5804 25.3182C45.0568 25.3182 44.6259 25.4541 44.2878 25.7259C43.9498 25.9976 43.6995 26.3539 43.5371 26.7947C43.3747 27.2356 43.2935 27.7112 43.2935 28.2216C43.2935 28.732 43.3747 29.206 43.5371 29.6435C43.6995 30.081 43.9498 30.4339 44.2878 30.7024C44.6259 30.9709 45.0568 31.1051 45.5804 31.1051ZM53.9339 32.1591C53.2446 32.1591 52.6397 31.995 52.1193 31.6669C51.6023 31.3388 51.1979 30.8797 50.9062 30.2898C50.6179 29.6998 50.4737 29.0104 50.4737 28.2216C50.4737 27.4261 50.6179 26.7318 50.9062 26.1385C51.1979 25.5452 51.6023 25.0845 52.1193 24.7564C52.6397 24.4283 53.2446 24.2642 53.9339 24.2642C54.6233 24.2642 55.2266 24.4283 55.7436 24.7564C56.264 25.0845 56.6683 25.5452 56.9567 26.1385C57.2483 26.7318 57.3942 27.4261 57.3942 28.2216C57.3942 29.0104 57.2483 29.6998 56.9567 30.2898C56.6683 30.8797 56.264 31.3388 55.7436 31.6669C55.2266 31.995 54.6233 32.1591 53.9339 32.1591ZM53.9339 31.1051C54.4576 31.1051 54.8885 30.9709 55.2266 30.7024C55.5646 30.4339 55.8149 30.081 55.9773 29.6435C56.1397 29.206 56.2209 28.732 56.2209 28.2216C56.2209 27.7112 56.1397 27.2356 55.9773 26.7947C55.8149 26.3539 55.5646 25.9976 55.2266 25.7259C54.8885 25.4541 54.4576 25.3182 53.9339 25.3182C53.4103 25.3182 52.9794 25.4541 52.6413 25.7259C52.3033 25.9976 52.053 26.3539 51.8906 26.7947C51.7282 27.2356 51.647 27.7112 51.647 28.2216C51.647 28.732 51.7282 29.206 51.8906 29.6435C52.053 30.081 52.3033 30.4339 52.6413 30.7024C52.9794 30.9709 53.4103 31.1051 53.9339 31.1051ZM62.0687 32.1591C61.4324 32.1591 60.8706 31.9983 60.3833 31.6768C59.8961 31.352 59.515 30.8946 59.2399 30.3047C58.9648 29.7114 58.8272 29.0104 58.8272 28.2017C58.8272 27.3996 58.9648 26.7036 59.2399 26.1136C59.515 25.5237 59.8978 25.0679 60.3883 24.7464C60.8788 24.425 61.4456 24.2642 62.0886 24.2642C62.5858 24.2642 62.9785 24.3471 63.2669 24.5128C63.5585 24.6752 63.7806 24.8608 63.9331 25.0696C64.0888 25.2751 64.2098 25.4441 64.296 25.5767H64.3954V21.8182H65.5687V32H64.4352V30.8267H64.296C64.2098 30.9659 64.0872 31.1416 63.9281 31.3537C63.769 31.5625 63.542 31.7498 63.247 31.9155C62.952 32.0779 62.5592 32.1591 62.0687 32.1591ZM62.2278 31.1051C62.6984 31.1051 63.0962 30.9825 63.421 30.7372C63.7458 30.4886 63.9927 30.1456 64.1618 29.7081C64.3308 29.2673 64.4153 28.7585 64.4153 28.1818C64.4153 27.6117 64.3324 27.1129 64.1667 26.6854C64.001 26.2545 63.7557 25.9197 63.4309 25.6811C63.1061 25.4392 62.7051 25.3182 62.2278 25.3182C61.7306 25.3182 61.3163 25.4458 60.9849 25.701C60.6568 25.9529 60.4099 26.2959 60.2441 26.7301C60.0817 27.161 60.0005 27.6449 60.0005 28.1818C60.0005 28.7254 60.0834 29.2192 60.2491 29.6634C60.4181 30.1042 60.6667 30.4555 60.9949 30.7173C61.3263 30.9759 61.7373 31.1051 62.2278 31.1051ZM75.139 24.3636V25.358H71.1816V24.3636H75.139ZM72.335 22.5341H73.5083V29.8125C73.5083 30.1439 73.5564 30.3925 73.6525 30.5582C73.752 30.7206 73.8779 30.83 74.0304 30.8864C74.1861 30.9394 74.3502 30.9659 74.5225 30.9659C74.6518 30.9659 74.7579 30.9593 74.8407 30.946C74.9236 30.9295 74.9899 30.9162 75.0396 30.9062L75.2782 31.9602C75.1987 31.9901 75.0877 32.0199 74.9451 32.0497C74.8026 32.0829 74.622 32.0994 74.4032 32.0994C74.0718 32.0994 73.747 32.0282 73.4288 31.8857C73.1139 31.7431 72.8521 31.526 72.6433 31.2344C72.4378 30.9427 72.335 30.5748 72.335 30.1307V22.5341ZM79.9242 32.1591C79.2348 32.1591 78.6299 31.995 78.1096 31.6669C77.5925 31.3388 77.1882 30.8797 76.8965 30.2898C76.6081 29.6998 76.464 29.0104 76.464 28.2216C76.464 27.4261 76.6081 26.7318 76.8965 26.1385C77.1882 25.5452 77.5925 25.0845 78.1096 24.7564C78.6299 24.4283 79.2348 24.2642 79.9242 24.2642C80.6136 24.2642 81.2168 24.4283 81.7338 24.7564C82.2542 25.0845 82.6586 25.5452 82.9469 26.1385C83.2386 26.7318 83.3844 27.4261 83.3844 28.2216C83.3844 29.0104 83.2386 29.6998 82.9469 30.2898C82.6586 30.8797 82.2542 31.3388 81.7338 31.6669C81.2168 31.995 80.6136 32.1591 79.9242 32.1591ZM79.9242 31.1051C80.4479 31.1051 80.8787 30.9709 81.2168 30.7024C81.5549 30.4339 81.8051 30.081 81.9675 29.6435C82.1299 29.206 82.2111 28.732 82.2111 28.2216C82.2111 27.7112 82.1299 27.2356 81.9675 26.7947C81.8051 26.3539 81.5549 25.9976 81.2168 25.7259C80.8787 25.4541 80.4479 25.3182 79.9242 25.3182C79.4005 25.3182 78.9696 25.4541 78.6316 25.7259C78.2935 25.9976 78.0433 26.3539 77.8809 26.7947C77.7185 27.2356 77.6373 27.7112 77.6373 28.2216C77.6373 28.732 77.7185 29.206 77.8809 29.6435C78.0433 30.081 78.2935 30.4339 78.6316 30.7024C78.9696 30.9709 79.4005 31.1051 79.9242 31.1051ZM94.522 26.0739L93.468 26.3722C93.4018 26.1965 93.304 26.0258 93.1747 25.8601C93.0488 25.6911 92.8764 25.5518 92.6577 25.4425C92.4389 25.3331 92.1589 25.2784 91.8175 25.2784C91.3501 25.2784 90.9607 25.3861 90.6491 25.6016C90.3409 25.8137 90.1868 26.0838 90.1868 26.4119C90.1868 26.7036 90.2929 26.9339 90.505 27.103C90.7171 27.272 91.0485 27.4129 91.4993 27.5256L92.6328 27.804C93.3156 27.9697 93.8243 28.2232 94.1591 28.5646C94.4938 28.9027 94.6612 29.3385 94.6612 29.8722C94.6612 30.3097 94.5353 30.7008 94.2834 31.0455C94.0348 31.3902 93.6868 31.6619 93.2393 31.8608C92.7919 32.0597 92.2715 32.1591 91.6783 32.1591C90.8994 32.1591 90.2547 31.9901 89.7443 31.652C89.2339 31.3139 88.9107 30.8201 88.7749 30.1705L89.8885 29.892C89.9946 30.303 90.1951 30.6113 90.4901 30.8168C90.7884 31.0223 91.1778 31.125 91.6584 31.125C92.2053 31.125 92.6394 31.009 92.9609 30.777C93.2857 30.5417 93.4482 30.2599 93.4482 29.9318C93.4482 29.6667 93.3554 29.4446 93.1697 29.2656C92.9841 29.0833 92.6991 28.9474 92.3146 28.858L91.0419 28.5597C90.3426 28.3939 89.8288 28.1371 89.5007 27.7891C89.1759 27.4377 89.0135 26.9986 89.0135 26.4716C89.0135 26.0407 89.1345 25.6596 89.3764 25.3281C89.6217 24.9967 89.9548 24.7365 90.3757 24.5476C90.8 24.3587 91.2805 24.2642 91.8175 24.2642C92.5732 24.2642 93.1664 24.4299 93.5973 24.7614C94.0315 25.0928 94.3397 25.5303 94.522 26.0739ZM99.6291 32.1591C98.8933 32.1591 98.2586 31.9967 97.725 31.6719C97.1947 31.3438 96.7853 30.8864 96.497 30.2997C96.2119 29.7098 96.0694 29.0237 96.0694 28.2415C96.0694 27.4593 96.2119 26.7699 96.497 26.1733C96.7853 25.5734 97.1864 25.1061 97.7001 24.7713C98.2172 24.4332 98.8204 24.2642 99.5098 24.2642C99.9075 24.2642 100.3 24.3305 100.688 24.4631C101.076 24.5956 101.429 24.8111 101.747 25.1094C102.065 25.4044 102.319 25.7955 102.508 26.2827C102.697 26.7699 102.791 27.3698 102.791 28.0824V28.5795H96.9047V27.5653H101.598C101.598 27.1345 101.512 26.75 101.339 26.4119C101.17 26.0739 100.928 25.8071 100.613 25.6115C100.302 25.416 99.934 25.3182 99.5098 25.3182C99.0424 25.3182 98.6381 25.4342 98.2967 25.6662C97.9586 25.8949 97.6984 26.1932 97.5162 26.5611C97.3339 26.929 97.2427 27.3234 97.2427 27.7443V28.4205C97.2427 28.9972 97.3422 29.486 97.541 29.8871C97.7432 30.2848 98.0233 30.5881 98.3812 30.7969C98.7392 31.0024 99.1551 31.1051 99.6291 31.1051C99.9373 31.1051 100.216 31.062 100.464 30.9759C100.716 30.8864 100.933 30.7538 101.116 30.5781C101.298 30.3991 101.439 30.1771 101.538 29.9119L102.672 30.2301C102.552 30.6146 102.352 30.9527 102.07 31.2443C101.788 31.5327 101.44 31.758 101.026 31.9205C100.612 32.0795 100.146 32.1591 99.6291 32.1591ZM107.778 32.1591C107.042 32.1591 106.407 31.9967 105.873 31.6719C105.343 31.3438 104.934 30.8864 104.645 30.2997C104.36 29.7098 104.218 29.0237 104.218 28.2415C104.218 27.4593 104.36 26.7699 104.645 26.1733C104.934 25.5734 105.335 25.1061 105.849 24.7713C106.366 24.4332 106.969 24.2642 107.658 24.2642C108.056 24.2642 108.449 24.3305 108.836 24.4631C109.224 24.5956 109.577 24.8111 109.895 25.1094C110.214 25.4044 110.467 25.7955 110.656 26.2827C110.845 26.7699 110.939 27.3698 110.939 28.0824V28.5795H105.053V27.5653H109.746C109.746 27.1345 109.66 26.75 109.488 26.4119C109.319 26.0739 109.077 25.8071 108.762 25.6115C108.45 25.416 108.082 25.3182 107.658 25.3182C107.191 25.3182 106.787 25.4342 106.445 25.6662C106.107 25.8949 105.847 26.1932 105.665 26.5611C105.482 26.929 105.391 27.3234 105.391 27.7443V28.4205C105.391 28.9972 105.491 29.486 105.689 29.8871C105.892 30.2848 106.172 30.5881 106.53 30.7969C106.888 31.0024 107.304 31.1051 107.778 31.1051C108.086 31.1051 108.364 31.062 108.613 30.9759C108.865 30.8864 109.082 30.7538 109.264 30.5781C109.446 30.3991 109.587 30.1771 109.687 29.9119L110.82 30.2301C110.701 30.6146 110.5 30.9527 110.219 31.2443C109.937 31.5327 109.589 31.758 109.175 31.9205C108.76 32.0795 108.295 32.1591 107.778 32.1591ZM117.417 34.8636C117.219 34.8636 117.041 34.8471 116.885 34.8139C116.73 34.7841 116.622 34.7543 116.562 34.7244L116.861 33.6903C117.146 33.7633 117.398 33.7898 117.616 33.7699C117.835 33.75 118.029 33.6522 118.198 33.4766C118.37 33.3042 118.528 33.0241 118.67 32.6364L118.889 32.0398L116.065 24.3636H117.338L119.446 30.4489H119.525L121.633 24.3636H122.906L119.665 33.1136C119.519 33.508 119.338 33.8345 119.123 34.093C118.907 34.3549 118.657 34.5488 118.372 34.6747C118.09 34.8007 117.772 34.8636 117.417 34.8636ZM127.284 32.1591C126.594 32.1591 125.989 31.995 125.469 31.6669C124.952 31.3388 124.548 30.8797 124.256 30.2898C123.968 29.6998 123.823 29.0104 123.823 28.2216C123.823 27.4261 123.968 26.7318 124.256 26.1385C124.548 25.5452 124.952 25.0845 125.469 24.7564C125.989 24.4283 126.594 24.2642 127.284 24.2642C127.973 24.2642 128.576 24.4283 129.093 24.7564C129.614 25.0845 130.018 25.5452 130.306 26.1385C130.598 26.7318 130.744 27.4261 130.744 28.2216C130.744 29.0104 130.598 29.6998 130.306 30.2898C130.018 30.8797 129.614 31.3388 129.093 31.6669C128.576 31.995 127.973 32.1591 127.284 32.1591ZM127.284 31.1051C127.807 31.1051 128.238 30.9709 128.576 30.7024C128.914 30.4339 129.164 30.081 129.327 29.6435C129.489 29.206 129.57 28.732 129.57 28.2216C129.57 27.7112 129.489 27.2356 129.327 26.7947C129.164 26.3539 128.914 25.9976 128.576 25.7259C128.238 25.4541 127.807 25.3182 127.284 25.3182C126.76 25.3182 126.329 25.4541 125.991 25.7259C125.653 25.9976 125.403 26.3539 125.24 26.7947C125.078 27.2356 124.997 27.7112 124.997 28.2216C124.997 28.732 125.078 29.206 125.24 29.6435C125.403 30.081 125.653 30.4339 125.991 30.7024C126.329 30.9709 126.76 31.1051 127.284 31.1051ZM137.347 28.8778V24.3636H138.521V32H137.347V30.7074H137.268C137.089 31.0952 136.81 31.425 136.433 31.6967C136.055 31.9652 135.577 32.0994 135.001 32.0994C134.523 32.0994 134.099 31.995 133.728 31.7862C133.357 31.5741 133.065 31.2559 132.853 30.8317C132.641 30.4041 132.535 29.8655 132.535 29.2159V24.3636H133.708V29.1364C133.708 29.6932 133.864 30.1373 134.175 30.4688C134.49 30.8002 134.891 30.9659 135.379 30.9659C135.67 30.9659 135.967 30.8913 136.268 30.7422C136.573 30.593 136.829 30.3643 137.034 30.0561C137.243 29.7479 137.347 29.3551 137.347 28.8778ZM148.664 21.8182H149.897V29.0966C149.897 29.7462 149.778 30.2981 149.539 30.7521C149.3 31.2062 148.964 31.5509 148.53 31.7862C148.095 32.0215 147.583 32.1392 146.993 32.1392C146.437 32.1392 145.941 32.0381 145.507 31.8359C145.073 31.6304 144.731 31.3388 144.483 30.9609C144.234 30.5831 144.11 30.134 144.11 29.6136H145.323C145.323 29.902 145.394 30.1539 145.537 30.3693C145.683 30.5814 145.881 30.7472 146.133 30.8665C146.385 30.9858 146.672 31.0455 146.993 31.0455C147.348 31.0455 147.65 30.9709 147.898 30.8217C148.147 30.6726 148.336 30.4538 148.465 30.1655C148.598 29.8738 148.664 29.5175 148.664 29.0966V21.8182ZM154.456 32.179C153.972 32.179 153.533 32.0878 153.138 31.9055C152.744 31.7199 152.431 31.4531 152.199 31.1051C151.967 30.7538 151.851 30.3295 151.851 29.8324C151.851 29.3949 151.937 29.0402 152.109 28.7685C152.282 28.4934 152.512 28.2779 152.8 28.1222C153.089 27.9664 153.407 27.8504 153.755 27.7741C154.106 27.6946 154.459 27.6316 154.814 27.5852C155.278 27.5256 155.654 27.4808 155.942 27.451C156.234 27.4179 156.446 27.3632 156.579 27.2869C156.715 27.2107 156.782 27.0781 156.782 26.8892V26.8494C156.782 26.3589 156.648 25.9777 156.38 25.706C156.115 25.4342 155.712 25.2983 155.172 25.2983C154.612 25.2983 154.172 25.4209 153.854 25.6662C153.536 25.9115 153.312 26.1733 153.183 26.4517L152.069 26.054C152.268 25.59 152.533 25.2287 152.865 24.9702C153.2 24.7083 153.564 24.526 153.959 24.4233C154.356 24.3172 154.747 24.2642 155.132 24.2642C155.377 24.2642 155.659 24.294 155.977 24.3537C156.299 24.41 156.608 24.5277 156.907 24.7067C157.208 24.8857 157.459 25.1558 157.657 25.517C157.856 25.8783 157.956 26.3622 157.956 26.9688V32H156.782V30.9659H156.723C156.643 31.1316 156.511 31.3089 156.325 31.4979C156.14 31.6868 155.893 31.8475 155.584 31.9801C155.276 32.1127 154.9 32.179 154.456 32.179ZM154.635 31.125C155.099 31.125 155.49 31.0339 155.808 30.8516C156.13 30.6693 156.372 30.4339 156.534 30.1456C156.7 29.8572 156.782 29.554 156.782 29.2358V28.1619C156.733 28.2216 156.623 28.2763 156.454 28.326C156.289 28.3724 156.096 28.4138 155.878 28.4503C155.662 28.4834 155.452 28.5133 155.246 28.5398C155.044 28.563 154.88 28.5829 154.754 28.5994C154.449 28.6392 154.164 28.7038 153.899 28.7933C153.637 28.8795 153.425 29.0104 153.263 29.1861C153.104 29.3584 153.024 29.5937 153.024 29.892C153.024 30.2997 153.175 30.608 153.476 30.8168C153.781 31.0223 154.167 31.125 154.635 31.125ZM163.2 32.1591C162.484 32.1591 161.867 31.9901 161.35 31.652C160.833 31.3139 160.435 30.8482 160.157 30.255C159.879 29.6617 159.739 28.9839 159.739 28.2216C159.739 27.446 159.882 26.7616 160.167 26.1683C160.455 25.5717 160.856 25.1061 161.37 24.7713C161.887 24.4332 162.49 24.2642 163.18 24.2642C163.717 24.2642 164.201 24.3636 164.631 24.5625C165.062 24.7614 165.415 25.0398 165.69 25.3977C165.965 25.7557 166.136 26.1733 166.202 26.6506H165.029C164.94 26.3026 164.741 25.9943 164.433 25.7259C164.128 25.4541 163.717 25.3182 163.2 25.3182C162.742 25.3182 162.341 25.4375 161.996 25.6761C161.655 25.9115 161.388 26.2446 161.196 26.6754C161.007 27.103 160.913 27.6051 160.913 28.1818C160.913 28.7718 161.005 29.2855 161.191 29.723C161.38 30.1605 161.645 30.5002 161.987 30.7422C162.331 30.9841 162.736 31.1051 163.2 31.1051C163.504 31.1051 163.781 31.0521 164.03 30.946C164.278 30.84 164.489 30.6875 164.661 30.4886C164.834 30.2898 164.956 30.0511 165.029 29.7727H166.202C166.136 30.2235 165.972 30.6295 165.71 30.9908C165.452 31.3487 165.109 31.6338 164.681 31.8459C164.257 32.0547 163.763 32.1591 163.2 32.1591ZM169.011 29.2159L168.991 27.7642H169.23L172.571 24.3636H174.023L170.463 27.9631H170.364L169.011 29.2159ZM167.918 32V21.8182H169.091V32H167.918ZM172.77 32L169.787 28.2216L170.622 27.4062L174.261 32H172.77ZM177.084 21.8182L176.985 29.1364H175.831L175.732 21.8182H177.084ZM176.408 32.0795C176.163 32.0795 175.952 31.9917 175.776 31.8161C175.601 31.6404 175.513 31.4299 175.513 31.1847C175.513 30.9394 175.601 30.7289 175.776 30.5533C175.952 30.3776 176.163 30.2898 176.408 30.2898C176.653 30.2898 176.864 30.3776 177.039 30.5533C177.215 30.7289 177.303 30.9394 177.303 31.1847C177.303 31.3471 177.261 31.4962 177.178 31.6321C177.099 31.768 176.991 31.8774 176.855 31.9602C176.723 32.0398 176.574 32.0795 176.408 32.0795ZM31.358 42.8182H32.7699L35.5938 47.571H35.7131L38.5369 42.8182H39.9489L36.2699 48.804V53H35.0369V48.804L31.358 42.8182ZM43.4066 53.1591C42.7172 53.1591 42.1123 52.995 41.592 52.6669C41.0749 52.3388 40.6706 51.8797 40.3789 51.2898C40.0906 50.6998 39.9464 50.0104 39.9464 49.2216C39.9464 48.4261 40.0906 47.7318 40.3789 47.1385C40.6706 46.5452 41.0749 46.0845 41.592 45.7564C42.1123 45.4283 42.7172 45.2642 43.4066 45.2642C44.096 45.2642 44.6992 45.4283 45.2163 45.7564C45.7366 46.0845 46.141 46.5452 46.4293 47.1385C46.721 47.7318 46.8668 48.4261 46.8668 49.2216C46.8668 50.0104 46.721 50.6998 46.4293 51.2898C46.141 51.8797 45.7366 52.3388 45.2163 52.6669C44.6992 52.995 44.096 53.1591 43.4066 53.1591ZM43.4066 52.1051C43.9303 52.1051 44.3612 51.9709 44.6992 51.7024C45.0373 51.4339 45.2875 51.081 45.4499 50.6435C45.6123 50.206 45.6935 49.732 45.6935 49.2216C45.6935 48.7112 45.6123 48.2356 45.4499 47.7947C45.2875 47.3539 45.0373 46.9976 44.6992 46.7259C44.3612 46.4541 43.9303 46.3182 43.4066 46.3182C42.8829 46.3182 42.4521 46.4541 42.114 46.7259C41.7759 46.9976 41.5257 47.3539 41.3633 47.7947C41.2009 48.2356 41.1197 48.7112 41.1197 49.2216C41.1197 49.732 41.2009 50.206 41.3633 50.6435C41.5257 51.081 41.7759 51.4339 42.114 51.7024C42.4521 51.9709 42.8829 52.1051 43.4066 52.1051ZM53.4703 49.8778V45.3636H54.6436V53H53.4703V51.7074H53.3908C53.2118 52.0952 52.9334 52.425 52.5556 52.6967C52.1777 52.9652 51.7005 53.0994 51.1238 53.0994C50.6465 53.0994 50.2222 52.995 49.851 52.7862C49.4798 52.5741 49.1882 52.2559 48.976 51.8317C48.7639 51.4041 48.6578 50.8655 48.6578 50.2159V45.3636H49.8311V50.1364C49.8311 50.6932 49.9869 51.1373 50.2985 51.4688C50.6133 51.8002 51.0144 51.9659 51.5016 51.9659C51.7933 51.9659 52.0899 51.8913 52.3915 51.7422C52.6964 51.593 52.9516 51.3643 53.1571 51.0561C53.3659 50.7479 53.4703 50.3551 53.4703 49.8778ZM56.7926 53V45.3636H57.9261V46.517H58.0057C58.1449 46.1392 58.3968 45.8326 58.7614 45.5973C59.1259 45.362 59.5369 45.2443 59.9943 45.2443C60.0805 45.2443 60.1882 45.246 60.3175 45.2493C60.4467 45.2526 60.5445 45.2576 60.6108 45.2642V46.4574C60.571 46.4474 60.4799 46.4325 60.3374 46.4126C60.1982 46.3894 60.0507 46.3778 59.8949 46.3778C59.5237 46.3778 59.1922 46.4557 58.9006 46.6115C58.6122 46.764 58.3835 46.9761 58.2145 47.2479C58.0488 47.5163 57.9659 47.8229 57.9659 48.1676V53H56.7926ZM71.3482 47.0739L70.2942 47.3722C70.2279 47.1965 70.1301 47.0258 70.0009 46.8601C69.8749 46.6911 69.7026 46.5518 69.4838 46.4425C69.2651 46.3331 68.985 46.2784 68.6436 46.2784C68.1763 46.2784 67.7869 46.3861 67.4753 46.6016C67.1671 46.8137 67.013 47.0838 67.013 47.4119C67.013 47.7036 67.119 47.9339 67.3311 48.103C67.5433 48.272 67.8747 48.4129 68.3255 48.5256L69.459 48.804C70.1417 48.9697 70.6505 49.2232 70.9853 49.5646C71.32 49.9027 71.4874 50.3385 71.4874 50.8722C71.4874 51.3097 71.3614 51.7008 71.1096 52.0455C70.861 52.3902 70.513 52.6619 70.0655 52.8608C69.6181 53.0597 69.0977 53.1591 68.5044 53.1591C67.7256 53.1591 67.0809 52.9901 66.5705 52.652C66.0601 52.3139 65.7369 51.8201 65.601 51.1705L66.7147 50.892C66.8207 51.303 67.0212 51.6113 67.3162 51.8168C67.6145 52.0223 68.004 52.125 68.4846 52.125C69.0314 52.125 69.4656 52.009 69.7871 51.777C70.1119 51.5417 70.2743 51.2599 70.2743 50.9318C70.2743 50.6667 70.1815 50.4446 69.9959 50.2656C69.8103 50.0833 69.5253 49.9474 69.1408 49.858L67.8681 49.5597C67.1687 49.3939 66.655 49.1371 66.3269 48.7891C66.0021 48.4377 65.8397 47.9986 65.8397 47.4716C65.8397 47.0407 65.9606 46.6596 66.2026 46.3281C66.4479 45.9967 66.781 45.7365 67.2019 45.5476C67.6261 45.3587 68.1067 45.2642 68.6436 45.2642C69.3993 45.2642 69.9926 45.4299 70.4235 45.7614C70.8577 46.0928 71.1659 46.5303 71.3482 47.0739ZM73.2536 53V45.3636H74.4268V53H73.2536ZM73.8501 44.0909C73.6214 44.0909 73.4242 44.013 73.2585 43.8572C73.0961 43.7015 73.0149 43.5142 73.0149 43.2955C73.0149 43.0767 73.0961 42.8894 73.2585 42.7337C73.4242 42.5779 73.6214 42.5 73.8501 42.5C74.0788 42.5 74.2744 42.5779 74.4368 42.7337C74.6025 42.8894 74.6854 43.0767 74.6854 43.2955C74.6854 43.5142 74.6025 43.7015 74.4368 43.8572C74.2744 44.013 74.0788 44.0909 73.8501 44.0909ZM79.8968 45.3636V46.358H75.9395V45.3636H79.8968ZM77.0929 43.5341H78.2662V50.8125C78.2662 51.1439 78.3142 51.3925 78.4103 51.5582C78.5098 51.7206 78.6357 51.83 78.7882 51.8864C78.944 51.9394 79.108 51.9659 79.2804 51.9659C79.4096 51.9659 79.5157 51.9593 79.5985 51.946C79.6814 51.9295 79.7477 51.9162 79.7974 51.9062L80.036 52.9602C79.9565 52.9901 79.8455 53.0199 79.7029 53.0497C79.5604 53.0829 79.3798 53.0994 79.161 53.0994C78.8296 53.0994 78.5048 53.0282 78.1866 52.8857C77.8717 52.7431 77.6099 52.526 77.4011 52.2344C77.1956 51.9427 77.0929 51.5748 77.0929 51.1307V43.5341ZM84.7814 53.1591C84.0456 53.1591 83.4109 52.9967 82.8773 52.6719C82.347 52.3438 81.9377 51.8864 81.6493 51.2997C81.3643 50.7098 81.2218 50.0237 81.2218 49.2415C81.2218 48.4593 81.3643 47.7699 81.6493 47.1733C81.9377 46.5734 82.3387 46.1061 82.8525 45.7713C83.3695 45.4332 83.9727 45.2642 84.6621 45.2642C85.0598 45.2642 85.4526 45.3305 85.8404 45.4631C86.2282 45.5956 86.5811 45.8111 86.8993 46.1094C87.2175 46.4044 87.4711 46.7955 87.66 47.2827C87.8489 47.7699 87.9434 48.3698 87.9434 49.0824V49.5795H82.057V48.5653H86.7502C86.7502 48.1345 86.664 47.75 86.4917 47.4119C86.3226 47.0739 86.0807 46.8071 85.7658 46.6115C85.4542 46.416 85.0864 46.3182 84.6621 46.3182C84.1948 46.3182 83.7904 46.4342 83.449 46.6662C83.111 46.8949 82.8508 47.1932 82.6685 47.5611C82.4862 47.929 82.3951 48.3234 82.3951 48.7443V49.4205C82.3951 49.9972 82.4945 50.486 82.6934 50.8871C82.8955 51.2848 83.1756 51.5881 83.5336 51.7969C83.8915 52.0024 84.3075 52.1051 84.7814 52.1051C85.0897 52.1051 85.3681 52.062 85.6167 51.9759C85.8685 51.8864 86.0856 51.7538 86.2679 51.5781C86.4502 51.3991 86.5911 51.1771 86.6905 50.9119L87.824 51.2301C87.7047 51.6146 87.5042 51.9527 87.2225 52.2443C86.9408 52.5327 86.5927 52.758 86.1784 52.9205C85.7641 53.0795 85.2985 53.1591 84.7814 53.1591ZM93.6657 53V45.3636H94.839V53H93.6657ZM94.2623 44.0909C94.0336 44.0909 93.8364 44.013 93.6706 43.8572C93.5082 43.7015 93.427 43.5142 93.427 43.2955C93.427 43.0767 93.5082 42.8894 93.6706 42.7337C93.8364 42.5779 94.0336 42.5 94.2623 42.5C94.4909 42.5 94.6865 42.5779 94.8489 42.7337C95.0146 42.8894 95.0975 43.0767 95.0975 43.2955C95.0975 43.5142 95.0146 43.7015 94.8489 43.8572C94.6865 44.013 94.4909 44.0909 94.2623 44.0909ZM102.397 47.0739L101.343 47.3722C101.277 47.1965 101.179 47.0258 101.05 46.8601C100.924 46.6911 100.751 46.5518 100.533 46.4425C100.314 46.3331 100.034 46.2784 99.6925 46.2784C99.2251 46.2784 98.8357 46.3861 98.5241 46.6016C98.2159 46.8137 98.0618 47.0838 98.0618 47.4119C98.0618 47.7036 98.1679 47.9339 98.38 48.103C98.5921 48.272 98.9235 48.4129 99.3743 48.5256L100.508 48.804C101.191 48.9697 101.699 49.2232 102.034 49.5646C102.369 49.9027 102.536 50.3385 102.536 50.8722C102.536 51.3097 102.41 51.7008 102.158 52.0455C101.91 52.3902 101.562 52.6619 101.114 52.8608C100.667 53.0597 100.147 53.1591 99.5533 53.1591C98.7744 53.1591 98.1297 52.9901 97.6193 52.652C97.1089 52.3139 96.7857 51.8201 96.6499 51.1705L97.7635 50.892C97.8696 51.303 98.0701 51.6113 98.3651 51.8168C98.6634 52.0223 99.0528 52.125 99.5334 52.125C100.08 52.125 100.514 52.009 100.836 51.777C101.161 51.5417 101.323 51.2599 101.323 50.9318C101.323 50.6667 101.23 50.4446 101.045 50.2656C100.859 50.0833 100.574 49.9474 100.19 49.858L98.9169 49.5597C98.2176 49.3939 97.7038 49.1371 97.3757 48.7891C97.0509 48.4377 96.8885 47.9986 96.8885 47.4716C96.8885 47.0407 97.0095 46.6596 97.2514 46.3281C97.4967 45.9967 97.8298 45.7365 98.2507 45.5476C98.675 45.3587 99.1555 45.2642 99.6925 45.2642C100.448 45.2642 101.041 45.4299 101.472 45.7614C101.906 46.0928 102.215 46.5303 102.397 47.0739ZM111.342 53.1591C110.653 53.1591 110.048 52.995 109.528 52.6669C109.01 52.3388 108.606 51.8797 108.314 51.2898C108.026 50.6998 107.882 50.0104 107.882 49.2216C107.882 48.4261 108.026 47.7318 108.314 47.1385C108.606 46.5452 109.01 46.0845 109.528 45.7564C110.048 45.4283 110.653 45.2642 111.342 45.2642C112.032 45.2642 112.635 45.4283 113.152 45.7564C113.672 46.0845 114.077 46.5452 114.365 47.1385C114.657 47.7318 114.802 48.4261 114.802 49.2216C114.802 50.0104 114.657 50.6998 114.365 51.2898C114.077 51.8797 113.672 52.3388 113.152 52.6669C112.635 52.995 112.032 53.1591 111.342 53.1591ZM111.342 52.1051C111.866 52.1051 112.297 51.9709 112.635 51.7024C112.973 51.4339 113.223 51.081 113.385 50.6435C113.548 50.206 113.629 49.732 113.629 49.2216C113.629 48.7112 113.548 48.2356 113.385 47.7947C113.223 47.3539 112.973 46.9976 112.635 46.7259C112.297 46.4541 111.866 46.3182 111.342 46.3182C110.818 46.3182 110.388 46.4541 110.05 46.7259C109.711 46.9976 109.461 47.3539 109.299 47.7947C109.136 48.2356 109.055 48.7112 109.055 49.2216C109.055 49.732 109.136 50.206 109.299 50.6435C109.461 51.081 109.711 51.4339 110.05 51.7024C110.388 51.9709 110.818 52.1051 111.342 52.1051ZM117.767 48.4062V53H116.593V45.3636H117.727V46.5568H117.826C118.005 46.169 118.277 45.8575 118.642 45.6222C119.006 45.3835 119.477 45.2642 120.054 45.2642C120.571 45.2642 121.023 45.3703 121.411 45.5824C121.799 45.7912 122.1 46.1094 122.316 46.5369C122.531 46.9612 122.639 47.4981 122.639 48.1477V53H121.466V48.2273C121.466 47.6274 121.31 47.16 120.998 46.8253C120.687 46.4872 120.259 46.3182 119.716 46.3182C119.341 46.3182 119.006 46.3994 118.711 46.5618C118.42 46.7242 118.189 46.9612 118.02 47.2727C117.851 47.5843 117.767 47.9621 117.767 48.4062ZM132.041 45.3636V46.358H128.084V45.3636H132.041ZM129.237 43.5341H130.411V50.8125C130.411 51.1439 130.459 51.3925 130.555 51.5582C130.654 51.7206 130.78 51.83 130.933 51.8864C131.088 51.9394 131.253 51.9659 131.425 51.9659C131.554 51.9659 131.66 51.9593 131.743 51.946C131.826 51.9295 131.892 51.9162 131.942 51.9062L132.181 52.9602C132.101 52.9901 131.99 53.0199 131.847 53.0497C131.705 53.0829 131.524 53.0994 131.306 53.0994C130.974 53.0994 130.649 53.0282 130.331 52.8857C130.016 52.7431 129.754 52.526 129.546 52.2344C129.34 51.9427 129.237 51.5748 129.237 51.1307V43.5341ZM135.144 48.4062V53H133.97V42.8182H135.144V46.5568H135.243C135.422 46.1624 135.691 45.8492 136.048 45.6172C136.41 45.3819 136.89 45.2642 137.49 45.2642C138.011 45.2642 138.466 45.3686 138.857 45.5774C139.249 45.7829 139.552 46.0994 139.767 46.527C139.986 46.9512 140.095 47.4915 140.095 48.1477V53H138.922V48.2273C138.922 47.6207 138.765 47.1518 138.45 46.8203C138.138 46.4856 137.706 46.3182 137.152 46.3182C136.768 46.3182 136.423 46.3994 136.118 46.5618C135.816 46.7242 135.578 46.9612 135.402 47.2727C135.23 47.5843 135.144 47.9621 135.144 48.4062ZM145.444 53.1591C144.708 53.1591 144.073 52.9967 143.539 52.6719C143.009 52.3438 142.6 51.8864 142.311 51.2997C142.026 50.7098 141.884 50.0237 141.884 49.2415C141.884 48.4593 142.026 47.7699 142.311 47.1733C142.6 46.5734 143.001 46.1061 143.515 45.7713C144.032 45.4332 144.635 45.2642 145.324 45.2642C145.722 45.2642 146.115 45.3305 146.502 45.4631C146.89 45.5956 147.243 45.8111 147.561 46.1094C147.88 46.4044 148.133 46.7955 148.322 47.2827C148.511 47.7699 148.605 48.3698 148.605 49.0824V49.5795H142.719V48.5653H147.412C147.412 48.1345 147.326 47.75 147.154 47.4119C146.985 47.0739 146.743 46.8071 146.428 46.6115C146.116 46.416 145.748 46.3182 145.324 46.3182C144.857 46.3182 144.453 46.4342 144.111 46.6662C143.773 46.8949 143.513 47.1932 143.331 47.5611C143.148 47.929 143.057 48.3234 143.057 48.7443V49.4205C143.057 49.9972 143.157 50.486 143.355 50.8871C143.558 51.2848 143.838 51.5881 144.196 51.7969C144.554 52.0024 144.97 52.1051 145.444 52.1051C145.752 52.1051 146.03 52.062 146.279 51.9759C146.531 51.8864 146.748 51.7538 146.93 51.5781C147.112 51.3991 147.253 51.1771 147.353 50.9119L148.486 51.2301C148.367 51.6146 148.166 51.9527 147.885 52.2443C147.603 52.5327 147.255 52.758 146.841 52.9205C146.426 53.0795 145.961 53.1591 145.444 53.1591ZM156.058 53L153.731 45.3636H154.964L156.615 51.2102H156.694L158.325 45.3636H159.578L161.189 51.1903H161.268L162.919 45.3636H164.152L161.825 53H160.672L159.001 47.1335H158.882L157.211 53H156.058ZM167.95 53.179C167.466 53.179 167.027 53.0878 166.632 52.9055C166.238 52.7199 165.925 52.4531 165.693 52.1051C165.461 51.7538 165.345 51.3295 165.345 50.8324C165.345 50.3949 165.431 50.0402 165.603 49.7685C165.776 49.4934 166.006 49.2779 166.294 49.1222C166.583 48.9664 166.901 48.8504 167.249 48.7741C167.6 48.6946 167.953 48.6316 168.308 48.5852C168.772 48.5256 169.148 48.4808 169.436 48.451C169.728 48.4179 169.94 48.3632 170.073 48.2869C170.209 48.2107 170.277 48.0781 170.277 47.8892V47.8494C170.277 47.3589 170.142 46.9777 169.874 46.706C169.609 46.4342 169.206 46.2983 168.666 46.2983C168.106 46.2983 167.667 46.4209 167.348 46.6662C167.03 46.9115 166.806 47.1733 166.677 47.4517L165.564 47.054C165.762 46.59 166.028 46.2287 166.359 45.9702C166.694 45.7083 167.058 45.526 167.453 45.4233C167.85 45.3172 168.242 45.2642 168.626 45.2642C168.871 45.2642 169.153 45.294 169.471 45.3537C169.793 45.41 170.103 45.5277 170.401 45.7067C170.703 45.8857 170.953 46.1558 171.152 46.517C171.35 46.8783 171.45 47.3622 171.45 47.9688V53H170.277V51.9659H170.217C170.137 52.1316 170.005 52.3089 169.819 52.4979C169.634 52.6868 169.387 52.8475 169.078 52.9801C168.77 53.1127 168.394 53.179 167.95 53.179ZM168.129 52.125C168.593 52.125 168.984 52.0339 169.302 51.8516C169.624 51.6693 169.866 51.4339 170.028 51.1456C170.194 50.8572 170.277 50.554 170.277 50.2358V49.1619C170.227 49.2216 170.118 49.2763 169.949 49.326C169.783 49.3724 169.591 49.4138 169.372 49.4503C169.156 49.4834 168.946 49.5133 168.74 49.5398C168.538 49.563 168.374 49.5829 168.248 49.5994C167.943 49.6392 167.658 49.7038 167.393 49.7933C167.131 49.8795 166.919 50.0104 166.757 50.1861C166.598 50.3584 166.518 50.5937 166.518 50.892C166.518 51.2997 166.669 51.608 166.971 51.8168C167.275 52.0223 167.662 52.125 168.129 52.125ZM174.074 55.8636C173.875 55.8636 173.698 55.8471 173.542 55.8139C173.386 55.7841 173.278 55.7543 173.219 55.7244L173.517 54.6903C173.802 54.7633 174.054 54.7898 174.273 54.7699C174.491 54.75 174.685 54.6522 174.854 54.4766C175.027 54.3042 175.184 54.0241 175.327 53.6364L175.545 53.0398L172.721 45.3636H173.994L176.102 51.4489H176.182L178.29 45.3636H179.562L176.321 54.1136C176.175 54.508 175.994 54.8345 175.779 55.093C175.564 55.3549 175.313 55.5488 175.028 55.6747C174.747 55.8007 174.428 55.8636 174.074 55.8636Z" fill="#1A1A1A"/>
</svg>
