<svg width="246" height="48" viewBox="0 0 246 48" fill="none" xmlns="http://www.w3.org/2000/svg">
<rect x="-3.05176e-05" width="246" height="48" rx="24" fill="#F6F3EF"/>
<path d="M26.2329 30V19.8182H27.4659V24.3523H32.8949V19.8182H34.1278V30H32.8949V25.446H27.4659V30H26.2329ZM39.6388 30.1591C38.903 30.1591 38.2683 29.9967 37.7347 29.6719C37.2044 29.3438 36.7951 28.8864 36.5067 28.2997C36.2217 27.7098 36.0792 27.0237 36.0792 26.2415C36.0792 25.4593 36.2217 24.7699 36.5067 24.1733C36.7951 23.5734 37.1961 23.1061 37.7098 22.7713C38.2269 22.4332 38.8301 22.2642 39.5195 22.2642C39.9172 22.2642 40.31 22.3305 40.6978 22.4631C41.0856 22.5956 41.4385 22.8111 41.7567 23.1094C42.0749 23.4044 42.3284 23.7955 42.5174 24.2827C42.7063 24.7699 42.8008 25.3698 42.8008 26.0824V26.5795H36.9144V25.5653H41.6076C41.6076 25.1345 41.5214 24.75 41.349 24.4119C41.18 24.0739 40.9381 23.8071 40.6232 23.6115C40.3116 23.416 39.9437 23.3182 39.5195 23.3182C39.0522 23.3182 38.6478 23.4342 38.3064 23.6662C37.9684 23.8949 37.7082 24.1932 37.5259 24.5611C37.3436 24.929 37.2525 25.3234 37.2525 25.7443V26.4205C37.2525 26.9972 37.3519 27.486 37.5508 27.8871C37.7529 28.2848 38.033 28.5881 38.3909 28.7969C38.7489 29.0024 39.1649 29.1051 39.6388 29.1051C39.9471 29.1051 40.2255 29.062 40.474 28.9759C40.7259 28.8864 40.943 28.7538 41.1253 28.5781C41.3076 28.3991 41.4485 28.1771 41.5479 27.9119L42.6814 28.2301C42.5621 28.6146 42.3616 28.9527 42.0799 29.2443C41.7981 29.5327 41.4501 29.758 41.0358 29.9205C40.6215 30.0795 40.1559 30.1591 39.6388 30.1591ZM45.1088 32.8636C44.9099 32.8636 44.7326 32.8471 44.5769 32.8139C44.4211 32.7841 44.3134 32.7543 44.2537 32.7244L44.552 31.6903C44.837 31.7633 45.0889 31.7898 45.3077 31.7699C45.5264 31.75 45.7203 31.6522 45.8894 31.4766C46.0617 31.3042 46.2191 31.0241 46.3617 30.6364L46.5804 30.0398L43.7565 22.3636H45.0293L47.1372 28.4489H47.2168L49.3247 22.3636H50.5974L47.356 31.1136C47.2101 31.508 47.0295 31.8345 46.8141 32.093C46.5986 32.3549 46.3484 32.5488 46.0634 32.6747C45.7816 32.8007 45.4635 32.8636 45.1088 32.8636ZM61.8109 22.3636C61.7512 21.8598 61.5093 21.4688 61.085 21.1903C60.6608 20.9119 60.1404 20.7727 59.5239 20.7727C59.0732 20.7727 58.6788 20.8456 58.3407 20.9915C58.0059 21.1373 57.7441 21.3378 57.5552 21.593C57.3696 21.8482 57.2768 22.1383 57.2768 22.4631C57.2768 22.7348 57.3414 22.9685 57.4707 23.1641C57.6032 23.3563 57.7723 23.517 57.9778 23.6463C58.1833 23.7723 58.3987 23.8767 58.6241 23.9595C58.8495 24.0391 59.0566 24.1037 59.2455 24.1534L60.2796 24.4318C60.5448 24.5014 60.8398 24.5975 61.1646 24.7202C61.4927 24.8428 61.8059 25.0102 62.1042 25.2223C62.4058 25.4311 62.6544 25.6996 62.8499 26.0277C63.0455 26.3558 63.1433 26.7585 63.1433 27.2358C63.1433 27.786 62.9991 28.2831 62.7107 28.7273C62.4257 29.1714 62.0081 29.5244 61.4579 29.7862C60.911 30.0481 60.2465 30.179 59.4643 30.179C58.7351 30.179 58.1037 30.0613 57.5701 29.826C57.0398 29.5907 56.6222 29.2625 56.3173 28.8416C56.0157 28.4207 55.845 27.9318 55.8052 27.375H57.0779C57.1111 27.7595 57.2403 28.0777 57.4657 28.3295C57.6944 28.5781 57.9827 28.7637 58.3308 28.8864C58.6821 29.0057 59.0599 29.0653 59.4643 29.0653C59.9349 29.0653 60.3575 28.9891 60.732 28.8366C61.1066 28.6809 61.4032 28.4654 61.622 28.1903C61.8407 27.9119 61.9501 27.5871 61.9501 27.2159C61.9501 26.8778 61.8556 26.6027 61.6667 26.3906C61.4778 26.1785 61.2292 26.0062 60.921 25.8736C60.6127 25.741 60.2796 25.625 59.9217 25.5256L58.6688 25.1676C57.8734 24.9389 57.2436 24.6125 56.7796 24.1882C56.3156 23.764 56.0836 23.2088 56.0836 22.5227C56.0836 21.9527 56.2377 21.4555 56.546 21.0312C56.8575 20.6037 57.2751 20.2723 57.7988 20.0369C58.3258 19.7983 58.9141 19.679 59.5637 19.679C60.22 19.679 60.8033 19.7966 61.3137 20.032C61.8241 20.264 62.2285 20.5821 62.5268 20.9865C62.8284 21.3909 62.9875 21.8499 63.0041 22.3636H61.8109ZM68.1136 30.1591C67.4242 30.1591 66.8193 29.995 66.299 29.6669C65.7819 29.3388 65.3776 28.8797 65.0859 28.2898C64.7976 27.6998 64.6534 27.0104 64.6534 26.2216C64.6534 25.4261 64.7976 24.7318 65.0859 24.1385C65.3776 23.5452 65.7819 23.0845 66.299 22.7564C66.8193 22.4283 67.4242 22.2642 68.1136 22.2642C68.803 22.2642 69.4062 22.4283 69.9233 22.7564C70.4436 23.0845 70.848 23.5452 71.1363 24.1385C71.428 24.7318 71.5738 25.4261 71.5738 26.2216C71.5738 27.0104 71.428 27.6998 71.1363 28.2898C70.848 28.8797 70.4436 29.3388 69.9233 29.6669C69.4062 29.995 68.803 30.1591 68.1136 30.1591ZM68.1136 29.1051C68.6373 29.1051 69.0682 28.9709 69.4062 28.7024C69.7443 28.4339 69.9945 28.081 70.1569 27.6435C70.3193 27.206 70.4005 26.732 70.4005 26.2216C70.4005 25.7112 70.3193 25.2356 70.1569 24.7947C69.9945 24.3539 69.7443 23.9976 69.4062 23.7259C69.0682 23.4541 68.6373 23.3182 68.1136 23.3182C67.5899 23.3182 67.1591 23.4541 66.821 23.7259C66.4829 23.9976 66.2327 24.3539 66.0703 24.7947C65.9079 25.2356 65.8267 25.7112 65.8267 26.2216C65.8267 26.732 65.9079 27.206 66.0703 27.6435C66.2327 28.081 66.4829 28.4339 66.821 28.7024C67.1591 28.9709 67.5899 29.1051 68.1136 29.1051ZM74.5381 19.8182V30H73.3648V19.8182H74.5381ZM76.6871 30V22.3636H77.8604V30H76.6871ZM77.2837 21.0909C77.055 21.0909 76.8578 21.013 76.6921 20.8572C76.5297 20.7015 76.4485 20.5142 76.4485 20.2955C76.4485 20.0767 76.5297 19.8894 76.6921 19.7337C76.8578 19.5779 77.055 19.5 77.2837 19.5C77.5124 19.5 77.7079 19.5779 77.8704 19.7337C78.0361 19.8894 78.1189 20.0767 78.1189 20.2955C78.1189 20.5142 78.0361 20.7015 77.8704 20.8572C77.7079 21.013 77.5124 21.0909 77.2837 21.0909ZM82.8929 30.1591C82.2565 30.1591 81.6947 29.9983 81.2075 29.6768C80.7203 29.352 80.3392 28.8946 80.0641 28.3047C79.789 27.7114 79.6514 27.0104 79.6514 26.2017C79.6514 25.3996 79.789 24.7036 80.0641 24.1136C80.3392 23.5237 80.722 23.0679 81.2125 22.7464C81.703 22.425 82.2698 22.2642 82.9128 22.2642C83.4099 22.2642 83.8027 22.3471 84.0911 22.5128C84.3827 22.6752 84.6048 22.8608 84.7572 23.0696C84.913 23.2751 85.034 23.4441 85.1202 23.5767H85.2196V19.8182H86.3929V30H85.2594V28.8267H85.1202C85.034 28.9659 84.9114 29.1416 84.7523 29.3537C84.5932 29.5625 84.3662 29.7498 84.0712 29.9155C83.7762 30.0779 83.3834 30.1591 82.8929 30.1591ZM83.052 29.1051C83.5226 29.1051 83.9204 28.9825 84.2452 28.7372C84.57 28.4886 84.8169 28.1456 84.9859 27.7081C85.155 27.2673 85.2395 26.7585 85.2395 26.1818C85.2395 25.6117 85.1566 25.1129 84.9909 24.6854C84.8252 24.2545 84.5799 23.9197 84.2551 23.6811C83.9303 23.4392 83.5293 23.3182 83.052 23.3182C82.5548 23.3182 82.1405 23.4458 81.8091 23.701C81.481 23.9529 81.234 24.2959 81.0683 24.7301C80.9059 25.161 80.8247 25.6449 80.8247 26.1818C80.8247 26.7254 80.9076 27.2192 81.0733 27.6634C81.2423 28.1042 81.4909 28.4555 81.819 28.7173C82.1505 28.9759 82.5615 29.1051 83.052 29.1051ZM95.9632 22.3636V23.358H92.0058V22.3636H95.9632ZM93.1592 20.5341H94.3325V27.8125C94.3325 28.1439 94.3806 28.3925 94.4767 28.5582C94.5761 28.7206 94.7021 28.83 94.8546 28.8864C95.0103 28.9394 95.1744 28.9659 95.3467 28.9659C95.476 28.9659 95.5821 28.9593 95.6649 28.946C95.7478 28.9295 95.8141 28.9162 95.8638 28.9062L96.1024 29.9602C96.0229 29.9901 95.9118 30.0199 95.7693 30.0497C95.6268 30.0829 95.4462 30.0994 95.2274 30.0994C94.896 30.0994 94.5712 30.0282 94.253 29.8857C93.9381 29.7431 93.6763 29.526 93.4675 29.2344C93.262 28.9427 93.1592 28.5748 93.1592 28.1307V20.5341ZM100.848 30.1591C100.112 30.1591 99.4773 29.9967 98.9437 29.6719C98.4134 29.3438 98.0041 28.8864 97.7157 28.2997C97.4307 27.7098 97.2881 27.0237 97.2881 26.2415C97.2881 25.4593 97.4307 24.7699 97.7157 24.1733C98.0041 23.5734 98.4051 23.1061 98.9188 22.7713C99.4359 22.4332 100.039 22.2642 100.728 22.2642C101.126 22.2642 101.519 22.3305 101.907 22.4631C102.295 22.5956 102.648 22.8111 102.966 23.1094C103.284 23.4044 103.537 23.7955 103.726 24.2827C103.915 24.7699 104.01 25.3698 104.01 26.0824V26.5795H98.1234V25.5653H102.817C102.817 25.1345 102.73 24.75 102.558 24.4119C102.389 24.0739 102.147 23.8071 101.832 23.6115C101.521 23.416 101.153 23.3182 100.728 23.3182C100.261 23.3182 99.8568 23.4342 99.5154 23.6662C99.1773 23.8949 98.9172 24.1932 98.7349 24.5611C98.5526 24.929 98.4614 25.3234 98.4614 25.7443V26.4205C98.4614 26.9972 98.5609 27.486 98.7597 27.8871C98.9619 28.2848 99.242 28.5881 99.5999 28.7969C99.9579 29.0024 100.374 29.1051 100.848 29.1051C101.156 29.1051 101.434 29.062 101.683 28.9759C101.935 28.8864 102.152 28.7538 102.334 28.5781C102.517 28.3991 102.657 28.1771 102.757 27.9119L103.89 28.2301C103.771 28.6146 103.571 28.9527 103.289 29.2443C103.007 29.5327 102.659 29.758 102.245 29.9205C101.831 30.0795 101.365 30.1591 100.848 30.1591ZM108.042 30.179C107.558 30.179 107.119 30.0878 106.724 29.9055C106.33 29.7199 106.017 29.4531 105.785 29.1051C105.553 28.7538 105.437 28.3295 105.437 27.8324C105.437 27.3949 105.523 27.0402 105.695 26.7685C105.867 26.4934 106.098 26.2779 106.386 26.1222C106.675 25.9664 106.993 25.8504 107.341 25.7741C107.692 25.6946 108.045 25.6316 108.4 25.5852C108.864 25.5256 109.24 25.4808 109.528 25.451C109.82 25.4179 110.032 25.3632 110.165 25.2869C110.3 25.2107 110.368 25.0781 110.368 24.8892V24.8494C110.368 24.3589 110.234 23.9777 109.966 23.706C109.701 23.4342 109.298 23.2983 108.758 23.2983C108.197 23.2983 107.758 23.4209 107.44 23.6662C107.122 23.9115 106.898 24.1733 106.769 24.4517L105.655 24.054C105.854 23.59 106.119 23.2287 106.451 22.9702C106.786 22.7083 107.15 22.526 107.545 22.4233C107.942 22.3172 108.333 22.2642 108.718 22.2642C108.963 22.2642 109.245 22.294 109.563 22.3537C109.884 22.41 110.194 22.5277 110.493 22.7067C110.794 22.8857 111.045 23.1558 111.243 23.517C111.442 23.8783 111.542 24.3622 111.542 24.9688V30H110.368V28.9659H110.309C110.229 29.1316 110.097 29.3089 109.911 29.4979C109.725 29.6868 109.478 29.8475 109.17 29.9801C108.862 30.1127 108.486 30.179 108.042 30.179ZM108.221 29.125C108.685 29.125 109.076 29.0339 109.394 28.8516C109.715 28.6693 109.957 28.4339 110.12 28.1456C110.286 27.8572 110.368 27.554 110.368 27.2358V26.1619C110.319 26.2216 110.209 26.2763 110.04 26.326C109.875 26.3724 109.682 26.4138 109.464 26.4503C109.248 26.4834 109.038 26.5133 108.832 26.5398C108.63 26.563 108.466 26.5829 108.34 26.5994C108.035 26.6392 107.75 26.7038 107.485 26.7933C107.223 26.8795 107.011 27.0104 106.849 27.1861C106.689 27.3584 106.61 27.5937 106.61 27.892C106.61 28.2997 106.761 28.608 107.062 28.8168C107.367 29.0223 107.753 29.125 108.221 29.125ZM113.683 30V22.3636H114.817V23.5568H114.916C115.075 23.1491 115.332 22.8326 115.687 22.6072C116.041 22.3786 116.467 22.2642 116.964 22.2642C117.468 22.2642 117.888 22.3786 118.222 22.6072C118.56 22.8326 118.824 23.1491 119.013 23.5568H119.092C119.288 23.1624 119.581 22.8492 119.972 22.6172C120.363 22.3819 120.832 22.2642 121.379 22.2642C122.062 22.2642 122.62 22.478 123.055 22.9055C123.489 23.3298 123.706 23.991 123.706 24.8892V30H122.533V24.8892C122.533 24.3258 122.379 23.9231 122.07 23.6811C121.762 23.4392 121.399 23.3182 120.982 23.3182C120.445 23.3182 120.029 23.4806 119.734 23.8054C119.439 24.1269 119.291 24.5346 119.291 25.0284V30H118.098V24.7699C118.098 24.3357 117.957 23.986 117.675 23.7209C117.394 23.4524 117.031 23.3182 116.587 23.3182C116.282 23.3182 115.997 23.3994 115.732 23.5618C115.47 23.7242 115.258 23.9496 115.095 24.2379C114.936 24.523 114.857 24.8527 114.857 25.2273V30H113.683ZM127.402 19.8182L127.303 27.1364H126.149L126.05 19.8182H127.402ZM126.726 30.0795C126.481 30.0795 126.27 29.9917 126.095 29.8161C125.919 29.6404 125.831 29.4299 125.831 29.1847C125.831 28.9394 125.919 28.7289 126.095 28.5533C126.27 28.3776 126.481 28.2898 126.726 28.2898C126.971 28.2898 127.182 28.3776 127.358 28.5533C127.533 28.7289 127.621 28.9394 127.621 29.1847C127.621 29.3471 127.58 29.4962 127.497 29.6321C127.417 29.768 127.31 29.8774 127.174 29.9602C127.041 30.0398 126.892 30.0795 126.726 30.0795Z" fill="#1A1A1A"/>
</svg>
