<svg width="174" height="52" viewBox="0 0 174 52" fill="none" xmlns="http://www.w3.org/2000/svg">
<path d="M174 16.9565C174 7.59169 166.408 0 157.043 0H26C11.6406 0 0 11.6406 0 26V26C0 40.3594 11.6406 52 26 52H174V16.9565Z" fill="#F6F3EF"/>
<path d="M27.7887 17.0543C27.7114 16.8178 27.6095 16.6059 27.4831 16.4186C27.359 16.2289 27.2103 16.0673 27.037 15.9338C26.866 15.8004 26.6717 15.6985 26.4539 15.6283C26.2361 15.558 25.9973 15.5229 25.7373 15.5229C25.3112 15.5229 24.9236 15.6329 24.5747 15.8531C24.2258 16.0732 23.9483 16.3975 23.7422 16.826C23.5361 17.2546 23.4331 17.7803 23.4331 18.4032C23.4331 19.0261 23.5373 19.5518 23.7457 19.9803C23.9541 20.4088 24.2363 20.7331 24.5923 20.9533C24.9482 21.1734 25.3486 21.2834 25.7935 21.2834C26.2057 21.2834 26.5686 21.1956 26.8824 21.02C27.1986 20.842 27.4444 20.5915 27.6201 20.2683C27.798 19.9428 27.887 19.56 27.887 19.1197L28.154 19.1759H25.9902V18.4032H28.73V19.1759C28.73 19.7684 28.6036 20.2835 28.3507 20.7214C28.1001 21.1593 27.7535 21.4989 27.311 21.7401C26.8707 21.9789 26.3649 22.0984 25.7935 22.0984C25.1566 22.0984 24.5969 21.9485 24.1145 21.6487C23.6345 21.349 23.2598 20.9228 22.9905 20.3702C22.7236 19.8175 22.5901 19.1619 22.5901 18.4032C22.5901 17.8341 22.6662 17.3225 22.8184 16.8682C22.973 16.4116 23.1908 16.0228 23.4718 15.702C23.7528 15.3812 24.0853 15.1353 24.4693 14.9644C24.8534 14.7934 25.276 14.708 25.7373 14.708C26.1167 14.708 26.4703 14.7653 26.7981 14.8801C27.1283 14.9925 27.4222 15.1529 27.6798 15.3613C27.9397 15.5674 28.1563 15.8144 28.3296 16.1024C28.5029 16.3881 28.6223 16.7054 28.6879 17.0543H27.7887ZM32.3014 22.1124C31.8143 22.1124 31.387 21.9965 31.0193 21.7647C30.654 21.5328 30.3683 21.2085 30.1623 20.7917C29.9585 20.3749 29.8567 19.8878 29.8567 19.3305C29.8567 18.7685 29.9585 18.2779 30.1623 17.8587C30.3683 17.4396 30.654 17.1141 31.0193 16.8822C31.387 16.6504 31.8143 16.5345 32.3014 16.5345C32.7885 16.5345 33.2147 16.6504 33.58 16.8822C33.9476 17.1141 34.2333 17.4396 34.437 17.8587C34.6431 18.2779 34.7461 18.7685 34.7461 19.3305C34.7461 19.8878 34.6431 20.3749 34.437 20.7917C34.2333 21.2085 33.9476 21.5328 33.58 21.7647C33.2147 21.9965 32.7885 22.1124 32.3014 22.1124ZM32.3014 21.3677C32.6714 21.3677 32.9758 21.2729 33.2147 21.0832C33.4535 20.8936 33.6303 20.6442 33.745 20.3351C33.8598 20.026 33.9172 19.6911 33.9172 19.3305C33.9172 18.9699 33.8598 18.6338 33.745 18.3224C33.6303 18.0109 33.4535 17.7592 33.2147 17.5672C32.9758 17.3752 32.6714 17.2791 32.3014 17.2791C31.9314 17.2791 31.627 17.3752 31.3881 17.5672C31.1493 17.7592 30.9725 18.0109 30.8577 18.3224C30.743 18.6338 30.6856 18.9699 30.6856 19.3305C30.6856 19.6911 30.743 20.026 30.8577 20.3351C30.9725 20.6442 31.1493 20.8936 31.3881 21.0832C31.627 21.2729 31.9314 21.3677 32.3014 21.3677ZM38.2033 22.1124C37.7163 22.1124 37.2889 21.9965 36.9213 21.7647C36.556 21.5328 36.2703 21.2085 36.0642 20.7917C35.8605 20.3749 35.7586 19.8878 35.7586 19.3305C35.7586 18.7685 35.8605 18.2779 36.0642 17.8587C36.2703 17.4396 36.556 17.1141 36.9213 16.8822C37.2889 16.6504 37.7163 16.5345 38.2033 16.5345C38.6904 16.5345 39.1166 16.6504 39.4819 16.8822C39.8495 17.1141 40.1352 17.4396 40.339 17.8587C40.545 18.2779 40.6481 18.7685 40.6481 19.3305C40.6481 19.8878 40.545 20.3749 40.339 20.7917C40.1352 21.2085 39.8495 21.5328 39.4819 21.7647C39.1166 21.9965 38.6904 22.1124 38.2033 22.1124ZM38.2033 21.3677C38.5733 21.3677 38.8777 21.2729 39.1166 21.0832C39.3554 20.8936 39.5322 20.6442 39.647 20.3351C39.7617 20.026 39.8191 19.6911 39.8191 19.3305C39.8191 18.9699 39.7617 18.6338 39.647 18.3224C39.5322 18.0109 39.3554 17.7592 39.1166 17.5672C38.8777 17.3752 38.5733 17.2791 38.2033 17.2791C37.8333 17.2791 37.5289 17.3752 37.2901 17.5672C37.0512 17.7592 36.8744 18.0109 36.7597 18.3224C36.6449 18.6338 36.5876 18.9699 36.5876 19.3305C36.5876 19.6911 36.6449 20.026 36.7597 20.3351C36.8744 20.6442 37.0512 20.8936 37.2901 21.0832C37.5289 21.2729 37.8333 21.3677 38.2033 21.3677ZM43.9507 22.1124C43.5011 22.1124 43.1042 21.9988 42.76 21.7717C42.4157 21.5422 42.1464 21.219 41.9521 20.8022C41.7577 20.3831 41.6605 19.8878 41.6605 19.3164C41.6605 18.7497 41.7577 18.258 41.9521 17.8412C42.1464 17.4243 42.4169 17.1024 42.7635 16.8752C43.1101 16.6481 43.5105 16.5345 43.9648 16.5345C44.316 16.5345 44.5935 16.593 44.7972 16.7101C45.0033 16.8249 45.1602 16.956 45.2679 17.1035C45.378 17.2487 45.4635 17.3681 45.5243 17.4618H45.5946V14.8063H46.4235V22H45.6227V21.171H45.5243C45.4635 21.2694 45.3768 21.3935 45.2644 21.5434C45.152 21.6909 44.9916 21.8232 44.7832 21.9403C44.5748 22.055 44.2973 22.1124 43.9507 22.1124ZM44.0631 21.3677C44.3956 21.3677 44.6766 21.2811 44.9061 21.1078C45.1356 20.9322 45.3101 20.6898 45.4295 20.3807C45.5489 20.0693 45.6086 19.7098 45.6086 19.3024C45.6086 18.8996 45.5501 18.5472 45.433 18.2451C45.3159 17.9407 45.1426 17.7042 44.9132 17.5356C44.6837 17.3646 44.4003 17.2791 44.0631 17.2791C43.7119 17.2791 43.4192 17.3693 43.185 17.5496C42.9532 17.7276 42.7787 17.9699 42.6616 18.2767C42.5469 18.5811 42.4895 18.923 42.4895 19.3024C42.4895 19.6864 42.548 20.0353 42.6651 20.3491C42.7846 20.6606 42.9602 20.9088 43.192 21.0938C43.4262 21.2764 43.7166 21.3677 44.0631 21.3677ZM53.1852 16.6047V17.3072H50.3892V16.6047H53.1852ZM51.2041 15.3121H52.0331V20.4545C52.0331 20.6887 52.067 20.8643 52.1349 20.9814C52.2052 21.0961 52.2942 21.1734 52.4019 21.2132C52.5119 21.2507 52.6279 21.2694 52.7496 21.2694C52.841 21.2694 52.9159 21.2647 52.9744 21.2553C53.033 21.2436 53.0798 21.2343 53.1149 21.2272L53.2835 21.9719C53.2273 21.993 53.1489 22.0141 53.0482 22.0351C52.9475 22.0585 52.8199 22.0703 52.6653 22.0703C52.4312 22.0703 52.2017 22.0199 51.9769 21.9192C51.7544 21.8185 51.5694 21.6651 51.4219 21.4591C51.2767 21.253 51.2041 20.9931 51.2041 20.6793V15.3121ZM56.566 22.1124C56.0789 22.1124 55.6516 21.9965 55.2839 21.7647C54.9186 21.5328 54.6329 21.2085 54.4269 20.7917C54.2231 20.3749 54.1213 19.8878 54.1213 19.3305C54.1213 18.7685 54.2231 18.2779 54.4269 17.8587C54.6329 17.4396 54.9186 17.1141 55.2839 16.8822C55.6516 16.6504 56.0789 16.5345 56.566 16.5345C57.0531 16.5345 57.4793 16.6504 57.8446 16.8822C58.2122 17.1141 58.4979 17.4396 58.7016 17.8587C58.9077 18.2779 59.0107 18.7685 59.0107 19.3305C59.0107 19.8878 58.9077 20.3749 58.7016 20.7917C58.4979 21.2085 58.2122 21.5328 57.8446 21.7647C57.4793 21.9965 57.0531 22.1124 56.566 22.1124ZM56.566 21.3677C56.936 21.3677 57.2404 21.2729 57.4793 21.0832C57.7181 20.8936 57.8949 20.6442 58.0097 20.3351C58.1244 20.026 58.1818 19.6911 58.1818 19.3305C58.1818 18.9699 58.1244 18.6338 58.0097 18.3224C57.8949 18.0109 57.7181 17.7592 57.4793 17.5672C57.2404 17.3752 56.936 17.2791 56.566 17.2791C56.196 17.2791 55.8916 17.3752 55.6527 17.5672C55.4139 17.7592 55.2371 18.0109 55.1223 18.3224C55.0076 18.6338 54.9502 18.9699 54.9502 19.3305C54.9502 19.6911 55.0076 20.026 55.1223 20.3351C55.2371 20.6442 55.4139 20.8936 55.6527 21.0832C55.8916 21.2729 56.196 21.3677 56.566 21.3677ZM66.8797 17.8131L66.135 18.0238C66.0882 17.8997 66.0191 17.7791 65.9278 17.662C65.8388 17.5426 65.717 17.4442 65.5625 17.367C65.4079 17.2897 65.2101 17.251 64.9689 17.251C64.6387 17.251 64.3635 17.3272 64.1434 17.4794C63.9256 17.6292 63.8168 17.8201 63.8168 18.0519C63.8168 18.258 63.8917 18.4207 64.0416 18.5402C64.1914 18.6596 64.4256 18.7591 64.7441 18.8387L65.5449 19.0354C66.0273 19.1525 66.3868 19.3316 66.6233 19.5728C66.8598 19.8117 66.978 20.1196 66.978 20.4966C66.978 20.8057 66.8891 21.0821 66.7111 21.3256C66.5355 21.5691 66.2896 21.7611 65.9735 21.9016C65.6573 22.0422 65.2897 22.1124 64.8705 22.1124C64.3202 22.1124 63.8648 21.993 63.5041 21.7541C63.1435 21.5153 62.9152 21.1664 62.8192 20.7074L63.606 20.5107C63.6809 20.8011 63.8226 21.0188 64.031 21.164C64.2418 21.3092 64.5169 21.3818 64.8565 21.3818C65.2428 21.3818 65.5496 21.2998 65.7768 21.1359C66.0062 20.9697 66.121 20.7706 66.121 20.5388C66.121 20.3514 66.0554 20.1946 65.9243 20.0681C65.7931 19.9393 65.5918 19.8433 65.3201 19.7801L64.4209 19.5693C63.9268 19.4522 63.5639 19.2708 63.332 19.0249C63.1025 18.7767 62.9878 18.4664 62.9878 18.0941C62.9878 17.7896 63.0733 17.5203 63.2442 17.2862C63.4175 17.052 63.6528 16.8682 63.9502 16.7347C64.25 16.6012 64.5895 16.5345 64.9689 16.5345C65.5028 16.5345 65.9219 16.6516 66.2264 16.8857C66.5331 17.1199 66.7509 17.429 66.8797 17.8131ZM70.4879 22.1124C69.9681 22.1124 69.5197 21.9977 69.1426 21.7682C68.768 21.5363 68.4788 21.2132 68.275 20.7987C68.0737 20.3819 67.973 19.8972 67.973 19.3445C67.973 18.7919 68.0737 18.3048 68.275 17.8833C68.4788 17.4595 68.7621 17.1293 69.1251 16.8928C69.4904 16.6539 69.9166 16.5345 70.4036 16.5345C70.6846 16.5345 70.9621 16.5813 71.2361 16.675C71.5101 16.7687 71.7595 16.9209 71.9843 17.1316C72.2091 17.34 72.3882 17.6164 72.5217 17.9606C72.6552 18.3048 72.7219 18.7287 72.7219 19.2321V19.5834H68.5631V18.8668H71.8789C71.8789 18.5624 71.818 18.2908 71.6963 18.0519C71.5768 17.8131 71.4059 17.6245 71.1834 17.4864C70.9633 17.3482 70.7034 17.2791 70.4036 17.2791C70.0735 17.2791 69.7878 17.3611 69.5466 17.525C69.3077 17.6866 69.1239 17.8974 68.9951 18.1573C68.8663 18.4172 68.8019 18.6959 68.8019 18.9933V19.471C68.8019 19.8784 68.8722 20.2238 69.0127 20.5072C69.1555 20.7882 69.3534 21.0024 69.6063 21.15C69.8592 21.2952 70.1531 21.3677 70.4879 21.3677C70.7057 21.3677 70.9024 21.3373 71.078 21.2764C71.256 21.2132 71.4094 21.1195 71.5382 20.9954C71.667 20.869 71.7665 20.7121 71.8368 20.5247L72.6376 20.7495C72.5533 21.0212 72.4116 21.26 72.2126 21.4661C72.0136 21.6698 71.7677 21.8291 71.475 21.9438C71.1823 22.0562 70.8532 22.1124 70.4879 22.1124ZM76.245 22.1124C75.7251 22.1124 75.2767 21.9977 74.8997 21.7682C74.525 21.5363 74.2358 21.2132 74.0321 20.7987C73.8307 20.3819 73.73 19.8972 73.73 19.3445C73.73 18.7919 73.8307 18.3048 74.0321 17.8833C74.2358 17.4595 74.5192 17.1293 74.8821 16.8928C75.2474 16.6539 75.6736 16.5345 76.1607 16.5345C76.4417 16.5345 76.7192 16.5813 76.9932 16.675C77.2671 16.7687 77.5165 16.9209 77.7413 17.1316C77.9661 17.34 78.1453 17.6164 78.2788 17.9606C78.4122 18.3048 78.479 18.7287 78.479 19.2321V19.5834H74.3201V18.8668H77.636C77.636 18.5624 77.5751 18.2908 77.4533 18.0519C77.3339 17.8131 77.1629 17.6245 76.9405 17.4864C76.7204 17.3482 76.4604 17.2791 76.1607 17.2791C75.8305 17.2791 75.5448 17.3611 75.3036 17.525C75.0648 17.6866 74.881 17.8974 74.7522 18.1573C74.6234 18.4172 74.559 18.6959 74.559 18.9933V19.471C74.559 19.8784 74.6292 20.2238 74.7697 20.5072C74.9126 20.7882 75.1104 21.0024 75.3633 21.15C75.6162 21.2952 75.9101 21.3677 76.245 21.3677C76.4628 21.3677 76.6595 21.3373 76.8351 21.2764C77.0131 21.2132 77.1664 21.1195 77.2952 20.9954C77.424 20.869 77.5236 20.7121 77.5938 20.5247L78.3947 20.7495C78.3104 21.0212 78.1687 21.26 77.9696 21.4661C77.7706 21.6698 77.5247 21.8291 77.232 21.9438C76.9393 22.0562 76.6103 22.1124 76.245 22.1124ZM83.0558 24.0232C82.9153 24.0232 82.79 24.0115 82.68 23.9881C82.5699 23.967 82.4938 23.9459 82.4516 23.9249L82.6624 23.1943C82.8638 23.2458 83.0418 23.2645 83.1963 23.2505C83.3509 23.2364 83.4878 23.1673 83.6073 23.0432C83.729 22.9215 83.8403 22.7236 83.941 22.4496L84.0955 22.0281L82.1004 16.6047H82.9996L84.4889 20.9041H84.5451L86.0344 16.6047H86.9336L84.6435 22.7868C84.5404 23.0655 84.4128 23.2961 84.2606 23.4788C84.1084 23.6638 83.9316 23.8008 83.7302 23.8897C83.5312 23.9787 83.3064 24.0232 83.0558 24.0232ZM90.0264 22.1124C89.5394 22.1124 89.112 21.9965 88.7444 21.7647C88.379 21.5328 88.0934 21.2085 87.8873 20.7917C87.6836 20.3749 87.5817 19.8878 87.5817 19.3305C87.5817 18.7685 87.6836 18.2779 87.8873 17.8587C88.0934 17.4396 88.379 17.1141 88.7444 16.8822C89.112 16.6504 89.5394 16.5345 90.0264 16.5345C90.5135 16.5345 90.9397 16.6504 91.305 16.8822C91.6726 17.1141 91.9583 17.4396 92.1621 17.8587C92.3681 18.2779 92.4712 18.7685 92.4712 19.3305C92.4712 19.8878 92.3681 20.3749 92.1621 20.7917C91.9583 21.2085 91.6726 21.5328 91.305 21.7647C90.9397 21.9965 90.5135 22.1124 90.0264 22.1124ZM90.0264 21.3677C90.3964 21.3677 90.7008 21.2729 90.9397 21.0832C91.1785 20.8936 91.3553 20.6442 91.4701 20.3351C91.5848 20.026 91.6422 19.6911 91.6422 19.3305C91.6422 18.9699 91.5848 18.6338 91.4701 18.3224C91.3553 18.0109 91.1785 17.7592 90.9397 17.5672C90.7008 17.3752 90.3964 17.2791 90.0264 17.2791C89.6564 17.2791 89.352 17.3752 89.1132 17.5672C88.8743 17.7592 88.6975 18.0109 88.5828 18.3224C88.468 18.6338 88.4107 18.9699 88.4107 19.3305C88.4107 19.6911 88.468 20.026 88.5828 20.3351C88.6975 20.6442 88.8743 20.8936 89.1132 21.0832C89.352 21.2729 89.6564 21.3677 90.0264 21.3677ZM97.1367 19.7941V16.6047H97.9656V22H97.1367V21.0867H97.0805C96.954 21.3607 96.7573 21.5937 96.4904 21.7857C96.2234 21.9754 95.8862 22.0703 95.4788 22.0703C95.1416 22.0703 94.8418 21.9965 94.5796 21.849C94.3173 21.6991 94.1112 21.4743 93.9614 21.1746C93.8115 20.8725 93.7366 20.492 93.7366 20.033V16.6047H94.5655V19.9768C94.5655 20.3702 94.6756 20.684 94.8957 20.9181C95.1182 21.1523 95.4015 21.2694 95.7457 21.2694C95.9518 21.2694 96.1614 21.2167 96.3745 21.1113C96.5899 21.006 96.7702 20.8444 96.9154 20.6266C97.0629 20.4088 97.1367 20.1313 97.1367 19.7941ZM105.132 14.8063H106.003V19.9487C106.003 20.4076 105.919 20.7975 105.75 21.1184C105.582 21.4392 105.344 21.6827 105.037 21.849C104.73 22.0152 104.369 22.0984 103.952 22.0984C103.558 22.0984 103.208 22.0269 102.902 21.8841C102.595 21.7389 102.354 21.5328 102.178 21.2659C102.002 20.9989 101.915 20.6816 101.915 20.314H102.772C102.772 20.5177 102.822 20.6957 102.923 20.8479C103.026 20.9978 103.166 21.1148 103.344 21.1991C103.522 21.2834 103.725 21.3256 103.952 21.3256C104.202 21.3256 104.416 21.2729 104.591 21.1675C104.767 21.0622 104.9 20.9076 104.992 20.7039C105.085 20.4978 105.132 20.2461 105.132 19.9487V14.8063ZM109.224 22.1265C108.882 22.1265 108.572 22.0621 108.293 21.9333C108.015 21.8021 107.793 21.6136 107.63 21.3677C107.466 21.1195 107.384 20.8198 107.384 20.4685C107.384 20.1594 107.445 19.9089 107.566 19.7169C107.688 19.5225 107.851 19.3703 108.055 19.2602C108.258 19.1502 108.483 19.0682 108.729 19.0143C108.977 18.9581 109.227 18.9137 109.477 18.8809C109.805 18.8387 110.071 18.8071 110.274 18.786C110.481 18.7626 110.63 18.724 110.724 18.6701C110.82 18.6163 110.868 18.5226 110.868 18.3891V18.361C110.868 18.0144 110.773 17.7451 110.584 17.5531C110.396 17.3611 110.112 17.2651 109.73 17.2651C109.334 17.2651 109.024 17.3517 108.799 17.525C108.574 17.6983 108.416 17.8833 108.325 18.08L107.538 17.799C107.679 17.4712 107.866 17.2159 108.1 17.0333C108.337 16.8483 108.594 16.7195 108.873 16.6469C109.154 16.572 109.43 16.5345 109.702 16.5345C109.875 16.5345 110.074 16.5556 110.299 16.5977C110.526 16.6375 110.745 16.7207 110.956 16.8471C111.169 16.9736 111.346 17.1644 111.486 17.4197C111.627 17.6749 111.697 18.0168 111.697 18.4453V22H110.868V21.2694H110.826C110.77 21.3865 110.676 21.5118 110.545 21.6452C110.414 21.7787 110.239 21.8923 110.022 21.9859C109.804 22.0796 109.538 22.1265 109.224 22.1265ZM109.351 21.3818C109.678 21.3818 109.955 21.3174 110.18 21.1886C110.407 21.0598 110.578 20.8936 110.692 20.6898C110.81 20.4861 110.868 20.2718 110.868 20.047V19.2883C110.833 19.3305 110.756 19.3691 110.636 19.4042C110.519 19.437 110.383 19.4663 110.229 19.492C110.077 19.5155 109.928 19.5365 109.783 19.5553C109.64 19.5717 109.524 19.5857 109.435 19.5974C109.22 19.6255 109.018 19.6712 108.831 19.7344C108.646 19.7953 108.496 19.8878 108.381 20.0119C108.269 20.1337 108.213 20.2999 108.213 20.5107C108.213 20.7987 108.319 21.0165 108.532 21.164C108.748 21.3092 109.02 21.3818 109.351 21.3818ZM115.402 22.1124C114.896 22.1124 114.461 21.993 114.095 21.7541C113.73 21.5153 113.449 21.1863 113.252 20.7671C113.056 20.3479 112.957 19.8691 112.957 19.3305C112.957 18.7825 113.058 18.299 113.259 17.8798C113.463 17.4583 113.746 17.1293 114.109 16.8928C114.475 16.6539 114.901 16.5345 115.388 16.5345C115.767 16.5345 116.109 16.6047 116.413 16.7452C116.718 16.8857 116.967 17.0824 117.162 17.3354C117.356 17.5883 117.477 17.8833 117.523 18.2205H116.694C116.631 17.9746 116.491 17.7569 116.273 17.5672C116.058 17.3752 115.767 17.2791 115.402 17.2791C115.079 17.2791 114.795 17.3635 114.552 17.5321C114.311 17.6983 114.122 17.9337 113.986 18.2381C113.853 18.5402 113.786 18.8949 113.786 19.3024C113.786 19.7192 113.852 20.0822 113.983 20.3913C114.116 20.7004 114.304 20.9404 114.545 21.1113C114.788 21.2823 115.074 21.3677 115.402 21.3677C115.617 21.3677 115.813 21.3303 115.988 21.2553C116.164 21.1804 116.313 21.0727 116.435 20.9322C116.556 20.7917 116.643 20.6231 116.694 20.4264H117.523C117.477 20.7449 117.361 21.0317 117.176 21.287C116.993 21.5399 116.751 21.7412 116.449 21.8911C116.149 22.0386 115.8 22.1124 115.402 22.1124ZM119.508 20.033L119.494 19.0073H119.663L122.023 16.6047H123.049L120.534 19.1478H120.463L119.508 20.033ZM118.735 22V14.8063H119.564V22H118.735ZM122.164 22L120.056 19.3305L120.646 18.7544L123.217 22H122.164ZM125.212 14.8063L125.141 19.9768H124.326L124.256 14.8063H125.212ZM124.734 22.0562C124.561 22.0562 124.412 21.9941 124.288 21.87C124.164 21.7459 124.102 21.5972 124.102 21.4239C124.102 21.2507 124.164 21.102 124.288 20.9779C124.412 20.8537 124.561 20.7917 124.734 20.7917C124.907 20.7917 125.056 20.8537 125.18 20.9779C125.304 21.102 125.366 21.2507 125.366 21.4239C125.366 21.5387 125.337 21.6441 125.278 21.7401C125.222 21.8361 125.146 21.9134 125.05 21.9719C124.956 22.0281 124.851 22.0562 124.734 22.0562ZM22.2529 29.8063H23.2505L25.2456 33.1643H25.3299L27.325 29.8063H28.3226L25.7233 34.0354V37H24.8522V34.0354L22.2529 29.8063ZM30.7655 37.1124C30.2785 37.1124 29.8511 36.9965 29.4835 36.7647C29.1182 36.5328 28.8325 36.2085 28.6264 35.7917C28.4227 35.3749 28.3208 34.8878 28.3208 34.3305C28.3208 33.7685 28.4227 33.2779 28.6264 32.8587C28.8325 32.4396 29.1182 32.1141 29.4835 31.8822C29.8511 31.6504 30.2785 31.5345 30.7655 31.5345C31.2526 31.5345 31.6788 31.6504 32.0441 31.8822C32.4117 32.1141 32.6974 32.4396 32.9012 32.8587C33.1072 33.2779 33.2103 33.7685 33.2103 34.3305C33.2103 34.8878 33.1072 35.3749 32.9012 35.7917C32.6974 36.2085 32.4117 36.5328 32.0441 36.7647C31.6788 36.9965 31.2526 37.1124 30.7655 37.1124ZM30.7655 36.3677C31.1355 36.3677 31.4399 36.2729 31.6788 36.0832C31.9176 35.8936 32.0944 35.6442 32.2092 35.3351C32.3239 35.026 32.3813 34.6911 32.3813 34.3305C32.3813 33.9699 32.3239 33.6338 32.2092 33.3224C32.0944 33.0109 31.9176 32.7592 31.6788 32.5672C31.4399 32.3752 31.1355 32.2791 30.7655 32.2791C30.3955 32.2791 30.0911 32.3752 29.8523 32.5672C29.6134 32.7592 29.4366 33.0109 29.3219 33.3224C29.2071 33.6338 29.1498 33.9699 29.1498 34.3305C29.1498 34.6911 29.2071 35.026 29.3219 35.3351C29.4366 35.6442 29.6134 35.8936 29.8523 36.0832C30.0911 36.2729 30.3955 36.3677 30.7655 36.3677ZM37.8758 34.7941V31.6047H38.7047V37H37.8758V36.0867H37.8196C37.6931 36.3607 37.4964 36.5937 37.2295 36.7857C36.9625 36.9754 36.6253 37.0703 36.2179 37.0703C35.8807 37.0703 35.5809 36.9965 35.3187 36.849C35.0564 36.6991 34.8503 36.4743 34.7005 36.1746C34.5506 35.8725 34.4757 35.492 34.4757 35.033V31.6047H35.3046V34.9768C35.3046 35.3702 35.4147 35.684 35.6348 35.9181C35.8573 36.1523 36.1406 36.2694 36.4848 36.2694C36.6909 36.2694 36.9005 36.2167 37.1136 36.1113C37.329 36.006 37.5093 35.8444 37.6545 35.6266C37.802 35.4088 37.8758 35.1313 37.8758 34.7941ZM40.223 37V31.6047H41.0239V32.4197H41.0801C41.1785 32.1527 41.3564 31.9361 41.614 31.7698C41.8716 31.6036 42.162 31.5204 42.4851 31.5204C42.546 31.5204 42.6221 31.5216 42.7134 31.524C42.8048 31.5263 42.8738 31.5298 42.9207 31.5345V32.3775C42.8926 32.3705 42.8282 32.3599 42.7275 32.3459C42.6291 32.3295 42.5249 32.3213 42.4149 32.3213C42.1526 32.3213 41.9184 32.3763 41.7124 32.4864C41.5086 32.5941 41.3471 32.744 41.2276 32.936C41.1105 33.1257 41.052 33.3423 41.052 33.5858V37H40.223ZM50.5069 32.8131L49.7622 33.0238C49.7154 32.8997 49.6463 32.7791 49.555 32.662C49.466 32.5426 49.3442 32.4442 49.1897 32.367C49.0351 32.2897 48.8372 32.251 48.5961 32.251C48.2659 32.251 47.9907 32.3272 47.7706 32.4794C47.5528 32.6292 47.4439 32.8201 47.4439 33.0519C47.4439 33.258 47.5189 33.4207 47.6687 33.5402C47.8186 33.6596 48.0528 33.7591 48.3713 33.8387L49.1721 34.0354C49.6545 34.1525 50.0139 34.3316 50.2505 34.5728C50.487 34.8117 50.6052 35.1196 50.6052 35.4966C50.6052 35.8057 50.5162 36.0821 50.3383 36.3256C50.1626 36.5691 49.9168 36.7611 49.6006 36.9016C49.2845 37.0422 48.9169 37.1124 48.4977 37.1124C47.9474 37.1124 47.4919 36.993 47.1313 36.7541C46.7707 36.5153 46.5424 36.1664 46.4464 35.7074L47.2332 35.5107C47.3081 35.8011 47.4498 36.0188 47.6582 36.164C47.869 36.3092 48.1441 36.3818 48.4837 36.3818C48.87 36.3818 49.1768 36.2998 49.4039 36.1359C49.6334 35.9697 49.7482 35.7706 49.7482 35.5388C49.7482 35.3514 49.6826 35.1946 49.5515 35.0681C49.4203 34.9393 49.2189 34.8433 48.9473 34.7801L48.0481 34.5693C47.554 34.4522 47.191 34.2708 46.9592 34.0249C46.7297 33.7767 46.615 33.4664 46.615 33.0941C46.615 32.7896 46.7005 32.5203 46.8714 32.2862C47.0447 32.052 47.28 31.8682 47.5774 31.7347C47.8772 31.6012 48.2167 31.5345 48.5961 31.5345C49.13 31.5345 49.5491 31.6516 49.8535 31.8857C50.1603 32.1199 50.3781 32.429 50.5069 32.8131ZM51.8531 37V31.6047H52.682V37H51.8531ZM52.2746 30.7055C52.113 30.7055 51.9737 30.6505 51.8566 30.5404C51.7418 30.4304 51.6845 30.2981 51.6845 30.1435C51.6845 29.989 51.7418 29.8567 51.8566 29.7466C51.9737 29.6366 52.113 29.5815 52.2746 29.5815C52.4361 29.5815 52.5743 29.6366 52.689 29.7466C52.8061 29.8567 52.8647 29.989 52.8647 30.1435C52.8647 30.2981 52.8061 30.4304 52.689 30.5404C52.5743 30.6505 52.4361 30.7055 52.2746 30.7055ZM56.5467 31.6047V32.3072H53.7507V31.6047H56.5467ZM54.5656 30.3121H55.3946V35.4545C55.3946 35.6887 55.4285 35.8643 55.4964 35.9814C55.5667 36.0961 55.6557 36.1734 55.7634 36.2132C55.8734 36.2507 55.9894 36.2694 56.1111 36.2694C56.2025 36.2694 56.2774 36.2647 56.3359 36.2553C56.3945 36.2436 56.4413 36.2343 56.4764 36.2272L56.645 36.9719C56.5888 36.993 56.5104 37.0141 56.4097 37.0351C56.309 37.0585 56.1814 37.0703 56.0268 37.0703C55.7927 37.0703 55.5632 37.0199 55.3384 36.9192C55.1159 36.8185 54.9309 36.6651 54.7834 36.4591C54.6382 36.253 54.5656 35.9931 54.5656 35.6793V30.3121ZM59.9977 37.1124C59.4779 37.1124 59.0295 36.9977 58.6524 36.7682C58.2778 36.5363 57.9886 36.2132 57.7849 35.7987C57.5835 35.3819 57.4828 34.8972 57.4828 34.3445C57.4828 33.7919 57.5835 33.3048 57.7849 32.8833C57.9886 32.4595 58.2719 32.1293 58.6349 31.8928C59.0002 31.6539 59.4264 31.5345 59.9134 31.5345C60.1945 31.5345 60.4719 31.5813 60.7459 31.675C61.0199 31.7687 61.2693 31.9209 61.4941 32.1316C61.7189 32.34 61.898 32.6164 62.0315 32.9606C62.165 33.3048 62.2317 33.7287 62.2317 34.2321V34.5834H58.0729V33.8668H61.3887C61.3887 33.5624 61.3278 33.2908 61.2061 33.0519C61.0866 32.8131 60.9157 32.6245 60.6932 32.4864C60.4731 32.3482 60.2132 32.2791 59.9134 32.2791C59.5833 32.2791 59.2976 32.3611 59.0564 32.525C58.8175 32.6866 58.6337 32.8974 58.5049 33.1573C58.3761 33.4172 58.3117 33.6959 58.3117 33.9933V34.471C58.3117 34.8784 58.382 35.2238 58.5225 35.5072C58.6653 35.7882 58.8632 36.0024 59.1161 36.15C59.369 36.2952 59.6629 36.3677 59.9977 36.3677C60.2155 36.3677 60.4122 36.3373 60.5879 36.2764C60.7658 36.2132 60.9192 36.1195 61.048 35.9954C61.1768 35.869 61.2763 35.7121 61.3466 35.5247L62.1474 35.7495C62.0631 36.0212 61.9214 36.26 61.7224 36.4661C61.5234 36.6698 61.2775 36.8291 60.9848 36.9438C60.6921 37.0562 60.3631 37.1124 59.9977 37.1124ZM66.2747 37V31.6047H67.1036V37H66.2747ZM66.6962 30.7055C66.5346 30.7055 66.3953 30.6505 66.2782 30.5404C66.1634 30.4304 66.1061 30.2981 66.1061 30.1435C66.1061 29.989 66.1634 29.8567 66.2782 29.7466C66.3953 29.6366 66.5346 29.5815 66.6962 29.5815C66.8577 29.5815 66.9959 29.6366 67.1106 29.7466C67.2277 29.8567 67.2863 29.989 67.2863 30.1435C67.2863 30.2981 67.2277 30.4304 67.1106 30.5404C66.9959 30.6505 66.8577 30.7055 66.6962 30.7055ZM72.4435 32.8131L71.6989 33.0238C71.6521 32.8997 71.583 32.7791 71.4916 32.662C71.4027 32.5426 71.2809 32.4442 71.1263 32.367C70.9718 32.2897 70.7739 32.251 70.5327 32.251C70.2025 32.251 69.9274 32.3272 69.7073 32.4794C69.4895 32.6292 69.3806 32.8201 69.3806 33.0519C69.3806 33.258 69.4555 33.4207 69.6054 33.5402C69.7553 33.6596 69.9895 33.7591 70.3079 33.8387L71.1088 34.0354C71.5912 34.1525 71.9506 34.3316 72.1871 34.5728C72.4236 34.8117 72.5419 35.1196 72.5419 35.4966C72.5419 35.8057 72.4529 36.0821 72.2749 36.3256C72.0993 36.5691 71.8534 36.7611 71.5373 36.9016C71.2212 37.0422 70.8535 37.1124 70.4344 37.1124C69.8841 37.1124 69.4286 36.993 69.068 36.7541C68.7074 36.5153 68.4791 36.1664 68.3831 35.7074L69.1699 35.5107C69.2448 35.8011 69.3865 36.0188 69.5949 36.164C69.8056 36.3092 70.0808 36.3818 70.4203 36.3818C70.8067 36.3818 71.1135 36.2998 71.3406 36.1359C71.5701 35.9697 71.6848 35.7706 71.6848 35.5388C71.6848 35.3514 71.6193 35.1946 71.4881 35.0681C71.357 34.9393 71.1556 34.8433 70.884 34.7801L69.9848 34.5693C69.4907 34.4522 69.1277 34.2708 68.8959 34.0249C68.6664 33.7767 68.5517 33.4664 68.5517 33.0941C68.5517 32.7896 68.6371 32.5203 68.8081 32.2862C68.9814 32.052 69.2167 31.8682 69.5141 31.7347C69.8138 31.6012 70.1534 31.5345 70.5327 31.5345C71.0666 31.5345 71.4858 31.6516 71.7902 31.8857C72.097 32.1199 72.3148 32.429 72.4435 32.8131ZM78.7635 37.1124C78.2764 37.1124 77.8491 36.9965 77.4814 36.7647C77.1161 36.5328 76.8304 36.2085 76.6243 35.7917C76.4206 35.3749 76.3188 34.8878 76.3188 34.3305C76.3188 33.7685 76.4206 33.2779 76.6243 32.8587C76.8304 32.4396 77.1161 32.1141 77.4814 31.8822C77.8491 31.6504 78.2764 31.5345 78.7635 31.5345C79.2506 31.5345 79.6767 31.6504 80.042 31.8822C80.4097 32.1141 80.6954 32.4396 80.8991 32.8587C81.1052 33.2779 81.2082 33.7685 81.2082 34.3305C81.2082 34.8878 81.1052 35.3749 80.8991 35.7917C80.6954 36.2085 80.4097 36.5328 80.042 36.7647C79.6767 36.9965 79.2506 37.1124 78.7635 37.1124ZM78.7635 36.3677C79.1335 36.3677 79.4379 36.2729 79.6767 36.0832C79.9156 35.8936 80.0924 35.6442 80.2071 35.3351C80.3219 35.026 80.3792 34.6911 80.3792 34.3305C80.3792 33.9699 80.3219 33.6338 80.2071 33.3224C80.0924 33.0109 79.9156 32.7592 79.6767 32.5672C79.4379 32.3752 79.1335 32.2791 78.7635 32.2791C78.3935 32.2791 78.0891 32.3752 77.8502 32.5672C77.6114 32.7592 77.4346 33.0109 77.3198 33.3224C77.2051 33.6338 77.1477 33.9699 77.1477 34.3305C77.1477 34.6911 77.2051 35.026 77.3198 35.3351C77.4346 35.6442 77.6114 35.8936 77.8502 36.0832C78.0891 36.2729 78.3935 36.3677 78.7635 36.3677ZM83.3026 33.7544V37H82.4736V31.6047H83.2745V32.4478H83.3447C83.4712 32.1738 83.6632 31.9537 83.9208 31.7874C84.1783 31.6188 84.5109 31.5345 84.9183 31.5345C85.2836 31.5345 85.6033 31.6094 85.8772 31.7593C86.1512 31.9068 86.3643 32.1316 86.5165 32.4337C86.6687 32.7334 86.7448 33.1128 86.7448 33.5718V37H85.9159V33.628C85.9159 33.2041 85.8058 32.8739 85.5857 32.6374C85.3656 32.3986 85.0635 32.2791 84.6795 32.2791C84.4149 32.2791 84.1783 32.3365 83.9699 32.4513C83.7639 32.566 83.6011 32.7334 83.4817 32.9536C83.3623 33.1737 83.3026 33.4406 83.3026 33.7544ZM93.3879 31.6047V32.3072H90.5919V31.6047H93.3879ZM91.4069 30.3121H92.2358V35.4545C92.2358 35.6887 92.2698 35.8643 92.3377 35.9814C92.4079 36.0961 92.4969 36.1734 92.6046 36.2132C92.7147 36.2507 92.8306 36.2694 92.9524 36.2694C93.0437 36.2694 93.1186 36.2647 93.1772 36.2553C93.2357 36.2436 93.2826 36.2343 93.3177 36.2272L93.4863 36.9719C93.4301 36.993 93.3516 37.0141 93.2509 37.0351C93.1502 37.0585 93.0226 37.0703 92.8681 37.0703C92.6339 37.0703 92.4044 37.0199 92.1796 36.9192C91.9572 36.8185 91.7722 36.6651 91.6246 36.4591C91.4794 36.253 91.4069 35.9931 91.4069 35.6793V30.3121ZM95.5798 33.7544V37H94.7508V29.8063H95.5798V32.4478H95.65C95.7765 32.1691 95.9661 31.9478 96.219 31.7839C96.4743 31.6176 96.8138 31.5345 97.2377 31.5345C97.6053 31.5345 97.9273 31.6083 98.2036 31.7558C98.4799 31.901 98.6942 32.1246 98.8464 32.4267C99.001 32.7264 99.0782 33.1081 99.0782 33.5718V37H98.2493V33.628C98.2493 33.1994 98.1381 32.8681 97.9156 32.6339C97.6955 32.3974 97.3899 32.2791 96.9988 32.2791C96.7272 32.2791 96.4836 32.3365 96.2682 32.4513C96.0551 32.566 95.8865 32.7334 95.7624 32.9536C95.6406 33.1737 95.5798 33.4406 95.5798 33.7544ZM102.857 37.1124C102.337 37.1124 101.889 36.9977 101.512 36.7682C101.137 36.5363 100.848 36.2132 100.644 35.7987C100.443 35.3819 100.342 34.8972 100.342 34.3445C100.342 33.7919 100.443 33.3048 100.644 32.8833C100.848 32.4595 101.131 32.1293 101.494 31.8928C101.859 31.6539 102.285 31.5345 102.773 31.5345C103.054 31.5345 103.331 31.5813 103.605 31.675C103.879 31.7687 104.128 31.9209 104.353 32.1316C104.578 32.34 104.757 32.6164 104.891 32.9606C105.024 33.3048 105.091 33.7287 105.091 34.2321V34.5834H100.932V33.8668H104.248C104.248 33.5624 104.187 33.2908 104.065 33.0519C103.946 32.8131 103.775 32.6245 103.552 32.4864C103.332 32.3482 103.072 32.2791 102.773 32.2791C102.442 32.2791 102.157 32.3611 101.915 32.525C101.677 32.6866 101.493 32.8974 101.364 33.1573C101.235 33.4172 101.171 33.6959 101.171 33.9933V34.471C101.171 34.8784 101.241 35.2238 101.382 35.5072C101.524 35.7882 101.722 36.0024 101.975 36.15C102.228 36.2952 102.522 36.3677 102.857 36.3677C103.075 36.3677 103.271 36.3373 103.447 36.2764C103.625 36.2132 103.778 36.1195 103.907 35.9954C104.036 35.869 104.135 35.7121 104.206 35.5247L105.007 35.7495C104.922 36.0212 104.781 36.26 104.582 36.4661C104.382 36.6698 104.137 36.8291 103.844 36.9438C103.551 37.0562 103.222 37.1124 102.857 37.1124ZM110.356 37L108.712 31.6047H109.583L110.75 35.7355H110.806L111.958 31.6047H112.843L113.981 35.7214H114.037L115.203 31.6047H116.075L114.431 37H113.616L112.436 32.8552H112.351L111.171 37H110.356ZM118.758 37.1265C118.416 37.1265 118.106 37.0621 117.827 36.9333C117.549 36.8021 117.327 36.6136 117.163 36.3677C117 36.1195 116.918 35.8198 116.918 35.4685C116.918 35.1594 116.978 34.9089 117.1 34.7169C117.222 34.5225 117.385 34.3703 117.588 34.2602C117.792 34.1502 118.017 34.0682 118.263 34.0143C118.511 33.9581 118.76 33.9137 119.011 33.8809C119.339 33.8387 119.605 33.8071 119.808 33.786C120.014 33.7626 120.164 33.724 120.258 33.6701C120.354 33.6163 120.402 33.5226 120.402 33.3891V33.361C120.402 33.0144 120.307 32.7451 120.117 32.5531C119.93 32.3611 119.646 32.2651 119.264 32.2651C118.868 32.2651 118.558 32.3517 118.333 32.525C118.108 32.6983 117.95 32.8833 117.859 33.08L117.072 32.799C117.213 32.4712 117.4 32.2159 117.634 32.0333C117.871 31.8483 118.128 31.7195 118.407 31.6469C118.688 31.572 118.964 31.5345 119.236 31.5345C119.409 31.5345 119.608 31.5556 119.833 31.5977C120.06 31.6375 120.279 31.7207 120.49 31.8471C120.703 31.9736 120.88 32.1644 121.02 32.4197C121.161 32.6749 121.231 33.0168 121.231 33.4453V37H120.402V36.2694H120.36C120.304 36.3865 120.21 36.5118 120.079 36.6452C119.948 36.7787 119.773 36.8923 119.555 36.9859C119.338 37.0796 119.072 37.1265 118.758 37.1265ZM118.885 36.3818C119.212 36.3818 119.489 36.3174 119.714 36.1886C119.941 36.0598 120.112 35.8936 120.226 35.6898C120.343 35.4861 120.402 35.2718 120.402 35.047V34.2883C120.367 34.3305 120.29 34.3691 120.17 34.4042C120.053 34.437 119.917 34.4663 119.763 34.492C119.61 34.5155 119.462 34.5365 119.317 34.5553C119.174 34.5717 119.058 34.5857 118.969 34.5974C118.753 34.6255 118.552 34.6712 118.365 34.7344C118.18 34.7953 118.03 34.8878 117.915 35.0119C117.803 35.1337 117.746 35.2999 117.746 35.5107C117.746 35.7987 117.853 36.0165 118.066 36.164C118.282 36.3092 118.554 36.3818 118.885 36.3818ZM123.085 39.0232C122.944 39.0232 122.819 39.0115 122.709 38.9881C122.599 38.967 122.523 38.9459 122.481 38.9249L122.691 38.1943C122.893 38.2458 123.071 38.2645 123.225 38.2505C123.38 38.2364 123.517 38.1673 123.636 38.0432C123.758 37.9215 123.869 37.7236 123.97 37.4496L124.124 37.0281L122.129 31.6047H123.028L124.518 35.9041H124.574L126.063 31.6047H126.963L124.672 37.7868C124.569 38.0655 124.442 38.2961 124.289 38.4788C124.137 38.6638 123.96 38.8008 123.759 38.8897C123.56 38.9787 123.335 39.0232 123.085 39.0232Z" fill="#1A1A1A"/>
</svg>
