<svg width="174" height="34" viewBox="0 0 174 34" fill="none" xmlns="http://www.w3.org/2000/svg">
<rect width="174" height="34" rx="17" fill="#F6F3EF"/>
<path d="M18.8711 21V13.8063H19.7422V17.0098H23.5779V13.8063H24.449V21H23.5779V17.7825H19.7422V21H18.8711ZM28.3427 21.1124C27.8228 21.1124 27.3744 20.9977 26.9974 20.7682C26.6227 20.5363 26.3335 20.2132 26.1298 19.7987C25.9284 19.3819 25.8277 18.8972 25.8277 18.3445C25.8277 17.7919 25.9284 17.3048 26.1298 16.8833C26.3335 16.4595 26.6168 16.1293 26.9798 15.8928C27.3451 15.6539 27.7713 15.5345 28.2584 15.5345C28.5394 15.5345 28.8169 15.5813 29.0908 15.675C29.3648 15.7687 29.6142 15.9209 29.839 16.1316C30.0638 16.34 30.2429 16.6164 30.3764 16.9606C30.5099 17.3048 30.5766 17.7287 30.5766 18.2321V18.5834H26.4178V17.8668H29.7336C29.7336 17.5624 29.6727 17.2908 29.551 17.0519C29.4316 16.8131 29.2606 16.6245 29.0381 16.4864C28.818 16.3482 28.5581 16.2791 28.2584 16.2791C27.9282 16.2791 27.6425 16.3611 27.4013 16.525C27.1625 16.6866 26.9786 16.8974 26.8498 17.1573C26.721 17.4172 26.6566 17.6959 26.6566 17.9933V18.471C26.6566 18.8784 26.7269 19.2238 26.8674 19.5072C27.0102 19.7882 27.2081 20.0024 27.461 20.15C27.7139 20.2952 28.0078 20.3677 28.3427 20.3677C28.5604 20.3677 28.7571 20.3373 28.9328 20.2764C29.1107 20.2132 29.2641 20.1195 29.3929 19.9954C29.5217 19.869 29.6212 19.7121 29.6915 19.5247L30.4923 19.7495C30.408 20.0212 30.2664 20.26 30.0673 20.4661C29.8683 20.6698 29.6224 20.8291 29.3297 20.9438C29.037 21.0562 28.708 21.1124 28.3427 21.1124ZM32.2073 23.0232C32.0668 23.0232 31.9416 23.0115 31.8315 22.9881C31.7214 22.967 31.6453 22.9459 31.6032 22.9249L31.8139 22.1943C32.0153 22.2458 32.1933 22.2645 32.3478 22.2505C32.5024 22.2364 32.6394 22.1673 32.7588 22.0432C32.8806 21.9215 32.9918 21.7236 33.0925 21.4496L33.247 21.0281L31.2519 15.6047H32.1511L33.6405 19.9041H33.6967L35.186 15.6047H36.0852L33.795 21.7868C33.692 22.0655 33.5643 22.2961 33.4121 22.4788C33.2599 22.6638 33.0831 22.8008 32.8817 22.8897C32.6827 22.9787 32.4579 23.0232 32.2073 23.0232ZM44.0077 15.6047C43.9656 15.2488 43.7946 14.9725 43.4949 14.7758C43.1951 14.5791 42.8275 14.4807 42.3919 14.4807C42.0735 14.4807 41.7948 14.5322 41.556 14.6353C41.3194 14.7383 41.1344 14.88 41.001 15.0603C40.8698 15.2406 40.8043 15.4455 40.8043 15.675C40.8043 15.867 40.8499 16.0321 40.9413 16.1703C41.0349 16.3061 41.1544 16.4197 41.2995 16.511C41.4447 16.6 41.5969 16.6737 41.7562 16.7323C41.9154 16.7885 42.0618 16.8341 42.1952 16.8693L42.9258 17.066C43.1132 17.1151 43.3216 17.183 43.5511 17.2697C43.7829 17.3563 44.0042 17.4746 44.2149 17.6245C44.428 17.772 44.6037 17.9617 44.7418 18.1935C44.88 18.4253 44.9491 18.7098 44.9491 19.047C44.9491 19.4357 44.8472 19.787 44.6435 20.1008C44.4421 20.4146 44.147 20.664 43.7583 20.849C43.3719 21.034 42.9024 21.1265 42.3498 21.1265C41.8346 21.1265 41.3885 21.0433 41.0115 20.8771C40.6368 20.7108 40.3418 20.479 40.1264 20.1816C39.9133 19.8842 39.7927 19.5388 39.7646 19.1454H40.6638C40.6872 19.417 40.7785 19.6418 40.9377 19.8198C41.0993 19.9954 41.3031 20.1265 41.5489 20.2132C41.7971 20.2975 42.0641 20.3396 42.3498 20.3396C42.6823 20.3396 42.9809 20.2858 43.2455 20.1781C43.5101 20.068 43.7197 19.9158 43.8742 19.7214C44.0288 19.5247 44.1061 19.2952 44.1061 19.033C44.1061 18.7941 44.0393 18.5998 43.9058 18.4499C43.7724 18.3 43.5967 18.1783 43.379 18.0846C43.1612 17.9909 42.9258 17.909 42.6729 17.8387L41.7878 17.5858C41.2258 17.4242 40.7809 17.1936 40.453 16.8938C40.1252 16.5941 39.9613 16.2019 39.9613 15.7171C39.9613 15.3144 40.0701 14.9631 40.2879 14.6634C40.508 14.3613 40.8031 14.1271 41.1731 13.9609C41.5454 13.7923 41.9611 13.708 42.42 13.708C42.8837 13.708 43.2958 13.7911 43.6565 13.9574C44.0171 14.1213 44.3028 14.3461 44.5135 14.6318C44.7266 14.9175 44.839 15.2418 44.8507 15.6047H44.0077ZM48.4607 21.1124C47.9737 21.1124 47.5463 20.9965 47.1786 20.7647C46.8133 20.5328 46.5277 20.2085 46.3216 19.7917C46.1179 19.3749 46.016 18.8878 46.016 18.3305C46.016 17.7685 46.1179 17.2779 46.3216 16.8587C46.5277 16.4396 46.8133 16.1141 47.1786 15.8822C47.5463 15.6504 47.9737 15.5345 48.4607 15.5345C48.9478 15.5345 49.374 15.6504 49.7393 15.8822C50.1069 16.1141 50.3926 16.4396 50.5963 16.8587C50.8024 17.2779 50.9055 17.7685 50.9055 18.3305C50.9055 18.8878 50.8024 19.3749 50.5963 19.7917C50.3926 20.2085 50.1069 20.5328 49.7393 20.7647C49.374 20.9965 48.9478 21.1124 48.4607 21.1124ZM48.4607 20.3677C48.8307 20.3677 49.1351 20.2729 49.374 20.0832C49.6128 19.8936 49.7896 19.6442 49.9044 19.3351C50.0191 19.026 50.0765 18.6911 50.0765 18.3305C50.0765 17.9699 50.0191 17.6338 49.9044 17.3224C49.7896 17.0109 49.6128 16.7592 49.374 16.5672C49.1351 16.3752 48.8307 16.2791 48.4607 16.2791C48.0907 16.2791 47.7863 16.3752 47.5475 16.5672C47.3086 16.7592 47.1318 17.0109 47.0171 17.3224C46.9023 17.6338 46.845 17.9699 46.845 18.3305C46.845 18.6911 46.9023 19.026 47.0171 19.3351C47.1318 19.6442 47.3086 19.8936 47.5475 20.0832C47.7863 20.2729 48.0907 20.3677 48.4607 20.3677ZM52.9998 13.8063V21H52.1708V13.8063H52.9998ZM54.5181 21V15.6047H55.3471V21H54.5181ZM54.9396 14.7055C54.778 14.7055 54.6387 14.6505 54.5216 14.5404C54.4069 14.4304 54.3495 14.2981 54.3495 14.1435C54.3495 13.989 54.4069 13.8567 54.5216 13.7466C54.6387 13.6366 54.778 13.5815 54.9396 13.5815C55.1012 13.5815 55.2393 13.6366 55.3541 13.7466C55.4712 13.8567 55.5297 13.989 55.5297 14.1435C55.5297 14.2981 55.4712 14.4304 55.3541 14.5404C55.2393 14.6505 55.1012 14.7055 54.9396 14.7055ZM58.9026 21.1124C58.453 21.1124 58.0561 20.9988 57.7119 20.7717C57.3676 20.5422 57.0983 20.219 56.904 19.8022C56.7096 19.3831 56.6124 18.8878 56.6124 18.3164C56.6124 17.7497 56.7096 17.258 56.904 16.8412C57.0983 16.4243 57.3688 16.1024 57.7154 15.8752C58.062 15.6481 58.4624 15.5345 58.9167 15.5345C59.2679 15.5345 59.5454 15.593 59.7491 15.7101C59.9552 15.8249 60.1121 15.956 60.2198 16.1035C60.3299 16.2487 60.4154 16.3681 60.4762 16.4618H60.5465V13.8063H61.3754V21H60.5746V20.171H60.4762C60.4154 20.2694 60.3287 20.3935 60.2163 20.5434C60.1039 20.6909 59.9435 20.8232 59.7351 20.9403C59.5267 21.055 59.2492 21.1124 58.9026 21.1124ZM59.015 20.3677C59.3475 20.3677 59.6285 20.2811 59.858 20.1078C60.0875 19.9322 60.262 19.6898 60.3814 19.3807C60.5008 19.0693 60.5605 18.7098 60.5605 18.3024C60.5605 17.8996 60.502 17.5472 60.3849 17.2451C60.2678 16.9407 60.0945 16.7042 59.8651 16.5356C59.6356 16.3646 59.3522 16.2791 59.015 16.2791C58.6638 16.2791 58.3711 16.3693 58.1369 16.5496C57.9051 16.7276 57.7306 16.9699 57.6135 17.2767C57.4988 17.5811 57.4414 17.923 57.4414 18.3024C57.4414 18.6864 57.4999 19.0353 57.617 19.3491C57.7365 19.6606 57.9121 19.9088 58.1439 20.0938C58.3781 20.2764 58.6685 20.3677 59.015 20.3677ZM68.1371 15.6047V16.3072H65.3411V15.6047H68.1371ZM66.156 14.3121H66.985V19.4545C66.985 19.6887 67.0189 19.8643 67.0868 19.9814C67.1571 20.0961 67.2461 20.1734 67.3538 20.2132C67.4638 20.2507 67.5798 20.2694 67.7015 20.2694C67.7929 20.2694 67.8678 20.2647 67.9263 20.2553C67.9849 20.2436 68.0317 20.2343 68.0668 20.2272L68.2354 20.9719C68.1792 20.993 68.1008 21.0141 68.0001 21.0351C67.8994 21.0585 67.7718 21.0703 67.6172 21.0703C67.3831 21.0703 67.1536 21.0199 66.9288 20.9192C66.7063 20.8185 66.5213 20.6651 66.3738 20.4591C66.2286 20.253 66.156 19.9931 66.156 19.6793V14.3121ZM71.5881 21.1124C71.0683 21.1124 70.6199 20.9977 70.2428 20.7682C69.8682 20.5363 69.579 20.2132 69.3752 19.7987C69.1739 19.3819 69.0732 18.8972 69.0732 18.3445C69.0732 17.7919 69.1739 17.3048 69.3752 16.8833C69.579 16.4595 69.8623 16.1293 70.2253 15.8928C70.5906 15.6539 71.0168 15.5345 71.5038 15.5345C71.7848 15.5345 72.0623 15.5813 72.3363 15.675C72.6103 15.7687 72.8597 15.9209 73.0845 16.1316C73.3093 16.34 73.4884 16.6164 73.6219 16.9606C73.7554 17.3048 73.8221 17.7287 73.8221 18.2321V18.5834H69.6633V17.8668H72.9791C72.9791 17.5624 72.9182 17.2908 72.7965 17.0519C72.677 16.8131 72.5061 16.6245 72.2836 16.4864C72.0635 16.3482 71.8036 16.2791 71.5038 16.2791C71.1737 16.2791 70.888 16.3611 70.6468 16.525C70.4079 16.6866 70.2241 16.8974 70.0953 17.1573C69.9665 17.4172 69.9021 17.6959 69.9021 17.9933V18.471C69.9021 18.8784 69.9724 19.2238 70.1129 19.5072C70.2557 19.7882 70.4536 20.0024 70.7065 20.15C70.9594 20.2952 71.2533 20.3677 71.5881 20.3677C71.8059 20.3677 72.0026 20.3373 72.1783 20.2764C72.3562 20.2132 72.5096 20.1195 72.6384 19.9954C72.7672 19.869 72.8667 19.7121 72.937 19.5247L73.7378 19.7495C73.6535 20.0212 73.5118 20.26 73.3128 20.4661C73.1138 20.6698 72.8679 20.8291 72.5752 20.9438C72.2825 21.0562 71.9534 21.1124 71.5881 21.1124ZM76.6708 21.1265C76.3289 21.1265 76.0186 21.0621 75.74 20.9333C75.4613 20.8021 75.24 20.6136 75.0761 20.3677C74.9122 20.1195 74.8302 19.8198 74.8302 19.4685C74.8302 19.1594 74.8911 18.9089 75.0129 18.7169C75.1346 18.5225 75.2974 18.3703 75.5011 18.2602C75.7048 18.1502 75.9296 18.0682 76.1755 18.0143C76.4237 17.9581 76.6731 17.9137 76.9237 17.8809C77.2515 17.8387 77.5173 17.8071 77.721 17.786C77.9271 17.7626 78.077 17.724 78.1706 17.6701C78.2667 17.6163 78.3147 17.5226 78.3147 17.3891V17.361C78.3147 17.0144 78.2198 16.7451 78.0301 16.5531C77.8428 16.3611 77.5583 16.2651 77.1766 16.2651C76.7808 16.2651 76.4706 16.3517 76.2458 16.525C76.021 16.6983 75.8629 16.8833 75.7716 17.08L74.9848 16.799C75.1253 16.4712 75.3126 16.2159 75.5468 16.0333C75.7833 15.8483 76.0409 15.7195 76.3195 15.6469C76.6005 15.572 76.8769 15.5345 77.1485 15.5345C77.3218 15.5345 77.5208 15.5556 77.7456 15.5977C77.9728 15.6375 78.1917 15.7207 78.4025 15.8471C78.6156 15.9736 78.7924 16.1644 78.9329 16.4197C79.0734 16.6749 79.1436 17.0168 79.1436 17.4453V21H78.3147V20.2694H78.2725C78.2163 20.3865 78.1226 20.5118 77.9915 20.6452C77.8604 20.7787 77.6859 20.8923 77.4681 20.9859C77.2504 21.0796 76.9846 21.1265 76.6708 21.1265ZM76.7972 20.3818C77.1251 20.3818 77.4014 20.3174 77.6262 20.1886C77.8533 20.0598 78.0243 19.8936 78.139 19.6898C78.2561 19.4861 78.3147 19.2718 78.3147 19.047V18.2883C78.2795 18.3305 78.2023 18.3691 78.0828 18.4042C77.9657 18.437 77.8299 18.4663 77.6754 18.492C77.5232 18.5155 77.3745 18.5365 77.2293 18.5553C77.0864 18.5717 76.9705 18.5857 76.8815 18.5974C76.6661 18.6255 76.4647 18.6712 76.2774 18.7344C76.0924 18.7953 75.9425 18.8878 75.8278 19.0119C75.7154 19.1337 75.6592 19.2999 75.6592 19.5107C75.6592 19.7987 75.7657 20.0165 75.9788 20.164C76.1943 20.3092 76.4671 20.3818 76.7972 20.3818ZM80.6566 21V15.6047H81.4575V16.4478H81.5278C81.6402 16.1597 81.8216 15.9361 82.0722 15.7769C82.3228 15.6153 82.6237 15.5345 82.9749 15.5345C83.3309 15.5345 83.6271 15.6153 83.8636 15.7769C84.1024 15.9361 84.2886 16.1597 84.4221 16.4478H84.4783C84.6164 16.1691 84.8237 15.9478 85.1 15.7839C85.3763 15.6176 85.7077 15.5345 86.0941 15.5345C86.5764 15.5345 86.971 15.6855 87.2778 15.9876C87.5845 16.2873 87.7379 16.7545 87.7379 17.3891V21H86.909V17.3891C86.909 16.991 86.8001 16.7065 86.5823 16.5356C86.3645 16.3646 86.1081 16.2791 85.813 16.2791C85.4337 16.2791 85.1398 16.3939 84.9314 16.6234C84.723 16.8505 84.6188 17.1386 84.6188 17.4875V21H83.7758V17.3048C83.7758 16.998 83.6763 16.751 83.4772 16.5637C83.2782 16.374 83.0218 16.2791 82.708 16.2791C82.4925 16.2791 82.2911 16.3365 82.1038 16.4513C81.9188 16.566 81.7689 16.7252 81.6542 16.929C81.5418 17.1304 81.4856 17.3634 81.4856 17.628V21H80.6566ZM90.3495 13.8063L90.2792 18.9768H89.4643L89.3941 13.8063H90.3495ZM89.8718 21.0562C89.6985 21.0562 89.5498 20.9941 89.4257 20.87C89.3016 20.7459 89.2395 20.5972 89.2395 20.4239C89.2395 20.2507 89.3016 20.102 89.4257 19.9779C89.5498 19.8537 89.6985 19.7917 89.8718 19.7917C90.0451 19.7917 90.1938 19.8537 90.3179 19.9779C90.442 20.102 90.504 20.2507 90.504 20.4239C90.504 20.5387 90.4748 20.6441 90.4162 20.7401C90.36 20.8361 90.2839 20.9134 90.1879 20.9719C90.0942 21.0281 89.9889 21.0562 89.8718 21.0562Z" fill="#1A1A1A"/>
</svg>
