<svg width="174" height="34" viewBox="0 0 174 34" fill="none" xmlns="http://www.w3.org/2000/svg">
<path d="M0 16.9565C0 7.59169 7.59169 0 16.9565 0H157C166.389 0 174 7.61116 174 17V17C174 26.3888 166.389 34 157 34H0V16.9565Z" fill="#F6F3EF"/>
<path d="M19.7422 13.8063V21H18.8711V13.8063H19.7422ZM24.9873 17.7544V21H24.1584V15.6047H24.9592V16.4478H25.0295C25.1559 16.1738 25.3479 15.9537 25.6055 15.7874C25.8631 15.6188 26.1956 15.5345 26.6031 15.5345C26.9684 15.5345 27.288 15.6094 27.562 15.7593C27.836 15.9068 28.0491 16.1316 28.2013 16.4337C28.3535 16.7334 28.4296 17.1128 28.4296 17.5718V21H27.6006V17.628C27.6006 17.2041 27.4906 16.8739 27.2705 16.6374C27.0503 16.3986 26.7483 16.2791 26.3642 16.2791C26.0996 16.2791 25.8631 16.3365 25.6547 16.4513C25.4486 16.566 25.2859 16.7334 25.1665 16.9536C25.047 17.1737 24.9873 17.4406 24.9873 17.7544ZM32.2065 21.1124C31.6866 21.1124 31.2382 20.9977 30.8612 20.7682C30.4865 20.5363 30.1973 20.2132 29.9936 19.7987C29.7922 19.3819 29.6915 18.8972 29.6915 18.3445C29.6915 17.7919 29.7922 17.3048 29.9936 16.8833C30.1973 16.4595 30.4806 16.1293 30.8436 15.8928C31.2089 15.6539 31.6351 15.5345 32.1222 15.5345C32.4032 15.5345 32.6806 15.5813 32.9546 15.675C33.2286 15.7687 33.478 15.9209 33.7028 16.1316C33.9276 16.34 34.1067 16.6164 34.2402 16.9606C34.3737 17.3048 34.4404 17.7287 34.4404 18.2321V18.5834H30.2816V17.8668H33.5974C33.5974 17.5624 33.5365 17.2908 33.4148 17.0519C33.2953 16.8131 33.1244 16.6245 32.9019 16.4864C32.6818 16.3482 32.4219 16.2791 32.1222 16.2791C31.792 16.2791 31.5063 16.3611 31.2651 16.525C31.0262 16.6866 30.8424 16.8974 30.7136 17.1573C30.5848 17.4172 30.5204 17.6959 30.5204 17.9933V18.471C30.5204 18.8784 30.5907 19.2238 30.7312 19.5072C30.874 19.7882 31.0719 20.0024 31.3248 20.15C31.5777 20.2952 31.8716 20.3677 32.2065 20.3677C32.4242 20.3677 32.6209 20.3373 32.7966 20.2764C32.9745 20.2132 33.1279 20.1195 33.2567 19.9954C33.3855 19.869 33.485 19.7121 33.5553 19.5247L34.3561 19.7495C34.2718 20.0212 34.1302 20.26 33.9311 20.4661C33.7321 20.6698 33.4862 20.8291 33.1935 20.9438C32.9008 21.0562 32.5718 21.1124 32.2065 21.1124ZM37.9635 21.1124C37.4437 21.1124 36.9952 20.9977 36.6182 20.7682C36.2435 20.5363 35.9543 20.2132 35.7506 19.7987C35.5492 19.3819 35.4485 18.8972 35.4485 18.3445C35.4485 17.7919 35.5492 17.3048 35.7506 16.8833C35.9543 16.4595 36.2377 16.1293 36.6006 15.8928C36.9659 15.6539 37.3921 15.5345 37.8792 15.5345C38.1602 15.5345 38.4377 15.5813 38.7117 15.675C38.9857 15.7687 39.235 15.9209 39.4598 16.1316C39.6846 16.34 39.8638 16.6164 39.9973 16.9606C40.1307 17.3048 40.1975 17.7287 40.1975 18.2321V18.5834H36.0386V17.8668H39.3545C39.3545 17.5624 39.2936 17.2908 39.1718 17.0519C39.0524 16.8131 38.8814 16.6245 38.659 16.4864C38.4389 16.3482 38.1789 16.2791 37.8792 16.2791C37.549 16.2791 37.2633 16.3611 37.0221 16.525C36.7833 16.6866 36.5995 16.8974 36.4707 17.1573C36.3419 17.4172 36.2775 17.6959 36.2775 17.9933V18.471C36.2775 18.8784 36.3477 19.2238 36.4882 19.5072C36.6311 19.7882 36.829 20.0024 37.0819 20.15C37.3348 20.2952 37.6286 20.3677 37.9635 20.3677C38.1813 20.3677 38.378 20.3373 38.5536 20.2764C38.7316 20.2132 38.885 20.1195 39.0138 19.9954C39.1425 19.869 39.2421 19.7121 39.3123 19.5247L40.1132 19.7495C40.0289 20.0212 39.8872 20.26 39.6882 20.4661C39.4891 20.6698 39.2432 20.8291 38.9505 20.9438C38.6578 21.0562 38.3288 21.1124 37.9635 21.1124ZM43.4958 21.1124C43.0461 21.1124 42.6492 20.9988 42.305 20.7717C41.9608 20.5422 41.6915 20.219 41.4971 19.8022C41.3028 19.3831 41.2056 18.8878 41.2056 18.3164C41.2056 17.7497 41.3028 17.258 41.4971 16.8412C41.6915 16.4243 41.9619 16.1024 42.3085 15.8752C42.6551 15.6481 43.0555 15.5345 43.5098 15.5345C43.8611 15.5345 44.1385 15.593 44.3423 15.7101C44.5483 15.8249 44.7052 15.956 44.813 16.1035C44.923 16.2487 45.0085 16.3681 45.0694 16.4618H45.1396V13.8063H45.9686V21H45.1677V20.171H45.0694C45.0085 20.2694 44.9218 20.3935 44.8094 20.5434C44.697 20.6909 44.5366 20.8232 44.3282 20.9403C44.1198 21.055 43.8423 21.1124 43.4958 21.1124ZM43.6082 20.3677C43.9407 20.3677 44.2217 20.2811 44.4512 20.1078C44.6806 19.9322 44.8551 19.6898 44.9745 19.3807C45.094 19.0693 45.1537 18.7098 45.1537 18.3024C45.1537 17.8996 45.0951 17.5472 44.978 17.2451C44.861 16.9407 44.6877 16.7042 44.4582 16.5356C44.2287 16.3646 43.9454 16.2791 43.6082 16.2791C43.2569 16.2791 42.9642 16.3693 42.73 16.5496C42.4982 16.7276 42.3237 16.9699 42.2067 17.2767C42.0919 17.5811 42.0345 17.923 42.0345 18.3024C42.0345 18.6864 42.0931 19.0353 42.2102 19.3491C42.3296 19.6606 42.5052 19.9088 42.737 20.0938C42.9712 20.2764 43.2616 20.3677 43.6082 20.3677ZM51.9715 21.1265C51.6296 21.1265 51.3193 21.0621 51.0407 20.9333C50.762 20.8021 50.5407 20.6136 50.3768 20.3677C50.2129 20.1195 50.1309 19.8198 50.1309 19.4685C50.1309 19.1594 50.1918 18.9089 50.3136 18.7169C50.4354 18.5225 50.5981 18.3703 50.8018 18.2602C51.0056 18.1502 51.2304 18.0682 51.4762 18.0143C51.7245 17.9581 51.9738 17.9137 52.2244 17.8809C52.5522 17.8387 52.818 17.8071 53.0218 17.786C53.2278 17.7626 53.3777 17.724 53.4714 17.6701C53.5674 17.6163 53.6154 17.5226 53.6154 17.3891V17.361C53.6154 17.0144 53.5205 16.7451 53.3309 16.5531C53.1435 16.3611 52.859 16.2651 52.4773 16.2651C52.0816 16.2651 51.7713 16.3517 51.5465 16.525C51.3217 16.6983 51.1636 16.8833 51.0723 17.08L50.2855 16.799C50.426 16.4712 50.6133 16.2159 50.8475 16.0333C51.084 15.8483 51.3416 15.7195 51.6203 15.6469C51.9013 15.572 52.1776 15.5345 52.4492 15.5345C52.6225 15.5345 52.8215 15.5556 53.0463 15.5977C53.2735 15.6375 53.4924 15.7207 53.7032 15.8471C53.9163 15.9736 54.0931 16.1644 54.2336 16.4197C54.3741 16.6749 54.4443 17.0168 54.4443 17.4453V21H53.6154V20.2694H53.5732C53.517 20.3865 53.4234 20.5118 53.2922 20.6452C53.1611 20.7787 52.9866 20.8923 52.7689 20.9859C52.5511 21.0796 52.2853 21.1265 51.9715 21.1265ZM52.098 20.3818C52.4258 20.3818 52.7021 20.3174 52.9269 20.1886C53.1541 20.0598 53.325 19.8936 53.4397 19.6898C53.5568 19.4861 53.6154 19.2718 53.6154 19.047V18.2883C53.5802 18.3305 53.503 18.3691 53.3835 18.4042C53.2665 18.437 53.1306 18.4663 52.9761 18.492C52.8239 18.5155 52.6752 18.5365 52.53 18.5553C52.3872 18.5717 52.2712 18.5857 52.1823 18.5974C51.9668 18.6255 51.7654 18.6712 51.5781 18.7344C51.3931 18.7953 51.2432 18.8878 51.1285 19.0119C51.0161 19.1337 50.9599 19.2999 50.9599 19.5107C50.9599 19.7987 51.0664 20.0165 51.2795 20.164C51.495 20.3092 51.7678 20.3818 52.098 20.3818ZM59.9617 21L58.3178 15.6047H59.1889L60.3551 19.7355H60.4113L61.5634 15.6047H62.4485L63.5866 19.7214H63.6428L64.809 15.6047H65.6801L64.0362 21H63.2213L62.0411 16.8552H61.9568L60.7766 21H59.9617ZM68.8545 21.1124C68.3347 21.1124 67.8862 20.9977 67.5092 20.7682C67.1345 20.5363 66.8453 20.2132 66.6416 19.7987C66.4402 19.3819 66.3395 18.8972 66.3395 18.3445C66.3395 17.7919 66.4402 17.3048 66.6416 16.8833C66.8453 16.4595 67.1287 16.1293 67.4917 15.8928C67.857 15.6539 68.2831 15.5345 68.7702 15.5345C69.0512 15.5345 69.3287 15.5813 69.6027 15.675C69.8767 15.7687 70.1261 15.9209 70.3509 16.1316C70.5757 16.34 70.7548 16.6164 70.8883 16.9606C71.0218 17.3048 71.0885 17.7287 71.0885 18.2321V18.5834H66.9296V17.8668H70.2455C70.2455 17.5624 70.1846 17.2908 70.0628 17.0519C69.9434 16.8131 69.7725 16.6245 69.55 16.4864C69.3299 16.3482 69.07 16.2791 68.7702 16.2791C68.44 16.2791 68.1543 16.3611 67.9132 16.525C67.6743 16.6866 67.4905 16.8974 67.3617 17.1573C67.2329 17.4172 67.1685 17.6959 67.1685 17.9933V18.471C67.1685 18.8784 67.2387 19.2238 67.3792 19.5072C67.5221 19.7882 67.72 20.0024 67.9729 20.15C68.2258 20.2952 68.5197 20.3677 68.8545 20.3677C69.0723 20.3677 69.269 20.3373 69.4446 20.2764C69.6226 20.2132 69.776 20.1195 69.9048 19.9954C70.0336 19.869 70.1331 19.7121 70.2033 19.5247L71.0042 19.7495C70.9199 20.0212 70.7782 20.26 70.5792 20.4661C70.3801 20.6698 70.1342 20.8291 69.8415 20.9438C69.5488 21.0562 69.2198 21.1124 68.8545 21.1124ZM72.4619 21V13.8063H73.2909V16.4618H73.3611C73.422 16.3681 73.5063 16.2487 73.614 16.1035C73.7241 15.956 73.881 15.8249 74.0847 15.7101C74.2908 15.593 74.5694 15.5345 74.9207 15.5345C75.375 15.5345 75.7754 15.6481 76.122 15.8752C76.4685 16.1024 76.739 16.4243 76.9334 16.8412C77.1277 17.258 77.2249 17.7497 77.2249 18.3164C77.2249 18.8878 77.1277 19.3831 76.9334 19.8022C76.739 20.219 76.4697 20.5422 76.1255 20.7717C75.7812 20.9988 75.3843 21.1124 74.9347 21.1124C74.5881 21.1124 74.3107 21.055 74.1022 20.9403C73.8938 20.8232 73.7334 20.6909 73.621 20.5434C73.5086 20.3935 73.422 20.2694 73.3611 20.171H73.2627V21H72.4619ZM73.2768 18.3024C73.2768 18.7098 73.3365 19.0693 73.4559 19.3807C73.5754 19.6898 73.7498 19.9322 73.9793 20.1078C74.2088 20.2811 74.4898 20.3677 74.8223 20.3677C75.1689 20.3677 75.4581 20.2764 75.6899 20.0938C75.9241 19.9088 76.0997 19.6606 76.2168 19.3491C76.3362 19.0353 76.3959 18.6864 76.3959 18.3024C76.3959 17.923 76.3374 17.5811 76.2203 17.2767C76.1056 16.9699 75.9311 16.7276 75.6969 16.5496C75.4651 16.3693 75.1736 16.2791 74.8223 16.2791C74.4851 16.2791 74.2018 16.3646 73.9723 16.5356C73.7428 16.7042 73.5695 16.9407 73.4524 17.2451C73.3353 17.5472 73.2768 17.8996 73.2768 18.3024ZM82.3146 16.8131L81.5699 17.0238C81.5231 16.8997 81.454 16.7791 81.3627 16.662C81.2737 16.5426 81.1519 16.4442 80.9974 16.367C80.8428 16.2897 80.6449 16.251 80.4037 16.251C80.0736 16.251 79.7984 16.3272 79.5783 16.4794C79.3605 16.6292 79.2516 16.8201 79.2516 17.0519C79.2516 17.258 79.3266 17.4207 79.4764 17.5402C79.6263 17.6596 79.8605 17.7591 80.1789 17.8387L80.9798 18.0354C81.4622 18.1525 81.8216 18.3316 82.0581 18.5728C82.2947 18.8117 82.4129 19.1196 82.4129 19.4966C82.4129 19.8057 82.3239 20.0821 82.146 20.3256C81.9703 20.5691 81.7245 20.7611 81.4083 20.9016C81.0922 21.0422 80.7246 21.1124 80.3054 21.1124C79.7551 21.1124 79.2996 20.993 78.939 20.7541C78.5784 20.5153 78.3501 20.1664 78.2541 19.7074L79.0409 19.5107C79.1158 19.8011 79.2575 20.0188 79.4659 20.164C79.6766 20.3092 79.9518 20.3818 80.2913 20.3818C80.6777 20.3818 80.9845 20.2998 81.2116 20.1359C81.4411 19.9697 81.5559 19.7706 81.5559 19.5388C81.5559 19.3514 81.4903 19.1946 81.3591 19.0681C81.228 18.9393 81.0266 18.8433 80.755 18.7801L79.8558 18.5693C79.3617 18.4522 78.9987 18.2708 78.7669 18.0249C78.5374 17.7767 78.4227 17.4664 78.4227 17.0941C78.4227 16.7896 78.5081 16.5203 78.6791 16.2862C78.8524 16.052 79.0877 15.8682 79.3851 15.7347C79.6848 15.6012 80.0244 15.5345 80.4037 15.5345C80.9376 15.5345 81.3568 15.6516 81.6612 15.8857C81.968 16.1199 82.1858 16.429 82.3146 16.8131ZM83.6607 21V15.6047H84.4897V21H83.6607ZM84.0822 14.7055C83.9207 14.7055 83.7813 14.6505 83.6643 14.5404C83.5495 14.4304 83.4921 14.2981 83.4921 14.1435C83.4921 13.989 83.5495 13.8567 83.6643 13.7466C83.7813 13.6366 83.9207 13.5815 84.0822 13.5815C84.2438 13.5815 84.382 13.6366 84.4967 13.7466C84.6138 13.8567 84.6723 13.989 84.6723 14.1435C84.6723 14.2981 84.6138 14.4304 84.4967 14.5404C84.382 14.6505 84.2438 14.7055 84.0822 14.7055ZM88.3544 15.6047V16.3072H85.5584V15.6047H88.3544ZM86.3733 14.3121H87.2023V19.4545C87.2023 19.6887 87.2362 19.8643 87.3041 19.9814C87.3744 20.0961 87.4634 20.1734 87.5711 20.2132C87.6811 20.2507 87.797 20.2694 87.9188 20.2694C88.0101 20.2694 88.0851 20.2647 88.1436 20.2553C88.2022 20.2436 88.249 20.2343 88.2841 20.2272L88.4527 20.9719C88.3965 20.993 88.3181 21.0141 88.2174 21.0351C88.1167 21.0585 87.9891 21.0703 87.8345 21.0703C87.6003 21.0703 87.3709 21.0199 87.1461 20.9192C86.9236 20.8185 86.7386 20.6651 86.5911 20.4591C86.4459 20.253 86.3733 19.9931 86.3733 19.6793V14.3121ZM91.8054 21.1124C91.2856 21.1124 90.8371 20.9977 90.4601 20.7682C90.0855 20.5363 89.7963 20.2132 89.5925 19.7987C89.3912 19.3819 89.2905 18.8972 89.2905 18.3445C89.2905 17.7919 89.3912 17.3048 89.5925 16.8833C89.7963 16.4595 90.0796 16.1293 90.4426 15.8928C90.8079 15.6539 91.2341 15.5345 91.7211 15.5345C92.0021 15.5345 92.2796 15.5813 92.5536 15.675C92.8276 15.7687 93.077 15.9209 93.3018 16.1316C93.5266 16.34 93.7057 16.6164 93.8392 16.9606C93.9727 17.3048 94.0394 17.7287 94.0394 18.2321V18.5834H89.8806V17.8668H93.1964C93.1964 17.5624 93.1355 17.2908 93.0137 17.0519C92.8943 16.8131 92.7234 16.6245 92.5009 16.4864C92.2808 16.3482 92.0209 16.2791 91.7211 16.2791C91.391 16.2791 91.1053 16.3611 90.8641 16.525C90.6252 16.6866 90.4414 16.8974 90.3126 17.1573C90.1838 17.4172 90.1194 17.6959 90.1194 17.9933V18.471C90.1194 18.8784 90.1897 19.2238 90.3302 19.5072C90.473 19.7882 90.6709 20.0024 90.9238 20.15C91.1767 20.2952 91.4706 20.3677 91.8054 20.3677C92.0232 20.3677 92.2199 20.3373 92.3955 20.2764C92.5735 20.2132 92.7269 20.1195 92.8557 19.9954C92.9845 19.869 93.084 19.7121 93.1542 19.5247L93.9551 19.7495C93.8708 20.0212 93.7291 20.26 93.5301 20.4661C93.331 20.6698 93.0852 20.8291 92.7925 20.9438C92.4997 21.0562 92.1707 21.1124 91.8054 21.1124ZM101.904 16.8131L101.159 17.0238C101.112 16.8997 101.043 16.7791 100.952 16.662C100.863 16.5426 100.741 16.4442 100.587 16.367C100.432 16.2897 100.234 16.251 99.9932 16.251C99.663 16.251 99.3878 16.3272 99.1677 16.4794C98.9499 16.6292 98.841 16.8201 98.841 17.0519C98.841 17.258 98.916 17.4207 99.0658 17.5402C99.2157 17.6596 99.4499 17.7591 99.7684 17.8387L100.569 18.0354C101.052 18.1525 101.411 18.3316 101.648 18.5728C101.884 18.8117 102.002 19.1196 102.002 19.4966C102.002 19.8057 101.913 20.0821 101.735 20.3256C101.56 20.5691 101.314 20.7611 100.998 20.9016C100.682 21.0422 100.314 21.1124 99.8948 21.1124C99.3445 21.1124 98.8891 20.993 98.5284 20.7541C98.1678 20.5153 97.9395 20.1664 97.8435 19.7074L98.6303 19.5107C98.7052 19.8011 98.8469 20.0188 99.0553 20.164C99.2661 20.3092 99.5412 20.3818 99.8808 20.3818C100.267 20.3818 100.574 20.2998 100.801 20.1359C101.031 19.9697 101.145 19.7706 101.145 19.5388C101.145 19.3514 101.08 19.1946 100.949 19.0681C100.817 18.9393 100.616 18.8433 100.344 18.7801L99.4452 18.5693C98.9511 18.4522 98.5881 18.2708 98.3563 18.0249C98.1268 17.7767 98.0121 17.4664 98.0121 17.0941C98.0121 16.7896 98.0976 16.5203 98.2685 16.2862C98.4418 16.052 98.6771 15.8682 98.9745 15.7347C99.2743 15.6012 99.6138 15.5345 99.9932 15.5345C100.527 15.5345 100.946 15.6516 101.251 15.8857C101.557 16.1199 101.775 16.429 101.904 16.8131ZM106.65 18.7941V15.6047H107.479V21H106.65V20.0867H106.594C106.468 20.3607 106.271 20.5937 106.004 20.7857C105.737 20.9754 105.4 21.0703 104.992 21.0703C104.655 21.0703 104.355 20.9965 104.093 20.849C103.831 20.6991 103.625 20.4743 103.475 20.1746C103.325 19.8725 103.25 19.492 103.25 19.033V15.6047H104.079V18.9768C104.079 19.3702 104.189 19.684 104.409 19.9181C104.632 20.1523 104.915 20.2694 105.259 20.2694C105.465 20.2694 105.675 20.2167 105.888 20.1113C106.104 20.006 106.284 19.8444 106.429 19.6266C106.577 19.4088 106.65 19.1313 106.65 18.7941ZM108.998 23.0232V15.6047H109.798V16.4618H109.897C109.958 16.3681 110.042 16.2487 110.15 16.1035C110.26 15.956 110.417 15.8249 110.62 15.7101C110.826 15.593 111.105 15.5345 111.456 15.5345C111.911 15.5345 112.311 15.6481 112.658 15.8752C113.004 16.1024 113.275 16.4243 113.469 16.8412C113.663 17.258 113.761 17.7497 113.761 18.3164C113.761 18.8878 113.663 19.3831 113.469 19.8022C113.275 20.219 113.005 20.5422 112.661 20.7717C112.317 20.9988 111.92 21.1124 111.47 21.1124C111.124 21.1124 110.846 21.055 110.638 20.9403C110.429 20.8232 110.269 20.6909 110.157 20.5434C110.044 20.3935 109.958 20.2694 109.897 20.171H109.827V23.0232H108.998ZM109.812 18.3024C109.812 18.7098 109.872 19.0693 109.992 19.3807C110.111 19.6898 110.285 19.9322 110.515 20.1078C110.744 20.2811 111.025 20.3677 111.358 20.3677C111.705 20.3677 111.994 20.2764 112.226 20.0938C112.46 19.9088 112.635 19.6606 112.752 19.3491C112.872 19.0353 112.932 18.6864 112.932 18.3024C112.932 17.923 112.873 17.5811 112.756 17.2767C112.641 16.9699 112.467 16.7276 112.233 16.5496C112.001 16.3693 111.709 16.2791 111.358 16.2791C111.021 16.2791 110.737 16.3646 110.508 16.5356C110.278 16.7042 110.105 16.9407 109.988 17.2451C109.871 17.5472 109.812 17.8996 109.812 18.3024ZM117.287 21.1124C116.767 21.1124 116.319 20.9977 115.942 20.7682C115.567 20.5363 115.278 20.2132 115.074 19.7987C114.873 19.3819 114.772 18.8972 114.772 18.3445C114.772 17.7919 114.873 17.3048 115.074 16.8833C115.278 16.4595 115.561 16.1293 115.924 15.8928C116.29 15.6539 116.716 15.5345 117.203 15.5345C117.484 15.5345 117.761 15.5813 118.035 15.675C118.309 15.7687 118.559 15.9209 118.783 16.1316C119.008 16.34 119.187 16.6164 119.321 16.9606C119.454 17.3048 119.521 17.7287 119.521 18.2321V18.5834H115.362V17.8668H118.678C118.678 17.5624 118.617 17.2908 118.495 17.0519C118.376 16.8131 118.205 16.6245 117.983 16.4864C117.762 16.3482 117.503 16.2791 117.203 16.2791C116.873 16.2791 116.587 16.3611 116.346 16.525C116.107 16.6866 115.923 16.8974 115.794 17.1573C115.666 17.4172 115.601 17.6959 115.601 17.9933V18.471C115.601 18.8784 115.671 19.2238 115.812 19.5072C115.955 19.7882 116.153 20.0024 116.405 20.15C116.658 20.2952 116.952 20.3677 117.287 20.3677C117.505 20.3677 117.702 20.3373 117.877 20.2764C118.055 20.2132 118.209 20.1195 118.337 19.9954C118.466 19.869 118.566 19.7121 118.636 19.5247L119.437 19.7495C119.353 20.0212 119.211 20.26 119.012 20.4661C118.813 20.6698 118.567 20.8291 118.274 20.9438C117.981 21.0562 117.652 21.1124 117.287 21.1124ZM120.782 21V15.6047H121.583V16.4197H121.639C121.738 16.1527 121.915 15.9361 122.173 15.7698C122.431 15.6036 122.721 15.5204 123.044 15.5204C123.105 15.5204 123.181 15.5216 123.272 15.524C123.364 15.5263 123.433 15.5298 123.48 15.5345V16.3775C123.452 16.3705 123.387 16.3599 123.287 16.3459C123.188 16.3295 123.084 16.3213 122.974 16.3213C122.712 16.3213 122.477 16.3763 122.271 16.4864C122.068 16.5941 121.906 16.744 121.787 16.936C121.67 17.1257 121.611 17.3423 121.611 17.5858V21H120.782ZM129.647 15.6047V16.3072H126.738V15.6047H129.647ZM127.61 21V14.8601C127.61 14.551 127.682 14.2934 127.827 14.0873C127.973 13.8813 128.161 13.7267 128.393 13.6237C128.625 13.5206 128.869 13.4691 129.127 13.4691C129.331 13.4691 129.497 13.4855 129.626 13.5183C129.755 13.5511 129.851 13.5815 129.914 13.6096L129.675 14.3262C129.633 14.3121 129.574 14.2946 129.499 14.2735C129.427 14.2524 129.331 14.2419 129.211 14.2419C128.937 14.2419 128.739 14.311 128.618 14.4491C128.498 14.5873 128.439 14.7898 128.439 15.0568V21H127.61ZM132.242 21.1265C131.9 21.1265 131.59 21.0621 131.311 20.9333C131.032 20.8021 130.811 20.6136 130.647 20.3677C130.483 20.1195 130.401 19.8198 130.401 19.4685C130.401 19.1594 130.462 18.9089 130.584 18.7169C130.706 18.5225 130.868 18.3703 131.072 18.2602C131.276 18.1502 131.501 18.0682 131.746 18.0143C131.995 17.9581 132.244 17.9137 132.495 17.8809C132.823 17.8387 133.088 17.8071 133.292 17.786C133.498 17.7626 133.648 17.724 133.742 17.6701C133.838 17.6163 133.886 17.5226 133.886 17.3891V17.361C133.886 17.0144 133.791 16.7451 133.601 16.5531C133.414 16.3611 133.129 16.2651 132.748 16.2651C132.352 16.2651 132.042 16.3517 131.817 16.525C131.592 16.6983 131.434 16.8833 131.343 17.08L130.556 16.799C130.696 16.4712 130.884 16.2159 131.118 16.0333C131.354 15.8483 131.612 15.7195 131.891 15.6469C132.172 15.572 132.448 15.5345 132.719 15.5345C132.893 15.5345 133.092 15.5556 133.317 15.5977C133.544 15.6375 133.763 15.7207 133.973 15.8471C134.187 15.9736 134.363 16.1644 134.504 16.4197C134.644 16.6749 134.715 17.0168 134.715 17.4453V21H133.886V20.2694H133.843C133.787 20.3865 133.694 20.5118 133.562 20.6452C133.431 20.7787 133.257 20.8923 133.039 20.9859C132.821 21.0796 132.556 21.1265 132.242 21.1265ZM132.368 20.3818C132.696 20.3818 132.972 20.3174 133.197 20.1886C133.424 20.0598 133.595 19.8936 133.71 19.6898C133.827 19.4861 133.886 19.2718 133.886 19.047V18.2883C133.851 18.3305 133.773 18.3691 133.654 18.4042C133.537 18.437 133.401 18.4663 133.246 18.492C133.094 18.5155 132.945 18.5365 132.8 18.5553C132.657 18.5717 132.541 18.5857 132.453 18.5974C132.237 18.6255 132.036 18.6712 131.848 18.7344C131.663 18.7953 131.513 18.8878 131.399 19.0119C131.286 19.1337 131.23 19.2999 131.23 19.5107C131.23 19.7987 131.337 20.0165 131.55 20.164C131.765 20.3092 132.038 20.3818 132.368 20.3818ZM140.049 16.8131L139.305 17.0238C139.258 16.8997 139.189 16.7791 139.097 16.662C139.008 16.5426 138.887 16.4442 138.732 16.367C138.578 16.2897 138.38 16.251 138.138 16.251C137.808 16.251 137.533 16.3272 137.313 16.4794C137.095 16.6292 136.986 16.8201 136.986 17.0519C136.986 17.258 137.061 17.4207 137.211 17.5402C137.361 17.6596 137.595 17.7591 137.914 17.8387L138.714 18.0354C139.197 18.1525 139.556 18.3316 139.793 18.5728C140.029 18.8117 140.148 19.1196 140.148 19.4966C140.148 19.8057 140.059 20.0821 139.881 20.3256C139.705 20.5691 139.459 20.7611 139.143 20.9016C138.827 21.0422 138.459 21.1124 138.04 21.1124C137.49 21.1124 137.034 20.993 136.674 20.7541C136.313 20.5153 136.085 20.1664 135.989 19.7074L136.776 19.5107C136.851 19.8011 136.992 20.0188 137.201 20.164C137.411 20.3092 137.686 20.3818 138.026 20.3818C138.412 20.3818 138.719 20.2998 138.946 20.1359C139.176 19.9697 139.291 19.7706 139.291 19.5388C139.291 19.3514 139.225 19.1946 139.094 19.0681C138.963 18.9393 138.761 18.8433 138.49 18.7801L137.59 18.5693C137.096 18.4522 136.733 18.2708 136.502 18.0249C136.272 17.7767 136.157 17.4664 136.157 17.0941C136.157 16.7896 136.243 16.5203 136.414 16.2862C136.587 16.052 136.822 15.8682 137.12 15.7347C137.42 15.6012 137.759 15.5345 138.138 15.5345C138.672 15.5345 139.092 15.6516 139.396 15.8857C139.703 16.1199 139.92 16.429 140.049 16.8131ZM143.742 15.6047V16.3072H140.946V15.6047H143.742ZM141.761 14.3121H142.59V19.4545C142.59 19.6887 142.624 19.8643 142.692 19.9814C142.762 20.0961 142.851 20.1734 142.959 20.2132C143.069 20.2507 143.184 20.2694 143.306 20.2694C143.398 20.2694 143.473 20.2647 143.531 20.2553C143.59 20.2436 143.636 20.2343 143.672 20.2272L143.84 20.9719C143.784 20.993 143.706 21.0141 143.605 21.0351C143.504 21.0585 143.377 21.0703 143.222 21.0703C142.988 21.0703 142.758 21.0199 142.533 20.9192C142.311 20.8185 142.126 20.6651 141.979 20.4591C141.833 20.253 141.761 19.9931 141.761 19.6793V14.3121Z" fill="#1A1A1A"/>
</svg>
