<svg width="24" height="24" viewBox="0 0 24 24" fill="none" xmlns="http://www.w3.org/2000/svg">
<rect width="24" height="24" rx="8" fill="#E7E7EB"/>
<path fill-rule="evenodd" clip-rule="evenodd" d="M9 7.5C7.89543 7.5 7 8.39543 7 9.5V14.5C7 15.6046 7.89543 16.5 9 16.5H15C16.1046 16.5 17 15.6046 17 14.5V9.5C17 8.39543 16.1046 7.5 15 7.5H9ZM9.20801 9.68796C9.03569 9.57308 8.80287 9.61964 8.68798 9.79197C8.5731 9.96429 8.61967 10.1971 8.79199 10.312L10.6826 11.5724C11.4804 12.1042 12.5197 12.1042 13.3174 11.5724L15.208 10.312C15.3803 10.1971 15.4269 9.96429 15.312 9.79197C15.1971 9.61964 14.9643 9.57308 14.792 9.68796L12.9014 10.9484C12.3556 11.3123 11.6445 11.3123 11.0986 10.9484L9.20801 9.68796Z" fill="#28303F"/>
</svg>
