<svg width="24" height="24" viewBox="0 0 24 24" fill="none" xmlns="http://www.w3.org/2000/svg">
<rect width="24" height="24" rx="8" fill="#E7E7EB"/>
<path d="M16.5 15.5V14.677C16.5 14.2681 16.251 13.9004 15.8714 13.7486L14.8543 13.3417C14.3714 13.1486 13.8211 13.3578 13.5885 13.823L13.5 14C13.5 14 12.25 13.75 11.25 12.75C10.25 11.75 10 10.5 10 10.5L10.177 10.4115C10.6422 10.1789 10.8514 9.62857 10.6583 9.14568L10.2514 8.12861C10.0996 7.74895 9.73187 7.5 9.32297 7.5H8.5C7.94772 7.5 7.5 7.94772 7.5 8.5C7.5 12.9183 11.0817 16.5 15.5 16.5C16.0523 16.5 16.5 16.0523 16.5 15.5Z" fill="#28303F"/>
</svg>
