<svg width="28" height="28" viewBox="0 0 28 28" fill="none" xmlns="http://www.w3.org/2000/svg">
<path fill-rule="evenodd" clip-rule="evenodd" d="M5.6665 0.666687C2.90508 0.666687 0.666504 2.90526 0.666504 5.66668V22.3334C0.666504 25.0948 2.90508 27.3334 5.6665 27.3334H22.3332C25.0946 27.3334 27.3332 25.0948 27.3332 22.3334V5.66669C27.3332 2.90526 25.0946 0.666687 22.3332 0.666687H5.6665ZM21.9998 7.33335C22.7362 7.33335 23.3332 6.7364 23.3332 6.00002C23.3332 5.26364 22.7362 4.66669 21.9998 4.66669C21.2635 4.66669 20.6665 5.26364 20.6665 6.00002C20.6665 6.7364 21.2635 7.33335 21.9998 7.33335ZM20.6665 14C20.6665 17.6819 17.6817 20.6667 13.9998 20.6667C10.3179 20.6667 7.33317 17.6819 7.33317 14C7.33317 10.3181 10.3179 7.33335 13.9998 7.33335C17.6817 7.33335 20.6665 10.3181 20.6665 14ZM13.9998 18C16.209 18 17.9998 16.2092 17.9998 14C17.9998 11.7909 16.209 10 13.9998 10C11.7907 10 9.99984 11.7909 9.99984 14C9.99984 16.2092 11.7907 18 13.9998 18Z" fill="white"/>
</svg>
