<svg width="57" height="57" viewBox="0 0 57 57" fill="none" xmlns="http://www.w3.org/2000/svg">
<path fill-rule="evenodd" clip-rule="evenodd" d="M13.6389 4.75C8.72969 4.75 4.75 8.72969 4.75 13.6389V43.3611C4.75 48.2703 8.72969 52.25 13.6389 52.25H43.3611C48.2703 52.25 52.25 48.2703 52.25 43.3611V13.6389C52.25 8.72969 48.2703 4.75 43.3611 4.75H13.6389ZM42.75 16.625C44.0617 16.625 45.125 15.5617 45.125 14.25C45.125 12.9383 44.0617 11.875 42.75 11.875C41.4383 11.875 40.375 12.9383 40.375 14.25C40.375 15.5617 41.4383 16.625 42.75 16.625ZM40.375 28.5C40.375 35.0584 35.0584 40.375 28.5 40.375C21.9416 40.375 16.625 35.0584 16.625 28.5C16.625 21.9416 21.9416 16.625 28.5 16.625C35.0584 16.625 40.375 21.9416 40.375 28.5ZM28.5 35.625C32.435 35.625 35.625 32.435 35.625 28.5C35.625 24.565 32.435 21.375 28.5 21.375C24.565 21.375 21.375 24.565 21.375 28.5C21.375 32.435 24.565 35.625 28.5 35.625Z" fill="white"/>
</svg>
