<svg width="32" height="32" viewBox="0 0 32 32" fill="none" xmlns="http://www.w3.org/2000/svg">
<path fill-rule="evenodd" clip-rule="evenodd" d="M7.66675 2.6665C4.90532 2.6665 2.66675 4.90508 2.66675 7.6665V24.3332C2.66675 27.0946 4.90532 29.3332 7.66674 29.3332H24.3334C27.0948 29.3332 29.3334 27.0946 29.3334 24.3332V7.6665C29.3334 4.90508 27.0948 2.6665 24.3334 2.6665H7.66675ZM24.0001 9.33317C24.7365 9.33317 25.3334 8.73622 25.3334 7.99984C25.3334 7.26346 24.7365 6.6665 24.0001 6.6665C23.2637 6.6665 22.6667 7.26346 22.6667 7.99984C22.6667 8.73622 23.2637 9.33317 24.0001 9.33317ZM22.6667 15.9998C22.6667 19.6817 19.682 22.6665 16.0001 22.6665C12.3182 22.6665 9.33342 19.6817 9.33342 15.9998C9.33342 12.3179 12.3182 9.33317 16.0001 9.33317C19.682 9.33317 22.6667 12.3179 22.6667 15.9998ZM16.0001 19.9998C18.2092 19.9998 20.0001 18.209 20.0001 15.9998C20.0001 13.7907 18.2092 11.9998 16.0001 11.9998C13.7909 11.9998 12.0001 13.7907 12.0001 15.9998C12.0001 18.209 13.7909 19.9998 16.0001 19.9998Z" fill="white"/>
</svg>
