<svg width="32" height="32" viewBox="0 0 32 32" fill="none" xmlns="http://www.w3.org/2000/svg">
<path fill-rule="evenodd" clip-rule="evenodd" d="M8.00008 5.33317C8.00008 6.80593 6.80617 7.99984 5.33341 7.99984C3.86066 7.99984 2.66675 6.80593 2.66675 5.33317C2.66675 3.86041 3.86066 2.6665 5.33341 2.6665C6.80617 2.6665 8.00008 3.86041 8.00008 5.33317ZM8.00008 11.3332V29.3332H2.66675V11.3332H8.00008ZM12.0001 11.3332H17.3334V12.4551C18.1675 12.1602 19.0651 11.9998 20.0001 11.9998C24.4184 11.9998 28.0001 15.5816 28.0001 19.9998V29.3332H22.6667V19.9998C22.6667 18.5271 21.4728 17.3332 20.0001 17.3332C18.5273 17.3332 17.3334 18.5271 17.3334 19.9998V29.3332H12.0001V19.9998V11.3332Z" fill="white"/>
</svg>
