<svg width="32" height="32" viewBox="0 0 32 32" fill="none" xmlns="http://www.w3.org/2000/svg">
<path fill-rule="evenodd" clip-rule="evenodd" d="M16.0001 26.6665C10.109 26.6665 5.33341 21.8909 5.33341 15.9998C5.33341 15.5677 5.35911 15.1416 5.40905 14.723C3.74684 13.5106 2.66675 11.548 2.66675 9.33317C2.66675 5.65127 5.65152 2.6665 9.33341 2.6665C11.5483 2.6665 13.5109 3.7466 14.7232 5.40881C15.1419 5.35886 15.568 5.33317 16.0001 5.33317C21.8911 5.33317 26.6667 10.1088 26.6667 15.9998C26.6667 16.4319 26.6411 16.858 26.5911 17.2767C28.2533 18.489 29.3334 20.4516 29.3334 22.6665C29.3334 26.3484 26.3486 29.3332 22.6667 29.3332C20.4519 29.3332 18.4893 28.2531 17.2769 26.5909C16.8583 26.6408 16.4322 26.6665 16.0001 26.6665ZM15.3334 9.9165C13.4464 9.9165 11.9167 11.4462 11.9167 13.3332C11.9167 15.2201 13.4464 16.7498 15.3334 16.7498H16.6667C17.7253 16.7498 18.5834 17.608 18.5834 18.6665C18.5834 19.725 17.7253 20.5832 16.6667 20.5832H15.3334C14.2749 20.5832 13.4167 19.725 13.4167 18.6665C13.4167 18.2523 13.081 17.9165 12.6667 17.9165C12.2525 17.9165 11.9167 18.2523 11.9167 18.6665C11.9167 20.5535 13.4464 22.0832 15.3334 22.0832H16.6667C18.5537 22.0832 20.0834 20.5535 20.0834 18.6665C20.0834 16.7795 18.5537 15.2498 16.6667 15.2498H15.3334C14.2749 15.2498 13.4167 14.3917 13.4167 13.3332C13.4167 12.2746 14.2749 11.4165 15.3334 11.4165H16.6667C17.7253 11.4165 18.5834 12.2746 18.5834 13.3332C18.5834 13.7474 18.9192 14.0832 19.3334 14.0832C19.7476 14.0832 20.0834 13.7474 20.0834 13.3332C20.0834 11.4462 18.5537 9.9165 16.6667 9.9165H15.3334Z" fill="white"/>
</svg>
