<svg width="366" height="103" viewBox="0 0 366 103" fill="none" xmlns="http://www.w3.org/2000/svg">
    <mask id="mask0_1001_5799" style="mask-type:alpha" maskUnits="userSpaceOnUse" x="0" y="0" width="366" height="103">
        <path d="M0 21C0 9.40202 9.40202 0 21 0H345C356.598 0 366 9.40202 366 21V91C366 97.6274 360.627 103 354 103H12C5.37259 103 0 97.6274 0 91V21Z" fill="#D1E9FF"/>
    </mask>
    <g mask="url(#mask0_1001_5799)">
        <g opacity="0.1">
            <g clip-path="url(#clip0_1001_5799)">
                <path d="M-7.33701 76.4768C-8.91391 75.827 -10.5952 75.4092 -12.3438 75.311C-10.5952 75.4092 -8.91391 75.827 -7.33701 76.4768ZM5.87492 71.5886C4.27721 72.3773 2.86154 73.4414 1.62855 74.679C2.85502 73.4428 4.27069 72.3786 5.87492 71.5886Z" fill="#2E90FA"/>
                <path d="M1.13667 71.5305C0.190996 67.9308 -1.97156 64.6681 -5.27341 62.4606C-7.52608 65.8301 -8.37948 69.7023 -7.97919 73.3931C-6.1358 73.9477 -4.36844 74.7761 -2.76193 75.8957C-1.69306 74.2295 -0.368689 72.7626 1.13667 71.5305ZM-6.67733 76.7297C-6.88654 76.6297 -7.11681 76.5612 -7.33002 76.4756C-7.11681 76.5612 -6.89307 76.6311 -6.67733 76.7297ZM1.62902 74.6791C1.48208 74.8315 1.31177 74.9682 1.17136 75.1193C1.31177 74.9682 1.47555 74.8328 1.62902 74.6791ZM-1.95546 80.0745C-5.59053 76.3513 -10.9344 74.4931 -16.383 75.6063C-15.0414 82.5579 -9.51801 87.5606 -2.99784 88.4852C-2.11233 88.6101 -1.2146 88.6578 -0.303394 88.6348C0.548496 88.3044 1.3604 87.9074 2.13106 87.4373C7.81322 84.0195 11.0598 77.2249 9.71824 70.2734C4.2696 71.3866 0.0212391 75.2047 -1.95546 80.0745Z" fill="#2E90FA"/>
            </g>
            <g clip-path="url(#clip1_1001_5799)">
                <path d="M43.5595 66.0774C41.9826 65.4276 40.3012 65.0098 38.5527 64.9116C40.3012 65.0098 41.9826 65.4276 43.5595 66.0774ZM56.7714 61.1892C55.1737 61.9779 53.758 63.042 52.525 64.2796C53.7515 63.0434 55.1672 61.9792 56.7714 61.1892Z" fill="#2E90FA"/>
                <path d="M52.0332 61.1311C51.0875 57.5314 48.9249 54.2686 45.6231 52.0612C43.3704 55.4307 42.517 59.3029 42.9173 62.9937C44.7607 63.5483 46.528 64.3767 48.1346 65.4963C49.2034 63.8301 50.5278 62.3632 52.0332 61.1311ZM44.2192 66.3303C44.0099 66.2303 43.7797 66.1618 43.5665 66.0762C43.7797 66.1618 44.0034 66.2316 44.2192 66.3303ZM52.5255 64.2797C52.3786 64.4321 52.2083 64.5688 52.0678 64.7199C52.2083 64.5688 52.372 64.4334 52.5255 64.2797ZM48.941 69.6751C45.306 65.9519 39.9621 64.0937 34.5135 65.2069C35.8551 72.1585 41.3785 77.1612 47.8986 78.0858C48.7842 78.2107 49.6819 78.2584 50.5931 78.2354C51.445 77.905 52.2569 77.508 53.0275 77.0378C58.7097 73.6201 61.9563 66.8255 60.6147 59.874C55.1661 60.9872 50.9177 64.8053 48.941 69.6751Z" fill="#2E90FA"/>
            </g>
            <g clip-path="url(#clip2_1001_5799)">
                <path d="M94.4579 55.678C92.881 55.0282 91.1997 54.6104 89.4512 54.5122C91.1997 54.6104 92.881 55.0282 94.4579 55.678ZM107.67 50.7898C106.072 51.5785 104.656 52.6426 103.423 53.8802C104.65 52.6439 106.066 51.5798 107.67 50.7898Z" fill="#2E90FA"/>
                <path d="M102.932 50.7317C101.986 47.132 99.8234 43.8692 96.5215 41.6618C94.2688 45.0313 93.4154 48.9035 93.8157 52.5943C95.6591 53.1489 97.4265 53.9773 99.033 55.0969C100.102 53.4307 101.426 51.9637 102.932 50.7317ZM95.1176 55.9309C94.9084 55.8309 94.6781 55.7624 94.4649 55.6768C94.6781 55.7624 94.9019 55.8322 95.1176 55.9309ZM103.424 53.8803C103.277 54.0327 103.107 54.1694 102.966 54.3205C103.107 54.1694 103.27 54.034 103.424 53.8803ZM99.8395 59.2757C96.2044 55.5525 90.8605 53.6943 85.4119 54.8075C86.7535 61.7591 92.2769 66.7618 98.7971 67.6863C99.6826 67.8113 100.58 67.859 101.492 67.836C102.343 67.5056 103.155 67.1086 103.926 66.6384C109.608 63.2207 112.855 56.4261 111.513 49.4746C106.065 50.5878 101.816 54.4059 99.8395 59.2757Z" fill="#2E90FA"/>
            </g>
            <g clip-path="url(#clip3_1001_5799)">
                <path d="M145.354 45.2786C143.777 44.6288 142.096 44.211 140.348 44.1128C142.096 44.211 143.777 44.6288 145.354 45.2786ZM158.566 40.3904C156.969 41.179 155.553 42.2432 154.32 43.4807C155.546 42.2445 156.962 41.1804 158.566 40.3904Z" fill="#2E90FA"/>
                <path d="M153.828 40.3323C152.882 36.7326 150.72 33.4698 147.418 31.2623C145.165 34.6319 144.312 38.5041 144.712 42.1948C146.556 42.7494 148.323 43.5779 149.929 44.6975C150.998 43.0313 152.323 41.5643 153.828 40.3323ZM146.014 45.5315C145.805 45.4315 145.575 45.363 145.361 45.2774C145.575 45.363 145.798 45.4328 146.014 45.5315ZM154.32 43.4809C154.173 43.6332 154.003 43.77 153.863 43.921C154.003 43.77 154.167 43.6346 154.32 43.4809ZM150.736 48.8763C147.101 45.1531 141.757 43.2948 136.308 44.4081C137.65 51.3596 143.173 56.3624 149.694 57.2869C150.579 57.4119 151.477 57.4596 152.388 57.4365C153.24 57.1061 154.052 56.7091 154.822 56.239C160.505 52.8213 163.751 46.0267 162.41 39.0751C156.961 40.1884 152.713 44.0065 150.736 48.8763Z" fill="#2E90FA"/>
            </g>
            <g clip-path="url(#clip4_1001_5799)">
                <path d="M196.253 34.8797C194.676 34.2298 192.995 33.812 191.246 33.7139C192.995 33.812 194.676 34.2298 196.253 34.8797ZM209.465 29.9915C207.867 30.7801 206.451 31.8443 205.218 33.0818C206.445 31.8456 207.861 30.7815 209.465 29.9915Z" fill="#2E90FA"/>
                <path d="M204.727 29.9334C203.781 26.3336 201.618 23.0709 198.316 20.8634C196.064 24.233 195.21 28.1051 195.611 31.7959C197.454 32.3505 199.221 33.179 200.828 34.2986C201.897 32.6323 203.221 31.1654 204.727 29.9334ZM196.913 35.1325C196.703 35.0326 196.473 34.964 196.26 34.8785C196.473 34.964 196.697 35.0339 196.913 35.1325ZM205.219 33.0819C205.072 33.2343 204.902 33.3711 204.761 33.5221C204.902 33.3711 205.065 33.2357 205.219 33.0819ZM201.634 38.4773C197.999 34.7542 192.655 32.8959 187.207 34.0092C188.548 40.9607 194.072 45.9635 200.592 46.888C201.478 47.013 202.375 47.0607 203.286 47.0376C204.138 46.7072 204.95 46.3102 205.721 45.8401C211.403 42.4224 214.65 35.6278 213.308 28.6762C207.859 29.7895 203.611 33.6076 201.634 38.4773Z" fill="#2E90FA"/>
            </g>
            <g clip-path="url(#clip5_1001_5799)">
                <path d="M247.149 24.4803C245.572 23.8304 243.891 23.4126 242.143 23.3145C243.891 23.4126 245.572 23.8304 247.149 24.4803ZM260.361 19.592C258.764 20.3807 257.348 21.4449 256.115 22.6824C257.341 21.4462 258.757 20.382 260.361 19.592Z" fill="#2E90FA"/>
                <path d="M255.623 19.534C254.677 15.9342 252.515 12.6715 249.213 10.464C246.96 13.8336 246.107 17.7057 246.507 21.3965C248.351 21.9511 250.118 22.7796 251.724 23.8992C252.793 22.2329 254.118 20.766 255.623 19.534ZM247.809 24.7331C247.6 24.6331 247.37 24.5646 247.156 24.479C247.37 24.5646 247.593 24.6345 247.809 24.7331ZM256.115 22.6825C255.968 22.8349 255.798 22.9717 255.658 23.1227C255.798 22.9717 255.962 22.8362 256.115 22.6825ZM252.531 28.0779C248.896 24.3547 243.552 22.4965 238.103 23.6098C239.445 30.5613 244.968 35.564 251.488 36.4886C252.374 36.6136 253.272 36.6612 254.183 36.6382C255.035 36.3078 255.847 35.9108 256.617 35.4407C262.3 32.023 265.546 25.2283 264.205 18.2768C258.756 19.3901 254.508 23.2082 252.531 28.0779Z" fill="#2E90FA"/>
            </g>
            <path d="M298.048 14.0808C296.471 13.431 294.79 13.0132 293.041 12.915C294.79 13.0132 296.471 13.431 298.048 14.0808ZM311.26 9.19263C309.662 9.9813 308.246 11.0454 307.013 12.283C308.24 11.0468 309.655 9.98263 311.26 9.19263Z" fill="#2E90FA"/>
            <path d="M306.521 9.13455C305.576 5.53481 303.413 2.27206 300.111 0.0645892C297.859 3.43414 297.005 7.3063 297.406 10.9971C299.249 11.5517 301.016 12.3801 302.623 13.4997C303.692 11.8335 305.016 10.3666 306.521 9.13455ZM298.707 14.3337C298.498 14.2337 298.268 14.1652 298.055 14.0796C298.268 14.1652 298.492 14.2351 298.707 14.3337ZM307.014 12.2831C306.867 12.4355 306.697 12.5722 306.556 12.7233C306.697 12.5722 306.86 12.4368 307.014 12.2831ZM303.429 17.6785C299.794 13.9553 294.45 12.0971 289.002 13.2104C290.343 20.1619 295.867 25.1646 302.387 26.0892C303.272 26.2141 304.17 26.2618 305.081 26.2388C305.933 25.9084 306.745 25.5114 307.516 25.0413C313.198 21.6235 316.445 14.8289 315.103 7.87739C309.654 8.99064 305.406 12.8087 303.429 17.6785Z" fill="#2E90FA"/>
            <g clip-path="url(#clip6_1001_5799)">
                <path d="M348.944 3.68142C347.367 3.03158 345.686 2.6138 343.938 2.51562C345.686 2.6138 347.367 3.03158 348.944 3.68142ZM362.156 -1.20678C360.558 -0.418119 359.143 0.646033 357.91 1.88358C359.136 0.647367 360.552 -0.416785 362.156 -1.20678Z" fill="#2E90FA"/>
                <path d="M357.418 -1.26487C356.472 -4.86461 354.31 -8.12735 351.008 -10.3348C348.755 -6.96527 347.902 -3.09311 348.302 0.59767C350.145 1.15228 351.913 1.98072 353.519 3.10033C354.588 1.43409 355.913 -0.0328456 357.418 -1.26487ZM349.604 3.93431C349.395 3.83431 349.164 3.7658 348.951 3.68021C349.164 3.7658 349.388 3.83564 349.604 3.93431ZM357.91 1.8837C357.763 2.03608 357.593 2.17284 357.453 2.32388C357.593 2.17284 357.757 2.03741 357.91 1.8837ZM354.326 7.2791C350.691 3.55591 345.347 1.69768 339.898 2.81094C341.24 9.76248 346.763 14.7652 353.283 15.6898C354.169 15.8147 355.067 15.8624 355.978 15.8394C356.83 15.509 357.642 15.112 358.412 14.6418C364.094 11.2241 367.341 4.42952 365.999 -2.52203C360.551 -1.40877 356.302 2.40933 354.326 7.2791Z" fill="#2E90FA"/>
            </g>
            <g clip-path="url(#clip7_1001_5799)">
                <path d="M326.211 111.152C325.265 107.552 323.103 104.289 319.801 102.082C317.548 105.451 316.695 109.323 317.095 113.014C318.938 113.569 320.706 114.397 322.312 115.517C323.381 113.851 324.706 112.384 326.211 111.152ZM318.397 116.351C318.188 116.251 317.957 116.182 317.744 116.097C317.957 116.182 318.181 116.252 318.397 116.351ZM326.703 114.3C326.556 114.453 326.386 114.589 326.246 114.74C326.386 114.589 326.55 114.454 326.703 114.3ZM323.119 119.696C319.484 115.972 314.14 114.114 308.691 115.227C310.033 122.179 315.556 127.182 322.076 128.106C322.962 128.231 323.86 128.279 324.771 128.256C325.623 127.925 326.435 127.528 327.205 127.058C332.887 123.641 336.134 116.846 334.792 109.894C329.344 111.008 325.095 114.826 323.119 119.696Z" fill="#2E90FA"/>
            </g>
            <g clip-path="url(#clip8_1001_5799)">
                <path d="M368.634 105.699C367.057 105.049 365.375 104.631 363.627 104.533C365.375 104.631 367.057 105.049 368.634 105.699ZM381.846 100.81C380.248 101.599 378.832 102.663 377.599 103.901C378.826 102.664 380.241 101.6 381.846 100.81Z" fill="#2E90FA"/>
                <path d="M377.107 100.752C376.162 97.1525 373.999 93.8897 370.697 91.6823C368.445 95.0518 367.591 98.924 367.992 102.615C369.835 103.169 371.602 103.998 373.209 105.117C374.278 103.451 375.602 101.984 377.107 100.752ZM369.293 105.951C369.084 105.851 368.854 105.783 368.641 105.697C368.854 105.783 369.078 105.853 369.293 105.951ZM377.6 103.901C377.453 104.053 377.282 104.19 377.142 104.341C377.282 104.19 377.446 104.055 377.6 103.901ZM374.015 109.296C370.38 105.573 365.036 103.715 359.588 104.828C360.929 111.78 366.453 116.782 372.973 117.707C373.858 117.832 374.756 117.88 375.667 117.856C376.519 117.526 377.331 117.129 378.102 116.659C383.784 113.241 387.031 106.447 385.689 99.4951C380.24 100.608 375.992 104.426 374.015 109.296Z" fill="#2E90FA"/>
            </g>
            <g clip-path="url(#clip9_1001_5799)">
                <path d="M8.47158 21.2727C6.89469 20.6229 5.21336 20.2051 3.46484 20.1069C5.21336 20.2051 6.89469 20.6229 8.47158 21.2727ZM21.6835 16.3845C20.0858 17.1732 18.6701 18.2373 17.4371 19.4749C18.6636 18.2387 20.0793 17.1745 21.6835 16.3845Z" fill="#2E90FA"/>
                <path d="M16.9453 16.3264C15.9996 12.7267 13.837 9.46396 10.5352 7.25648C8.28252 10.626 7.42912 14.4982 7.82941 18.189C9.67279 18.7436 11.4402 19.572 13.0467 20.6916C14.1155 19.0254 15.4399 17.5585 16.9453 16.3264ZM9.13126 21.5256C8.92205 21.4256 8.69179 21.3571 8.47857 21.2715C8.69179 21.3571 8.91553 21.427 9.13126 21.5256ZM17.4376 19.475C17.2907 19.6274 17.1204 19.7641 16.98 19.9152C17.1204 19.7641 17.2841 19.6287 17.4376 19.475ZM13.8531 24.8704C10.2181 21.1472 4.87422 19.289 -0.57442 20.4022C0.767172 27.3538 6.29058 32.3565 12.8108 33.2811C13.6963 33.406 14.594 33.4537 15.5052 33.4307C16.3571 33.1003 17.169 32.7033 17.9397 32.2331C23.6218 28.8154 26.8684 22.0208 25.5268 15.0693C20.0782 16.1825 15.8298 20.0006 13.8531 24.8704Z" fill="#2E90FA"/>
            </g>
            <g clip-path="url(#clip10_1001_5799)">
                <path d="M59.3681 10.8733C57.7912 10.2235 56.1098 9.80569 54.3613 9.70752C56.1098 9.80569 57.7912 10.2235 59.3681 10.8733ZM72.58 5.98511C70.9823 6.77378 69.5666 7.83793 68.3336 9.07548C69.5601 7.83926 70.9758 6.77511 72.58 5.98511Z" fill="#2E90FA"/>
                <path d="M67.8418 5.92703C66.8961 2.32729 64.7335 -0.935455 61.4317 -3.14293C59.179 0.226625 58.3256 4.09879 58.7259 7.78956C60.5693 8.34417 62.3366 9.17262 63.9432 10.2922C65.012 8.62599 66.3364 7.15905 67.8418 5.92703ZM60.0277 11.1262C59.8185 11.0262 59.5883 10.9577 59.3751 10.8721C59.5883 10.9577 59.812 11.0275 60.0277 11.1262ZM68.3341 9.0756C68.1872 9.22797 68.0169 9.36473 67.8764 9.51577C68.0169 9.36473 68.1806 9.22931 68.3341 9.0756ZM64.7496 14.471C61.1145 10.7478 55.7707 8.88958 50.3221 10.0028C51.6637 16.9544 57.1871 21.9571 63.7072 22.8817C64.5928 23.0066 65.4905 23.0543 66.4017 23.0313C67.2536 22.7009 68.0655 22.3039 68.8361 21.8337C74.5183 18.416 77.7649 11.6214 76.4233 4.66987C70.9747 5.78312 66.7263 9.60122 64.7496 14.471Z" fill="#2E90FA"/>
            </g>
            <g clip-path="url(#clip11_1001_5799)">
                <path d="M110.267 0.473904C108.69 -0.175937 107.008 -0.593721 105.26 -0.691895C107.008 -0.593721 108.69 -0.175937 110.267 0.473904ZM123.478 -4.4143C121.881 -3.62564 120.465 -2.56149 119.232 -1.32394C120.459 -2.56015 121.874 -3.6243 123.478 -4.4143Z" fill="#2E90FA"/>
                <path d="M118.74 -4.47239C117.795 -8.07213 115.632 -11.3349 112.33 -13.5423C110.077 -10.1728 109.224 -6.30063 109.624 -2.60985C111.468 -2.05524 113.235 -1.2268 114.842 -0.107187C115.91 -1.77343 117.235 -3.24037 118.74 -4.47239ZM110.926 0.726788C110.717 0.626789 110.487 0.558279 110.273 0.472692C110.487 0.558279 110.71 0.628122 110.926 0.726788ZM119.233 -1.32382C119.086 -1.17144 118.915 -1.03468 118.775 -0.883641C118.915 -1.03468 119.079 -1.17011 119.233 -1.32382ZM115.648 4.07159C112.013 0.348393 106.669 -1.50984 101.221 -0.396582C102.562 6.55496 108.086 11.5577 114.606 12.4822C115.491 12.6072 116.389 12.6549 117.3 12.6319C118.152 12.3015 118.964 11.9045 119.735 11.4343C125.417 8.01661 128.663 1.222 127.322 -5.72955C121.873 -4.61629 117.625 -0.798194 115.648 4.07159Z" fill="#2E90FA"/>
            </g>
            <g clip-path="url(#clip12_1001_5799)">
                <path d="M169.637 -14.8718C168.691 -18.4715 166.528 -21.7343 163.227 -23.9418C160.974 -20.5722 160.121 -16.7 160.521 -13.0093C162.364 -12.4547 164.132 -11.6262 165.738 -10.5066C166.807 -12.1728 168.131 -13.6398 169.637 -14.8718ZM161.823 -9.67263C161.613 -9.77263 161.383 -9.84113 161.17 -9.92672C161.383 -9.84113 161.607 -9.77129 161.823 -9.67263ZM170.129 -11.7232C169.982 -11.5709 169.812 -11.4341 169.671 -11.2831C169.812 -11.4341 169.976 -11.5695 170.129 -11.7232ZM166.545 -6.32783C162.909 -10.051 157.566 -11.9093 152.117 -10.796C153.459 -3.84445 158.982 1.15828 165.502 2.08283C166.388 2.20779 167.285 2.25548 168.197 2.23244C169.048 1.90205 169.86 1.50505 170.631 1.03491C176.313 -2.3828 179.56 -9.17742 178.218 -16.129C172.77 -15.0157 168.521 -11.1976 166.545 -6.32783Z" fill="#2E90FA"/>
            </g>
            <g clip-path="url(#clip13_1001_5799)">
                <path d="M87.5293 107.944C86.5836 104.344 84.421 101.082 81.1192 98.8742C78.8665 102.244 78.0131 106.116 78.4134 109.807C80.2568 110.361 82.0241 111.19 83.6307 112.309C84.6995 110.643 86.0239 109.176 87.5293 107.944ZM79.7152 113.143C79.506 113.043 79.2758 112.975 79.0626 112.889C79.2758 112.975 79.4995 113.045 79.7152 113.143ZM88.0216 111.093C87.8747 111.245 87.7044 111.382 87.5639 111.533C87.7044 111.382 87.8681 111.246 88.0216 111.093ZM84.4371 116.488C80.802 112.765 75.4582 110.907 70.0096 112.02C71.3512 118.971 76.8746 123.974 83.3947 124.899C84.2803 125.024 85.178 125.071 86.0892 125.048C86.9411 124.718 87.753 124.321 88.5236 123.851C94.2058 120.433 97.4524 113.638 96.1108 106.687C90.6622 107.8 86.4138 111.618 84.4371 116.488Z" fill="#2E90FA"/>
            </g>
            <g clip-path="url(#clip14_1001_5799)">
                <path d="M129.954 102.491C128.377 101.841 126.696 101.423 124.947 101.325C126.696 101.423 128.377 101.841 129.954 102.491ZM143.166 97.6028C141.568 98.3915 140.153 99.4556 138.92 100.693C140.146 99.4569 141.562 98.3928 143.166 97.6028Z" fill="#2E90FA"/>
                <path d="M138.428 97.5447C137.482 93.945 135.319 90.6822 132.018 88.4747C129.765 91.8443 128.912 95.7165 129.312 99.4072C131.155 99.9618 132.923 100.79 134.529 101.91C135.598 100.244 136.922 98.7767 138.428 97.5447ZM130.614 102.744C130.404 102.644 130.174 102.575 129.961 102.49C130.174 102.575 130.398 102.645 130.614 102.744ZM138.92 100.693C138.773 100.846 138.603 100.982 138.462 101.133C138.603 100.982 138.767 100.847 138.92 100.693ZM135.336 106.089C131.7 102.365 126.357 100.507 120.908 101.621C122.25 108.572 127.773 113.575 134.293 114.499C135.179 114.624 136.076 114.672 136.988 114.649C137.84 114.319 138.651 113.922 139.422 113.451C145.104 110.034 148.351 103.239 147.009 96.2875C141.561 97.4008 137.312 101.219 135.336 106.089Z" fill="#2E90FA"/>
            </g>
            <g clip-path="url(#clip15_1001_5799)">
                <path d="M180.85 92.0916C179.274 91.4417 177.592 91.024 175.844 90.9258C177.592 91.024 179.274 91.4417 180.85 92.0916ZM194.062 87.2034C192.465 87.992 191.049 89.0562 189.816 90.2937C191.043 89.0575 192.458 87.9934 194.062 87.2034Z" fill="#2E90FA"/>
                <path d="M189.324 87.1453C188.378 83.5455 186.216 80.2828 182.914 78.0753C180.661 81.4449 179.808 85.317 180.208 89.0078C182.052 89.5624 183.819 90.3909 185.426 91.5105C186.494 89.8442 187.819 88.3773 189.324 87.1453ZM181.51 92.3445C181.301 92.2445 181.071 92.176 180.857 92.0904C181.071 92.176 181.294 92.2458 181.51 92.3445ZM189.817 90.2939C189.67 90.4462 189.499 90.583 189.359 90.734C189.499 90.583 189.663 90.4476 189.817 90.2939ZM186.232 95.6893C182.597 91.9661 177.253 90.1078 171.804 91.2211C173.146 98.1726 178.669 103.175 185.19 104.1C186.075 104.225 186.973 104.273 187.884 104.25C188.736 103.919 189.548 103.522 190.319 103.052C196.001 99.6343 199.247 92.8397 197.906 85.8881C192.457 87.0014 188.209 90.8195 186.232 95.6893Z" fill="#2E90FA"/>
            </g>
            <g clip-path="url(#clip16_1001_5799)">
                <path d="M231.749 81.6927C230.172 81.0428 228.491 80.625 226.742 80.5269C228.491 80.625 230.172 81.0428 231.749 81.6927ZM244.961 76.8044C243.363 77.5931 241.947 78.6573 240.714 79.8948C241.941 78.6586 243.357 77.5944 244.961 76.8044Z" fill="#2E90FA"/>
                <path d="M240.223 76.7464C239.277 73.1466 237.114 69.8839 233.813 67.6764C231.56 71.046 230.706 74.9181 231.107 78.6089C232.95 79.1635 234.717 79.992 236.324 81.1116C237.393 79.4453 238.717 77.9784 240.223 76.7464ZM232.409 81.9455C232.199 81.8455 231.969 81.777 231.756 81.6914C231.969 81.777 232.193 81.8469 232.409 81.9455ZM240.715 79.8949C240.568 80.0473 240.398 80.1841 240.257 80.3351C240.398 80.1841 240.561 80.0486 240.715 79.8949ZM237.13 85.2903C233.495 81.5671 228.152 79.7089 222.703 80.8222C224.045 87.7737 229.568 92.7764 236.088 93.701C236.974 93.826 237.871 93.8736 238.783 93.8506C239.634 93.5202 240.446 93.1232 241.217 92.6531C246.899 89.2354 250.146 82.4407 248.804 75.4892C243.356 76.6025 239.107 80.4206 237.13 85.2903Z" fill="#2E90FA"/>
            </g>
            <g clip-path="url(#clip17_1001_5799)">
                <path d="M282.645 71.2932C281.069 70.6434 279.387 70.2256 277.639 70.1274C279.387 70.2256 281.069 70.6434 282.645 71.2932ZM295.857 66.405C294.26 67.1937 292.844 68.2578 291.611 69.4954C292.837 68.2592 294.253 67.195 295.857 66.405Z" fill="#2E90FA"/>
                <path d="M291.119 66.3469C290.173 62.7472 288.011 59.4845 284.709 57.277C282.456 60.6465 281.603 64.5187 282.003 68.2095C283.847 68.7641 285.614 69.5925 287.22 70.7121C288.289 69.0459 289.614 67.579 291.119 66.3469ZM283.305 71.5461C283.096 71.4461 282.866 71.3776 282.652 71.292C282.866 71.3776 283.089 71.4475 283.305 71.5461ZM291.611 69.4955C291.464 69.6479 291.294 69.7847 291.154 69.9357C291.294 69.7847 291.458 69.6492 291.611 69.4955ZM288.027 74.8909C284.392 71.1677 279.048 69.3095 273.599 70.4228C274.941 77.3743 280.464 82.377 286.985 83.3016C287.87 83.4265 288.768 83.4742 289.679 83.4512C290.531 83.1208 291.343 82.7238 292.113 82.2537C297.796 78.8359 301.042 72.0413 299.701 65.0898C294.252 66.203 290.004 70.0211 288.027 74.8909Z" fill="#2E90FA"/>
            </g>
            <g clip-path="url(#clip18_1001_5799)">
                <path d="M333.544 60.8938C331.967 60.244 330.286 59.8262 328.537 59.728C330.286 59.8262 331.967 60.244 333.544 60.8938ZM346.756 56.0056C345.158 56.7943 343.742 57.8584 342.509 59.096C343.736 57.8598 345.152 56.7956 346.756 56.0056Z" fill="#2E90FA"/>
                <path d="M342.018 55.9475C341.072 52.3478 338.909 49.0851 335.607 46.8776C333.355 50.2471 332.501 54.1193 332.902 57.8101C334.745 58.3647 336.512 59.1931 338.119 60.3127C339.188 58.6465 340.512 57.1796 342.018 55.9475ZM334.204 61.1467C333.994 61.0467 333.764 60.9782 333.551 60.8926C333.764 60.9782 333.988 61.048 334.204 61.1467ZM342.51 59.0961C342.363 59.2485 342.193 59.3852 342.052 59.5363C342.193 59.3852 342.356 59.2498 342.51 59.0961ZM338.925 64.4915C335.29 60.7683 329.946 58.9101 324.498 60.0233C325.839 66.9749 331.363 71.9776 337.883 72.9022C338.769 73.0271 339.666 73.0748 340.577 73.0518C341.429 72.7214 342.241 72.3244 343.012 71.8542C348.694 68.4365 351.941 61.6419 350.599 54.6904C345.15 55.8036 340.902 59.6217 338.925 64.4915Z" fill="#2E90FA"/>
            </g>
        </g>
    </g>
    <defs>
        <clipPath id="clip0_1001_5799">
            <rect width="32" height="32" fill="white" transform="matrix(0.978797 -0.199986 0.189312 0.980933 -21.5176 63.0605)"/>
        </clipPath>
        <clipPath id="clip1_1001_5799">
            <rect width="32" height="32" fill="white" transform="matrix(0.978797 -0.199986 0.189312 0.980933 29.3789 52.6611)"/>
        </clipPath>
        <clipPath id="clip2_1001_5799">
            <rect width="32" height="32" fill="white" transform="matrix(0.978797 -0.199986 0.189312 0.980933 80.2773 42.2617)"/>
        </clipPath>
        <clipPath id="clip3_1001_5799">
            <rect width="32" height="32" fill="white" transform="matrix(0.978797 -0.199986 0.189312 0.980933 131.174 31.8623)"/>
        </clipPath>
        <clipPath id="clip4_1001_5799">
            <rect width="32" height="32" fill="white" transform="matrix(0.978797 -0.199986 0.189312 0.980933 182.072 21.4634)"/>
        </clipPath>
        <clipPath id="clip5_1001_5799">
            <rect width="32" height="32" fill="white" transform="matrix(0.978797 -0.199986 0.189312 0.980933 232.969 11.064)"/>
        </clipPath>
        <clipPath id="clip6_1001_5799">
            <rect width="32" height="32" fill="white" transform="matrix(0.978797 -0.199986 0.189312 0.980933 334.764 -9.73486)"/>
        </clipPath>
        <clipPath id="clip7_1001_5799">
            <rect width="32" height="32" fill="white" transform="matrix(0.978797 -0.199986 0.189312 0.980933 303.557 102.682)"/>
        </clipPath>
        <clipPath id="clip8_1001_5799">
            <rect width="32" height="32" fill="white" transform="matrix(0.978797 -0.199986 0.189312 0.980933 354.453 92.2822)"/>
        </clipPath>
        <clipPath id="clip9_1001_5799">
            <rect width="32" height="32" fill="white" transform="matrix(0.978797 -0.199986 0.189312 0.980933 -5.70898 7.85645)"/>
        </clipPath>
        <clipPath id="clip10_1001_5799">
            <rect width="32" height="32" fill="white" transform="matrix(0.978797 -0.199986 0.189312 0.980933 45.1875 -2.54297)"/>
        </clipPath>
        <clipPath id="clip11_1001_5799">
            <rect width="32" height="32" fill="white" transform="matrix(0.978797 -0.199986 0.189312 0.980933 96.0859 -12.9424)"/>
        </clipPath>
        <clipPath id="clip12_1001_5799">
            <rect width="32" height="32" fill="white" transform="matrix(0.978797 -0.199986 0.189312 0.980933 146.982 -23.3418)"/>
        </clipPath>
        <clipPath id="clip13_1001_5799">
            <rect width="32" height="32" fill="white" transform="matrix(0.978797 -0.199986 0.189312 0.980933 64.875 99.4741)"/>
        </clipPath>
        <clipPath id="clip14_1001_5799">
            <rect width="32" height="32" fill="white" transform="matrix(0.978797 -0.199986 0.189312 0.980933 115.773 89.0747)"/>
        </clipPath>
        <clipPath id="clip15_1001_5799">
            <rect width="32" height="32" fill="white" transform="matrix(0.978797 -0.199986 0.189312 0.980933 166.67 78.6753)"/>
        </clipPath>
        <clipPath id="clip16_1001_5799">
            <rect width="32" height="32" fill="white" transform="matrix(0.978797 -0.199986 0.189312 0.980933 217.568 68.2764)"/>
        </clipPath>
        <clipPath id="clip17_1001_5799">
            <rect width="32" height="32" fill="white" transform="matrix(0.978797 -0.199986 0.189312 0.980933 268.465 57.877)"/>
        </clipPath>
        <clipPath id="clip18_1001_5799">
            <rect width="32" height="32" fill="white" transform="matrix(0.978797 -0.199986 0.189312 0.980933 319.363 47.4775)"/>
        </clipPath>
    </defs>
</svg>
