<?xml version="1.0" encoding="utf-8"?>
<!-- Generator: Adobe Illustrator 24.2.0, SVG Export Plug-In . SVG Version: 6.00 Build 0)  -->
<svg version="1.1" id="Слой_1" xmlns="http://www.w3.org/2000/svg" xmlns:xlink="http://www.w3.org/1999/xlink" x="0px" y="0px"
	 viewBox="0 0 1000 304" style="enable-background:new 0 0 1000 304;" xml:space="preserve">
<style type="text/css">
	.st0{fill:#1D2939;}
</style>
<g>
	<path class="st0" d="M12.61,278.68c1.97,0,3.94-1.97,5.91-5.91c1.96-3.94,2.95-10.41,2.95-19.41V50.8c0-9-0.99-15.4-2.95-19.2
		c-1.97-3.8-3.94-5.84-5.91-6.11h99.59c-1.69,0.27-2.47,2.46-2.32,6.54c0.14,4.09,2.46,10.62,6.96,19.62
		c1.97,3.66,4.85,9.43,8.65,17.31c3.79,7.88,8.16,17.02,13.08,27.43c4.92,10.41,10.13,21.52,15.61,33.33
		c5.49,11.81,11.04,23.63,16.67,35.45c5.63,11.81,10.83,22.93,15.61,33.33h0.42c5.07-10.41,10.48-21.45,16.25-33.13
		c5.76-11.68,11.46-23.42,17.09-35.24c5.62-11.81,10.97-23,16.03-33.55c5.07-10.54,9.42-19.83,13.08-27.85
		c3.65-8.01,6.33-13.99,8.02-17.94c3.93-9,6.04-15.47,6.33-19.4c0.27-3.94-0.29-5.91-1.69-5.91h99.59c-1.97,0-3.94,1.97-5.91,5.91
		s-2.95,10.54-2.95,19.83v202.14c0,9.01,0.98,15.48,2.95,19.41c1.97,3.94,3.94,5.91,5.91,5.91h-81.44c1.96,0,3.86-1.97,5.7-5.91
		c1.83-3.94,2.75-10.41,2.75-19.41V116.63h-0.85c-4.5,8.45-9.28,17.73-14.35,27.85c-5.06,10.13-10.2,20.4-15.4,30.81
		c-5.21,10.42-10.2,20.55-14.98,30.39c-4.79,9.84-9.15,18.84-13.08,27c-3.94,8.16-7.17,15.05-9.7,20.67
		c-3.94,8.72-5.98,15.05-6.12,18.99c-0.15,3.94,0.49,6.06,1.89,6.33h-59.08c1.41-0.27,2.04-2.39,1.9-6.33
		c-0.14-3.94-2.18-10.27-6.12-18.99c-2.26-5.06-5.28-11.66-9.07-19.83c-3.8-8.16-8.02-17.09-12.66-26.8s-9.5-19.84-14.56-30.39
		c-5.06-10.54-10.06-20.95-14.98-31.22c-4.92-10.27-9.5-19.77-13.71-28.49h-1.26v136.73c0,9.01,0.98,15.48,2.95,19.41
		c1.96,3.94,3.94,5.91,5.91,5.91H12.61z"/>
	<path class="st0" d="M403.8,278.68c1.97,0,3.94-1.97,5.91-5.91c1.96-3.94,2.95-10.41,2.95-19.41V50.8c0-9-0.99-15.4-2.95-19.2
		c-1.97-3.8-3.94-5.84-5.91-6.11h132.51c24.76,0,45.58,2.39,62.46,7.17c16.88,4.79,30.45,11.4,40.72,19.84
		c10.27,8.44,18.08,18.08,23.42,28.9c5.35,10.83,8.93,22.3,10.76,34.39c1.83,12.1,2.75,24.35,2.75,36.72
		c0,11.25-0.92,22.86-2.75,34.81c-1.83,11.96-5.48,23.35-10.97,34.18c-5.49,10.83-13.37,20.54-23.63,29.12
		c-10.27,8.57-23.78,15.4-40.51,20.46c-16.74,5.07-37.49,7.6-62.25,7.6H403.8z M494.53,231.84h17.3c24.19,0,43.6-2.04,58.23-6.11
		c14.62-4.08,25.32-11.61,32.08-22.59c6.75-10.97,10.13-26.86,10.13-47.68v-7.6c0-21.94-3.1-38.19-9.28-48.74
		c-6.19-10.54-16.6-17.5-31.23-20.88c-14.63-3.38-34.61-5.07-59.92-5.07h-17.3c-8.16,0-13.02,0.49-14.56,1.48
		c-1.55,1-2.32,4.43-2.32,10.34v134.2c0,6.19,0.77,9.86,2.32,10.98C481.52,231.28,486.37,231.84,494.53,231.84z"/>
	<path class="st0" d="M714.39,278.68c1.97,0,3.94-1.97,5.91-5.91c1.96-3.94,2.95-10.41,2.95-19.41V50.8c0-9-0.99-15.4-2.95-19.2
		c-1.97-3.8-3.94-5.84-5.91-6.11h82.71c-1.97,0-2.47,1.97-1.48,5.91c0.98,3.94,5.55,10.69,13.71,20.25
		c2.25,2.26,5.98,6.4,11.18,12.45c5.2,6.04,11.46,13.29,18.78,21.73c7.31,8.44,15.12,17.58,23.42,27.43
		c8.29,9.86,16.74,19.7,25.32,29.55c8.58,9.84,16.67,19.27,24.27,28.28h0.84V50.8c0-9-0.99-15.4-2.95-19.2
		c-1.97-3.8-3.94-5.84-5.91-6.11H987c-1.97,0-3.94,1.97-5.91,5.91c-1.97,3.94-2.95,10.54-2.95,19.83v202.14
		c0,9.01,0.98,15.48,2.95,19.41c1.97,3.94,3.94,5.91,5.91,5.91h-72.59c1.69,0,1.9-1.97,0.64-5.91c-1.26-3.94-5.7-10.69-13.29-20.26
		c-3.94-5.06-9.15-11.6-15.61-19.62c-6.48-8.01-13.71-16.94-21.73-26.8c-8.02-9.84-16.39-20.1-25.11-30.81
		c-8.72-10.68-17.38-21.17-25.95-31.43c-8.59-10.27-16.53-19.76-23.84-28.48h-1.26v137.99c0,9.01,0.98,15.48,2.95,19.41
		c1.96,3.94,3.94,5.91,5.91,5.91H714.39z"/>
</g>
</svg>
